<svg width="162" height="164" viewBox="0 0 162 164" fill="none" xmlns="http://www.w3.org/2000/svg">
<g clip-path="url(#clip0_298_484)">
<rect width="162" height="164" rx="10" fill="black"/>
<path d="M83.1359 20.9816C82.4668 20.6663 81.7376 20.5029 80.9996 20.5029C80.2615 20.5029 79.5323 20.6663 78.8632 20.9816L2.92568 56.8566C2.03147 57.2792 1.27874 57.9571 0.76006 58.807C0.241384 59.6568 -0.0206183 60.6417 0.00627548 61.6403C0.0331692 62.639 0.347786 63.6079 0.911433 64.4279C1.47508 65.2479 2.26318 65.8833 3.17881 66.2559L79.1163 97.0059C80.3251 97.4963 81.674 97.4963 82.8828 97.0059L141.75 73.1849V133.25C139.064 133.25 136.489 134.33 134.59 136.252C132.691 138.174 131.625 140.781 131.625 143.5V164H162V143.5C162 140.781 160.933 138.174 159.034 136.252C157.135 134.33 154.56 133.25 151.875 133.25V69.0746L158.82 66.2559C159.736 65.8833 160.524 65.2479 161.088 64.4279C161.651 63.6079 161.966 62.639 161.993 61.6403C162.02 60.6417 161.758 59.6568 161.239 58.807C160.72 57.9571 159.968 57.2792 159.073 56.8566L83.1359 20.9816Z" fill="#D3D3D3"/>
<path d="M42.2819 92.578C41.63 92.3294 40.9345 92.2197 40.2388 92.2557C39.5431 92.2917 38.8622 92.4727 38.2387 92.7873C37.6153 93.1019 37.0627 93.5434 36.6155 94.0841C36.1683 94.6248 35.8362 95.2532 35.6399 95.9298L30.5774 113.355C30.2228 114.578 30.3313 115.891 30.8817 117.038C31.4321 118.185 32.385 119.082 33.5542 119.556L79.1167 138.006C80.3254 138.496 81.6744 138.496 82.8832 138.006L128.446 119.556C129.615 119.082 130.568 118.185 131.118 117.038C131.669 115.891 131.777 114.578 131.422 113.355L126.36 95.9298C126.164 95.2532 125.831 94.6248 125.384 94.0841C124.937 93.5434 124.385 93.1019 123.761 92.7873C123.138 92.4727 122.457 92.2917 121.761 92.2557C121.065 92.2197 120.37 92.3294 119.718 92.578L80.9999 107.277L42.2819 92.578Z" fill="#D3D3D3"/>
<path d="M93.4688 60.5C93.4688 63.7738 92.1024 66.9134 89.6703 69.2283C87.2382 71.5433 83.9395 72.8438 80.5 72.8438C77.0605 72.8438 73.7618 71.5433 71.3297 69.2283C68.8976 66.9134 67.5312 63.7738 67.5312 60.5C67.5312 57.2262 68.8976 54.0866 71.3297 51.7717C73.7618 49.4567 77.0605 48.1562 80.5 48.1562C83.9395 48.1562 87.2382 49.4567 89.6703 51.7717C92.1024 54.0866 93.4688 57.2262 93.4688 60.5Z" fill="black"/>
<path d="M39 60.5C39 60.5 54.5625 33.3438 80.5 33.3438C106.438 33.3438 122 60.5 122 60.5C122 60.5 106.438 87.6562 80.5 87.6562C54.5625 87.6562 39 60.5 39 60.5ZM80.5 77.7812C85.3153 77.7812 89.9334 75.9606 93.3384 72.7197C96.7434 69.4788 98.6562 65.0833 98.6562 60.5C98.6562 55.9167 96.7434 51.5212 93.3384 48.2803C89.9334 45.0394 85.3153 43.2188 80.5 43.2188C75.6847 43.2188 71.0666 45.0394 67.6616 48.2803C64.2566 51.5212 62.3438 55.9167 62.3438 60.5C62.3438 65.0833 64.2566 69.4788 67.6616 72.7197C71.0666 75.9606 75.6847 77.7812 80.5 77.7812Z" fill="black"/>
</g>
<defs>
<clipPath id="clip0_298_484">
<rect width="162" height="164" rx="10" fill="white"/>
</clipPath>
</defs>
</svg>
