<svg width="1232" height="210" viewBox="0 0 1232 210" fill="none" xmlns="http://www.w3.org/2000/svg">
<g clip-path="url(#clip0_257_483)">
<g clip-path="url(#clip1_257_483)">
<rect x="22" y="23" width="162" height="164" rx="10" fill="black"/>
<path d="M105.136 43.9816C104.467 43.6663 103.738 43.5029 103 43.5029C102.261 43.5029 101.532 43.6663 100.863 43.9816L24.9257 79.8566C24.0315 80.2792 23.2787 80.9571 22.7601 81.807C22.2414 82.6568 21.9794 83.6417 22.0063 84.6403C22.0332 85.639 22.3478 86.6079 22.9114 87.4279C23.4751 88.2479 24.2632 88.8833 25.1788 89.2559L101.116 120.006C102.325 120.496 103.674 120.496 104.883 120.006L163.75 96.1849V156.25C161.064 156.25 158.489 157.33 156.59 159.252C154.691 161.174 153.625 163.781 153.625 166.5V187H184V166.5C184 163.781 182.933 161.174 181.034 159.252C179.135 157.33 176.56 156.25 173.875 156.25V92.0746L180.82 89.2559C181.736 88.8833 182.524 88.2479 183.088 87.4279C183.651 86.6079 183.966 85.639 183.993 84.6403C184.02 83.6417 183.758 82.6568 183.239 81.807C182.72 80.9571 181.968 80.2792 181.073 79.8566L105.136 43.9816Z" fill="#D3D3D3"/>
<path d="M64.2819 115.578C63.63 115.329 62.9345 115.22 62.2388 115.256C61.5431 115.292 60.8622 115.473 60.2387 115.787C59.6153 116.102 59.0627 116.543 58.6155 117.084C58.1683 117.625 57.8362 118.253 57.6399 118.93L52.5774 136.355C52.2228 137.578 52.3313 138.891 52.8817 140.038C53.4321 141.185 54.385 142.082 55.5542 142.556L101.117 161.006C102.325 161.496 103.674 161.496 104.883 161.006L150.446 142.556C151.615 142.082 152.568 141.185 153.118 140.038C153.669 138.891 153.777 137.578 153.422 136.355L148.36 118.93C148.164 118.253 147.831 117.625 147.384 117.084C146.937 116.543 146.385 116.102 145.761 115.787C145.138 115.473 144.457 115.292 143.761 115.256C143.065 115.22 142.37 115.329 141.718 115.578L103 130.277L64.2819 115.578Z" fill="#D3D3D3"/>
<path d="M115.469 83.5C115.469 86.7738 114.102 89.9134 111.67 92.2283C109.238 94.5433 105.94 95.8438 102.5 95.8438C99.0605 95.8438 95.7618 94.5433 93.3297 92.2283C90.8976 89.9134 89.5312 86.7738 89.5312 83.5C89.5312 80.2262 90.8976 77.0866 93.3297 74.7717C95.7618 72.4567 99.0605 71.1562 102.5 71.1562C105.94 71.1562 109.238 72.4567 111.67 74.7717C114.102 77.0866 115.469 80.2262 115.469 83.5Z" fill="black"/>
<path d="M61 83.5C61 83.5 76.5625 56.3438 102.5 56.3438C128.438 56.3438 144 83.5 144 83.5C144 83.5 128.438 110.656 102.5 110.656C76.5625 110.656 61 83.5 61 83.5ZM102.5 100.781C107.315 100.781 111.933 98.9606 115.338 95.7197C118.743 92.4788 120.656 88.0833 120.656 83.5C120.656 78.9167 118.743 74.5212 115.338 71.2803C111.933 68.0394 107.315 66.2188 102.5 66.2188C97.6847 66.2188 93.0666 68.0394 89.6616 71.2803C86.2566 74.5212 84.3438 78.9167 84.3438 83.5C84.3438 88.0833 86.2566 92.4788 89.6616 95.7197C93.0666 98.9606 97.6847 100.781 102.5 100.781Z" fill="black"/>
</g>
<g filter="url(#filter0_d_257_483)">
<path d="M252.457 146H219.433V139.344L230.185 136.912V63.824L219.433 61.264V54.608H252.457V61.264L241.705 63.824V136.912L252.457 139.344V146ZM301.592 76.112C309.784 76.112 315.97 78.1173 320.152 82.128C324.333 86.0533 326.424 92.4533 326.424 101.328V146H315.288V102.096C315.288 96.5493 314.05 92.4107 311.576 89.68C309.101 86.9493 305.218 85.584 299.928 85.584C292.333 85.584 287.085 87.7173 284.184 91.984C281.282 96.2507 279.832 102.395 279.832 110.416V146H268.568V77.392H277.656L279.32 86.736H279.96C281.496 84.3467 283.373 82.384 285.592 80.848C287.896 79.2267 290.413 78.032 293.144 77.264C295.874 76.496 298.69 76.112 301.592 76.112ZM392.365 127.056C392.365 131.493 391.255 135.205 389.037 138.192C386.818 141.179 383.661 143.44 379.565 144.976C375.469 146.512 370.605 147.28 364.973 147.28C360.194 147.28 356.055 146.896 352.557 146.128C349.143 145.36 346.114 144.293 343.469 142.928V132.688C346.199 134.053 349.485 135.333 353.325 136.528C357.25 137.637 361.218 138.192 365.229 138.192C370.946 138.192 375.085 137.296 377.645 135.504C380.205 133.627 381.485 131.152 381.485 128.08C381.485 126.373 381.015 124.837 380.077 123.472C379.138 122.107 377.431 120.741 374.957 119.376C372.567 118.011 369.111 116.475 364.589 114.768C360.151 113.061 356.354 111.355 353.197 109.648C350.039 107.941 347.607 105.893 345.901 103.504C344.194 101.115 343.341 98.0427 343.341 94.288C343.341 88.4853 345.687 84.0053 350.381 80.848C355.159 77.6907 361.389 76.112 369.069 76.112C373.25 76.112 377.133 76.5387 380.717 77.392C384.386 78.16 387.799 79.2693 390.957 80.72L387.117 89.68C385.239 88.8267 383.234 88.1013 381.101 87.504C379.053 86.8213 376.962 86.3093 374.829 85.968C372.695 85.5413 370.519 85.328 368.301 85.328C363.693 85.328 360.151 86.096 357.677 87.632C355.287 89.0827 354.093 91.088 354.093 93.648C354.093 95.5253 354.647 97.1467 355.757 98.512C356.866 99.792 358.701 101.072 361.261 102.352C363.906 103.547 367.405 104.997 371.757 106.704C376.109 108.325 379.821 109.989 382.893 111.696C385.965 113.403 388.311 115.493 389.933 117.968C391.554 120.357 392.365 123.387 392.365 127.056ZM420.207 77.392V146H408.943V77.392H420.207ZM414.703 51.664C416.409 51.664 417.903 52.2613 419.183 53.456C420.548 54.5653 421.231 56.3573 421.231 58.832C421.231 61.2213 420.548 63.0133 419.183 64.208C417.903 65.4027 416.409 66 414.703 66C412.825 66 411.247 65.4027 409.967 64.208C408.687 63.0133 408.047 61.2213 408.047 58.832C408.047 56.3573 408.687 54.5653 409.967 53.456C411.247 52.2613 412.825 51.664 414.703 51.664ZM466.263 76.112C470.785 76.112 474.839 76.9653 478.423 78.672C482.092 80.3787 485.207 82.9813 487.767 86.48H488.407L489.943 77.392H498.903V147.152C498.903 153.637 497.793 159.056 495.575 163.408C493.356 167.845 489.985 171.173 485.463 173.392C480.94 175.611 475.18 176.72 468.183 176.72C463.233 176.72 458.668 176.336 454.487 175.568C450.391 174.885 446.721 173.819 443.479 172.368V162C445.697 163.109 448.129 164.048 450.775 164.816C453.42 165.669 456.279 166.309 459.351 166.736C462.423 167.163 465.58 167.376 468.823 167.376C474.711 167.376 479.319 165.627 482.647 162.128C486.06 158.715 487.767 154.021 487.767 148.048V145.36C487.767 144.336 487.809 142.885 487.895 141.008C487.98 139.045 488.065 137.68 488.151 136.912H487.639C485.249 140.411 482.263 143.013 478.679 144.72C475.18 146.427 471.084 147.28 466.391 147.28C457.516 147.28 450.561 144.165 445.527 137.936C440.577 131.707 438.103 123.003 438.103 111.824C438.103 104.485 439.212 98.1707 441.431 92.88C443.735 87.504 446.977 83.3653 451.159 80.464C455.34 77.5627 460.375 76.112 466.263 76.112ZM467.799 85.584C463.959 85.584 460.673 86.608 457.943 88.656C455.297 90.704 453.249 93.6907 451.799 97.616C450.433 101.541 449.751 106.32 449.751 111.952C449.751 120.4 451.287 126.885 454.359 131.408C457.516 135.845 462.081 138.064 468.055 138.064C471.553 138.064 474.54 137.637 477.015 136.784C479.489 135.845 481.537 134.437 483.159 132.56C484.78 130.597 485.975 128.123 486.743 125.136C487.511 122.149 487.895 118.608 487.895 114.512V111.824C487.895 105.595 487.169 100.56 485.719 96.72C484.353 92.88 482.177 90.064 479.191 88.272C476.204 86.48 472.407 85.584 467.799 85.584ZM531.957 77.264C531.957 78.8853 531.871 80.5493 531.701 82.256C531.615 83.9627 531.487 85.4987 531.317 86.864H532.085C533.535 84.4747 535.37 82.512 537.589 80.976C539.807 79.44 542.282 78.288 545.013 77.52C547.743 76.6667 550.559 76.24 553.461 76.24C559.007 76.24 563.615 77.136 567.285 78.928C571.039 80.6347 573.855 83.3227 575.733 86.992C577.61 90.6613 578.549 95.44 578.549 101.328V146H567.413V102.096C567.413 96.5493 566.175 92.4107 563.701 89.68C561.226 86.9493 557.343 85.584 552.053 85.584C546.933 85.584 542.922 86.5653 540.021 88.528C537.119 90.4053 535.029 93.2213 533.749 96.976C532.554 100.645 531.957 105.168 531.957 110.544V146H520.693V48.72H531.957V77.264ZM622.729 138.064C624.436 138.064 626.186 137.936 627.978 137.68C629.77 137.339 631.22 136.997 632.33 136.656V145.232C631.135 145.829 629.428 146.299 627.21 146.64C624.991 147.067 622.858 147.28 620.81 147.28C617.226 147.28 613.898 146.683 610.826 145.488C607.839 144.208 605.407 142.032 603.53 138.96C601.652 135.888 600.714 131.579 600.714 126.032V86.096H590.986V80.72L600.842 76.24L605.322 61.648H611.978V77.392H631.818V86.096H611.978V125.776C611.978 129.957 612.959 133.072 614.922 135.12C616.97 137.083 619.572 138.064 622.729 138.064ZM732.694 121.552C732.694 127.013 731.371 131.664 728.726 135.504C726.08 139.259 722.283 142.16 717.334 144.208C712.47 146.256 706.71 147.28 700.054 147.28C696.64 147.28 693.355 147.109 690.198 146.768C687.126 146.427 684.31 145.957 681.75 145.36C679.19 144.677 676.928 143.867 674.966 142.928V131.92C678.038 133.285 681.835 134.523 686.358 135.632C690.966 136.741 695.702 137.296 700.566 137.296C705.088 137.296 708.886 136.699 711.958 135.504C715.03 134.309 717.334 132.603 718.87 130.384C720.406 128.165 721.174 125.563 721.174 122.576C721.174 119.589 720.534 117.072 719.254 115.024C717.974 112.976 715.755 111.099 712.598 109.392C709.526 107.6 705.216 105.723 699.67 103.76C695.744 102.309 692.288 100.773 689.302 99.152C686.4 97.4453 683.968 95.5253 682.006 93.392C680.043 91.2587 678.55 88.8267 677.526 86.096C676.587 83.3653 676.118 80.208 676.118 76.624C676.118 71.76 677.355 67.6213 679.83 64.208C682.304 60.7093 685.718 58.0213 690.07 56.144C694.507 54.2667 699.584 53.328 705.302 53.328C710.336 53.328 714.944 53.7973 719.126 54.736C723.307 55.6747 727.104 56.912 730.518 58.448L726.934 68.304C723.776 66.9387 720.32 65.7867 716.566 64.848C712.896 63.9093 709.056 63.44 705.046 63.44C701.206 63.44 698.006 63.9947 695.446 65.104C692.886 66.2133 690.966 67.792 689.686 69.84C688.406 71.8027 687.766 74.1067 687.766 76.752C687.766 79.824 688.406 82.384 689.686 84.432C690.966 86.48 693.056 88.3147 695.958 89.936C698.859 91.5573 702.784 93.3067 707.734 95.184C713.11 97.1467 717.632 99.28 721.302 101.584C725.056 103.803 727.872 106.491 729.75 109.648C731.712 112.805 732.694 116.773 732.694 121.552ZM777.088 147.28C771.029 147.28 765.61 146.043 760.832 143.568C756.138 141.093 752.426 137.253 749.696 132.048C747.05 126.843 745.728 120.187 745.728 112.08C745.728 103.632 747.136 96.7627 749.952 91.472C752.768 86.1813 756.565 82.2987 761.344 79.824C766.208 77.3493 771.712 76.112 777.856 76.112C781.354 76.112 784.725 76.496 787.968 77.264C791.21 77.9467 793.856 78.8 795.904 79.824L792.448 89.168C790.4 88.4 788.01 87.6747 785.28 86.992C782.549 86.3093 779.989 85.968 777.6 85.968C772.992 85.968 769.194 86.9493 766.208 88.912C763.221 90.8747 761.002 93.776 759.552 97.616C758.101 101.456 757.376 106.235 757.376 111.952C757.376 117.413 758.101 122.064 759.552 125.904C761.002 129.744 763.178 132.645 766.08 134.608C768.981 136.571 772.608 137.552 776.96 137.552C780.714 137.552 784 137.168 786.816 136.4C789.717 135.632 792.362 134.693 794.752 133.584V143.568C792.448 144.763 789.888 145.659 787.072 146.256C784.341 146.939 781.013 147.28 777.088 147.28ZM822.332 77.264C822.332 78.8853 822.246 80.5493 822.076 82.256C821.99 83.9627 821.862 85.4987 821.692 86.864H822.46C823.91 84.4747 825.745 82.512 827.964 80.976C830.182 79.44 832.657 78.288 835.388 77.52C838.118 76.6667 840.934 76.24 843.836 76.24C849.382 76.24 853.99 77.136 857.66 78.928C861.414 80.6347 864.23 83.3227 866.108 86.992C867.985 90.6613 868.924 95.44 868.924 101.328V146H857.788V102.096C857.788 96.5493 856.55 92.4107 854.076 89.68C851.601 86.9493 847.718 85.584 842.428 85.584C837.308 85.584 833.297 86.5653 830.396 88.528C827.494 90.4053 825.404 93.2213 824.124 96.976C822.929 100.645 822.332 105.168 822.332 110.544V146H811.068V48.72H822.332V77.264ZM949.84 111.568C949.84 117.285 949.073 122.363 947.537 126.8C946.086 131.152 943.953 134.864 941.137 137.936C938.406 141.008 935.035 143.355 931.025 144.976C927.099 146.512 922.705 147.28 917.841 147.28C913.318 147.28 909.137 146.512 905.297 144.976C901.457 143.355 898.129 141.008 895.312 137.936C892.497 134.864 890.278 131.152 888.657 126.8C887.121 122.363 886.353 117.285 886.353 111.568C886.353 103.973 887.633 97.5733 890.193 92.368C892.753 87.0773 896.422 83.0667 901.201 80.336C905.979 77.52 911.654 76.112 918.225 76.112C924.454 76.112 929.915 77.52 934.609 80.336C939.387 83.0667 943.099 87.0773 945.745 92.368C948.475 97.5733 949.84 103.973 949.84 111.568ZM898.001 111.568C898.001 116.944 898.683 121.637 900.049 125.648C901.499 129.573 903.718 132.603 906.705 134.736C909.691 136.869 913.489 137.936 918.097 137.936C922.705 137.936 926.502 136.869 929.489 134.736C932.475 132.603 934.651 129.573 936.017 125.648C937.467 121.637 938.193 116.944 938.193 111.568C938.193 106.107 937.467 101.456 936.017 97.616C934.566 93.776 932.347 90.832 929.361 88.784C926.459 86.6507 922.662 85.584 917.969 85.584C910.971 85.584 905.894 87.888 902.737 92.496C899.579 97.104 898.001 103.461 898.001 111.568ZM978.957 146H967.693V48.72H978.957V146ZM1026.68 76.24C1035.04 76.24 1041.23 78.0747 1045.24 81.744C1049.25 85.4133 1051.25 91.2587 1051.25 99.28V146H1043.06L1040.88 136.272H1040.37C1038.41 138.747 1036.36 140.837 1034.23 142.544C1032.18 144.165 1029.79 145.36 1027.06 146.128C1024.42 146.896 1021.17 147.28 1017.33 147.28C1013.24 147.28 1009.52 146.555 1006.2 145.104C1002.95 143.653 1000.39 141.435 998.517 138.448C996.639 135.376 995.701 131.536 995.701 126.928C995.701 120.101 998.389 114.853 1003.76 111.184C1009.14 107.429 1017.42 105.381 1028.6 105.04L1040.24 104.656V100.56C1040.24 94.8427 1039.01 90.8747 1036.53 88.656C1034.06 86.4373 1030.56 85.328 1026.04 85.328C1022.45 85.328 1019.04 85.8827 1015.8 86.992C1012.55 88.016 1009.52 89.2107 1006.71 90.576L1003.25 82.128C1006.24 80.5067 1009.78 79.1413 1013.88 78.032C1017.97 76.8373 1022.24 76.24 1026.68 76.24ZM1030 112.848C1021.47 113.189 1015.54 114.555 1012.21 116.944C1008.97 119.333 1007.35 122.704 1007.35 127.056C1007.35 130.896 1008.5 133.712 1010.8 135.504C1013.19 137.296 1016.22 138.192 1019.89 138.192C1025.7 138.192 1030.52 136.613 1034.36 133.456C1038.2 130.213 1040.12 125.264 1040.12 118.608V112.464L1030 112.848ZM1104.44 76.112C1105.72 76.112 1107.09 76.1973 1108.54 76.368C1110.07 76.4533 1111.4 76.624 1112.51 76.88L1111.1 87.248C1109.99 86.992 1108.75 86.7787 1107.39 86.608C1106.11 86.4373 1104.87 86.352 1103.67 86.352C1101.03 86.352 1098.51 86.9067 1096.12 88.016C1093.73 89.1253 1091.6 90.704 1089.72 92.752C1087.85 94.7147 1086.35 97.104 1085.24 99.92C1084.22 102.736 1083.71 105.893 1083.71 109.392V146H1072.44V77.392H1081.66L1082.94 89.936H1083.45C1084.9 87.376 1086.65 85.072 1088.7 83.024C1090.75 80.8907 1093.09 79.2267 1095.74 78.032C1098.38 76.752 1101.29 76.112 1104.44 76.112ZM1136.58 77.392V146H1125.32V77.392H1136.58ZM1131.08 51.664C1132.78 51.664 1134.28 52.2613 1135.56 53.456C1136.92 54.5653 1137.61 56.3573 1137.61 58.832C1137.61 61.2213 1136.92 63.0133 1135.56 64.208C1134.28 65.4027 1132.78 66 1131.08 66C1129.2 66 1127.62 65.4027 1126.34 64.208C1125.06 63.0133 1124.42 61.2213 1124.42 58.832C1124.42 56.3573 1125.06 54.5653 1126.34 53.456C1127.62 52.2613 1129.2 51.664 1131.08 51.664ZM1202.99 127.056C1202.99 131.493 1201.88 135.205 1199.66 138.192C1197.44 141.179 1194.29 143.44 1190.19 144.976C1186.09 146.512 1181.23 147.28 1175.6 147.28C1170.82 147.28 1166.68 146.896 1163.18 146.128C1159.77 145.36 1156.74 144.293 1154.09 142.928V132.688C1156.82 134.053 1160.11 135.333 1163.95 136.528C1167.87 137.637 1171.84 138.192 1175.85 138.192C1181.57 138.192 1185.71 137.296 1188.27 135.504C1190.83 133.627 1192.11 131.152 1192.11 128.08C1192.11 126.373 1191.64 124.837 1190.7 123.472C1189.76 122.107 1188.06 120.741 1185.58 119.376C1183.19 118.011 1179.74 116.475 1175.21 114.768C1170.78 113.061 1166.98 111.355 1163.82 109.648C1160.66 107.941 1158.23 105.893 1156.53 103.504C1154.82 101.115 1153.97 98.0427 1153.97 94.288C1153.97 88.4853 1156.31 84.0053 1161.01 80.848C1165.78 77.6907 1172.01 76.112 1179.69 76.112C1183.87 76.112 1187.76 76.5387 1191.34 77.392C1195.01 78.16 1198.42 79.2693 1201.58 80.72L1197.74 89.68C1195.86 88.8267 1193.86 88.1013 1191.73 87.504C1189.68 86.8213 1187.59 86.3093 1185.45 85.968C1183.32 85.5413 1181.14 85.328 1178.93 85.328C1174.32 85.328 1170.78 86.096 1168.3 87.632C1165.91 89.0827 1164.72 91.088 1164.72 93.648C1164.72 95.5253 1165.27 97.1467 1166.38 98.512C1167.49 99.792 1169.33 101.072 1171.89 102.352C1174.53 103.547 1178.03 104.997 1182.38 106.704C1186.73 108.325 1190.45 109.989 1193.52 111.696C1196.59 113.403 1198.94 115.493 1200.56 117.968C1202.18 120.357 1202.99 123.387 1202.99 127.056Z" fill="black"/>
</g>
</g>
<defs>
<filter id="filter0_d_257_483" x="214.433" y="43.7202" width="1023.56" height="168" filterUnits="userSpaceOnUse" color-interpolation-filters="sRGB">
<feFlood flood-opacity="0" result="BackgroundImageFix"/>
<feColorMatrix in="SourceAlpha" type="matrix" values="0 0 0 0 0 0 0 0 0 0 0 0 0 0 0 0 0 0 127 0" result="hardAlpha"/>
<feOffset dx="15" dy="15"/>
<feGaussianBlur stdDeviation="10"/>
<feComposite in2="hardAlpha" operator="out"/>
<feColorMatrix type="matrix" values="0 0 0 0 0 0 0 0 0 0 0 0 0 0 0 0 0 0 0.25 0"/>
<feBlend mode="normal" in2="BackgroundImageFix" result="effect1_dropShadow_257_483"/>
<feBlend mode="normal" in="SourceGraphic" in2="effect1_dropShadow_257_483" result="shape"/>
</filter>
<clipPath id="clip0_257_483">
<rect width="1232" height="210" fill="white"/>
</clipPath>
<clipPath id="clip1_257_483">
<rect x="22" y="23" width="162" height="164" rx="10" fill="white"/>
</clipPath>
</defs>
</svg>
