<svg width="1080" height="520" viewBox="0 0 1080 520" fill="none" xmlns="http://www.w3.org/2000/svg">
<g clip-path="url(#clip0_182_491)">
<g filter="url(#filter0_d_182_491)">
<path d="M31.4 225V211.7H50.02V105.68H31.4V92.38H84.6V105.68H65.98V211.7H84.6V225H31.4ZM112.224 225V126.96H127.424V142.92H128.184C130.591 137.347 133.948 132.913 138.254 129.62C142.688 126.327 148.578 124.68 155.924 124.68C166.058 124.68 174.038 127.973 179.864 134.56C185.818 141.02 188.794 150.203 188.794 162.11V225H173.594V164.77C173.594 147.163 166.184 138.36 151.364 138.36C148.324 138.36 145.348 138.74 142.434 139.5C139.648 140.26 137.114 141.4 134.834 142.92C132.554 144.44 130.718 146.403 129.324 148.81C128.058 151.09 127.424 153.813 127.424 156.98V225H112.224ZM249.663 227.28C240.543 227.28 232.879 225.57 226.673 222.15C220.593 218.603 215.336 213.917 210.903 208.09L221.733 199.35C225.533 204.163 229.776 207.9 234.463 210.56C239.149 213.093 244.596 214.36 250.803 214.36C257.263 214.36 262.266 212.967 265.813 210.18C269.486 207.393 271.323 203.467 271.323 198.4C271.323 194.6 270.056 191.37 267.523 188.71C265.116 185.923 260.683 184.023 254.222 183.01L246.433 181.87C241.873 181.237 237.693 180.287 233.893 179.02C230.093 177.627 226.736 175.853 223.823 173.7C221.036 171.42 218.819 168.633 217.173 165.34C215.653 162.047 214.893 158.12 214.893 153.56C214.893 148.747 215.779 144.567 217.553 141.02C219.326 137.347 221.733 134.307 224.773 131.9C227.939 129.493 231.676 127.72 235.983 126.58C240.289 125.313 244.913 124.68 249.853 124.68C257.833 124.68 264.483 126.073 269.803 128.86C275.249 131.647 279.999 135.51 284.053 140.45L273.983 149.57C271.829 146.53 268.663 143.807 264.483 141.4C260.303 138.867 255.046 137.6 248.713 137.6C242.379 137.6 237.566 138.993 234.273 141.78C231.106 144.44 229.523 148.113 229.523 152.8C229.523 157.613 231.106 161.097 234.273 163.25C237.566 165.403 242.253 166.987 248.333 168L255.933 169.14C266.826 170.787 274.553 173.953 279.113 178.64C283.673 183.2 285.953 189.217 285.953 196.69C285.953 206.19 282.723 213.663 276.263 219.11C269.803 224.557 260.936 227.28 249.663 227.28ZM320.4 103.97C317.107 103.97 314.7 103.21 313.18 101.69C311.787 100.043 311.09 97.9533 311.09 95.42V92.95C311.09 90.4167 311.787 88.39 313.18 86.87C314.7 85.2233 317.107 84.4 320.4 84.4C323.694 84.4 326.037 85.2233 327.43 86.87C328.95 88.39 329.71 90.4167 329.71 92.95V95.42C329.71 97.9533 328.95 100.043 327.43 101.69C326.037 103.21 323.694 103.97 320.4 103.97ZM312.8 126.96H328V225H312.8V126.96ZM442.95 235.83C442.95 245.963 438.96 253.373 430.98 258.06C423.127 262.873 411.284 265.28 395.45 265.28C380.124 265.28 369.104 263.19 362.39 259.01C355.677 254.83 352.32 248.877 352.32 241.15C352.32 235.83 353.714 231.65 356.5 228.61C359.287 225.697 363.087 223.543 367.9 222.15V220.06C362.074 217.273 359.16 212.713 359.16 206.38C359.16 201.44 360.744 197.703 363.91 195.17C367.077 192.51 371.13 190.547 376.07 189.28V188.52C370.244 185.733 365.684 181.743 362.39 176.55C359.224 171.357 357.64 165.34 357.64 158.5C357.64 153.56 358.527 149 360.3 144.82C362.074 140.64 364.544 137.093 367.71 134.18C371.004 131.14 374.867 128.797 379.3 127.15C383.86 125.503 388.927 124.68 394.5 124.68C401.467 124.68 407.674 125.947 413.12 128.48V126.77C413.12 122.97 414.007 119.867 415.78 117.46C417.554 114.927 420.467 113.66 424.52 113.66H439.15V126.96H420.53V133.23C424.077 136.27 426.8 139.943 428.7 144.25C430.727 148.43 431.74 153.18 431.74 158.5C431.74 163.44 430.854 168 429.08 172.18C427.307 176.36 424.774 179.97 421.48 183.01C418.314 185.923 414.45 188.203 409.89 189.85C405.33 191.497 400.264 192.32 394.69 192.32C391.524 192.32 388.357 192.003 385.19 191.37C381.897 192.257 378.92 193.587 376.26 195.36C373.6 197.007 372.27 199.35 372.27 202.39C372.27 205.303 373.664 207.267 376.45 208.28C379.237 209.293 382.847 209.8 387.28 209.8H408.18C420.34 209.8 429.144 212.143 434.59 216.83C440.164 221.39 442.95 227.723 442.95 235.83ZM428.7 236.97C428.7 233.043 427.18 229.877 424.14 227.47C421.227 225.19 415.97 224.05 408.37 224.05H375.69C369.61 226.837 366.57 231.27 366.57 237.35C366.57 241.657 368.154 245.33 371.32 248.37C374.614 251.41 380.124 252.93 387.85 252.93H401.91C410.397 252.93 416.984 251.6 421.67 248.94C426.357 246.28 428.7 242.29 428.7 236.97ZM394.69 180.16C401.15 180.16 406.28 178.64 410.08 175.6C413.88 172.433 415.78 167.62 415.78 161.16V155.84C415.78 149.38 413.88 144.63 410.08 141.59C406.28 138.423 401.15 136.84 394.69 136.84C388.23 136.84 383.1 138.423 379.3 141.59C375.5 144.63 373.6 149.38 373.6 155.84V161.16C373.6 167.62 375.5 172.433 379.3 175.6C383.1 178.64 388.23 180.16 394.69 180.16ZM460.681 84.4H475.881V142.92H476.641C479.048 137.347 482.405 132.913 486.711 129.62C491.145 126.327 497.035 124.68 504.381 124.68C514.515 124.68 522.495 127.973 528.321 134.56C534.275 141.02 537.251 150.203 537.251 162.11V225H522.051V164.77C522.051 147.163 514.641 138.36 499.821 138.36C496.781 138.36 493.805 138.74 490.891 139.5C488.105 140.26 485.571 141.4 483.291 142.92C481.011 144.44 479.175 146.403 477.781 148.81C476.515 151.09 475.881 153.813 475.881 156.98V225H460.681V84.4ZM590.33 225C585.01 225 580.956 223.543 578.17 220.63C575.51 217.59 574.18 213.663 574.18 208.85V140.26H558.03V126.96H567.15C570.443 126.96 572.66 126.327 573.8 125.06C575.066 123.667 575.7 121.323 575.7 118.03V99.79H589.38V126.96H610.85V140.26H589.38V211.7H609.33V225H590.33Z" fill="black"/>
<path d="M303.65 412.9C297.697 412.9 291.87 411.95 286.17 410.05C280.597 408.023 275.847 404.477 271.92 399.41C268.12 394.343 265.967 387.25 265.46 378.13L276.48 374.71C276.353 383.197 277.493 389.847 279.9 394.66C282.433 399.347 285.853 402.64 290.16 404.54C294.467 406.313 299.153 407.2 304.22 407.2C315.113 407.2 323.347 404.667 328.92 399.6C334.62 394.407 337.47 387.567 337.47 379.08C337.47 372.747 335.76 367.617 332.34 363.69C328.92 359.637 323.22 356.09 315.24 353.05L303.27 348.49C295.29 345.45 289.147 341.333 284.84 336.14C280.66 330.82 278.57 324.17 278.57 316.19C278.57 309.857 280.09 303.967 283.13 298.52C286.17 292.947 290.793 288.45 297 285.03C303.207 281.61 311.06 279.9 320.56 279.9C330.567 279.9 338.483 281.8 344.31 285.6C350.263 289.4 354.19 294.34 356.09 300.42C357.99 306.373 357.737 312.643 355.33 319.23L342.79 322.27C346.21 310.363 346.083 301.243 342.41 294.91C338.737 288.577 331.39 285.41 320.37 285.41C311.377 285.41 304.157 287.753 298.71 292.44C293.263 297 290.54 303.777 290.54 312.77C290.54 318.597 292.06 323.473 295.1 327.4C298.267 331.2 303.84 334.62 311.82 337.66L323.79 342.22C332.15 345.387 338.483 349.503 342.79 354.57C347.223 359.51 349.44 365.907 349.44 373.76C349.44 380.093 347.857 386.3 344.69 392.38C341.523 398.333 336.52 403.273 329.68 407.2C322.967 411 314.29 412.9 303.65 412.9ZM419.747 322.27C412.654 322.27 406.194 324.993 400.367 330.44C394.541 335.887 390.614 344.69 388.587 356.85L386.687 368.25C384.534 381.297 385.167 391.05 388.587 397.51C392.007 403.97 397.581 407.2 405.307 407.2C408.347 407.2 411.641 406.63 415.187 405.49C418.734 404.35 422.091 402.387 425.257 399.6C428.424 396.813 430.894 392.95 432.667 388.01L440.647 392.38C436.214 400.107 430.767 405.49 424.307 408.53C417.847 411.443 411.261 412.9 404.547 412.9C396.947 412.9 390.551 410.873 385.357 406.82C380.291 402.64 376.807 396.813 374.907 389.34C373.007 381.867 372.944 373.253 374.717 363.5L375.477 359.32C376.997 350.833 379.784 343.423 383.837 337.09C387.891 330.63 393.021 325.627 399.227 322.08C405.434 318.407 412.401 316.57 420.127 316.57C427.474 316.57 433.491 318.027 438.177 320.94C442.864 323.853 445.967 327.843 447.487 332.91C449.007 337.977 448.691 343.74 446.537 350.2L435.137 353.24C438.304 343.107 438.494 335.443 435.707 330.25C433.047 324.93 427.727 322.27 419.747 322.27ZM563.463 395.23C560.676 400.93 557.446 405.173 553.773 407.96C550.226 410.62 546.426 411.95 542.373 411.95C537.433 411.95 533.76 410.24 531.353 406.82C528.946 403.4 528.566 397.383 530.213 388.77L537.813 351.15C539.966 341.017 539.776 333.67 537.243 329.11C534.71 324.55 530.656 322.27 525.083 322.27C519.763 322.27 513.873 324.36 507.413 328.54C500.953 332.72 494.176 340.637 487.083 352.29L476.823 411H465.423L487.463 285.41C488.223 280.977 488.476 278.38 488.223 277.62C487.97 276.733 486.893 276.227 484.993 276.1L474.543 275.15L475.493 270.4H501.523L489.363 339.56C495.316 331.073 501.46 325.12 507.793 321.7C514.126 318.28 520.396 316.57 526.603 316.57C535.976 316.57 542.626 319.737 546.553 326.07C550.606 332.403 551.556 340.7 549.403 350.96L541.043 390.67C540.03 395.483 539.586 399.347 539.713 402.26C539.84 405.047 541.296 406.44 544.083 406.44C546.236 406.44 548.516 405.237 550.923 402.83C553.33 400.423 555.42 396.497 557.193 391.05L563.463 395.23ZM660.823 365.02L660.063 369.39C657.657 383.197 652.527 393.9 644.673 401.5C636.947 409.1 627.067 412.9 615.033 412.9C606.42 412.9 599.327 410.683 593.753 406.25C588.307 401.817 584.57 395.927 582.543 388.58C580.517 381.233 580.263 373.127 581.783 364.26L582.543 359.89C584.95 346.083 590.017 335.443 597.743 327.97C605.47 320.37 615.287 316.57 627.193 316.57C636.06 316.57 643.217 318.787 648.663 323.22C654.11 327.653 657.847 333.543 659.873 340.89C662.027 348.237 662.343 356.28 660.823 365.02ZM648.473 360.84C650.5 348.807 649.55 339.307 645.623 332.34C641.823 325.373 635.363 321.89 626.243 321.89C619.023 321.89 612.69 324.613 607.243 330.06C601.923 335.38 598.187 344.373 596.033 357.04L594.133 368.44C592.107 380.347 592.993 389.847 596.793 396.94C600.72 404.033 607.18 407.58 616.173 407.58C623.52 407.58 629.917 404.857 635.363 399.41C640.81 393.963 644.547 384.907 646.573 372.24L648.473 360.84ZM694.027 275.15L694.787 270.4H720.817L701.247 382.5C700.107 388.96 699.474 393.9 699.347 397.32C699.347 400.74 699.727 403.147 700.487 404.54C701.247 405.807 702.324 406.44 703.717 406.44C705.617 406.44 707.707 405.237 709.987 402.83C712.394 400.423 714.484 396.497 716.257 391.05L722.527 395.23C719.741 400.93 716.574 405.173 713.027 407.96C709.481 410.62 705.871 411.95 702.197 411.95C697.004 411.95 693.204 409.797 690.797 405.49C688.391 401.057 688.011 393.9 689.657 384.02L706.757 285.41C707.517 280.977 707.771 278.38 707.517 277.62C707.264 276.733 706.187 276.227 704.287 276.1L694.027 275.15ZM812.047 411.95C807.74 411.95 804.384 410.493 801.977 407.58C799.57 404.667 798.43 400.107 798.557 393.9C793.997 400.74 789.184 405.617 784.117 408.53C779.05 411.443 773.857 412.9 768.537 412.9C761.317 412.9 755.364 410.62 750.677 406.06C745.99 401.5 742.824 395.42 741.177 387.82C739.53 380.093 739.53 371.607 741.177 362.36L741.937 358.18C743.457 349.693 746.307 342.347 750.487 336.14C754.794 329.933 759.924 325.12 765.877 321.7C771.83 318.28 778.227 316.57 785.067 316.57C790.64 316.57 795.454 317.71 799.507 319.99C803.56 322.143 806.917 325.183 809.577 329.11C810.464 327.337 811.35 325.563 812.237 323.79C813.124 321.89 814.01 320.117 814.897 318.47H822.497L811.097 382.5C809.957 388.96 809.324 393.9 809.197 397.32C809.197 400.74 809.577 403.147 810.337 404.54C811.097 405.807 812.174 406.44 813.567 406.44C815.467 406.44 817.557 405.237 819.837 402.83C822.244 400.423 824.334 396.497 826.107 391.05L832.377 395.23C829.59 400.93 826.424 405.173 822.877 407.96C819.33 410.62 815.72 411.95 812.047 411.95ZM752.957 368.06C750.93 379.967 751.5 389.467 754.667 396.56C757.96 403.653 762.9 407.2 769.487 407.2C772.4 407.2 775.504 406.503 778.797 405.11C782.09 403.717 785.51 401.183 789.057 397.51C792.604 393.71 796.214 388.327 799.887 381.36L807.677 337.85C805.27 332.53 802.294 328.603 798.747 326.07C795.2 323.537 790.704 322.27 785.257 322.27C777.024 322.27 770.31 325.31 765.117 331.39C760.05 337.47 756.63 345.893 754.857 356.66L752.957 368.06ZM899.661 324.93C897.127 324.93 894.467 325.69 891.681 327.21C888.894 328.603 885.917 331.2 882.751 335C879.711 338.8 876.417 344.373 872.871 351.72L862.421 411H851.021L864.701 333.48C865.461 329.047 865.714 326.45 865.461 325.69C865.207 324.803 864.131 324.297 862.231 324.17L851.781 323.22L852.731 318.47H878.761L875.151 338.8C880.344 330.44 885.537 324.677 890.731 321.51C895.924 318.217 900.801 316.57 905.361 316.57C909.287 316.57 912.771 317.647 915.811 319.8C918.977 321.953 921.257 325.12 922.651 329.3L912.961 337.85C911.694 333.163 909.984 329.87 907.831 327.97C905.804 325.943 903.081 324.93 899.661 324.93ZM955.55 293.77C953.144 293.77 951.244 293.137 949.85 291.87C948.457 290.477 947.76 288.577 947.76 286.17C947.76 283.51 948.647 281.23 950.42 279.33C952.32 277.43 954.664 276.48 957.45 276.48C959.984 276.48 961.947 277.177 963.34 278.57C964.734 279.837 965.43 281.61 965.43 283.89C965.43 286.423 964.48 288.703 962.58 290.73C960.807 292.757 958.464 293.77 955.55 293.77ZM929.71 323.22L930.47 318.47H956.5L945.29 382.5C944.15 388.96 943.517 393.9 943.39 397.32C943.39 400.74 943.77 403.147 944.53 404.54C945.29 405.807 946.367 406.44 947.76 406.44C949.66 406.44 951.75 405.237 954.03 402.83C956.437 400.423 958.527 396.497 960.3 391.05L966.57 395.23C963.784 400.93 960.617 405.173 957.07 407.96C953.524 410.62 949.914 411.95 946.24 411.95C941.047 411.95 937.247 409.797 934.84 405.49C932.434 401.057 932.054 393.9 933.7 384.02L942.44 333.48C943.2 329.047 943.454 326.45 943.2 325.69C942.947 324.803 941.87 324.297 939.97 324.17L929.71 323.22ZM1007.6 412.9C998.602 412.9 991.382 411 985.936 407.2C980.489 403.4 977.576 397.637 977.196 389.91L986.886 386.87C987.012 392.317 988.026 396.56 989.926 399.6C991.826 402.513 994.296 404.54 997.336 405.68C1000.5 406.82 1003.99 407.39 1007.79 407.39C1012.35 407.39 1016.59 406.757 1020.52 405.49C1024.57 404.097 1027.8 402.007 1030.21 399.22C1032.61 396.433 1033.82 392.887 1033.82 388.58C1033.82 384.527 1032.49 380.917 1029.83 377.75C1027.29 374.457 1022.86 371.987 1016.53 370.34L1005.13 367.3C999.426 365.78 994.929 362.993 991.636 358.94C988.469 354.887 986.886 350.073 986.886 344.5C986.886 340.067 987.962 335.76 990.116 331.58C992.269 327.273 995.752 323.727 1000.57 320.94C1005.38 318.027 1011.71 316.57 1019.57 316.57C1027.93 316.57 1034.39 318.027 1038.95 320.94C1043.51 323.853 1046.42 327.59 1047.69 332.15C1048.95 336.71 1048.7 341.46 1046.93 346.4L1035.34 349.44C1038.63 340.7 1038.69 333.987 1035.53 329.3C1032.49 324.613 1026.98 322.27 1019 322.27C1012.28 322.27 1006.84 323.917 1002.66 327.21C998.602 330.503 996.576 335 996.576 340.7C996.576 349.187 1001.33 354.697 1010.83 357.23L1022.23 360.27C1028.56 361.917 1033.63 364.957 1037.43 369.39C1041.23 373.823 1043.13 379.08 1043.13 385.16C1043.13 389.593 1041.92 393.963 1039.52 398.27C1037.11 402.45 1033.31 405.933 1028.12 408.72C1022.92 411.507 1016.08 412.9 1007.6 412.9Z" fill="black"/>
</g>
</g>
<defs>
<filter id="filter0_d_182_491" x="26.3999" y="79.4" width="1058.19" height="368.5" filterUnits="userSpaceOnUse" color-interpolation-filters="sRGB">
<feFlood flood-opacity="0" result="BackgroundImageFix"/>
<feColorMatrix in="SourceAlpha" type="matrix" values="0 0 0 0 0 0 0 0 0 0 0 0 0 0 0 0 0 0 127 0" result="hardAlpha"/>
<feOffset dx="15" dy="15"/>
<feGaussianBlur stdDeviation="10"/>
<feComposite in2="hardAlpha" operator="out"/>
<feColorMatrix type="matrix" values="0 0 0 0 0 0 0 0 0 0 0 0 0 0 0 0 0 0 0.25 0"/>
<feBlend mode="normal" in2="BackgroundImageFix" result="effect1_dropShadow_182_491"/>
<feBlend mode="normal" in="SourceGraphic" in2="effect1_dropShadow_182_491" result="shape"/>
</filter>
<clipPath id="clip0_182_491">
<rect width="1080" height="520" fill="white"/>
</clipPath>
</defs>
</svg>
