<svg width="1232" height="210" viewBox="0 0 1232 210" fill="none" xmlns="http://www.w3.org/2000/svg">
<g clip-path="url(#clip0_257_483)">
<g filter="url(#filter0_d_257_483)">
<path d="M258.144 147H225.12V140.344L235.872 137.912V64.824L225.12 62.264V55.608H258.144V62.264L247.392 64.824V137.912L258.144 140.344V147ZM307.279 77.112C315.471 77.112 321.658 79.1173 325.839 83.128C330.02 87.0533 332.111 93.4533 332.111 102.328V147H320.975V103.096C320.975 97.5493 319.738 93.4107 317.263 90.68C314.788 87.9493 310.906 86.584 305.615 86.584C298.02 86.584 292.772 88.7173 289.871 92.984C286.97 97.2507 285.519 103.395 285.519 111.416V147H274.255V78.392H283.343L285.007 87.736H285.647C287.183 85.3467 289.06 83.384 291.279 81.848C293.583 80.2267 296.1 79.032 298.831 78.264C301.562 77.496 304.378 77.112 307.279 77.112ZM398.052 128.056C398.052 132.493 396.943 136.205 394.724 139.192C392.505 142.179 389.348 144.44 385.252 145.976C381.156 147.512 376.292 148.28 370.66 148.28C365.881 148.28 361.743 147.896 358.244 147.128C354.831 146.36 351.801 145.293 349.156 143.928V133.688C351.887 135.053 355.172 136.333 359.012 137.528C362.937 138.637 366.905 139.192 370.916 139.192C376.633 139.192 380.772 138.296 383.332 136.504C385.892 134.627 387.172 132.152 387.172 129.08C387.172 127.373 386.703 125.837 385.764 124.472C384.825 123.107 383.119 121.741 380.644 120.376C378.255 119.011 374.799 117.475 370.276 115.768C365.839 114.061 362.041 112.355 358.884 110.648C355.727 108.941 353.295 106.893 351.588 104.504C349.881 102.115 349.028 99.0427 349.028 95.288C349.028 89.4853 351.375 85.0053 356.068 81.848C360.847 78.6907 367.076 77.112 374.756 77.112C378.937 77.112 382.82 77.5387 386.404 78.392C390.073 79.16 393.487 80.2693 396.644 81.72L392.804 90.68C390.927 89.8267 388.921 89.1013 386.788 88.504C384.74 87.8213 382.649 87.3093 380.516 86.968C378.383 86.5413 376.207 86.328 373.988 86.328C369.38 86.328 365.839 87.096 363.364 88.632C360.975 90.0827 359.78 92.088 359.78 94.648C359.78 96.5253 360.335 98.1467 361.444 99.512C362.553 100.792 364.388 102.072 366.948 103.352C369.593 104.547 373.092 105.997 377.444 107.704C381.796 109.325 385.508 110.989 388.58 112.696C391.652 114.403 393.999 116.493 395.62 118.968C397.241 121.357 398.052 124.387 398.052 128.056ZM425.894 78.392V147H414.63V78.392H425.894ZM420.39 52.664C422.097 52.664 423.59 53.2613 424.87 54.456C426.235 55.5653 426.918 57.3573 426.918 59.832C426.918 62.2213 426.235 64.0133 424.87 65.208C423.59 66.4027 422.097 67 420.39 67C418.513 67 416.934 66.4027 415.654 65.208C414.374 64.0133 413.734 62.2213 413.734 59.832C413.734 57.3573 414.374 55.5653 415.654 54.456C416.934 53.2613 418.513 52.664 420.39 52.664ZM471.95 77.112C476.473 77.112 480.526 77.9653 484.11 79.672C487.779 81.3787 490.894 83.9813 493.454 87.48H494.094L495.63 78.392H504.59V148.152C504.59 154.637 503.481 160.056 501.262 164.408C499.043 168.845 495.673 172.173 491.15 174.392C486.627 176.611 480.867 177.72 473.87 177.72C468.921 177.72 464.355 177.336 460.174 176.568C456.078 175.885 452.409 174.819 449.166 173.368V163C451.385 164.109 453.817 165.048 456.462 165.816C459.107 166.669 461.966 167.309 465.038 167.736C468.11 168.163 471.267 168.376 474.51 168.376C480.398 168.376 485.006 166.627 488.334 163.128C491.747 159.715 493.454 155.021 493.454 149.048V146.36C493.454 145.336 493.497 143.885 493.582 142.008C493.667 140.045 493.753 138.68 493.838 137.912H493.326C490.937 141.411 487.95 144.013 484.366 145.72C480.867 147.427 476.771 148.28 472.078 148.28C463.203 148.28 456.249 145.165 451.214 138.936C446.265 132.707 443.79 124.003 443.79 112.824C443.79 105.485 444.899 99.1707 447.118 93.88C449.422 88.504 452.665 84.3653 456.846 81.464C461.027 78.5627 466.062 77.112 471.95 77.112ZM473.486 86.584C469.646 86.584 466.361 87.608 463.63 89.656C460.985 91.704 458.937 94.6907 457.486 98.616C456.121 102.541 455.438 107.32 455.438 112.952C455.438 121.4 456.974 127.885 460.046 132.408C463.203 136.845 467.769 139.064 473.742 139.064C477.241 139.064 480.227 138.637 482.702 137.784C485.177 136.845 487.225 135.437 488.846 133.56C490.467 131.597 491.662 129.123 492.43 126.136C493.198 123.149 493.582 119.608 493.582 115.512V112.824C493.582 106.595 492.857 101.56 491.406 97.72C490.041 93.88 487.865 91.064 484.878 89.272C481.891 87.48 478.094 86.584 473.486 86.584ZM537.644 78.264C537.644 79.8853 537.559 81.5493 537.388 83.256C537.303 84.9627 537.175 86.4987 537.004 87.864H537.772C539.223 85.4747 541.057 83.512 543.276 81.976C545.495 80.44 547.969 79.288 550.7 78.52C553.431 77.6667 556.247 77.24 559.148 77.24C564.695 77.24 569.303 78.136 572.972 79.928C576.727 81.6347 579.543 84.3227 581.42 87.992C583.297 91.6613 584.236 96.44 584.236 102.328V147H573.1V103.096C573.1 97.5493 571.863 93.4107 569.388 90.68C566.913 87.9493 563.031 86.584 557.74 86.584C552.62 86.584 548.609 87.5653 545.708 89.528C542.807 91.4053 540.716 94.2213 539.436 97.976C538.241 101.645 537.644 106.168 537.644 111.544V147H526.38V49.72H537.644V78.264ZM628.417 139.064C630.124 139.064 631.873 138.936 633.665 138.68C635.457 138.339 636.908 137.997 638.017 137.656V146.232C636.822 146.829 635.116 147.299 632.897 147.64C630.678 148.067 628.545 148.28 626.497 148.28C622.913 148.28 619.585 147.683 616.513 146.488C613.526 145.208 611.094 143.032 609.217 139.96C607.34 136.888 606.401 132.579 606.401 127.032V87.096H596.673V81.72L606.529 77.24L611.009 62.648H617.665V78.392H637.505V87.096H617.665V126.776C617.665 130.957 618.646 134.072 620.609 136.12C622.657 138.083 625.26 139.064 628.417 139.064ZM738.381 122.552C738.381 128.013 737.058 132.664 734.413 136.504C731.768 140.259 727.97 143.16 723.021 145.208C718.157 147.256 712.397 148.28 705.741 148.28C702.328 148.28 699.042 148.109 695.885 147.768C692.813 147.427 689.997 146.957 687.437 146.36C684.877 145.677 682.616 144.867 680.653 143.928V132.92C683.725 134.285 687.522 135.523 692.045 136.632C696.653 137.741 701.389 138.296 706.253 138.296C710.776 138.296 714.573 137.699 717.645 136.504C720.717 135.309 723.021 133.603 724.557 131.384C726.093 129.165 726.861 126.563 726.861 123.576C726.861 120.589 726.221 118.072 724.941 116.024C723.661 113.976 721.442 112.099 718.285 110.392C715.213 108.6 710.904 106.723 705.357 104.76C701.432 103.309 697.976 101.773 694.989 100.152C692.088 98.4453 689.656 96.5253 687.693 94.392C685.73 92.2587 684.237 89.8267 683.213 87.096C682.274 84.3653 681.805 81.208 681.805 77.624C681.805 72.76 683.042 68.6213 685.517 65.208C687.992 61.7093 691.405 59.0213 695.757 57.144C700.194 55.2667 705.272 54.328 710.989 54.328C716.024 54.328 720.632 54.7973 724.813 55.736C728.994 56.6747 732.792 57.912 736.205 59.448L732.621 69.304C729.464 67.9387 726.008 66.7867 722.253 65.848C718.584 64.9093 714.744 64.44 710.733 64.44C706.893 64.44 703.693 64.9947 701.133 66.104C698.573 67.2133 696.653 68.792 695.373 70.84C694.093 72.8027 693.453 75.1067 693.453 77.752C693.453 80.824 694.093 83.384 695.373 85.432C696.653 87.48 698.744 89.3147 701.645 90.936C704.546 92.5573 708.472 94.3067 713.421 96.184C718.797 98.1467 723.32 100.28 726.989 102.584C730.744 104.803 733.56 107.491 735.437 110.648C737.4 113.805 738.381 117.773 738.381 122.552ZM782.775 148.28C776.716 148.28 771.298 147.043 766.519 144.568C761.826 142.093 758.114 138.253 755.383 133.048C752.738 127.843 751.415 121.187 751.415 113.08C751.415 104.632 752.823 97.7627 755.639 92.472C758.455 87.1813 762.252 83.2987 767.031 80.824C771.895 78.3493 777.399 77.112 783.543 77.112C787.042 77.112 790.412 77.496 793.655 78.264C796.898 78.9467 799.543 79.8 801.591 80.824L798.135 90.168C796.087 89.4 793.698 88.6747 790.967 87.992C788.236 87.3093 785.676 86.968 783.287 86.968C778.679 86.968 774.882 87.9493 771.895 89.912C768.908 91.8747 766.69 94.776 765.239 98.616C763.788 102.456 763.063 107.235 763.063 112.952C763.063 118.413 763.788 123.064 765.239 126.904C766.69 130.744 768.866 133.645 771.767 135.608C774.668 137.571 778.295 138.552 782.647 138.552C786.402 138.552 789.687 138.168 792.503 137.4C795.404 136.632 798.05 135.693 800.439 134.584V144.568C798.135 145.763 795.575 146.659 792.759 147.256C790.028 147.939 786.7 148.28 782.775 148.28ZM828.019 78.264C828.019 79.8853 827.934 81.5493 827.763 83.256C827.678 84.9627 827.55 86.4987 827.379 87.864H828.147C829.598 85.4747 831.432 83.512 833.651 81.976C835.87 80.44 838.344 79.288 841.075 78.52C843.806 77.6667 846.622 77.24 849.523 77.24C855.07 77.24 859.678 78.136 863.347 79.928C867.102 81.6347 869.918 84.3227 871.795 87.992C873.672 91.6613 874.611 96.44 874.611 102.328V147H863.475V103.096C863.475 97.5493 862.238 93.4107 859.763 90.68C857.288 87.9493 853.406 86.584 848.115 86.584C842.995 86.584 838.984 87.5653 836.083 89.528C833.182 91.4053 831.091 94.2213 829.811 97.976C828.616 101.645 828.019 106.168 828.019 111.544V147H816.755V49.72H828.019V78.264ZM955.528 112.568C955.528 118.285 954.76 123.363 953.224 127.8C951.773 132.152 949.64 135.864 946.824 138.936C944.093 142.008 940.723 144.355 936.712 145.976C932.787 147.512 928.392 148.28 923.528 148.28C919.005 148.28 914.824 147.512 910.984 145.976C907.144 144.355 903.816 142.008 901 138.936C898.184 135.864 895.965 132.152 894.344 127.8C892.808 123.363 892.04 118.285 892.04 112.568C892.04 104.973 893.32 98.5733 895.88 93.368C898.44 88.0773 902.109 84.0667 906.888 81.336C911.667 78.52 917.341 77.112 923.912 77.112C930.141 77.112 935.603 78.52 940.296 81.336C945.075 84.0667 948.787 88.0773 951.432 93.368C954.163 98.5733 955.528 104.973 955.528 112.568ZM903.688 112.568C903.688 117.944 904.371 122.637 905.736 126.648C907.187 130.573 909.405 133.603 912.392 135.736C915.379 137.869 919.176 138.936 923.784 138.936C928.392 138.936 932.189 137.869 935.176 135.736C938.163 133.603 940.339 130.573 941.704 126.648C943.155 122.637 943.88 117.944 943.88 112.568C943.88 107.107 943.155 102.456 941.704 98.616C940.253 94.776 938.035 91.832 935.048 89.784C932.147 87.6507 928.349 86.584 923.656 86.584C916.659 86.584 911.581 88.888 908.424 93.496C905.267 98.104 903.688 104.461 903.688 112.568ZM984.644 147H973.38V49.72H984.644V147ZM1032.36 77.24C1040.73 77.24 1046.91 79.0747 1050.92 82.744C1054.93 86.4133 1056.94 92.2587 1056.94 100.28V147H1048.75L1046.57 137.272H1046.06C1044.1 139.747 1042.05 141.837 1039.92 143.544C1037.87 145.165 1035.48 146.36 1032.75 147.128C1030.1 147.896 1026.86 148.28 1023.02 148.28C1018.92 148.28 1015.21 147.555 1011.88 146.104C1008.64 144.653 1006.08 142.435 1004.2 139.448C1002.33 136.376 1001.39 132.536 1001.39 127.928C1001.39 121.101 1004.08 115.853 1009.45 112.184C1014.83 108.429 1023.11 106.381 1034.28 106.04L1045.93 105.656V101.56C1045.93 95.8427 1044.69 91.8747 1042.22 89.656C1039.75 87.4373 1036.25 86.328 1031.72 86.328C1028.14 86.328 1024.73 86.8827 1021.48 87.992C1018.24 89.016 1015.21 90.2107 1012.4 91.576L1008.94 83.128C1011.93 81.5067 1015.47 80.1413 1019.56 79.032C1023.66 77.8373 1027.93 77.24 1032.36 77.24ZM1035.69 113.848C1027.16 114.189 1021.23 115.555 1017.9 117.944C1014.66 120.333 1013.04 123.704 1013.04 128.056C1013.04 131.896 1014.19 134.712 1016.49 136.504C1018.88 138.296 1021.91 139.192 1025.58 139.192C1031.38 139.192 1036.2 137.613 1040.04 134.456C1043.88 131.213 1045.8 126.264 1045.8 119.608V113.464L1035.69 113.848ZM1110.13 77.112C1111.41 77.112 1112.78 77.1973 1114.23 77.368C1115.76 77.4533 1117.08 77.624 1118.19 77.88L1116.79 88.248C1115.68 87.992 1114.44 87.7787 1113.07 87.608C1111.79 87.4373 1110.56 87.352 1109.36 87.352C1106.72 87.352 1104.2 87.9067 1101.81 89.016C1099.42 90.1253 1097.29 91.704 1095.41 93.752C1093.53 95.7147 1092.04 98.104 1090.93 100.92C1089.91 103.736 1089.39 106.893 1089.39 110.392V147H1078.13V78.392H1087.35L1088.63 90.936H1089.14C1090.59 88.376 1092.34 86.072 1094.39 84.024C1096.43 81.8907 1098.78 80.2267 1101.43 79.032C1104.07 77.752 1106.97 77.112 1110.13 77.112ZM1142.27 78.392V147H1131.01V78.392H1142.27ZM1136.77 52.664C1138.47 52.664 1139.97 53.2613 1141.25 54.456C1142.61 55.5653 1143.29 57.3573 1143.29 59.832C1143.29 62.2213 1142.61 64.0133 1141.25 65.208C1139.97 66.4027 1138.47 67 1136.77 67C1134.89 67 1133.31 66.4027 1132.03 65.208C1130.75 64.0133 1130.11 62.2213 1130.11 59.832C1130.11 57.3573 1130.75 55.5653 1132.03 54.456C1133.31 53.2613 1134.89 52.664 1136.77 52.664ZM1208.68 128.056C1208.68 132.493 1207.57 136.205 1205.35 139.192C1203.13 142.179 1199.97 144.44 1195.88 145.976C1191.78 147.512 1186.92 148.28 1181.29 148.28C1176.51 148.28 1172.37 147.896 1168.87 147.128C1165.46 146.36 1162.43 145.293 1159.78 143.928V133.688C1162.51 135.053 1165.8 136.333 1169.64 137.528C1173.56 138.637 1177.53 139.192 1181.54 139.192C1187.26 139.192 1191.4 138.296 1193.96 136.504C1196.52 134.627 1197.8 132.152 1197.8 129.08C1197.8 127.373 1197.33 125.837 1196.39 124.472C1195.45 123.107 1193.74 121.741 1191.27 120.376C1188.88 119.011 1185.42 117.475 1180.9 115.768C1176.46 114.061 1172.67 112.355 1169.51 110.648C1166.35 108.941 1163.92 106.893 1162.21 104.504C1160.51 102.115 1159.65 99.0427 1159.65 95.288C1159.65 89.4853 1162 85.0053 1166.69 81.848C1171.47 78.6907 1177.7 77.112 1185.38 77.112C1189.56 77.112 1193.45 77.5387 1197.03 78.392C1200.7 79.16 1204.11 80.2693 1207.27 81.72L1203.43 90.68C1201.55 89.8267 1199.55 89.1013 1197.41 88.504C1195.37 87.8213 1193.27 87.3093 1191.14 86.968C1189.01 86.5413 1186.83 86.328 1184.61 86.328C1180.01 86.328 1176.46 87.096 1173.99 88.632C1171.6 90.0827 1170.41 92.088 1170.41 94.648C1170.41 96.5253 1170.96 98.1467 1172.07 99.512C1173.18 100.792 1175.01 102.072 1177.57 103.352C1180.22 104.547 1183.72 105.997 1188.07 107.704C1192.42 109.325 1196.13 110.989 1199.21 112.696C1202.28 114.403 1204.62 116.493 1206.25 118.968C1207.87 121.357 1208.68 124.387 1208.68 128.056Z" fill="black"/>
</g>
<g clip-path="url(#clip1_257_483)">
<rect x="12" y="24" width="162" height="164" rx="10" fill="black"/>
<path d="M95.1359 44.9816C94.4668 44.6663 93.7376 44.5029 92.9996 44.5029C92.2615 44.5029 91.5323 44.6663 90.8632 44.9816L14.9257 80.8566C14.0315 81.2792 13.2787 81.9571 12.7601 82.807C12.2414 83.6568 11.9794 84.6417 12.0063 85.6403C12.0332 86.639 12.3478 87.6079 12.9114 88.4279C13.4751 89.2479 14.2632 89.8833 15.1788 90.2559L91.1163 121.006C92.3251 121.496 93.674 121.496 94.8828 121.006L153.75 97.1849V157.25C151.064 157.25 148.489 158.33 146.59 160.252C144.691 162.174 143.625 164.781 143.625 167.5V188H174V167.5C174 164.781 172.933 162.174 171.034 160.252C169.135 158.33 166.56 157.25 163.875 157.25V93.0746L170.82 90.2559C171.736 89.8833 172.524 89.2479 173.088 88.4279C173.651 87.6079 173.966 86.639 173.993 85.6403C174.02 84.6417 173.758 83.6568 173.239 82.807C172.72 81.9571 171.968 81.2792 171.073 80.8566L95.1359 44.9816Z" fill="#FFC329"/>
<path d="M54.2819 116.578C53.63 116.329 52.9345 116.22 52.2388 116.256C51.5431 116.292 50.8622 116.473 50.2387 116.787C49.6153 117.102 49.0627 117.543 48.6155 118.084C48.1683 118.625 47.8362 119.253 47.6399 119.93L42.5774 137.355C42.2228 138.578 42.3313 139.891 42.8817 141.038C43.4321 142.185 44.385 143.082 45.5542 143.556L91.1167 162.006C92.3254 162.496 93.6744 162.496 94.8832 162.006L140.446 143.556C141.615 143.082 142.568 142.185 143.118 141.038C143.669 139.891 143.777 138.578 143.422 137.355L138.36 119.93C138.164 119.253 137.831 118.625 137.384 118.084C136.937 117.543 136.385 117.102 135.761 116.787C135.138 116.473 134.457 116.292 133.761 116.256C133.065 116.22 132.37 116.329 131.718 116.578L92.9999 131.277L54.2819 116.578Z" fill="#FFC329"/>
<path d="M105.469 84.5C105.469 87.7738 104.102 90.9134 101.67 93.2283C99.2382 95.5433 95.9395 96.8438 92.5 96.8438C89.0605 96.8438 85.7618 95.5433 83.3297 93.2283C80.8976 90.9134 79.5312 87.7738 79.5312 84.5C79.5312 81.2262 80.8976 78.0866 83.3297 75.7717C85.7618 73.4567 89.0605 72.1562 92.5 72.1562C95.9395 72.1562 99.2382 73.4567 101.67 75.7717C104.102 78.0866 105.469 81.2262 105.469 84.5Z" fill="black"/>
<path d="M51 84.5C51 84.5 66.5625 57.3438 92.5 57.3438C118.438 57.3438 134 84.5 134 84.5C134 84.5 118.438 111.656 92.5 111.656C66.5625 111.656 51 84.5 51 84.5ZM92.5 101.781C97.3153 101.781 101.933 99.9606 105.338 96.7197C108.743 93.4788 110.656 89.0833 110.656 84.5C110.656 79.9167 108.743 75.5212 105.338 72.2803C101.933 69.0394 97.3153 67.2188 92.5 67.2188C87.6847 67.2188 83.0666 69.0394 79.6616 72.2803C76.2566 75.5212 74.3438 79.9167 74.3438 84.5C74.3438 89.0833 76.2566 93.4788 79.6616 96.7197C83.0666 99.9606 87.6847 101.781 92.5 101.781Z" fill="black"/>
</g>
</g>
<defs>
<filter id="filter0_d_257_483" x="220.12" y="44.7202" width="1023.56" height="168" filterUnits="userSpaceOnUse" color-interpolation-filters="sRGB">
<feFlood flood-opacity="0" result="BackgroundImageFix"/>
<feColorMatrix in="SourceAlpha" type="matrix" values="0 0 0 0 0 0 0 0 0 0 0 0 0 0 0 0 0 0 127 0" result="hardAlpha"/>
<feOffset dx="15" dy="15"/>
<feGaussianBlur stdDeviation="10"/>
<feComposite in2="hardAlpha" operator="out"/>
<feColorMatrix type="matrix" values="0 0 0 0 1 0 0 0 0 0.764706 0 0 0 0 0.160784 0 0 0 0.25 0"/>
<feBlend mode="normal" in2="BackgroundImageFix" result="effect1_dropShadow_257_483"/>
<feBlend mode="normal" in="SourceGraphic" in2="effect1_dropShadow_257_483" result="shape"/>
</filter>
<clipPath id="clip0_257_483">
<rect width="1232" height="210" fill="white"/>
</clipPath>
<clipPath id="clip1_257_483">
<rect x="12" y="24" width="162" height="164" rx="10" fill="white"/>
</clipPath>
</defs>
</svg>
