<?xml version="1.0" encoding="utf-8" standalone="no"?>
<!DOCTYPE svg PUBLIC "-//W3C//DTD SVG 1.1//EN"
  "http://www.w3.org/Graphics/SVG/1.1/DTD/svg11.dtd">
<svg xmlns:xlink="http://www.w3.org/1999/xlink" width="460.8pt" height="345.6pt" viewBox="0 0 460.8 345.6" xmlns="http://www.w3.org/2000/svg" version="1.1">
 <metadata>
  <rdf:RDF xmlns:dc="http://purl.org/dc/elements/1.1/" xmlns:cc="http://creativecommons.org/ns#" xmlns:rdf="http://www.w3.org/1999/02/22-rdf-syntax-ns#">
   <cc:Work>
    <dc:type rdf:resource="http://purl.org/dc/dcmitype/StillImage"/>
    <dc:date>2024-05-01T18:27:59.276801</dc:date>
    <dc:format>image/svg+xml</dc:format>
    <dc:creator>
     <cc:Agent>
      <dc:title>Matplotlib v3.8.3, https://matplotlib.org/</dc:title>
     </cc:Agent>
    </dc:creator>
   </cc:Work>
  </rdf:RDF>
 </metadata>
 <defs>
  <style type="text/css">*{stroke-linejoin: round; stroke-linecap: butt}</style>
 </defs>
 <g id="figure_1">
  <g id="patch_1">
   <path d="M 0 345.6 
L 460.8 345.6 
L 460.8 0 
L 0 0 
z
" style="fill: #ffffff"/>
  </g>
  <g id="axes_1">
   <g id="patch_2">
    <path d="M 57.6 307.584 
L 414.72 307.584 
L 414.72 41.472 
L 57.6 41.472 
z
" style="fill: #ffffff"/>
   </g>
   <g id="matplotlib.axis_1">
    <g id="xtick_1">
     <g id="line2d_1">
      <defs>
       <path id="m7ebc0e9c77" d="M 0 0 
L 0 3.5 
" style="stroke: #000000; stroke-width: 0.8"/>
      </defs>
      <g>
       <use xlink:href="#m7ebc0e9c77" x="57.6" y="307.584" style="stroke: #000000; stroke-width: 0.8"/>
      </g>
     </g>
     <g id="text_1">
      <!-- 0.0 -->
      <g transform="translate(49.648438 322.182437) scale(0.1 -0.1)">
       <defs>
        <path id="DejaVuSans-30" d="M 2034 4250 
Q 1547 4250 1301 3770 
Q 1056 3291 1056 2328 
Q 1056 1369 1301 889 
Q 1547 409 2034 409 
Q 2525 409 2770 889 
Q 3016 1369 3016 2328 
Q 3016 3291 2770 3770 
Q 2525 4250 2034 4250 
z
M 2034 4750 
Q 2819 4750 3233 4129 
Q 3647 3509 3647 2328 
Q 3647 1150 3233 529 
Q 2819 -91 2034 -91 
Q 1250 -91 836 529 
Q 422 1150 422 2328 
Q 422 3509 836 4129 
Q 1250 4750 2034 4750 
z
" transform="scale(0.015625)"/>
        <path id="DejaVuSans-2e" d="M 684 794 
L 1344 794 
L 1344 0 
L 684 0 
L 684 794 
z
" transform="scale(0.015625)"/>
       </defs>
       <use xlink:href="#DejaVuSans-30"/>
       <use xlink:href="#DejaVuSans-2e" x="63.623047"/>
       <use xlink:href="#DejaVuSans-30" x="95.410156"/>
      </g>
     </g>
    </g>
    <g id="xtick_2">
     <g id="line2d_2">
      <g>
       <use xlink:href="#m7ebc0e9c77" x="129.024" y="307.584" style="stroke: #000000; stroke-width: 0.8"/>
      </g>
     </g>
     <g id="text_2">
      <!-- 0.2 -->
      <g transform="translate(121.072438 322.182437) scale(0.1 -0.1)">
       <defs>
        <path id="DejaVuSans-32" d="M 1228 531 
L 3431 531 
L 3431 0 
L 469 0 
L 469 531 
Q 828 903 1448 1529 
Q 2069 2156 2228 2338 
Q 2531 2678 2651 2914 
Q 2772 3150 2772 3378 
Q 2772 3750 2511 3984 
Q 2250 4219 1831 4219 
Q 1534 4219 1204 4116 
Q 875 4013 500 3803 
L 500 4441 
Q 881 4594 1212 4672 
Q 1544 4750 1819 4750 
Q 2544 4750 2975 4387 
Q 3406 4025 3406 3419 
Q 3406 3131 3298 2873 
Q 3191 2616 2906 2266 
Q 2828 2175 2409 1742 
Q 1991 1309 1228 531 
z
" transform="scale(0.015625)"/>
       </defs>
       <use xlink:href="#DejaVuSans-30"/>
       <use xlink:href="#DejaVuSans-2e" x="63.623047"/>
       <use xlink:href="#DejaVuSans-32" x="95.410156"/>
      </g>
     </g>
    </g>
    <g id="xtick_3">
     <g id="line2d_3">
      <g>
       <use xlink:href="#m7ebc0e9c77" x="200.448" y="307.584" style="stroke: #000000; stroke-width: 0.8"/>
      </g>
     </g>
     <g id="text_3">
      <!-- 0.4 -->
      <g transform="translate(192.496438 322.182437) scale(0.1 -0.1)">
       <defs>
        <path id="DejaVuSans-34" d="M 2419 4116 
L 825 1625 
L 2419 1625 
L 2419 4116 
z
M 2253 4666 
L 3047 4666 
L 3047 1625 
L 3713 1625 
L 3713 1100 
L 3047 1100 
L 3047 0 
L 2419 0 
L 2419 1100 
L 313 1100 
L 313 1709 
L 2253 4666 
z
" transform="scale(0.015625)"/>
       </defs>
       <use xlink:href="#DejaVuSans-30"/>
       <use xlink:href="#DejaVuSans-2e" x="63.623047"/>
       <use xlink:href="#DejaVuSans-34" x="95.410156"/>
      </g>
     </g>
    </g>
    <g id="xtick_4">
     <g id="line2d_4">
      <g>
       <use xlink:href="#m7ebc0e9c77" x="271.872" y="307.584" style="stroke: #000000; stroke-width: 0.8"/>
      </g>
     </g>
     <g id="text_4">
      <!-- 0.6 -->
      <g transform="translate(263.920438 322.182437) scale(0.1 -0.1)">
       <defs>
        <path id="DejaVuSans-36" d="M 2113 2584 
Q 1688 2584 1439 2293 
Q 1191 2003 1191 1497 
Q 1191 994 1439 701 
Q 1688 409 2113 409 
Q 2538 409 2786 701 
Q 3034 994 3034 1497 
Q 3034 2003 2786 2293 
Q 2538 2584 2113 2584 
z
M 3366 4563 
L 3366 3988 
Q 3128 4100 2886 4159 
Q 2644 4219 2406 4219 
Q 1781 4219 1451 3797 
Q 1122 3375 1075 2522 
Q 1259 2794 1537 2939 
Q 1816 3084 2150 3084 
Q 2853 3084 3261 2657 
Q 3669 2231 3669 1497 
Q 3669 778 3244 343 
Q 2819 -91 2113 -91 
Q 1303 -91 875 529 
Q 447 1150 447 2328 
Q 447 3434 972 4092 
Q 1497 4750 2381 4750 
Q 2619 4750 2861 4703 
Q 3103 4656 3366 4563 
z
" transform="scale(0.015625)"/>
       </defs>
       <use xlink:href="#DejaVuSans-30"/>
       <use xlink:href="#DejaVuSans-2e" x="63.623047"/>
       <use xlink:href="#DejaVuSans-36" x="95.410156"/>
      </g>
     </g>
    </g>
    <g id="xtick_5">
     <g id="line2d_5">
      <g>
       <use xlink:href="#m7ebc0e9c77" x="343.296" y="307.584" style="stroke: #000000; stroke-width: 0.8"/>
      </g>
     </g>
     <g id="text_5">
      <!-- 0.8 -->
      <g transform="translate(335.344438 322.182437) scale(0.1 -0.1)">
       <defs>
        <path id="DejaVuSans-38" d="M 2034 2216 
Q 1584 2216 1326 1975 
Q 1069 1734 1069 1313 
Q 1069 891 1326 650 
Q 1584 409 2034 409 
Q 2484 409 2743 651 
Q 3003 894 3003 1313 
Q 3003 1734 2745 1975 
Q 2488 2216 2034 2216 
z
M 1403 2484 
Q 997 2584 770 2862 
Q 544 3141 544 3541 
Q 544 4100 942 4425 
Q 1341 4750 2034 4750 
Q 2731 4750 3128 4425 
Q 3525 4100 3525 3541 
Q 3525 3141 3298 2862 
Q 3072 2584 2669 2484 
Q 3125 2378 3379 2068 
Q 3634 1759 3634 1313 
Q 3634 634 3220 271 
Q 2806 -91 2034 -91 
Q 1263 -91 848 271 
Q 434 634 434 1313 
Q 434 1759 690 2068 
Q 947 2378 1403 2484 
z
M 1172 3481 
Q 1172 3119 1398 2916 
Q 1625 2713 2034 2713 
Q 2441 2713 2670 2916 
Q 2900 3119 2900 3481 
Q 2900 3844 2670 4047 
Q 2441 4250 2034 4250 
Q 1625 4250 1398 4047 
Q 1172 3844 1172 3481 
z
" transform="scale(0.015625)"/>
       </defs>
       <use xlink:href="#DejaVuSans-30"/>
       <use xlink:href="#DejaVuSans-2e" x="63.623047"/>
       <use xlink:href="#DejaVuSans-38" x="95.410156"/>
      </g>
     </g>
    </g>
    <g id="xtick_6">
     <g id="line2d_6">
      <g>
       <use xlink:href="#m7ebc0e9c77" x="414.72" y="307.584" style="stroke: #000000; stroke-width: 0.8"/>
      </g>
     </g>
     <g id="text_6">
      <!-- 1.0 -->
      <g transform="translate(406.768438 322.182437) scale(0.1 -0.1)">
       <defs>
        <path id="DejaVuSans-31" d="M 794 531 
L 1825 531 
L 1825 4091 
L 703 3866 
L 703 4441 
L 1819 4666 
L 2450 4666 
L 2450 531 
L 3481 531 
L 3481 0 
L 794 0 
L 794 531 
z
" transform="scale(0.015625)"/>
       </defs>
       <use xlink:href="#DejaVuSans-31"/>
       <use xlink:href="#DejaVuSans-2e" x="63.623047"/>
       <use xlink:href="#DejaVuSans-30" x="95.410156"/>
      </g>
     </g>
    </g>
    <g id="text_7">
     <!-- Recall -->
     <g transform="translate(221.242812 335.860562) scale(0.1 -0.1)">
      <defs>
       <path id="DejaVuSans-52" d="M 2841 2188 
Q 3044 2119 3236 1894 
Q 3428 1669 3622 1275 
L 4263 0 
L 3584 0 
L 2988 1197 
Q 2756 1666 2539 1819 
Q 2322 1972 1947 1972 
L 1259 1972 
L 1259 0 
L 628 0 
L 628 4666 
L 2053 4666 
Q 2853 4666 3247 4331 
Q 3641 3997 3641 3322 
Q 3641 2881 3436 2590 
Q 3231 2300 2841 2188 
z
M 1259 4147 
L 1259 2491 
L 2053 2491 
Q 2509 2491 2742 2702 
Q 2975 2913 2975 3322 
Q 2975 3731 2742 3939 
Q 2509 4147 2053 4147 
L 1259 4147 
z
" transform="scale(0.015625)"/>
       <path id="DejaVuSans-65" d="M 3597 1894 
L 3597 1613 
L 953 1613 
Q 991 1019 1311 708 
Q 1631 397 2203 397 
Q 2534 397 2845 478 
Q 3156 559 3463 722 
L 3463 178 
Q 3153 47 2828 -22 
Q 2503 -91 2169 -91 
Q 1331 -91 842 396 
Q 353 884 353 1716 
Q 353 2575 817 3079 
Q 1281 3584 2069 3584 
Q 2775 3584 3186 3129 
Q 3597 2675 3597 1894 
z
M 3022 2063 
Q 3016 2534 2758 2815 
Q 2500 3097 2075 3097 
Q 1594 3097 1305 2825 
Q 1016 2553 972 2059 
L 3022 2063 
z
" transform="scale(0.015625)"/>
       <path id="DejaVuSans-63" d="M 3122 3366 
L 3122 2828 
Q 2878 2963 2633 3030 
Q 2388 3097 2138 3097 
Q 1578 3097 1268 2742 
Q 959 2388 959 1747 
Q 959 1106 1268 751 
Q 1578 397 2138 397 
Q 2388 397 2633 464 
Q 2878 531 3122 666 
L 3122 134 
Q 2881 22 2623 -34 
Q 2366 -91 2075 -91 
Q 1284 -91 818 406 
Q 353 903 353 1747 
Q 353 2603 823 3093 
Q 1294 3584 2113 3584 
Q 2378 3584 2631 3529 
Q 2884 3475 3122 3366 
z
" transform="scale(0.015625)"/>
       <path id="DejaVuSans-61" d="M 2194 1759 
Q 1497 1759 1228 1600 
Q 959 1441 959 1056 
Q 959 750 1161 570 
Q 1363 391 1709 391 
Q 2188 391 2477 730 
Q 2766 1069 2766 1631 
L 2766 1759 
L 2194 1759 
z
M 3341 1997 
L 3341 0 
L 2766 0 
L 2766 531 
Q 2569 213 2275 61 
Q 1981 -91 1556 -91 
Q 1019 -91 701 211 
Q 384 513 384 1019 
Q 384 1609 779 1909 
Q 1175 2209 1959 2209 
L 2766 2209 
L 2766 2266 
Q 2766 2663 2505 2880 
Q 2244 3097 1772 3097 
Q 1472 3097 1187 3025 
Q 903 2953 641 2809 
L 641 3341 
Q 956 3463 1253 3523 
Q 1550 3584 1831 3584 
Q 2591 3584 2966 3190 
Q 3341 2797 3341 1997 
z
" transform="scale(0.015625)"/>
       <path id="DejaVuSans-6c" d="M 603 4863 
L 1178 4863 
L 1178 0 
L 603 0 
L 603 4863 
z
" transform="scale(0.015625)"/>
      </defs>
      <use xlink:href="#DejaVuSans-52"/>
      <use xlink:href="#DejaVuSans-65" x="64.982422"/>
      <use xlink:href="#DejaVuSans-63" x="126.505859"/>
      <use xlink:href="#DejaVuSans-61" x="181.486328"/>
      <use xlink:href="#DejaVuSans-6c" x="242.765625"/>
      <use xlink:href="#DejaVuSans-6c" x="270.548828"/>
     </g>
    </g>
   </g>
   <g id="matplotlib.axis_2">
    <g id="ytick_1">
     <g id="line2d_7">
      <defs>
       <path id="m3db3c676d7" d="M 0 0 
L -3.5 0 
" style="stroke: #000000; stroke-width: 0.8"/>
      </defs>
      <g>
       <use xlink:href="#m3db3c676d7" x="57.6" y="307.584" style="stroke: #000000; stroke-width: 0.8"/>
      </g>
     </g>
     <g id="text_8">
      <!-- 0.0 -->
      <g transform="translate(34.696875 311.383219) scale(0.1 -0.1)">
       <use xlink:href="#DejaVuSans-30"/>
       <use xlink:href="#DejaVuSans-2e" x="63.623047"/>
       <use xlink:href="#DejaVuSans-30" x="95.410156"/>
      </g>
     </g>
    </g>
    <g id="ytick_2">
     <g id="line2d_8">
      <g>
       <use xlink:href="#m3db3c676d7" x="57.6" y="256.896" style="stroke: #000000; stroke-width: 0.8"/>
      </g>
     </g>
     <g id="text_9">
      <!-- 0.2 -->
      <g transform="translate(34.696875 260.695219) scale(0.1 -0.1)">
       <use xlink:href="#DejaVuSans-30"/>
       <use xlink:href="#DejaVuSans-2e" x="63.623047"/>
       <use xlink:href="#DejaVuSans-32" x="95.410156"/>
      </g>
     </g>
    </g>
    <g id="ytick_3">
     <g id="line2d_9">
      <g>
       <use xlink:href="#m3db3c676d7" x="57.6" y="206.208" style="stroke: #000000; stroke-width: 0.8"/>
      </g>
     </g>
     <g id="text_10">
      <!-- 0.4 -->
      <g transform="translate(34.696875 210.007219) scale(0.1 -0.1)">
       <use xlink:href="#DejaVuSans-30"/>
       <use xlink:href="#DejaVuSans-2e" x="63.623047"/>
       <use xlink:href="#DejaVuSans-34" x="95.410156"/>
      </g>
     </g>
    </g>
    <g id="ytick_4">
     <g id="line2d_10">
      <g>
       <use xlink:href="#m3db3c676d7" x="57.6" y="155.52" style="stroke: #000000; stroke-width: 0.8"/>
      </g>
     </g>
     <g id="text_11">
      <!-- 0.6 -->
      <g transform="translate(34.696875 159.319219) scale(0.1 -0.1)">
       <use xlink:href="#DejaVuSans-30"/>
       <use xlink:href="#DejaVuSans-2e" x="63.623047"/>
       <use xlink:href="#DejaVuSans-36" x="95.410156"/>
      </g>
     </g>
    </g>
    <g id="ytick_5">
     <g id="line2d_11">
      <g>
       <use xlink:href="#m3db3c676d7" x="57.6" y="104.832" style="stroke: #000000; stroke-width: 0.8"/>
      </g>
     </g>
     <g id="text_12">
      <!-- 0.8 -->
      <g transform="translate(34.696875 108.631219) scale(0.1 -0.1)">
       <use xlink:href="#DejaVuSans-30"/>
       <use xlink:href="#DejaVuSans-2e" x="63.623047"/>
       <use xlink:href="#DejaVuSans-38" x="95.410156"/>
      </g>
     </g>
    </g>
    <g id="ytick_6">
     <g id="line2d_12">
      <g>
       <use xlink:href="#m3db3c676d7" x="57.6" y="54.144" style="stroke: #000000; stroke-width: 0.8"/>
      </g>
     </g>
     <g id="text_13">
      <!-- 1.0 -->
      <g transform="translate(34.696875 57.943219) scale(0.1 -0.1)">
       <use xlink:href="#DejaVuSans-31"/>
       <use xlink:href="#DejaVuSans-2e" x="63.623047"/>
       <use xlink:href="#DejaVuSans-30" x="95.410156"/>
      </g>
     </g>
    </g>
    <g id="text_14">
     <!-- Precision -->
     <g transform="translate(28.617187 196.835031) rotate(-90) scale(0.1 -0.1)">
      <defs>
       <path id="DejaVuSans-50" d="M 1259 4147 
L 1259 2394 
L 2053 2394 
Q 2494 2394 2734 2622 
Q 2975 2850 2975 3272 
Q 2975 3691 2734 3919 
Q 2494 4147 2053 4147 
L 1259 4147 
z
M 628 4666 
L 2053 4666 
Q 2838 4666 3239 4311 
Q 3641 3956 3641 3272 
Q 3641 2581 3239 2228 
Q 2838 1875 2053 1875 
L 1259 1875 
L 1259 0 
L 628 0 
L 628 4666 
z
" transform="scale(0.015625)"/>
       <path id="DejaVuSans-72" d="M 2631 2963 
Q 2534 3019 2420 3045 
Q 2306 3072 2169 3072 
Q 1681 3072 1420 2755 
Q 1159 2438 1159 1844 
L 1159 0 
L 581 0 
L 581 3500 
L 1159 3500 
L 1159 2956 
Q 1341 3275 1631 3429 
Q 1922 3584 2338 3584 
Q 2397 3584 2469 3576 
Q 2541 3569 2628 3553 
L 2631 2963 
z
" transform="scale(0.015625)"/>
       <path id="DejaVuSans-69" d="M 603 3500 
L 1178 3500 
L 1178 0 
L 603 0 
L 603 3500 
z
M 603 4863 
L 1178 4863 
L 1178 4134 
L 603 4134 
L 603 4863 
z
" transform="scale(0.015625)"/>
       <path id="DejaVuSans-73" d="M 2834 3397 
L 2834 2853 
Q 2591 2978 2328 3040 
Q 2066 3103 1784 3103 
Q 1356 3103 1142 2972 
Q 928 2841 928 2578 
Q 928 2378 1081 2264 
Q 1234 2150 1697 2047 
L 1894 2003 
Q 2506 1872 2764 1633 
Q 3022 1394 3022 966 
Q 3022 478 2636 193 
Q 2250 -91 1575 -91 
Q 1294 -91 989 -36 
Q 684 19 347 128 
L 347 722 
Q 666 556 975 473 
Q 1284 391 1588 391 
Q 1994 391 2212 530 
Q 2431 669 2431 922 
Q 2431 1156 2273 1281 
Q 2116 1406 1581 1522 
L 1381 1569 
Q 847 1681 609 1914 
Q 372 2147 372 2553 
Q 372 3047 722 3315 
Q 1072 3584 1716 3584 
Q 2034 3584 2315 3537 
Q 2597 3491 2834 3397 
z
" transform="scale(0.015625)"/>
       <path id="DejaVuSans-6f" d="M 1959 3097 
Q 1497 3097 1228 2736 
Q 959 2375 959 1747 
Q 959 1119 1226 758 
Q 1494 397 1959 397 
Q 2419 397 2687 759 
Q 2956 1122 2956 1747 
Q 2956 2369 2687 2733 
Q 2419 3097 1959 3097 
z
M 1959 3584 
Q 2709 3584 3137 3096 
Q 3566 2609 3566 1747 
Q 3566 888 3137 398 
Q 2709 -91 1959 -91 
Q 1206 -91 779 398 
Q 353 888 353 1747 
Q 353 2609 779 3096 
Q 1206 3584 1959 3584 
z
" transform="scale(0.015625)"/>
       <path id="DejaVuSans-6e" d="M 3513 2113 
L 3513 0 
L 2938 0 
L 2938 2094 
Q 2938 2591 2744 2837 
Q 2550 3084 2163 3084 
Q 1697 3084 1428 2787 
Q 1159 2491 1159 1978 
L 1159 0 
L 581 0 
L 581 3500 
L 1159 3500 
L 1159 2956 
Q 1366 3272 1645 3428 
Q 1925 3584 2291 3584 
Q 2894 3584 3203 3211 
Q 3513 2838 3513 2113 
z
" transform="scale(0.015625)"/>
      </defs>
      <use xlink:href="#DejaVuSans-50"/>
      <use xlink:href="#DejaVuSans-72" x="58.552734"/>
      <use xlink:href="#DejaVuSans-65" x="97.416016"/>
      <use xlink:href="#DejaVuSans-63" x="158.939453"/>
      <use xlink:href="#DejaVuSans-69" x="213.919922"/>
      <use xlink:href="#DejaVuSans-73" x="241.703125"/>
      <use xlink:href="#DejaVuSans-69" x="293.802734"/>
      <use xlink:href="#DejaVuSans-6f" x="321.585938"/>
      <use xlink:href="#DejaVuSans-6e" x="382.767578"/>
     </g>
    </g>
   </g>
   <g id="line2d_13">
    <path d="M 414.72 188.892127 
L 412.497504 188.424391 
L 412.497504 188.313493 
L 411.67869 188.255507 
L 411.67869 188.236943 
L 411.210796 188.059956 
L 406.882778 187.48055 
L 406.648831 187.503822 
L 406.648831 187.408414 
L 405.94699 187.363497 
L 405.94699 187.325185 
L 405.94699 187.306021 
L 405.713043 187.194943 
L 404.777255 187.268914 
L 404.075414 187.223365 
L 404.075414 187.184757 
L 404.075414 187.165444 
L 403.2566 187.121526 
L 403.2566 187.102147 
L 403.2566 186.946887 
L 402.086865 186.908042 
L 402.086865 186.869007 
L 402.086865 186.84948 
L 401.268051 186.667027 
L 401.268051 186.568768 
L 400.800157 186.595884 
L 400.683184 186.538646 
L 399.864369 186.591107 
L 399.864369 186.571363 
L 399.162529 186.602342 
L 399.162529 186.503372 
L 398.460688 186.435024 
L 398.460688 186.395264 
L 398.343714 186.416969 
L 398.343714 186.317456 
L 398.343714 186.277605 
L 398.226741 186.29932 
L 398.226741 186.199579 
L 398.226741 186.179611 
L 397.5249 186.130069 
L 396.706086 186.202444 
L 396.706086 186.182387 
L 396.706086 186.162324 
L 396.589112 186.184145 
L 396.589112 186.083732 
L 395.536351 186.058994 
L 395.536351 186.038821 
L 395.419378 185.858618 
L 395.419378 185.818117 
L 393.547802 185.415541 
L 393.547802 185.395032 
L 390.506492 185.372844 
L 390.506492 185.331417 
L 390.506492 185.310693 
L 389.453731 185.407402 
L 389.453731 185.386638 
L 388.985837 185.371997 
L 388.985837 185.330378 
L 387.114261 185.312981 
L 387.114261 185.250127 
L 387.114261 185.229162 
L 386.763341 185.191661 
L 386.178474 185.051649 
L 385.71058 185.057423 
L 385.71058 185.036301 
L 385.71058 185.015172 
L 385.125712 185.043506 
L 385.125712 185.022342 
L 385.125712 184.958806 
L 384.540845 184.987115 
L 384.540845 184.965894 
L 384.540845 184.880934 
L 384.189925 184.821252 
L 384.189925 184.778641 
L 384.189925 184.671983 
L 383.722031 184.698657 
L 383.722031 184.677282 
L 382.903217 184.600814 
L 382.903217 184.579351 
L 382.903217 184.471923 
L 382.201376 184.414823 
L 382.201376 184.371666 
L 382.201376 184.328479 
L 380.095853 184.263478 
L 380.095853 184.241709 
L 380.095853 184.198148 
L 379.627959 184.202865 
L 379.627959 184.181043 
L 379.627959 184.137376 
L 379.510986 184.160379 
L 379.510986 184.051078 
L 379.510986 183.985404 
L 378.224278 184.129399 
L 378.224278 184.063545 
L 377.756384 184.068103 
L 377.756384 184.046105 
L 377.756384 183.825698 
L 377.28849 183.918312 
L 377.28849 183.807817 
L 377.054543 183.832053 
L 377.054543 183.721323 
L 377.054543 183.610394 
L 376.469676 183.615322 
L 376.469676 183.593074 
L 375.533888 183.667842 
L 375.533888 183.533951 
L 374.949021 183.538768 
L 374.949021 183.516385 
L 374.481127 183.497797 
L 373.077445 183.419117 
L 373.077445 183.373991 
L 372.609551 183.355037 
L 372.609551 183.309798 
L 371.90771 183.36049 
L 371.90771 183.337826 
L 371.90771 183.315153 
L 370.153108 183.55622 
L 370.153108 183.46529 
L 369.685215 183.514657 
L 369.685215 183.46911 
L 369.685215 183.400727 
L 368.8664 183.475822 
L 368.8664 183.407266 
L 368.164559 183.344118 
L 367.930613 183.368903 
L 367.930613 183.300022 
L 367.228772 183.23633 
L 367.228772 183.213277 
L 367.228772 183.12098 
L 366.760878 183.147455 
L 366.760878 183.124334 
L 366.760878 183.101205 
L 366.526931 183.126016 
L 366.526931 183.056551 
L 366.526931 183.033378 
L 366.292984 183.011797 
L 366.292984 182.98859 
L 366.292984 182.965375 
L 365.708117 183.015804 
L 365.708117 182.992555 
L 365.708117 182.87618 
L 365.47417 182.900994 
L 365.47417 182.831039 
L 364.655355 182.648789 
L 364.655355 182.601847 
L 364.070488 182.628637 
L 364.070488 182.558054 
L 363.836541 182.535768 
L 363.836541 182.512196 
L 363.836541 182.465026 
L 362.78378 182.612358 
L 362.78378 182.5651 
L 362.198913 182.662978 
L 361.380098 182.786184 
L 361.380098 182.738841 
L 361.380098 182.406427 
L 360.795231 182.433213 
L 360.795231 182.409366 
L 360.561284 182.43441 
L 360.561284 182.38667 
L 360.561284 182.219294 
L 360.09339 182.269308 
L 360.09339 182.221368 
L 359.74247 182.198917 
L 359.74247 182.126829 
L 359.74247 182.102781 
L 359.157602 182.153338 
L 359.157602 182.129253 
L 359.157602 182.081057 
L 358.689708 182.10707 
L 358.689708 182.08293 
L 358.689708 181.937898 
L 357.987868 181.818991 
L 357.403 181.845185 
L 357.403 181.82084 
L 357.05208 181.846326 
L 357.05208 181.797571 
L 357.05208 181.77318 
L 355.999319 181.971908 
L 355.999319 181.89865 
L 355.999319 181.751879 
L 354.946557 181.705829 
L 354.946557 181.656619 
L 354.946557 181.632 
L 353.074982 181.587259 
L 353.074982 181.537644 
L 352.841035 181.438751 
L 352.256168 181.464806 
L 351.086433 181.442171 
L 351.086433 181.367057 
L 351.086433 181.241667 
L 350.033672 181.393998 
L 350.033672 181.368861 
L 350.033672 181.293388 
L 349.331831 181.395268 
L 348.863937 181.47177 
L 348.863937 181.396118 
L 348.863937 181.345632 
L 348.396043 181.346404 
L 348.396043 181.27048 
L 348.27907 181.270643 
L 348.27907 181.169227 
L 348.27907 181.118458 
L 348.045123 181.118662 
L 348.045123 181.067812 
L 348.045123 181.01692 
L 346.056574 181.120414 
L 345.58868 181.172071 
L 345.58868 181.146456 
L 345.58868 180.966857 
L 345.23776 180.966983 
L 345.23776 180.941253 
L 345.23776 180.864 
L 344.886839 180.838197 
L 344.886839 180.734878 
L 344.769866 180.760682 
L 344.769866 180.734826 
L 344.652892 180.631201 
L 344.184998 180.604859 
L 344.184998 180.578886 
L 340.558821 180.469888 
L 340.558821 180.28513 
L 339.85698 180.336659 
L 339.50606 180.150159 
L 339.50606 179.910421 
L 339.038166 179.908824 
L 338.687245 179.934384 
L 337.985405 179.985664 
L 337.985405 179.905211 
L 337.751458 179.850667 
L 337.751458 179.769976 
L 337.16659 179.84853 
L 337.16659 179.794633 
L 336.230802 179.899127 
L 335.645935 179.92414 
L 335.645935 179.870012 
L 334.944094 179.921744 
L 334.944094 179.867477 
L 334.593174 179.839019 
L 334.593174 179.811822 
L 333.306466 179.997909 
L 332.955545 180.051345 
L 332.955545 179.942203 
L 332.370678 179.885467 
L 331.785811 179.938242 
L 331.785811 179.910809 
L 331.785811 179.883364 
L 331.551864 179.937445 
L 331.551864 179.827547 
L 331.551864 179.63477 
L 330.733049 179.713991 
L 330.733049 179.686356 
L 330.382129 179.657143 
L 330.382129 179.601739 
L 329.680288 179.654 
L 329.680288 179.487207 
L 328.510554 179.397269 
L 328.510554 179.229082 
L 328.276607 179.255737 
L 328.276607 179.17144 
L 328.276607 179.087032 
L 327.808713 179.083912 
L 327.808713 179.027478 
L 326.638978 179.189286 
L 326.638978 179.160999 
L 326.522005 179.188548 
L 326.522005 179.075275 
L 326.522005 179.018563 
L 325.70319 179.098161 
L 325.469243 179.125036 
L 325.469243 179.068145 
L 325.469243 179.011204 
L 324.884376 178.949971 
L 324.416482 179.003786 
L 324.416482 178.975181 
L 324.416482 178.917933 
L 323.714641 178.797759 
L 322.544907 178.961638 
L 322.544907 178.846256 
L 322.544907 178.730667 
L 322.427933 178.758639 
L 322.427933 178.700765 
L 322.427933 178.64284 
L 321.492145 178.314129 
L 321.492145 178.284896 
L 321.258198 178.253287 
L 320.790305 178.277878 
L 320.790305 178.219209 
L 320.790305 177.984 
L 320.439384 178.039032 
L 320.439384 177.980067 
L 320.439384 177.950565 
L 319.386623 178.14568 
L 319.386623 177.997818 
L 318.918729 178.022224 
L 318.918729 177.933219 
L 318.333862 177.985982 
L 318.333862 177.896727 
L 317.865968 177.98069 
L 317.632021 177.978037 
L 317.632021 177.948215 
L 317.281101 177.85451 
L 317.281101 177.82459 
L 315.292552 177.89101 
L 314.941631 177.917023 
L 314.941631 177.826495 
L 314.941631 177.796291 
L 314.23979 177.878528 
L 314.23979 177.817988 
L 313.88887 177.722672 
L 313.88887 177.601079 
L 313.420976 177.625435 
L 312.836109 177.709392 
L 312.485188 177.735479 
L 312.251241 177.732534 
L 311.900321 177.758703 
L 311.900321 177.728106 
L 311.900321 177.544217 
L 311.549401 177.600953 
L 311.549401 177.570238 
L 311.549401 177.508766 
L 310.84756 177.622465 
L 310.84756 177.591676 
L 310.84756 177.530054 
L 310.730586 177.435884 
L 310.730586 177.404992 
L 310.145719 177.458683 
L 310.145719 177.42773 
L 309.560852 177.357435 
L 309.560852 177.295274 
L 309.092958 177.194912 
L 308.625064 177.25037 
L 308.625064 177.187874 
L 308.625064 177.156604 
L 308.15717 177.18081 
L 308.15717 177.149478 
L 307.923223 177.177268 
L 307.923223 177.114527 
L 307.923223 177.020302 
L 307.338356 176.916432 
L 307.338356 176.88487 
L 306.870462 176.813869 
L 306.870462 176.528276 
L 306.636515 176.460365 
L 306.636515 176.396604 
L 306.168621 176.483708 
L 305.934674 176.255438 
L 305.46678 176.278533 
L 303.946125 176.475024 
L 303.946125 176.442811 
L 303.946125 176.410581 
L 303.010337 176.295822 
L 303.010337 176.263397 
L 302.308497 176.152052 
L 302.308497 176.086857 
L 301.957576 176.177656 
L 301.957576 176.112393 
L 301.372709 175.969507 
L 300.319948 176.177703 
L 300.319948 175.947454 
L 299.852054 176.003594 
L 299.852054 175.9706 
L 299.852054 175.838458 
L 299.38416 175.861475 
L 299.38416 175.828346 
L 299.38416 175.762037 
L 298.799292 175.815649 
L 298.799292 175.782416 
L 298.565346 175.744 
L 298.565346 175.644045 
L 298.448372 175.674758 
L 298.448372 175.641406 
L 298.448372 175.541247 
L 298.097452 175.56661 
L 297.04469 175.306672 
L 296.927717 175.337573 
L 296.927717 175.236312 
L 296.576797 175.227681 
L 296.576797 175.193839 
L 296.576797 175.126103 
L 295.991929 175.213236 
L 295.991929 175.179304 
L 295.641009 175.136542 
L 295.524035 175.167622 
L 295.524035 175.065501 
L 294.939168 174.982205 
L 294.939168 174.913783 
L 294.588248 174.938833 
L 294.588248 174.904558 
L 294.237327 174.723383 
L 293.886407 174.748297 
L 293.886407 174.713821 
L 293.886407 174.610286 
L 293.418513 174.631869 
L 293.418513 174.597264 
L 293.184566 174.590733 
L 293.184566 174.556072 
L 293.184566 174.347727 
L 292.599699 174.400385 
L 292.599699 174.330674 
L 291.546937 174.194526 
L 291.312991 174.152348 
L 290.96207 174.14172 
L 290.96207 174.071246 
L 290.845097 174.102922 
L 290.845097 173.997069 
L 290.143256 174.081424 
L 289.207468 174.229974 
L 288.037733 174.123214 
L 288.037733 174.016103 
L 287.686813 174.005093 
L 286.984972 174.162298 
L 286.984972 174.054758 
L 286.984972 173.947044 
L 286.517078 173.860064 
L 285.932211 173.949511 
L 285.932211 173.913403 
L 285.932211 173.768777 
L 285.347344 173.822092 
L 285.347344 173.785822 
L 284.87945 173.84312 
L 284.177609 173.71073 
L 283.475768 173.797056 
L 283.475768 173.46708 
L 283.241821 173.348481 
L 283.241821 173.237817 
L 282.53998 173.360613 
L 282.53998 173.323636 
L 281.83814 173.372818 
L 281.487219 173.434619 
L 281.487219 173.39751 
L 281.136299 173.161619 
L 281.136299 173.1243 
L 280.785378 172.999107 
L 280.200511 173.089767 
L 280.200511 173.014714 
L 279.966564 173.005944 
L 279.966564 172.968342 
L 279.966564 172.930719 
L 278.913803 173.117236 
L 278.913803 173.079518 
L 278.445909 173.099818 
L 278.445909 172.948457 
L 278.094989 173.01093 
L 278.094989 172.935071 
L 276.223413 172.901214 
L 275.287625 173.056949 
L 275.287625 173.018568 
L 274.117891 173.243381 
L 274.117891 173.204899 
L 273.41605 173.294281 
L 272.714209 173.15188 
L 272.246315 173.211738 
L 272.246315 173.095163 
L 272.129342 173.129571 
L 272.129342 173.05174 
L 271.310527 173.137171 
L 271.310527 173.098121 
L 271.07658 173.167261 
L 270.842633 173.040867 
L 270.37474 172.825929 
L 269.555925 173.02986 
L 269.555925 172.990424 
L 269.555925 172.832451 
L 269.205005 172.897467 
L 269.205005 172.818286 
L 268.386191 172.983682 
L 268.152244 173.014088 
L 267.450403 173.145396 
L 267.450403 173.065846 
L 266.982509 173.127094 
L 266.982509 173.087232 
L 266.280668 173.259294 
L 266.280668 173.219376 
L 266.280668 173.059466 
L 265.578827 173.192017 
L 264.64304 173.195504 
L 264.058172 173.212837 
L 263.707252 173.279856 
L 263.239358 173.38294 
L 263.239358 173.302047 
L 263.005411 173.373916 
L 263.005411 173.29292 
L 263.005411 173.252385 
L 262.30357 173.387328 
L 260.899889 173.373543 
L 260.548968 173.400784 
L 260.548968 173.236796 
L 260.198048 173.304991 
L 260.198048 173.263902 
L 260.198048 173.140484 
L 259.964101 173.007204 
L 259.964101 172.965885 
L 259.730154 172.997546 
L 259.730154 172.956173 
L 259.730154 172.914775 
L 259.496207 172.904985 
L 259.496207 172.69734 
L 259.028313 172.760497 
L 259.028313 172.677144 
L 258.91134 172.713796 
L 258.91134 172.630337 
L 258.91134 172.588568 
L 258.560419 172.656848 
L 258.560419 172.615023 
L 258.560419 172.531295 
L 258.092525 172.636451 
L 258.092525 172.594516 
L 258.092525 172.510567 
L 257.741605 172.410733 
L 257.624632 172.363282 
L 256.57187 172.400105 
L 256.103976 172.463774 
L 255.636083 172.527683 
L 255.402136 172.474593 
L 255.168189 172.549249 
L 255.168189 172.464 
L 255.168189 172.378643 
L 254.817268 172.40531 
L 254.817268 172.276894 
L 254.466348 172.174629 
L 254.466348 172.0886 
L 253.998454 171.97987 
L 253.998454 171.850105 
L 252.711746 171.699101 
L 252.711746 171.611687 
L 251.074117 171.439226 
L 251.074117 171.262127 
L 250.372276 171.135415 
L 250.372276 171.046203 
L 248.032807 171.27732 
L 248.032807 171.1872 
L 247.097019 171.090383 
L 246.980046 170.902001 
L 246.512152 171.012228 
L 246.512152 170.966644 
L 246.512152 170.921028 
L 246.395179 170.822997 
L 246.395179 170.731487 
L 245.693338 170.874332 
L 245.693338 170.828456 
L 245.342417 170.900129 
L 245.342417 170.854185 
L 245.342417 170.80821 
L 244.874523 170.873272 
L 244.874523 170.781087 
L 244.523603 170.806857 
L 244.523603 170.760649 
L 243.938736 170.911718 
L 243.587815 170.798664 
L 243.353868 170.831462 
L 243.353868 170.784979 
L 243.002948 170.810966 
L 242.301107 170.956564 
L 242.301107 170.909902 
L 242.06716 170.989714 
L 242.06716 170.896285 
L 242.06716 170.849522 
L 241.599266 170.915807 
L 241.599266 170.72814 
L 241.365319 170.714203 
L 241.365319 170.572906 
L 241.131372 170.605922 
L 241.131372 170.511487 
L 239.961638 170.819389 
L 238.207036 170.618176 
L 238.207036 170.522228 
L 237.271248 170.367278 
L 237.271248 170.125017 
L 236.803354 170.191898 
L 236.803354 170.045892 
L 236.218487 170.154 
L 235.750593 170.025511 
L 234.931779 170.217164 
L 234.931779 170.168034 
L 234.814805 170.209546 
L 234.814805 170.111175 
L 234.814805 170.061937 
L 234.697832 169.955535 
L 234.697832 169.856735 
L 234.346911 169.932009 
L 232.592309 170.460586 
L 232.592309 170.112557 
L 232.241389 170.13906 
L 231.890468 170.015475 
L 231.539548 170.041927 
L 231.071654 170.110876 
L 230.954681 170.153308 
L 230.954681 170.103004 
L 230.954681 170.002286 
L 230.25284 169.852984 
L 230.25284 169.751487 
L 230.135866 169.641565 
L 229.784946 169.667667 
L 229.784946 169.51454 
L 229.200079 169.626122 
L 229.200079 169.421057 
L 228.381264 169.618899 
L 228.381264 169.51594 
L 228.264291 169.559006 
L 228.264291 169.455886 
L 227.796397 169.525146 
L 227.56245 169.508139 
L 227.328503 169.387292 
L 226.743636 169.500262 
L 226.743636 169.344 
L 225.339954 169.501568 
L 225.339954 169.449086 
L 225.339954 169.344 
L 225.222981 169.387836 
L 225.222981 169.282583 
L 225.222981 169.229897 
L 224.755087 169.300014 
L 224.755087 169.247193 
L 224.287193 169.317538 
L 223.819299 169.388206 
L 223.819299 169.335155 
L 223.585352 169.211026 
L 223.585352 169.157764 
L 223.117458 169.228444 
L 222.883511 169.210461 
L 222.18167 169.263566 
L 222.18167 169.209891 
L 222.18167 169.156174 
L 221.83075 169.182693 
L 220.427068 169.289809 
L 220.427068 169.181301 
L 220.310095 169.226449 
L 220.310095 169.117763 
L 220.310095 168.899877 
L 219.959175 169.035469 
L 219.959175 168.926247 
L 219.959175 168.76209 
L 219.023387 169.015379 
L 219.023387 168.905491 
L 217.619705 169.012489 
L 217.619705 168.901632 
L 217.151811 168.974473 
L 217.151811 168.918874 
L 216.566944 169.149531 
L 216.566944 169.038159 
L 216.566944 168.982406 
L 216.332997 168.96325 
L 216.332997 168.907355 
L 215.982077 168.990397 
L 215.982077 168.9344 
L 215.631156 168.961555 
L 215.280236 168.988819 
L 215.280236 168.876278 
L 214.695368 168.996899 
L 214.695368 168.883951 
L 214.461422 168.920989 
L 214.461422 168.864392 
L 214.461422 168.751059 
L 213.876554 168.985621 
L 213.876554 168.872062 
L 213.876554 168.815213 
L 213.759581 168.862229 
L 213.759581 168.748382 
L 213.759581 168.691389 
L 213.642607 168.624296 
L 213.174713 168.755664 
L 213.174713 168.698462 
L 213.174713 168.526574 
L 212.472873 168.752986 
L 212.472873 168.695523 
L 211.771032 168.576959 
L 211.654058 168.450828 
L 211.303138 168.477835 
L 211.303138 168.419704 
L 211.069191 168.457105 
L 211.069191 168.340583 
L 210.835244 168.377962 
L 210.601297 168.356986 
L 210.601297 168.298487 
L 210.01643 168.0099 
L 209.782483 168.047208 
L 209.782483 167.929006 
L 209.548536 168.025475 
L 209.548536 167.96629 
L 209.548536 167.788433 
L 208.846695 167.959833 
L 208.495775 167.986391 
L 208.027881 168.061808 
L 208.027881 168.002056 
L 207.910907 167.93117 
L 207.910907 167.871259 
L 207.209066 168.104757 
L 207.209066 168.044715 
L 207.209066 167.98462 
L 207.092093 167.913314 
L 207.092093 167.732394 
L 206.741173 167.87972 
L 206.741173 167.819294 
L 206.741173 167.698286 
L 205.922358 167.922149 
L 205.688411 167.960397 
L 205.571438 168.009947 
L 205.571438 167.949157 
L 205.571438 167.827418 
L 205.103544 168.025991 
L 205.103544 167.965022 
L 205.103544 167.842924 
L 204.752624 167.931122 
L 204.752624 167.808673 
L 204.63565 167.858526 
L 204.63565 167.797216 
L 204.63565 167.612963 
L 202.998022 168.253651 
L 202.998022 168.192 
L 202.998022 168.130295 
L 202.881048 168.180776 
L 202.881048 168.119011 
L 202.881048 168.057191 
L 202.530128 168.146984 
L 202.296181 168.062291 
L 202.179207 168.113012 
L 202.179207 168.050886 
L 202.179207 167.92647 
L 201.711313 168.129744 
L 201.711313 168.067432 
L 201.477367 168.106953 
L 201.360393 168.157966 
L 200.541579 168.328748 
L 200.307632 168.368872 
L 200.307632 168.306162 
L 200.190658 168.232011 
L 200.190658 168.106185 
L 199.371844 168.404444 
L 199.371844 168.341353 
L 199.020924 168.496864 
L 199.020924 168.4337 
L 199.020924 168.18047 
L 198.90395 168.232375 
L 198.90395 167.9782 
L 198.670003 168.08211 
L 198.670003 168.018411 
L 198.319083 167.919172 
L 198.319083 167.791098 
L 198.085136 167.831273 
L 198.085136 167.767078 
L 197.266322 168.069311 
L 197.266322 168.004959 
L 197.149348 168.057503 
L 197.149348 167.799479 
L 196.915401 167.84 
L 196.915401 167.775274 
L 196.21356 168.091942 
L 196.21356 168.027123 
L 196.21356 167.962243 
L 195.745667 168.109331 
L 195.628693 168.097433 
L 195.277773 168.257106 
L 195.160799 168.049618 
L 193.640144 168.681681 
L 193.289224 168.647138 
L 192.82133 168.798287 
L 192.353436 168.818373 
L 192.002516 168.916114 
L 192.002516 168.452342 
L 191.300675 168.714431 
L 191.300675 168.581159 
L 191.183701 168.636098 
L 191.183701 168.56936 
L 191.183701 168.368762 
L 190.949754 168.478752 
L 190.949754 168.143073 
L 190.598834 168.308369 
L 190.598834 168.241021 
L 190.48186 168.161317 
L 190.48186 167.755034 
L 190.247914 167.797541 
L 190.247914 167.661429 
L 189.546073 167.925808 
L 189.429099 167.913154 
L 189.429099 167.570824 
L 189.195152 167.613455 
L 189.195152 167.544707 
L 189.078179 167.600432 
L 189.078179 167.531611 
L 189.078179 167.462721 
L 188.727258 167.630187 
L 188.727258 167.56121 
L 188.493311 167.534933 
L 187.791471 167.802672 
L 187.791471 167.73337 
L 186.270816 168.400775 
L 186.270816 168.261661 
L 185.802922 168.490239 
L 185.802922 168.350797 
L 185.335028 168.510392 
L 185.335028 168.370479 
L 184.867134 168.530687 
L 184.867134 168.32 
L 184.04832 168.725085 
L 184.04832 168.654669 
L 184.04832 168.584183 
L 183.931346 168.642274 
L 183.931346 168.571709 
L 183.931346 168.501073 
L 183.580426 168.675664 
L 183.580426 168.604937 
L 183.580426 168.534138 
L 183.229505 168.709224 
L 182.995558 168.61332 
L 182.878585 168.671902 
L 182.878585 168.600774 
L 182.527665 168.634349 
L 181.591877 169.035057 
L 181.591877 168.963567 
L 181.474903 169.022844 
L 181.474903 168.951273 
L 181.474903 168.807909 
L 180.890036 169.033295 
L 180.890036 168.961395 
L 180.422142 168.984 
L 180.305169 169.043844 
L 180.305169 168.971612 
L 180.305169 168.899305 
L 180.188195 168.959198 
L 180.188195 168.886809 
L 180.188195 168.814345 
L 179.486354 169.102364 
L 179.486354 169.029708 
L 178.550567 169.513947 
L 178.550567 169.441164 
L 178.31662 169.489977 
L 178.082673 169.538944 
L 177.848726 169.441731 
L 177.380832 169.686784 
L 177.380832 169.613474 
L 177.146885 169.662978 
L 177.146885 169.589498 
L 177.146885 169.442304 
L 176.562018 169.455125 
L 176.445044 169.516954 
L 176.445044 169.442884 
L 175.860177 169.455784 
L 175.860177 169.15729 
L 175.041363 169.519019 
L 175.041363 169.36903 
L 174.573469 169.243389 
L 174.573469 169.092197 
L 174.456495 169.155044 
L 174.456495 169.079317 
L 174.456495 169.003507 
L 173.754654 169.306022 
L 173.754654 169.230003 
L 173.637681 169.141004 
L 173.637681 168.758776 
L 173.286761 168.872235 
L 173.286761 168.564499 
L 172.93584 168.7552 
L 172.93584 168.67803 
L 172.93584 168.600774 
L 172.701893 168.728232 
L 172.701893 168.650875 
L 172.701893 168.573431 
L 172.233999 168.75158 
L 172.233999 168.673933 
L 172.117026 168.738024 
L 172.117026 168.660282 
L 171.532159 168.669785 
L 170.947291 168.757906 
L 170.947291 168.600774 
L 170.830318 168.665586 
L 170.830318 168.586878 
L 170.479397 168.624 
L 170.362424 168.689082 
L 170.362424 168.372513 
L 170.24545 168.437637 
L 170.24545 168.358261 
L 170.24545 168.278795 
L 170.011503 168.409234 
L 170.011503 168.32966 
L 169.54361 168.192 
L 169.54361 167.951254 
L 169.309663 168.001993 
L 169.309663 167.92145 
L 169.192689 167.906496 
L 169.192689 167.501868 
L 168.958742 167.633374 
L 168.958742 167.552149 
L 168.958742 167.307907 
L 168.841769 167.373738 
L 168.841769 167.210418 
L 168.724795 167.276308 
L 168.724795 167.194496 
L 168.373875 166.817032 
L 168.373875 166.734423 
L 168.139928 166.784 
L 167.087167 167.300239 
L 167.087167 167.134124 
L 166.619273 166.985143 
L 166.619273 166.901403 
L 166.268352 167.019367 
L 166.268352 166.935398 
L 166.034406 166.986226 
L 165.800459 167.037237 
L 165.449538 167.071865 
L 165.332565 167.139812 
L 165.332565 167.055258 
L 165.332565 166.970602 
L 165.215591 167.038611 
L 165.215591 166.868973 
L 164.981644 167.005196 
L 164.981644 166.920203 
L 164.981644 166.835107 
L 164.51375 167.023223 
L 164.51375 166.93788 
L 164.279803 166.903976 
L 164.045857 167.041404 
L 164.045857 166.955707 
L 164.045857 166.869906 
L 163.460989 167.128887 
L 163.460989 167.042824 
L 162.993095 167.234006 
L 162.993095 167.14769 
L 162.759148 167.200414 
L 162.759148 167.113864 
L 162.642175 167.183556 
L 162.642175 167.096889 
L 162.642175 167.010115 
L 162.408228 167.149714 
L 162.408228 167.062812 
L 162.174281 166.941318 
L 161.589414 167.205084 
L 161.589414 167.117566 
L 161.47244 167.188042 
L 161.47244 167.100404 
L 161.47244 167.012657 
L 161.004546 167.207459 
L 160.536652 167.403485 
L 160.536652 167.315321 
L 160.536652 167.13866 
L 159.600865 167.622201 
L 159.600865 167.533506 
L 159.483891 167.427657 
L 159.483891 167.338612 
L 159.366918 167.410573 
L 159.132971 167.286857 
L 158.78205 167.414179 
L 157.846263 167.184465 
L 157.846263 166.911668 
L 157.495342 167.04 
L 157.495342 166.948678 
L 157.495342 166.857238 
L 156.793501 167.207044 
L 156.325608 167.319502 
L 156.325608 167.227465 
L 156.325608 167.135307 
L 156.091661 167.191579 
L 156.091661 166.913941 
L 155.857714 166.87706 
L 155.272846 167.157723 
L 155.272846 167.064478 
L 154.571006 167.51616 
L 154.571006 167.235463 
L 154.454032 167.311059 
L 154.454032 167.123277 
L 153.986138 167.332449 
L 153.986138 167.143812 
L 153.752191 167.201466 
L 153.167324 167.013409 
L 153.167324 166.917913 
L 152.933377 166.975695 
L 152.933377 166.879913 
L 152.816404 166.956761 
L 152.816404 166.860835 
L 152.816404 166.764778 
L 152.582457 166.918737 
L 152.582457 166.822523 
L 152.582457 166.726177 
L 152.34851 166.880504 
L 152.34851 166.784 
L 152.34851 166.687363 
L 152.114563 166.842062 
L 152.114563 166.648336 
L 151.529695 167.036818 
L 151.529695 166.939688 
L 151.529695 166.64749 
L 151.061802 166.862277 
L 150.944828 166.74478 
L 150.593908 166.980511 
L 150.593908 166.784 
L 149.190226 166.94366 
L 149.190226 166.843915 
L 148.956279 166.904085 
L 148.605359 167.145026 
L 148.605359 167.044927 
L 148.371412 167.005415 
L 148.371412 166.804157 
L 148.020491 167.046611 
L 148.020491 166.84469 
L 147.318651 167.231307 
L 147.318651 166.824782 
L 146.61681 167.214393 
L 146.61681 167.112157 
L 146.382863 167.17454 
L 146.382863 167.071977 
L 146.148916 167.134454 
L 145.914969 167.197206 
L 145.914969 166.887529 
L 145.213128 167.283512 
L 144.862208 167.327145 
L 144.394314 167.559815 
L 144.394314 167.246328 
L 143.107606 168.077494 
L 143.107606 167.972365 
L 142.639712 168.211171 
L 142.639712 168.105665 
L 141.586951 168.78162 
L 141.586951 168.675664 
L 141.23603 168.832392 
L 141.23603 168.726069 
L 140.88511 168.670005 
L 140.534189 168.828046 
L 140.300242 168.683163 
L 140.300242 168.575404 
L 140.183269 168.664248 
L 140.183269 168.556308 
L 140.183269 168.448199 
L 139.715375 168.804842 
L 139.715375 168.696506 
L 139.481428 168.767099 
L 139.130508 168.92805 
L 139.130508 168.710038 
L 138.311693 169.234633 
L 138.311693 169.015379 
L 138.19472 169.106474 
L 137.8438 168.607309 
L 137.492879 168.771233 
L 137.375906 168.640206 
L 137.375906 168.416464 
L 136.557091 168.726857 
L 136.557091 168.501073 
L 136.440118 168.594122 
L 136.440118 168.36757 
L 135.855251 168.721297 
L 135.738277 168.701375 
L 135.15341 169.059087 
L 135.036436 168.925091 
L 134.568542 169.191037 
L 134.568542 169.076093 
L 133.749728 169.748211 
L 133.749728 169.517523 
L 132.930914 170.081591 
L 132.930914 169.849519 
L 132.81394 169.947243 
L 132.81394 169.830898 
L 132.81394 169.714355 
L 132.46302 169.774654 
L 132.46302 169.540085 
L 132.346047 169.520777 
L 131.995126 169.816615 
L 131.995126 169.462458 
L 131.644206 169.75967 
L 131.644206 169.641163 
L 131.644206 169.403535 
L 131.293285 169.702135 
L 131.059338 169.663445 
L 131.059338 169.424 
L 130.825391 169.504418 
L 130.708418 169.48461 
L 130.591444 169.585257 
L 130.591444 169.464734 
L 130.591444 168.980529 
L 130.357498 168.938723 
L 130.123551 169.141004 
L 130.123551 169.018921 
L 130.123551 168.651374 
L 129.77263 168.832909 
L 129.77263 168.709684 
L 128.719869 169.509161 
L 128.602896 169.488776 
L 128.602896 167.985016 
L 128.485922 167.9616 
L 128.485922 167.707279 
L 128.368949 167.68327 
L 127.433161 168.518118 
L 127.433161 168.390182 
L 127.199214 168.472561 
L 127.08224 168.320947 
L 125.795532 169.365553 
L 125.795532 169.236135 
L 125.444612 169.560338 
L 125.444612 169.430617 
L 125.444612 169.300651 
L 125.093691 169.496295 
L 124.742771 169.431521 
L 123.923957 170.071579 
L 123.923957 169.543193 
L 123.69001 169.765328 
L 123.69001 169.632555 
L 123.69001 169.366239 
L 123.456063 169.589106 
L 123.456063 169.45552 
L 123.456063 169.187569 
L 123.339089 169.164875 
L 123.339089 169.030226 
L 122.871196 169.479 
L 122.871196 169.344 
L 122.871196 169.208736 
L 122.754222 169.185882 
L 122.403302 169.389354 
L 122.286328 169.366722 
L 122.169355 169.480466 
L 122.169355 168.657605 
L 122.052381 168.771435 
L 122.052381 168.633313 
L 121.701461 168.000965 
L 121.701461 167.437562 
L 121.467514 167.666669 
L 121.467514 167.525053 
L 121.467514 167.383149 
L 121.116594 167.586116 
L 121.116594 167.443552 
L 120.99962 167.416163 
L 120.6487 167.620721 
L 120.6487 167.18918 
L 120.180806 167.511273 
L 120.180806 167.221267 
L 119.712912 167.545873 
L 119.595938 167.518098 
L 119.245018 167.727581 
L 119.011071 167.819294 
L 119.011071 167.525053 
L 118.894098 167.496911 
L 118.894098 167.200744 
L 118.543177 167.560416 
L 118.30923 167.204747 
L 118.075283 167.296548 
L 118.075283 166.995502 
L 117.841336 167.238194 
L 117.841336 167.087122 
L 117.841336 166.935724 
L 117.607389 167.027546 
L 117.490416 166.997564 
L 117.490416 166.692274 
L 116.788575 167.276954 
L 116.788575 167.123277 
L 116.320681 167.466291 
L 116.320681 167.311806 
L 115.969761 167.532439 
L 115.61884 167.286857 
L 115.033973 167.764854 
L 115.033973 167.607577 
L 114.917 167.735351 
L 114.917 167.577687 
L 114.917 167.419666 
L 114.566079 167.646041 
L 114.332132 167.745092 
L 114.332132 167.426189 
L 113.513318 168.177418 
L 113.513318 167.532763 
L 113.045424 167.897302 
L 113.045424 167.080421 
L 112.811477 166.51834 
L 112.811477 166.351792 
L 112.22661 166.850968 
L 112.22661 166.683429 
L 112.109636 166.817564 
L 112.109636 166.649585 
L 111.992663 166.615579 
L 111.758716 166.716389 
L 111.758716 166.547077 
L 111.641743 166.512578 
L 111.641743 166.000832 
L 111.524769 166.136252 
L 111.524769 165.620646 
L 110.355034 166.991823 
L 110.355034 166.81868 
L 110.355034 166.64511 
L 110.238061 166.609958 
L 109.887141 167.028566 
L 109.887141 166.503452 
L 109.770167 166.643551 
L 109.770167 166.2912 
L 108.366485 167.821662 
L 108.249512 167.610122 
L 108.132538 167.755034 
L 108.132538 167.576225 
L 108.015565 167.721465 
L 107.898592 167.687723 
L 107.898592 167.507907 
L 107.664645 167.800082 
L 107.664645 167.257583 
L 107.547671 167.222288 
L 107.547671 167.04 
L 107.313724 167.334 
L 107.313724 167.151145 
L 107.196751 167.298674 
L 107.079777 167.263162 
L 107.079777 166.524632 
L 106.728857 166.969997 
L 106.728857 166.784 
L 106.611883 166.933192 
L 106.49491 166.896191 
L 106.377936 166.483226 
L 106.377936 165.534968 
L 106.14399 165.835213 
L 106.14399 165.452108 
L 106.027016 165.217433 
L 105.793069 165.519673 
L 105.793069 165.326125 
L 105.442149 165.782413 
L 105.442149 165.588164 
L 105.325175 165.741037 
L 105.325175 165.154909 
L 105.208202 165.111514 
L 104.974255 165.418903 
L 104.974255 165.221725 
L 104.740308 165.530704 
L 104.740308 164.935508 
L 104.623334 165.090462 
L 104.623334 164.490067 
L 104.389387 164.397559 
L 104.389387 164.195033 
L 103.921494 164.821212 
L 103.921494 164.617846 
L 103.4536 165.250934 
L 103.4536 165.046726 
L 103.102679 165.526133 
L 103.102679 165.321143 
L 102.985706 165.481803 
L 102.985706 164.863071 
L 102.751759 165.185397 
L 102.751759 164.977819 
L 102.400839 165.464644 
L 102.400839 165.04726 
L 102.166892 165.373926 
L 102.166892 164.953808 
L 101.815971 165.447027 
L 101.815971 165.235828 
L 101.348077 165.900054 
L 101.348077 165.475214 
L 100.646236 166.485785 
L 100.646236 165.62674 
L 100.529263 165.145286 
L 100.41229 165.315534 
L 99.944396 166.001778 
L 99.944396 165.122385 
L 99.827422 165.29498 
L 99.710449 165.246402 
L 99.710449 165.024 
L 99.359528 165.546198 
L 99.359528 165.322868 
L 99.008608 165.174857 
L 99.008608 164.264895 
L 98.774661 164.158148 
L 98.657688 164.335304 
L 98.540714 164.2819 
L 98.306767 164.638911 
L 98.189794 164.586146 
L 98.189794 164.353251 
L 97.838873 164.894376 
L 97.838873 164.190316 
L 97.7219 164.371611 
L 97.7219 163.660291 
L 97.604926 163.84191 
L 97.604926 162.88203 
L 97.487953 163.063866 
L 97.487953 162.821789 
L 97.020059 163.311568 
L 96.903085 163.496284 
L 96.903085 163.007022 
L 96.786112 163.192163 
L 96.786112 162.946181 
L 96.669139 162.884923 
L 96.201245 163.63357 
L 96.201245 162.886422 
L 95.967298 163.264 
L 95.967298 163.013009 
L 95.733351 163.393005 
L 95.499404 163.523368 
L 95.499404 162.505272 
L 94.914537 163.471059 
L 94.68059 162.826378 
L 94.563616 163.022556 
L 94.563616 162.761143 
L 94.446643 162.957913 
L 94.446643 162.695434 
L 94.095722 163.289693 
L 94.095722 163.025901 
L 93.627828 163.827978 
L 93.627828 163.562745 
L 93.510855 163.764998 
L 93.510855 163.498667 
L 93.276908 163.637631 
L 92.692041 164.666707 
L 92.692041 164.397559 
L 92.224147 165.234398 
L 92.224147 164.963772 
L 92.107173 165.174857 
L 92.107173 164.903084 
L 91.873226 165.327448 
L 91.756253 164.99348 
L 91.405332 165.36233 
L 91.405332 165.085634 
L 91.054412 165.736955 
L 91.054412 164.617846 
L 90.235598 166.16448 
L 90.235598 165.310841 
L 90.001651 165.76 
L 89.884677 165.698726 
L 89.884677 165.410341 
L 89.65073 165.86449 
L 89.533757 165.803016 
L 89.416783 166.032296 
L 89.416783 165.741037 
L 89.29981 165.971134 
L 89.29981 165.384745 
L 88.831916 166.018142 
L 88.597969 166.488202 
L 88.597969 166.191158 
L 88.364022 166.66493 
L 88.364022 166.366373 
L 87.896128 167.325538 
L 87.896128 167.025199 
L 87.779155 166.965677 
L 87.779155 166.662621 
L 87.194288 167.888314 
L 87.077314 167.525053 
L 86.960341 167.774242 
L 86.960341 167.466291 
L 86.843367 167.71645 
L 86.843367 167.096195 
L 86.492447 167.852571 
L 86.492447 167.539973 
L 86.375473 167.794224 
L 86.375473 166.529158 
L 85.790606 167.81503 
L 85.790606 166.523861 
L 85.673632 166.784 
L 85.673632 166.129116 
L 85.439686 166.652411 
L 85.439686 165.322868 
L 83.334163 170.25198 
L 83.21719 170.199446 
L 82.983243 170.435671 
L 82.866269 170.7264 
L 82.866269 169.692212 
L 82.515349 170.57202 
L 82.047455 170.358715 
L 82.047455 170.002286 
L 81.930481 169.945567 
L 81.462588 171.167747 
L 81.462588 170.444053 
L 81.345614 170.38848 
L 81.228641 170.699294 
L 81.228641 170.332311 
L 80.760747 171.222261 
L 80.760747 170.477115 
L 80.175879 172.088377 
L 80.058906 172.039487 
L 79.824959 172.699966 
L 79.707986 172.653972 
L 79.357065 173.664 
L 79.357065 172.898743 
L 79.123118 173.581241 
L 78.889171 173.496558 
L 78.772198 173.844525 
L 78.304304 174.86542 
L 78.304304 174.471596 
L 78.18733 174.829714 
L 78.070357 174.793581 
L 77.953384 175.155892 
L 77.953384 173.545824 
L 77.83641 173.909854 
L 77.83641 173.089767 
L 77.719437 172.625238 
L 77.602463 172.993193 
L 77.602463 170.870309 
L 77.251543 171.116308 
L 77.134569 171.492424 
L 77.134569 171.053419 
L 76.900622 171.812571 
L 76.900622 170.925176 
L 76.432728 172.471947 
L 76.315755 171.050667 
L 76.315755 169.18673 
L 76.081808 169.977402 
L 76.081808 169.502897 
L 75.964835 169.902062 
L 75.964835 169.424 
L 75.847861 168.858947 
L 75.730888 169.262873 
L 75.613914 169.180596 
L 75.14602 170.835799 
L 75.14602 170.342123 
L 75.029047 170.2656 
L 75.029047 169.764438 
L 74.912073 169.682824 
L 74.561153 170.971361 
L 74.561153 169.948045 
L 74.444179 169.86566 
L 74.210233 170.223389 
L 74.210233 169.697103 
L 74.093259 170.141538 
L 74.093259 169.076093 
L 73.976286 168.984 
L 73.976286 167.340522 
L 73.742339 167.123277 
L 73.625365 167.578839 
L 73.625365 165.283672 
L 73.391418 166.202182 
L 73.391418 165.615535 
L 73.274445 164.28881 
L 73.040498 164.617846 
L 72.923524 165.091983 
L 72.806551 164.955429 
L 72.455631 165.164177 
L 72.455631 164.5312 
L 72.338657 164.384717 
L 72.338657 163.739676 
L 72.221684 164.235584 
L 71.987737 164.588037 
L 71.870763 164.437333 
L 71.75379 164.950326 
L 71.75379 163.611042 
L 71.519843 164.648645 
L 71.519843 161.886609 
L 71.285896 160.789545 
L 71.168922 161.320119 
L 70.934975 161.664 
L 70.818002 161.468082 
L 70.818002 160.718769 
L 70.701028 161.268124 
L 70.584055 161.064 
L 70.584055 160.29688 
L 70.350108 161.42019 
L 70.350108 160.642723 
L 70.116161 159.39777 
L 69.999188 159.976088 
L 69.882214 159.744 
L 69.882214 158.918078 
L 69.648267 160.101966 
L 69.648267 159.264 
L 69.531294 159.864686 
L 69.531294 158.156948 
L 69.41432 157.891368 
L 69.41432 157.010824 
L 68.946426 157.683512 
L 68.829453 158.318724 
L 68.829453 156.464497 
L 68.595506 154.870154 
L 68.595506 151.875765 
L 67.776692 156.561534 
L 67.659718 156.224 
L 67.659718 154.092169 
L 67.542745 153.709714 
L 67.308798 151.765333 
L 67.074851 150.876824 
L 66.957877 151.620923 
L 66.957877 149.184 
L 65.554196 152.323459 
L 65.203275 155.050667 
L 65.086302 154.563623 
L 65.086302 150.106718 
L 64.267488 155.52 
L 64.267488 152.249806 
L 64.150514 151.620923 
L 63.799594 154.944 
L 63.799594 145.748819 
L 61.928018 148.647051 
L 61.811045 150.276414 
L 61.811045 141.696 
L 61.343151 148.562824 
L 61.109204 149.184 
L 60.758284 144.658286 
L 60.524337 149.184 
L 60.524337 145.122462 
L 57.6 54.144 
L 57.6 54.144 
" clip-path="url(#pf7382ccfab)" style="fill: none; stroke: #1f77b4; stroke-width: 1.5; stroke-linecap: square"/>
   </g>
   <g id="patch_3">
    <path d="M 57.6 307.584 
L 57.6 41.472 
" style="fill: none; stroke: #000000; stroke-width: 0.8; stroke-linejoin: miter; stroke-linecap: square"/>
   </g>
   <g id="patch_4">
    <path d="M 414.72 307.584 
L 414.72 41.472 
" style="fill: none; stroke: #000000; stroke-width: 0.8; stroke-linejoin: miter; stroke-linecap: square"/>
   </g>
   <g id="patch_5">
    <path d="M 57.6 307.584 
L 414.72 307.584 
" style="fill: none; stroke: #000000; stroke-width: 0.8; stroke-linejoin: miter; stroke-linecap: square"/>
   </g>
   <g id="patch_6">
    <path d="M 57.6 41.472 
L 414.72 41.472 
" style="fill: none; stroke: #000000; stroke-width: 0.8; stroke-linejoin: miter; stroke-linecap: square"/>
   </g>
   <g id="text_15">
    <!-- Precision-Recall curve -->
    <g transform="translate(170.608125 35.472) scale(0.12 -0.12)">
     <defs>
      <path id="DejaVuSans-2d" d="M 313 2009 
L 1997 2009 
L 1997 1497 
L 313 1497 
L 313 2009 
z
" transform="scale(0.015625)"/>
      <path id="DejaVuSans-20" transform="scale(0.015625)"/>
      <path id="DejaVuSans-75" d="M 544 1381 
L 544 3500 
L 1119 3500 
L 1119 1403 
Q 1119 906 1312 657 
Q 1506 409 1894 409 
Q 2359 409 2629 706 
Q 2900 1003 2900 1516 
L 2900 3500 
L 3475 3500 
L 3475 0 
L 2900 0 
L 2900 538 
Q 2691 219 2414 64 
Q 2138 -91 1772 -91 
Q 1169 -91 856 284 
Q 544 659 544 1381 
z
M 1991 3584 
L 1991 3584 
z
" transform="scale(0.015625)"/>
      <path id="DejaVuSans-76" d="M 191 3500 
L 800 3500 
L 1894 563 
L 2988 3500 
L 3597 3500 
L 2284 0 
L 1503 0 
L 191 3500 
z
" transform="scale(0.015625)"/>
     </defs>
     <use xlink:href="#DejaVuSans-50"/>
     <use xlink:href="#DejaVuSans-72" x="58.552734"/>
     <use xlink:href="#DejaVuSans-65" x="97.416016"/>
     <use xlink:href="#DejaVuSans-63" x="158.939453"/>
     <use xlink:href="#DejaVuSans-69" x="213.919922"/>
     <use xlink:href="#DejaVuSans-73" x="241.703125"/>
     <use xlink:href="#DejaVuSans-69" x="293.802734"/>
     <use xlink:href="#DejaVuSans-6f" x="321.585938"/>
     <use xlink:href="#DejaVuSans-6e" x="382.767578"/>
     <use xlink:href="#DejaVuSans-2d" x="446.146484"/>
     <use xlink:href="#DejaVuSans-52" x="482.230469"/>
     <use xlink:href="#DejaVuSans-65" x="547.212891"/>
     <use xlink:href="#DejaVuSans-63" x="608.736328"/>
     <use xlink:href="#DejaVuSans-61" x="663.716797"/>
     <use xlink:href="#DejaVuSans-6c" x="724.996094"/>
     <use xlink:href="#DejaVuSans-6c" x="752.779297"/>
     <use xlink:href="#DejaVuSans-20" x="780.5625"/>
     <use xlink:href="#DejaVuSans-63" x="812.349609"/>
     <use xlink:href="#DejaVuSans-75" x="867.330078"/>
     <use xlink:href="#DejaVuSans-72" x="930.708984"/>
     <use xlink:href="#DejaVuSans-76" x="971.822266"/>
     <use xlink:href="#DejaVuSans-65" x="1031.001953"/>
    </g>
   </g>
   <g id="legend_1">
    <g id="patch_7">
     <path d="M 325.062188 302.584 
L 407.72 302.584 
Q 409.72 302.584 409.72 300.584 
L 409.72 286.905875 
Q 409.72 284.905875 407.72 284.905875 
L 325.062188 284.905875 
Q 323.062188 284.905875 323.062188 286.905875 
L 323.062188 300.584 
Q 323.062188 302.584 325.062188 302.584 
z
" style="fill: #ffffff; opacity: 0.8; stroke: #cccccc; stroke-linejoin: miter"/>
    </g>
    <g id="line2d_14">
     <path d="M 327.062188 293.004312 
L 337.062188 293.004312 
L 347.062188 293.004312 
" style="fill: none; stroke: #1f77b4; stroke-width: 1.5; stroke-linecap: square"/>
    </g>
    <g id="text_16">
     <!-- PRC curve -->
     <g transform="translate(355.062188 296.504312) scale(0.1 -0.1)">
      <defs>
       <path id="DejaVuSans-43" d="M 4122 4306 
L 4122 3641 
Q 3803 3938 3442 4084 
Q 3081 4231 2675 4231 
Q 1875 4231 1450 3742 
Q 1025 3253 1025 2328 
Q 1025 1406 1450 917 
Q 1875 428 2675 428 
Q 3081 428 3442 575 
Q 3803 722 4122 1019 
L 4122 359 
Q 3791 134 3420 21 
Q 3050 -91 2638 -91 
Q 1578 -91 968 557 
Q 359 1206 359 2328 
Q 359 3453 968 4101 
Q 1578 4750 2638 4750 
Q 3056 4750 3426 4639 
Q 3797 4528 4122 4306 
z
" transform="scale(0.015625)"/>
      </defs>
      <use xlink:href="#DejaVuSans-50"/>
      <use xlink:href="#DejaVuSans-52" x="60.302734"/>
      <use xlink:href="#DejaVuSans-43" x="124.785156"/>
      <use xlink:href="#DejaVuSans-20" x="194.609375"/>
      <use xlink:href="#DejaVuSans-63" x="226.396484"/>
      <use xlink:href="#DejaVuSans-75" x="281.376953"/>
      <use xlink:href="#DejaVuSans-72" x="344.755859"/>
      <use xlink:href="#DejaVuSans-76" x="385.869141"/>
      <use xlink:href="#DejaVuSans-65" x="445.048828"/>
     </g>
    </g>
   </g>
  </g>
 </g>
 <defs>
  <clipPath id="pf7382ccfab">
   <rect x="57.6" y="41.472" width="357.12" height="266.112"/>
  </clipPath>
 </defs>
</svg>
