<?xml version="1.0" encoding="utf-8" standalone="no"?>
<!DOCTYPE svg PUBLIC "-//W3C//DTD SVG 1.1//EN"
  "http://www.w3.org/Graphics/SVG/1.1/DTD/svg11.dtd">
<svg xmlns:xlink="http://www.w3.org/1999/xlink" width="460.8pt" height="345.6pt" viewBox="0 0 460.8 345.6" xmlns="http://www.w3.org/2000/svg" version="1.1">
 <metadata>
  <rdf:RDF xmlns:dc="http://purl.org/dc/elements/1.1/" xmlns:cc="http://creativecommons.org/ns#" xmlns:rdf="http://www.w3.org/1999/02/22-rdf-syntax-ns#">
   <cc:Work>
    <dc:type rdf:resource="http://purl.org/dc/dcmitype/StillImage"/>
    <dc:date>2024-05-01T16:55:15.977475</dc:date>
    <dc:format>image/svg+xml</dc:format>
    <dc:creator>
     <cc:Agent>
      <dc:title>Matplotlib v3.8.3, https://matplotlib.org/</dc:title>
     </cc:Agent>
    </dc:creator>
   </cc:Work>
  </rdf:RDF>
 </metadata>
 <defs>
  <style type="text/css">*{stroke-linejoin: round; stroke-linecap: butt}</style>
 </defs>
 <g id="figure_1">
  <g id="patch_1">
   <path d="M 0 345.6 
L 460.8 345.6 
L 460.8 0 
L 0 0 
z
" style="fill: #ffffff"/>
  </g>
  <g id="axes_1">
   <g id="patch_2">
    <path d="M 57.6 307.584 
L 414.72 307.584 
L 414.72 41.472 
L 57.6 41.472 
z
" style="fill: #ffffff"/>
   </g>
   <g id="matplotlib.axis_1">
    <g id="xtick_1">
     <g id="line2d_1">
      <defs>
       <path id="m74f8bce4f5" d="M 0 0 
L 0 3.5 
" style="stroke: #000000; stroke-width: 0.8"/>
      </defs>
      <g>
       <use xlink:href="#m74f8bce4f5" x="57.6" y="307.584" style="stroke: #000000; stroke-width: 0.8"/>
      </g>
     </g>
     <g id="text_1">
      <!-- 0.0 -->
      <g transform="translate(49.648438 322.182437) scale(0.1 -0.1)">
       <defs>
        <path id="DejaVuSans-30" d="M 2034 4250 
Q 1547 4250 1301 3770 
Q 1056 3291 1056 2328 
Q 1056 1369 1301 889 
Q 1547 409 2034 409 
Q 2525 409 2770 889 
Q 3016 1369 3016 2328 
Q 3016 3291 2770 3770 
Q 2525 4250 2034 4250 
z
M 2034 4750 
Q 2819 4750 3233 4129 
Q 3647 3509 3647 2328 
Q 3647 1150 3233 529 
Q 2819 -91 2034 -91 
Q 1250 -91 836 529 
Q 422 1150 422 2328 
Q 422 3509 836 4129 
Q 1250 4750 2034 4750 
z
" transform="scale(0.015625)"/>
        <path id="DejaVuSans-2e" d="M 684 794 
L 1344 794 
L 1344 0 
L 684 0 
L 684 794 
z
" transform="scale(0.015625)"/>
       </defs>
       <use xlink:href="#DejaVuSans-30"/>
       <use xlink:href="#DejaVuSans-2e" x="63.623047"/>
       <use xlink:href="#DejaVuSans-30" x="95.410156"/>
      </g>
     </g>
    </g>
    <g id="xtick_2">
     <g id="line2d_2">
      <g>
       <use xlink:href="#m74f8bce4f5" x="129.024" y="307.584" style="stroke: #000000; stroke-width: 0.8"/>
      </g>
     </g>
     <g id="text_2">
      <!-- 0.2 -->
      <g transform="translate(121.072438 322.182437) scale(0.1 -0.1)">
       <defs>
        <path id="DejaVuSans-32" d="M 1228 531 
L 3431 531 
L 3431 0 
L 469 0 
L 469 531 
Q 828 903 1448 1529 
Q 2069 2156 2228 2338 
Q 2531 2678 2651 2914 
Q 2772 3150 2772 3378 
Q 2772 3750 2511 3984 
Q 2250 4219 1831 4219 
Q 1534 4219 1204 4116 
Q 875 4013 500 3803 
L 500 4441 
Q 881 4594 1212 4672 
Q 1544 4750 1819 4750 
Q 2544 4750 2975 4387 
Q 3406 4025 3406 3419 
Q 3406 3131 3298 2873 
Q 3191 2616 2906 2266 
Q 2828 2175 2409 1742 
Q 1991 1309 1228 531 
z
" transform="scale(0.015625)"/>
       </defs>
       <use xlink:href="#DejaVuSans-30"/>
       <use xlink:href="#DejaVuSans-2e" x="63.623047"/>
       <use xlink:href="#DejaVuSans-32" x="95.410156"/>
      </g>
     </g>
    </g>
    <g id="xtick_3">
     <g id="line2d_3">
      <g>
       <use xlink:href="#m74f8bce4f5" x="200.448" y="307.584" style="stroke: #000000; stroke-width: 0.8"/>
      </g>
     </g>
     <g id="text_3">
      <!-- 0.4 -->
      <g transform="translate(192.496438 322.182437) scale(0.1 -0.1)">
       <defs>
        <path id="DejaVuSans-34" d="M 2419 4116 
L 825 1625 
L 2419 1625 
L 2419 4116 
z
M 2253 4666 
L 3047 4666 
L 3047 1625 
L 3713 1625 
L 3713 1100 
L 3047 1100 
L 3047 0 
L 2419 0 
L 2419 1100 
L 313 1100 
L 313 1709 
L 2253 4666 
z
" transform="scale(0.015625)"/>
       </defs>
       <use xlink:href="#DejaVuSans-30"/>
       <use xlink:href="#DejaVuSans-2e" x="63.623047"/>
       <use xlink:href="#DejaVuSans-34" x="95.410156"/>
      </g>
     </g>
    </g>
    <g id="xtick_4">
     <g id="line2d_4">
      <g>
       <use xlink:href="#m74f8bce4f5" x="271.872" y="307.584" style="stroke: #000000; stroke-width: 0.8"/>
      </g>
     </g>
     <g id="text_4">
      <!-- 0.6 -->
      <g transform="translate(263.920438 322.182437) scale(0.1 -0.1)">
       <defs>
        <path id="DejaVuSans-36" d="M 2113 2584 
Q 1688 2584 1439 2293 
Q 1191 2003 1191 1497 
Q 1191 994 1439 701 
Q 1688 409 2113 409 
Q 2538 409 2786 701 
Q 3034 994 3034 1497 
Q 3034 2003 2786 2293 
Q 2538 2584 2113 2584 
z
M 3366 4563 
L 3366 3988 
Q 3128 4100 2886 4159 
Q 2644 4219 2406 4219 
Q 1781 4219 1451 3797 
Q 1122 3375 1075 2522 
Q 1259 2794 1537 2939 
Q 1816 3084 2150 3084 
Q 2853 3084 3261 2657 
Q 3669 2231 3669 1497 
Q 3669 778 3244 343 
Q 2819 -91 2113 -91 
Q 1303 -91 875 529 
Q 447 1150 447 2328 
Q 447 3434 972 4092 
Q 1497 4750 2381 4750 
Q 2619 4750 2861 4703 
Q 3103 4656 3366 4563 
z
" transform="scale(0.015625)"/>
       </defs>
       <use xlink:href="#DejaVuSans-30"/>
       <use xlink:href="#DejaVuSans-2e" x="63.623047"/>
       <use xlink:href="#DejaVuSans-36" x="95.410156"/>
      </g>
     </g>
    </g>
    <g id="xtick_5">
     <g id="line2d_5">
      <g>
       <use xlink:href="#m74f8bce4f5" x="343.296" y="307.584" style="stroke: #000000; stroke-width: 0.8"/>
      </g>
     </g>
     <g id="text_5">
      <!-- 0.8 -->
      <g transform="translate(335.344438 322.182437) scale(0.1 -0.1)">
       <defs>
        <path id="DejaVuSans-38" d="M 2034 2216 
Q 1584 2216 1326 1975 
Q 1069 1734 1069 1313 
Q 1069 891 1326 650 
Q 1584 409 2034 409 
Q 2484 409 2743 651 
Q 3003 894 3003 1313 
Q 3003 1734 2745 1975 
Q 2488 2216 2034 2216 
z
M 1403 2484 
Q 997 2584 770 2862 
Q 544 3141 544 3541 
Q 544 4100 942 4425 
Q 1341 4750 2034 4750 
Q 2731 4750 3128 4425 
Q 3525 4100 3525 3541 
Q 3525 3141 3298 2862 
Q 3072 2584 2669 2484 
Q 3125 2378 3379 2068 
Q 3634 1759 3634 1313 
Q 3634 634 3220 271 
Q 2806 -91 2034 -91 
Q 1263 -91 848 271 
Q 434 634 434 1313 
Q 434 1759 690 2068 
Q 947 2378 1403 2484 
z
M 1172 3481 
Q 1172 3119 1398 2916 
Q 1625 2713 2034 2713 
Q 2441 2713 2670 2916 
Q 2900 3119 2900 3481 
Q 2900 3844 2670 4047 
Q 2441 4250 2034 4250 
Q 1625 4250 1398 4047 
Q 1172 3844 1172 3481 
z
" transform="scale(0.015625)"/>
       </defs>
       <use xlink:href="#DejaVuSans-30"/>
       <use xlink:href="#DejaVuSans-2e" x="63.623047"/>
       <use xlink:href="#DejaVuSans-38" x="95.410156"/>
      </g>
     </g>
    </g>
    <g id="xtick_6">
     <g id="line2d_6">
      <g>
       <use xlink:href="#m74f8bce4f5" x="414.72" y="307.584" style="stroke: #000000; stroke-width: 0.8"/>
      </g>
     </g>
     <g id="text_6">
      <!-- 1.0 -->
      <g transform="translate(406.768438 322.182437) scale(0.1 -0.1)">
       <defs>
        <path id="DejaVuSans-31" d="M 794 531 
L 1825 531 
L 1825 4091 
L 703 3866 
L 703 4441 
L 1819 4666 
L 2450 4666 
L 2450 531 
L 3481 531 
L 3481 0 
L 794 0 
L 794 531 
z
" transform="scale(0.015625)"/>
       </defs>
       <use xlink:href="#DejaVuSans-31"/>
       <use xlink:href="#DejaVuSans-2e" x="63.623047"/>
       <use xlink:href="#DejaVuSans-30" x="95.410156"/>
      </g>
     </g>
    </g>
    <g id="text_7">
     <!-- False Positive Rate -->
     <g transform="translate(189.693594 335.860562) scale(0.1 -0.1)">
      <defs>
       <path id="DejaVuSans-46" d="M 628 4666 
L 3309 4666 
L 3309 4134 
L 1259 4134 
L 1259 2759 
L 3109 2759 
L 3109 2228 
L 1259 2228 
L 1259 0 
L 628 0 
L 628 4666 
z
" transform="scale(0.015625)"/>
       <path id="DejaVuSans-61" d="M 2194 1759 
Q 1497 1759 1228 1600 
Q 959 1441 959 1056 
Q 959 750 1161 570 
Q 1363 391 1709 391 
Q 2188 391 2477 730 
Q 2766 1069 2766 1631 
L 2766 1759 
L 2194 1759 
z
M 3341 1997 
L 3341 0 
L 2766 0 
L 2766 531 
Q 2569 213 2275 61 
Q 1981 -91 1556 -91 
Q 1019 -91 701 211 
Q 384 513 384 1019 
Q 384 1609 779 1909 
Q 1175 2209 1959 2209 
L 2766 2209 
L 2766 2266 
Q 2766 2663 2505 2880 
Q 2244 3097 1772 3097 
Q 1472 3097 1187 3025 
Q 903 2953 641 2809 
L 641 3341 
Q 956 3463 1253 3523 
Q 1550 3584 1831 3584 
Q 2591 3584 2966 3190 
Q 3341 2797 3341 1997 
z
" transform="scale(0.015625)"/>
       <path id="DejaVuSans-6c" d="M 603 4863 
L 1178 4863 
L 1178 0 
L 603 0 
L 603 4863 
z
" transform="scale(0.015625)"/>
       <path id="DejaVuSans-73" d="M 2834 3397 
L 2834 2853 
Q 2591 2978 2328 3040 
Q 2066 3103 1784 3103 
Q 1356 3103 1142 2972 
Q 928 2841 928 2578 
Q 928 2378 1081 2264 
Q 1234 2150 1697 2047 
L 1894 2003 
Q 2506 1872 2764 1633 
Q 3022 1394 3022 966 
Q 3022 478 2636 193 
Q 2250 -91 1575 -91 
Q 1294 -91 989 -36 
Q 684 19 347 128 
L 347 722 
Q 666 556 975 473 
Q 1284 391 1588 391 
Q 1994 391 2212 530 
Q 2431 669 2431 922 
Q 2431 1156 2273 1281 
Q 2116 1406 1581 1522 
L 1381 1569 
Q 847 1681 609 1914 
Q 372 2147 372 2553 
Q 372 3047 722 3315 
Q 1072 3584 1716 3584 
Q 2034 3584 2315 3537 
Q 2597 3491 2834 3397 
z
" transform="scale(0.015625)"/>
       <path id="DejaVuSans-65" d="M 3597 1894 
L 3597 1613 
L 953 1613 
Q 991 1019 1311 708 
Q 1631 397 2203 397 
Q 2534 397 2845 478 
Q 3156 559 3463 722 
L 3463 178 
Q 3153 47 2828 -22 
Q 2503 -91 2169 -91 
Q 1331 -91 842 396 
Q 353 884 353 1716 
Q 353 2575 817 3079 
Q 1281 3584 2069 3584 
Q 2775 3584 3186 3129 
Q 3597 2675 3597 1894 
z
M 3022 2063 
Q 3016 2534 2758 2815 
Q 2500 3097 2075 3097 
Q 1594 3097 1305 2825 
Q 1016 2553 972 2059 
L 3022 2063 
z
" transform="scale(0.015625)"/>
       <path id="DejaVuSans-20" transform="scale(0.015625)"/>
       <path id="DejaVuSans-50" d="M 1259 4147 
L 1259 2394 
L 2053 2394 
Q 2494 2394 2734 2622 
Q 2975 2850 2975 3272 
Q 2975 3691 2734 3919 
Q 2494 4147 2053 4147 
L 1259 4147 
z
M 628 4666 
L 2053 4666 
Q 2838 4666 3239 4311 
Q 3641 3956 3641 3272 
Q 3641 2581 3239 2228 
Q 2838 1875 2053 1875 
L 1259 1875 
L 1259 0 
L 628 0 
L 628 4666 
z
" transform="scale(0.015625)"/>
       <path id="DejaVuSans-6f" d="M 1959 3097 
Q 1497 3097 1228 2736 
Q 959 2375 959 1747 
Q 959 1119 1226 758 
Q 1494 397 1959 397 
Q 2419 397 2687 759 
Q 2956 1122 2956 1747 
Q 2956 2369 2687 2733 
Q 2419 3097 1959 3097 
z
M 1959 3584 
Q 2709 3584 3137 3096 
Q 3566 2609 3566 1747 
Q 3566 888 3137 398 
Q 2709 -91 1959 -91 
Q 1206 -91 779 398 
Q 353 888 353 1747 
Q 353 2609 779 3096 
Q 1206 3584 1959 3584 
z
" transform="scale(0.015625)"/>
       <path id="DejaVuSans-69" d="M 603 3500 
L 1178 3500 
L 1178 0 
L 603 0 
L 603 3500 
z
M 603 4863 
L 1178 4863 
L 1178 4134 
L 603 4134 
L 603 4863 
z
" transform="scale(0.015625)"/>
       <path id="DejaVuSans-74" d="M 1172 4494 
L 1172 3500 
L 2356 3500 
L 2356 3053 
L 1172 3053 
L 1172 1153 
Q 1172 725 1289 603 
Q 1406 481 1766 481 
L 2356 481 
L 2356 0 
L 1766 0 
Q 1100 0 847 248 
Q 594 497 594 1153 
L 594 3053 
L 172 3053 
L 172 3500 
L 594 3500 
L 594 4494 
L 1172 4494 
z
" transform="scale(0.015625)"/>
       <path id="DejaVuSans-76" d="M 191 3500 
L 800 3500 
L 1894 563 
L 2988 3500 
L 3597 3500 
L 2284 0 
L 1503 0 
L 191 3500 
z
" transform="scale(0.015625)"/>
       <path id="DejaVuSans-52" d="M 2841 2188 
Q 3044 2119 3236 1894 
Q 3428 1669 3622 1275 
L 4263 0 
L 3584 0 
L 2988 1197 
Q 2756 1666 2539 1819 
Q 2322 1972 1947 1972 
L 1259 1972 
L 1259 0 
L 628 0 
L 628 4666 
L 2053 4666 
Q 2853 4666 3247 4331 
Q 3641 3997 3641 3322 
Q 3641 2881 3436 2590 
Q 3231 2300 2841 2188 
z
M 1259 4147 
L 1259 2491 
L 2053 2491 
Q 2509 2491 2742 2702 
Q 2975 2913 2975 3322 
Q 2975 3731 2742 3939 
Q 2509 4147 2053 4147 
L 1259 4147 
z
" transform="scale(0.015625)"/>
      </defs>
      <use xlink:href="#DejaVuSans-46"/>
      <use xlink:href="#DejaVuSans-61" x="48.394531"/>
      <use xlink:href="#DejaVuSans-6c" x="109.673828"/>
      <use xlink:href="#DejaVuSans-73" x="137.457031"/>
      <use xlink:href="#DejaVuSans-65" x="189.556641"/>
      <use xlink:href="#DejaVuSans-20" x="251.080078"/>
      <use xlink:href="#DejaVuSans-50" x="282.867188"/>
      <use xlink:href="#DejaVuSans-6f" x="339.544922"/>
      <use xlink:href="#DejaVuSans-73" x="400.726562"/>
      <use xlink:href="#DejaVuSans-69" x="452.826172"/>
      <use xlink:href="#DejaVuSans-74" x="480.609375"/>
      <use xlink:href="#DejaVuSans-69" x="519.818359"/>
      <use xlink:href="#DejaVuSans-76" x="547.601562"/>
      <use xlink:href="#DejaVuSans-65" x="606.78125"/>
      <use xlink:href="#DejaVuSans-20" x="668.304688"/>
      <use xlink:href="#DejaVuSans-52" x="700.091797"/>
      <use xlink:href="#DejaVuSans-61" x="767.324219"/>
      <use xlink:href="#DejaVuSans-74" x="828.603516"/>
      <use xlink:href="#DejaVuSans-65" x="867.8125"/>
     </g>
    </g>
   </g>
   <g id="matplotlib.axis_2">
    <g id="ytick_1">
     <g id="line2d_7">
      <defs>
       <path id="m6572867958" d="M 0 0 
L -3.5 0 
" style="stroke: #000000; stroke-width: 0.8"/>
      </defs>
      <g>
       <use xlink:href="#m6572867958" x="57.6" y="307.584" style="stroke: #000000; stroke-width: 0.8"/>
      </g>
     </g>
     <g id="text_8">
      <!-- 0.0 -->
      <g transform="translate(34.696875 311.383219) scale(0.1 -0.1)">
       <use xlink:href="#DejaVuSans-30"/>
       <use xlink:href="#DejaVuSans-2e" x="63.623047"/>
       <use xlink:href="#DejaVuSans-30" x="95.410156"/>
      </g>
     </g>
    </g>
    <g id="ytick_2">
     <g id="line2d_8">
      <g>
       <use xlink:href="#m6572867958" x="57.6" y="256.896" style="stroke: #000000; stroke-width: 0.8"/>
      </g>
     </g>
     <g id="text_9">
      <!-- 0.2 -->
      <g transform="translate(34.696875 260.695219) scale(0.1 -0.1)">
       <use xlink:href="#DejaVuSans-30"/>
       <use xlink:href="#DejaVuSans-2e" x="63.623047"/>
       <use xlink:href="#DejaVuSans-32" x="95.410156"/>
      </g>
     </g>
    </g>
    <g id="ytick_3">
     <g id="line2d_9">
      <g>
       <use xlink:href="#m6572867958" x="57.6" y="206.208" style="stroke: #000000; stroke-width: 0.8"/>
      </g>
     </g>
     <g id="text_10">
      <!-- 0.4 -->
      <g transform="translate(34.696875 210.007219) scale(0.1 -0.1)">
       <use xlink:href="#DejaVuSans-30"/>
       <use xlink:href="#DejaVuSans-2e" x="63.623047"/>
       <use xlink:href="#DejaVuSans-34" x="95.410156"/>
      </g>
     </g>
    </g>
    <g id="ytick_4">
     <g id="line2d_10">
      <g>
       <use xlink:href="#m6572867958" x="57.6" y="155.52" style="stroke: #000000; stroke-width: 0.8"/>
      </g>
     </g>
     <g id="text_11">
      <!-- 0.6 -->
      <g transform="translate(34.696875 159.319219) scale(0.1 -0.1)">
       <use xlink:href="#DejaVuSans-30"/>
       <use xlink:href="#DejaVuSans-2e" x="63.623047"/>
       <use xlink:href="#DejaVuSans-36" x="95.410156"/>
      </g>
     </g>
    </g>
    <g id="ytick_5">
     <g id="line2d_11">
      <g>
       <use xlink:href="#m6572867958" x="57.6" y="104.832" style="stroke: #000000; stroke-width: 0.8"/>
      </g>
     </g>
     <g id="text_12">
      <!-- 0.8 -->
      <g transform="translate(34.696875 108.631219) scale(0.1 -0.1)">
       <use xlink:href="#DejaVuSans-30"/>
       <use xlink:href="#DejaVuSans-2e" x="63.623047"/>
       <use xlink:href="#DejaVuSans-38" x="95.410156"/>
      </g>
     </g>
    </g>
    <g id="ytick_6">
     <g id="line2d_12">
      <g>
       <use xlink:href="#m6572867958" x="57.6" y="54.144" style="stroke: #000000; stroke-width: 0.8"/>
      </g>
     </g>
     <g id="text_13">
      <!-- 1.0 -->
      <g transform="translate(34.696875 57.943219) scale(0.1 -0.1)">
       <use xlink:href="#DejaVuSans-31"/>
       <use xlink:href="#DejaVuSans-2e" x="63.623047"/>
       <use xlink:href="#DejaVuSans-30" x="95.410156"/>
      </g>
     </g>
    </g>
    <g id="text_14">
     <!-- True Positive Rate -->
     <g transform="translate(28.617187 219.057687) rotate(-90) scale(0.1 -0.1)">
      <defs>
       <path id="DejaVuSans-54" d="M -19 4666 
L 3928 4666 
L 3928 4134 
L 2272 4134 
L 2272 0 
L 1638 0 
L 1638 4134 
L -19 4134 
L -19 4666 
z
" transform="scale(0.015625)"/>
       <path id="DejaVuSans-72" d="M 2631 2963 
Q 2534 3019 2420 3045 
Q 2306 3072 2169 3072 
Q 1681 3072 1420 2755 
Q 1159 2438 1159 1844 
L 1159 0 
L 581 0 
L 581 3500 
L 1159 3500 
L 1159 2956 
Q 1341 3275 1631 3429 
Q 1922 3584 2338 3584 
Q 2397 3584 2469 3576 
Q 2541 3569 2628 3553 
L 2631 2963 
z
" transform="scale(0.015625)"/>
       <path id="DejaVuSans-75" d="M 544 1381 
L 544 3500 
L 1119 3500 
L 1119 1403 
Q 1119 906 1312 657 
Q 1506 409 1894 409 
Q 2359 409 2629 706 
Q 2900 1003 2900 1516 
L 2900 3500 
L 3475 3500 
L 3475 0 
L 2900 0 
L 2900 538 
Q 2691 219 2414 64 
Q 2138 -91 1772 -91 
Q 1169 -91 856 284 
Q 544 659 544 1381 
z
M 1991 3584 
L 1991 3584 
z
" transform="scale(0.015625)"/>
      </defs>
      <use xlink:href="#DejaVuSans-54"/>
      <use xlink:href="#DejaVuSans-72" x="46.333984"/>
      <use xlink:href="#DejaVuSans-75" x="87.447266"/>
      <use xlink:href="#DejaVuSans-65" x="150.826172"/>
      <use xlink:href="#DejaVuSans-20" x="212.349609"/>
      <use xlink:href="#DejaVuSans-50" x="244.136719"/>
      <use xlink:href="#DejaVuSans-6f" x="300.814453"/>
      <use xlink:href="#DejaVuSans-73" x="361.996094"/>
      <use xlink:href="#DejaVuSans-69" x="414.095703"/>
      <use xlink:href="#DejaVuSans-74" x="441.878906"/>
      <use xlink:href="#DejaVuSans-69" x="481.087891"/>
      <use xlink:href="#DejaVuSans-76" x="508.871094"/>
      <use xlink:href="#DejaVuSans-65" x="568.050781"/>
      <use xlink:href="#DejaVuSans-20" x="629.574219"/>
      <use xlink:href="#DejaVuSans-52" x="661.361328"/>
      <use xlink:href="#DejaVuSans-61" x="728.59375"/>
      <use xlink:href="#DejaVuSans-74" x="789.873047"/>
      <use xlink:href="#DejaVuSans-65" x="829.082031"/>
     </g>
    </g>
   </g>
   <g id="line2d_13">
    <path d="M 57.6 307.584 
L 59.462155 304.691793 
L 59.875968 304.691793 
L 60.393233 302.791199 
L 60.496686 302.295392 
L 60.703592 302.047489 
L 60.910498 301.716951 
L 61.117404 301.716951 
L 61.117404 301.634316 
L 61.220857 301.551682 
L 61.738123 301.469047 
L 62.048482 301.055875 
L 62.358841 301.055875 
L 62.6692 300.725337 
L 62.6692 300.560068 
L 62.97956 300.394799 
L 63.186466 300.146895 
L 63.289919 299.981626 
L 63.393372 298.907378 
L 63.496825 298.907378 
L 63.910637 298.742109 
L 64.01409 298.246302 
L 64.220997 298.163667 
L 64.220997 298.081033 
L 64.531356 297.998398 
L 64.531356 297.915764 
L 64.738262 297.66786 
L 64.945168 297.66786 
L 65.048621 297.089419 
L 65.255527 297.089419 
L 65.255527 297.006784 
L 65.35898 296.92415 
L 65.565886 296.92415 
L 65.565886 296.758881 
L 65.876246 296.593612 
L 65.979699 296.263074 
L 66.393511 296.015171 
L 66.807323 296.015171 
L 66.807323 295.767267 
L 67.014229 295.601998 
L 67.014229 295.354095 
L 67.221136 295.354095 
L 67.324589 295.023557 
L 67.531495 294.610384 
L 67.841854 294.610384 
L 67.945307 294.445115 
L 68.359119 294.362481 
L 68.462572 293.784039 
L 68.772932 293.701405 
L 68.772932 293.61877 
L 69.186744 293.536136 
L 69.186744 293.288232 
L 69.39365 293.122963 
L 69.39365 292.792425 
L 69.704009 292.792425 
L 69.704009 292.461887 
L 70.014368 292.461887 
L 70.221275 292.131349 
L 70.635087 292.131349 
L 70.73854 291.470273 
L 71.152352 291.387639 
L 71.152352 291.139735 
L 71.255805 291.139735 
L 71.462711 290.891832 
L 71.462711 290.726563 
L 71.773071 290.478659 
L 71.979977 290.478659 
L 71.979977 290.230756 
L 72.393789 290.148121 
L 72.393789 290.065487 
L 72.704148 289.982852 
L 73.014508 289.156507 
L 73.324867 289.073873 
L 73.42832 288.247528 
L 73.738679 287.669086 
L 73.738679 287.338548 
L 73.945585 287.338548 
L 74.049038 286.925376 
L 74.255944 286.925376 
L 74.359397 286.594838 
L 74.980116 286.512203 
L 75.393928 286.181665 
L 75.393928 285.851127 
L 75.600834 285.851127 
L 75.600834 285.685858 
L 75.704287 285.685858 
L 77.049177 284.528976 
L 77.256083 284.198438 
L 77.256083 283.8679 
L 77.46299 283.8679 
L 77.46299 283.702631 
L 77.566443 283.702631 
L 77.876802 283.702631 
L 77.876802 283.537362 
L 78.290614 283.454727 
L 78.394067 283.372093 
L 78.394067 283.206824 
L 78.600973 283.206824 
L 79.428598 282.628382 
L 79.428598 282.21521 
L 79.738957 282.21521 
L 79.738957 282.049941 
L 79.945863 281.884672 
L 80.359676 281.802037 
L 80.359676 281.719403 
L 80.566582 281.554134 
L 80.566582 281.223596 
L 80.773488 281.223596 
L 80.773488 280.893058 
L 80.980394 280.893058 
L 80.980394 280.727789 
L 81.290753 280.314616 
L 81.290753 280.149347 
L 81.497659 280.149347 
L 81.497659 279.984078 
L 81.911472 279.984078 
L 82.014925 279.570906 
L 82.221831 279.405637 
L 82.325284 279.323002 
L 82.428737 278.744561 
L 82.635643 278.661926 
L 82.635643 278.414023 
L 82.946002 278.248754 
L 83.049455 277.752947 
L 83.359815 277.670312 
L 83.463268 277.339774 
L 83.670174 277.25714 
L 84.290892 277.25714 
L 84.394345 276.843967 
L 84.497798 276.843967 
L 84.497798 276.513429 
L 85.325423 275.934988 
L 85.532329 275.934988 
L 85.532329 275.60445 
L 85.946141 275.60445 
L 85.946141 275.439181 
L 86.153048 275.356546 
L 86.153048 275.108643 
L 86.56686 275.026008 
L 86.56686 274.943374 
L 86.980672 274.69547 
L 87.394484 274.364933 
L 87.394484 274.117029 
L 87.497937 274.117029 
L 88.118656 273.621222 
L 88.222109 273.20805 
L 88.429015 273.20805 
L 88.635921 272.877512 
L 89.049733 272.794877 
L 89.463546 272.216436 
L 89.773905 272.216436 
L 89.773905 272.051167 
L 89.980811 272.051167 
L 89.980811 271.968532 
L 90.084264 271.885898 
L 90.394623 271.885898 
L 90.394623 271.720629 
L 90.60153 271.720629 
L 90.60153 271.472725 
L 90.808436 271.224822 
L 91.222248 270.729015 
L 91.429154 270.481111 
L 91.429154 270.315842 
L 91.63606 270.315842 
L 91.739513 269.985304 
L 92.049873 269.985304 
L 92.049873 269.737401 
L 92.256779 269.654766 
L 92.670591 269.654766 
L 92.670591 269.324228 
L 93.291309 269.241594 
L 93.291309 269.158959 
L 93.705122 269.158959 
L 93.808575 268.745787 
L 94.222387 268.663152 
L 94.222387 268.580518 
L 94.429293 268.580518 
L 94.429293 268.497883 
L 94.532746 268.332614 
L 94.532746 268.167345 
L 94.843105 268.084711 
L 94.946559 267.919442 
L 94.946559 267.671538 
L 95.153465 267.671538 
L 95.153465 267.588904 
L 95.256918 267.506269 
L 95.360371 266.845193 
L 95.463824 266.845193 
L 95.463824 266.679924 
L 96.291448 266.59729 
L 96.601808 266.349386 
L 97.119073 266.349386 
L 97.119073 266.266752 
L 97.222526 265.936214 
L 97.222526 265.68831 
L 97.325979 265.68831 
L 97.429432 265.605676 
L 97.532885 265.357772 
L 97.739791 265.357772 
L 97.739791 265.192503 
L 97.843244 265.192503 
L 98.36051 265.109869 
L 98.463963 264.9446 
L 98.567416 264.9446 
L 98.670869 264.614062 
L 98.670869 264.531427 
L 98.774322 264.531427 
L 98.877775 264.448793 
L 99.084681 264.448793 
L 99.188134 264.118255 
L 100.015759 264.03562 
L 100.119212 263.539813 
L 100.222665 263.539813 
L 100.326118 263.044007 
L 100.843384 263.044007 
L 100.946837 262.382931 
L 101.360649 262.382931 
L 101.671008 262.052393 
L 101.877914 261.969758 
L 101.981367 261.804489 
L 102.291727 261.721855 
L 102.291727 261.473951 
L 102.498633 261.391317 
L 102.602086 260.482337 
L 102.705539 260.399703 
L 102.808992 260.151799 
L 102.912445 260.151799 
L 102.912445 259.98653 
L 103.222804 259.903896 
L 103.326257 259.738627 
L 103.42971 259.738627 
L 103.42971 259.490723 
L 104.050429 259.490723 
L 104.050429 259.24282 
L 104.257335 259.24282 
L 104.257335 258.994916 
L 104.7746 258.912282 
L 105.084959 258.747013 
L 105.084959 258.003302 
L 105.188413 258.003302 
L 105.602225 257.755399 
L 105.602225 257.672764 
L 106.016037 257.59013 
L 106.11949 257.176957 
L 106.326396 257.094323 
L 106.429849 257.011688 
L 106.533302 256.763785 
L 106.843662 256.763785 
L 107.050568 256.433247 
L 107.257474 256.350612 
L 107.360927 256.102709 
L 107.46438 256.102709 
L 107.46438 256.020074 
L 107.567833 255.441633 
L 107.981645 255.441633 
L 107.981645 255.358998 
L 108.085098 255.276364 
L 108.498911 255.193729 
L 108.498911 254.780557 
L 108.80927 254.780557 
L 108.912723 254.615288 
L 109.016176 254.532653 
L 109.326535 254.532653 
L 109.326535 254.367384 
L 109.533441 254.367384 
L 109.533441 254.202115 
L 109.740348 254.119481 
L 109.843801 253.706308 
L 110.361066 253.541039 
L 110.464519 253.045232 
L 110.567972 253.045232 
L 110.567972 252.797329 
L 110.774878 252.797329 
L 110.878331 252.549425 
L 111.188691 252.549425 
L 111.292144 252.136253 
L 111.395597 252.136253 
L 111.49905 251.805715 
L 111.705956 251.557812 
L 112.016315 251.557812 
L 112.119768 251.144639 
L 112.430127 251.144639 
L 112.533581 250.896736 
L 112.637034 250.896736 
L 112.740487 250.648832 
L 113.050846 250.648832 
L 113.154299 250.318294 
L 113.257752 250.318294 
L 113.257752 250.23566 
L 114.18883 249.905122 
L 114.18883 249.739853 
L 114.602642 249.657218 
L 114.602642 249.574584 
L 114.706095 249.574584 
L 115.430267 248.996142 
L 115.947532 248.913508 
L 116.050985 248.665604 
L 116.464797 248.58297 
L 116.464797 248.500335 
L 116.775156 248.417701 
L 116.775156 248.252432 
L 116.982063 248.087163 
L 117.085516 247.426087 
L 117.188969 247.426087 
L 117.292422 247.260818 
L 117.602781 247.012914 
L 117.602781 246.847645 
L 118.637312 246.434473 
L 118.740765 246.186569 
L 119.051124 246.186569 
L 119.051124 245.938666 
L 119.671842 245.856031 
L 119.878749 245.773397 
L 119.982202 245.525493 
L 120.706373 245.442859 
L 120.706373 245.27759 
L 121.120185 245.194955 
L 121.120185 245.112321 
L 121.94781 245.029686 
L 122.361622 244.699148 
L 122.361622 243.955438 
L 122.671981 243.955438 
L 122.775435 242.963824 
L 123.189247 242.963824 
L 123.706512 242.302748 
L 124.327231 242.220113 
L 124.430684 241.889575 
L 124.741043 241.806941 
L 124.844496 241.724306 
L 125.051402 241.724306 
L 125.051402 241.559037 
L 125.154855 241.559037 
L 125.465214 241.311134 
L 125.568667 240.897962 
L 125.672121 240.732693 
L 125.775574 240.236886 
L 125.879027 240.154251 
L 126.085933 240.154251 
L 126.085933 240.071617 
L 126.085933 239.741079 
L 126.499745 239.162637 
L 126.810104 239.080003 
L 126.810104 238.832099 
L 126.913557 238.832099 
L 127.01701 238.749465 
L 127.120463 238.253658 
L 127.741182 238.253658 
L 127.741182 237.840485 
L 128.775713 237.592582 
L 128.775713 237.096775 
L 128.879166 237.096775 
L 130.224056 236.848871 
L 130.327509 236.600968 
L 130.534415 236.353064 
L 130.637868 235.691988 
L 130.741321 235.691988 
L 130.741321 235.36145 
L 131.155133 235.196181 
L 131.155133 235.030912 
L 131.362039 235.030912 
L 131.362039 234.700374 
L 131.568946 234.700374 
L 131.672399 234.287202 
L 131.879305 234.204567 
L 131.982758 233.874029 
L 132.39657 233.791395 
L 132.39657 233.70876 
L 132.913835 233.626126 
L 133.017289 233.543491 
L 133.431101 233.543491 
L 133.431101 233.212953 
L 133.638007 233.212953 
L 133.638007 233.130319 
L 133.844913 232.96505 
L 133.948366 232.717146 
L 134.051819 232.717146 
L 134.051819 232.634512 
L 134.155272 231.973436 
L 134.258725 231.890801 
L 134.465632 231.890801 
L 134.569085 231.560263 
L 134.879444 231.560263 
L 134.982897 231.394994 
L 135.707068 231.147091 
L 136.638146 231.064456 
L 136.638146 230.981822 
L 137.362317 230.899187 
L 137.465771 230.568649 
L 137.569224 230.568649 
L 137.672677 229.990208 
L 137.77613 229.824939 
L 137.77613 229.65967 
L 138.086489 229.65967 
L 138.086489 229.411767 
L 138.189942 229.411767 
L 138.707207 228.998594 
L 138.914114 228.998594 
L 139.017567 228.750691 
L 139.12102 228.502787 
L 139.534832 228.420153 
L 139.534832 228.337518 
L 139.741738 228.337518 
L 139.741738 228.254884 
L 139.948644 228.00698 
L 140.259003 228.00698 
L 140.259003 227.924346 
L 140.776269 227.511173 
L 140.776269 227.345904 
L 140.983175 227.345904 
L 140.983175 227.180635 
L 141.086628 227.180635 
L 141.603893 226.767463 
L 141.914253 226.684828 
L 142.017706 226.35429 
L 142.224612 226.35429 
L 142.224612 226.189021 
L 142.534971 226.189021 
L 142.638424 225.693214 
L 142.948783 225.527945 
L 143.569502 225.527945 
L 143.569502 225.445311 
L 143.672955 225.362676 
L 143.879861 225.362676 
L 143.879861 225.197407 
L 144.086767 225.197407 
L 144.086767 225.114773 
L 144.19022 224.7016 
L 144.500579 224.618966 
L 144.604032 224.371062 
L 144.707486 224.371062 
L 144.707486 224.288428 
L 145.121298 224.040524 
L 145.328204 223.95789 
L 145.328204 223.709986 
L 145.638563 223.627352 
L 145.742016 223.379448 
L 145.845469 223.379448 
L 145.948922 223.214179 
L 146.052375 222.635738 
L 146.362735 222.553103 
L 146.362735 222.470469 
L 146.673094 222.387834 
L 146.776547 222.139931 
L 147.500718 222.057296 
L 147.500718 221.974662 
L 147.604171 221.974662 
L 147.811078 221.809393 
L 148.121437 221.726758 
L 148.121437 221.644124 
L 148.431796 221.644124 
L 148.431796 221.561489 
L 149.052514 220.983048 
L 149.362874 220.983048 
L 149.362874 220.900413 
L 149.362874 220.65251 
L 149.673233 220.569875 
L 149.673233 219.826165 
L 149.776686 219.826165 
L 149.880139 219.74353 
L 150.087045 219.74353 
L 150.087045 219.660896 
L 150.087045 219.495627 
L 150.190498 219.495627 
L 150.293951 219.412993 
L 150.397404 218.99982 
L 150.811217 218.917186 
L 150.811217 218.834551 
L 151.018123 218.834551 
L 151.121576 218.338744 
L 151.431935 218.25611 
L 151.431935 218.173475 
L 151.535388 218.173475 
L 151.638841 218.090841 
L 151.638841 217.925572 
L 151.845747 217.925572 
L 151.845747 217.842937 
L 151.9492 217.677668 
L 152.052654 217.099227 
L 153.087184 217.016592 
L 153.087184 216.933958 
L 153.29409 216.851323 
L 153.29409 216.686054 
L 153.60445 216.686054 
L 153.60445 216.520785 
L 154.018262 216.438151 
L 154.121715 215.859709 
L 154.328621 215.777075 
L 154.432074 215.611806 
L 154.535527 215.611806 
L 154.63898 215.363902 
L 155.052793 215.363902 
L 155.052793 214.95073 
L 155.466605 214.95073 
L 155.466605 214.785461 
L 155.776964 214.785461 
L 155.880417 214.04175 
L 155.98387 214.04175 
L 156.087323 213.793847 
L 156.190776 213.793847 
L 156.294229 213.545943 
L 156.397683 213.545943 
L 156.397683 213.463309 
L 156.397683 213.215405 
L 156.501136 213.215405 
L 156.708042 212.967502 
L 156.708042 212.802233 
L 157.225307 212.802233 
L 157.225307 212.719598 
L 157.639119 212.38906 
L 157.639119 212.223791 
L 158.363291 212.141157 
L 158.466744 211.975888 
L 158.777103 211.727984 
L 158.880556 211.232177 
L 158.984009 211.232177 
L 159.087462 210.901639 
L 159.294368 210.901639 
L 159.294368 210.819005 
L 159.501275 210.73637 
L 159.604728 210.075294 
L 159.708181 210.075294 
L 159.708181 209.910025 
L 160.01854 209.827391 
L 160.121993 209.662122 
L 160.846165 209.579487 
L 160.949618 209.001046 
L 161.466883 208.918411 
L 161.466883 208.587873 
L 162.397961 208.505239 
L 162.397961 208.33997 
L 162.811773 208.257336 
L 163.225585 208.174701 
L 163.329038 207.926798 
L 163.742851 207.844163 
L 163.742851 207.430991 
L 163.846304 207.430991 
L 164.260116 207.348356 
L 164.260116 207.183087 
L 164.673928 207.183087 
L 164.880834 206.68728 
L 164.880834 206.522011 
L 165.191194 206.522011 
L 165.191194 206.191473 
L 165.3981 206.191473 
L 165.3981 205.860935 
L 165.605006 205.860935 
L 165.811912 205.695666 
L 166.018818 205.695666 
L 166.43263 205.447763 
L 166.43263 205.03459 
L 166.639537 205.03459 
L 166.639537 204.951956 
L 166.74299 204.29088 
L 166.949896 204.29088 
L 167.053349 204.042976 
L 167.260255 203.795073 
L 167.570614 203.712438 
L 167.674067 203.299266 
L 167.880973 203.216631 
L 167.984426 203.051362 
L 168.191333 203.051362 
L 168.294786 202.803459 
L 168.501692 202.720824 
L 168.501692 202.472921 
L 168.812051 202.225017 
L 169.432769 202.142383 
L 169.536222 202.059748 
L 169.639676 201.316038 
L 169.743129 201.316038 
L 169.846582 201.150769 
L 170.053488 201.068134 
L 170.156941 200.737596 
L 170.363847 200.737596 
L 170.363847 200.572327 
L 170.777659 200.489693 
L 170.881112 200.159155 
L 171.088019 200.07652 
L 171.191472 199.911251 
L 171.294925 199.745982 
L 171.501831 199.745982 
L 171.501831 199.663348 
L 171.501831 199.33281 
L 172.432908 199.250175 
L 172.639815 199.002272 
L 172.639815 198.919637 
L 172.846721 198.837003 
L 172.846721 198.589099 
L 173.15708 198.341196 
L 173.570892 198.341196 
L 173.674345 198.093292 
L 173.881251 198.010658 
L 173.881251 197.928023 
L 174.398517 197.845389 
L 174.812329 197.597485 
L 175.019235 197.514851 
L 175.019235 197.349582 
L 175.226141 197.349582 
L 175.226141 197.101679 
L 175.639954 197.019044 
L 175.639954 196.605872 
L 175.84686 196.605872 
L 175.84686 196.523237 
L 176.260672 196.192699 
L 176.260672 196.02743 
L 176.467578 196.02743 
L 176.571031 195.779527 
L 176.777937 195.779527 
L 176.777937 195.531623 
L 176.88139 195.531623 
L 176.984844 195.448989 
L 177.19175 195.448989 
L 177.398656 195.201085 
L 177.605562 195.201085 
L 177.605562 195.035816 
L 177.812468 195.035816 
L 177.915921 194.622644 
L 178.329733 193.796299 
L 178.329733 193.713664 
L 179.157358 193.63103 
L 179.260811 193.465761 
L 179.364264 193.465761 
L 179.467717 192.804685 
L 179.984983 192.804685 
L 179.984983 192.556781 
L 180.605701 192.143609 
L 181.122966 192.143609 
L 181.226419 191.813071 
L 181.640232 191.730436 
L 181.743685 191.151995 
L 181.950591 191.151995 
L 181.950591 190.986726 
L 182.157497 190.986726 
L 182.157497 190.821457 
L 182.571309 190.821457 
L 182.674762 190.490919 
L 183.088575 190.408284 
L 183.192028 190.243015 
L 183.192028 190.077746 
L 183.398934 190.077746 
L 183.398934 189.912477 
L 183.812746 189.829843 
L 184.433465 189.499305 
L 184.433465 189.168767 
L 185.261089 189.168767 
L 185.467995 188.838229 
L 185.674902 188.838229 
L 185.778355 188.259787 
L 186.502526 188.177153 
L 186.812885 187.929249 
L 186.916338 187.598711 
L 187.019791 187.598711 
L 187.019791 187.350808 
L 187.743963 187.268173 
L 187.743963 187.185539 
L 188.778494 186.855001 
L 188.778494 186.689732 
L 189.192306 186.607097 
L 189.192306 186.524463 
L 189.916477 186.441828 
L 189.916477 186.359194 
L 190.226837 186.359194 
L 190.226837 186.27656 
L 190.640649 185.780753 
L 190.847555 185.532849 
L 190.951008 185.36758 
L 191.261367 185.36758 
L 191.261367 185.284946 
L 191.36482 184.541235 
L 191.571727 184.541235 
L 191.67518 184.128063 
L 192.088992 184.045428 
L 192.192445 183.632256 
L 192.606257 182.558007 
L 192.70971 182.227469 
L 192.916616 182.144835 
L 192.916616 181.814297 
L 193.537335 181.731662 
L 193.640788 181.401124 
L 193.951147 181.31849 
L 193.951147 181.153221 
L 194.261506 181.070586 
L 194.261506 180.740048 
L 194.364959 180.740048 
L 195.606396 179.748434 
L 195.709849 179.500531 
L 195.916756 179.500531 
L 195.916756 179.417896 
L 196.020209 179.335262 
L 196.020209 179.087358 
L 196.227115 179.087358 
L 196.227115 179.004724 
L 196.537474 178.75682 
L 196.640927 178.591551 
L 196.847833 178.343648 
L 196.951286 178.01311 
L 197.158192 177.930475 
L 197.158192 177.765206 
L 197.365098 177.765206 
L 197.468552 177.269399 
L 197.882364 177.269399 
L 197.882364 177.10413 
L 198.08927 176.938861 
L 198.08927 176.608323 
L 198.399629 176.525689 
L 198.399629 176.36042 
L 198.606535 176.195151 
L 198.813441 175.947247 
L 198.813441 175.781978 
L 199.227254 175.534075 
L 199.330707 175.120903 
L 199.537613 174.955634 
L 199.641066 174.625096 
L 199.847972 174.542461 
L 199.847972 174.377192 
L 200.261784 174.294558 
L 200.365238 173.96402 
L 200.572144 173.798751 
L 200.675597 173.633482 
L 200.882503 173.633482 
L 200.985956 173.302944 
L 201.089409 173.220309 
L 201.192862 172.889771 
L 201.606674 172.807137 
L 201.606674 172.724502 
L 201.813581 172.724502 
L 201.813581 172.641868 
L 201.813581 172.063426 
L 202.020487 172.063426 
L 202.020487 171.898157 
L 202.641205 171.815523 
L 202.744658 171.650254 
L 203.261924 171.567619 
L 203.261924 171.484985 
L 203.46883 171.484985 
L 203.46883 171.319716 
L 203.572283 171.319716 
L 203.882642 171.237081 
L 204.089548 171.154447 
L 204.089548 170.906543 
L 204.399907 170.823909 
L 204.50336 170.65864 
L 205.020626 170.576005 
L 205.020626 170.080198 
L 205.124079 170.080198 
L 205.537891 169.832295 
L 205.744797 169.832295 
L 205.84825 169.584391 
L 205.951703 169.584391 
L 206.055156 169.253853 
L 206.262063 169.088584 
L 206.986234 169.00595 
L 207.089687 168.758046 
L 207.19314 168.758046 
L 207.19314 168.675412 
L 207.296593 168.592777 
L 207.503499 168.592777 
L 207.606952 167.766432 
L 208.641483 167.683798 
L 208.848389 167.518529 
L 208.951842 167.105356 
L 209.469108 167.022722 
L 209.986373 166.857453 
L 210.089826 166.526915 
L 210.400185 166.279011 
L 210.503638 165.948473 
L 210.607092 165.948473 
L 210.607092 165.70057 
L 210.917451 165.535301 
L 211.020904 165.122128 
L 211.124357 165.122128 
L 211.22781 164.874225 
L 211.434716 164.874225 
L 211.538169 164.626321 
L 211.745075 164.543687 
L 211.848528 164.130515 
L 211.951981 164.04788 
L 212.262341 164.04788 
L 212.5727 163.799977 
L 214.021043 163.717342 
L 214.021043 163.634708 
L 214.434855 163.552073 
L 214.538308 163.469439 
L 214.538308 163.30417 
L 214.745214 163.30417 
L 214.848667 162.973632 
L 215.365933 162.973632 
L 215.469386 162.725728 
L 215.883198 162.643094 
L 215.883198 162.560459 
L 216.400463 162.477825 
L 216.400463 162.39519 
L 216.917729 162.312556 
L 216.917729 162.147287 
L 217.228088 161.982018 
L 217.331541 161.816749 
L 217.538447 161.734114 
L 217.6419 161.486211 
L 217.848806 161.486211 
L 217.848806 161.155673 
L 218.055713 161.155673 
L 218.055713 161.073038 
L 218.262619 160.907769 
L 218.366072 160.081424 
L 218.779884 159.750886 
L 219.193696 159.750886 
L 219.193696 159.585617 
L 219.297149 159.585617 
L 219.710962 159.502983 
L 220.33168 159.420348 
L 220.435133 159.172445 
L 220.952399 159.08981 
L 221.055852 159.007176 
L 221.055852 158.841907 
L 221.469664 158.841907 
L 221.573117 158.676638 
L 222.400742 158.3461 
L 222.814554 158.263465 
L 222.918007 158.098196 
L 223.849085 158.015562 
L 223.952538 157.932927 
L 224.159444 157.932927 
L 224.159444 157.602389 
L 224.780162 157.519755 
L 224.883615 157.271851 
L 225.297428 157.271851 
L 225.71124 156.69341 
L 225.71124 156.362872 
L 226.021599 156.114968 
L 227.05613 156.032334 
L 227.05613 155.619161 
L 227.159583 155.619161 
L 227.780301 155.371258 
L 227.883754 155.288623 
L 227.883754 155.123354 
L 228.09066 155.123354 
L 228.194114 154.875451 
L 228.607926 154.792816 
L 228.711379 154.627547 
L 228.814832 154.462278 
L 228.814832 154.049106 
L 229.125191 153.966471 
L 229.43555 153.801202 
L 229.952816 153.718568 
L 230.056269 153.38803 
L 230.470081 153.305396 
L 230.676987 153.057492 
L 231.297706 153.057492 
L 231.297706 152.809589 
L 231.918424 152.726954 
L 232.021877 152.561685 
L 232.12533 152.561685 
L 232.12533 152.396416 
L 232.332236 152.396416 
L 232.435689 152.231147 
L 232.435689 151.983244 
L 232.642596 151.983244 
L 232.642596 151.652706 
L 233.056408 151.570071 
L 233.47022 151.322168 
L 233.780579 151.156899 
L 234.090939 151.156899 
L 234.090939 150.99163 
L 234.297845 150.99163 
L 234.401298 150.743726 
L 234.504751 150.743726 
L 234.711657 150.578457 
L 235.849641 150.495823 
L 235.953094 150.330554 
L 236.263453 150.247919 
L 236.366906 150.000016 
L 236.987625 149.917381 
L 236.987625 149.752112 
L 237.091078 149.752112 
L 237.50489 149.504209 
L 238.125608 148.925767 
L 238.229061 148.760498 
L 238.84978 148.760498 
L 238.84978 148.42996 
L 239.263592 148.42996 
L 239.263592 148.347326 
L 239.367045 148.264691 
L 239.780857 148.264691 
L 239.884311 147.68625 
L 240.298123 147.68625 
L 240.401576 147.355712 
L 241.022294 147.273077 
L 241.125747 147.025174 
L 241.53956 147.025174 
L 241.53956 146.859905 
L 241.953372 146.77727 
L 242.263731 146.529367 
L 242.677543 146.446732 
L 242.677543 145.950925 
L 242.780997 145.950925 
L 243.194809 145.868291 
L 243.194809 145.620387 
L 243.608621 145.537753 
L 243.815527 145.372484 
L 243.815527 145.12458 
L 244.022433 145.12458 
L 244.022433 144.959311 
L 244.22934 144.959311 
L 244.22934 144.876677 
L 244.332793 144.794042 
L 244.539699 144.794042 
L 244.539699 144.628773 
L 244.850058 144.546139 
L 244.850058 144.38087 
L 245.677683 144.38087 
L 245.677683 144.298235 
L 245.781136 143.637159 
L 246.401854 143.637159 
L 246.505307 143.389256 
L 246.60876 143.306621 
L 246.712213 142.810814 
L 246.919119 142.72818 
L 247.022572 142.562911 
L 247.022572 142.397642 
L 247.436385 142.315007 
L 247.539838 141.901835 
L 247.746744 141.819201 
L 247.95365 141.571297 
L 248.057103 141.158125 
L 248.574368 141.158125 
L 248.677822 140.662318 
L 248.781275 140.662318 
L 248.781275 140.579683 
L 249.29854 140.166511 
L 249.29854 140.001242 
L 249.919258 140.001242 
L 249.919258 139.588069 
L 250.229618 139.505435 
L 250.229618 139.257531 
L 251.574508 138.761724 
L 251.677961 138.596455 
L 251.781414 138.348552 
L 251.98832 138.348552 
L 251.98832 138.265917 
L 252.402132 137.935379 
L 253.022851 137.852745 
L 253.022851 137.77011 
L 253.643569 137.687476 
L 253.643569 137.604841 
L 254.160834 137.604841 
L 254.160834 137.522207 
L 254.36774 137.191669 
L 254.781553 137.191669 
L 254.781553 136.943765 
L 255.195365 136.861131 
L 255.195365 136.613227 
L 255.71263 136.530593 
L 255.71263 136.365324 
L 256.02299 136.200055 
L 256.540255 135.952151 
L 256.643708 135.043172 
L 257.367879 134.960537 
L 257.367879 134.712634 
L 257.574786 134.547365 
L 258.092051 134.547365 
L 258.092051 134.46473 
L 258.298957 134.299461 
L 258.40241 134.051558 
L 258.712769 133.968923 
L 258.816222 133.886289 
L 259.436941 133.803654 
L 259.436941 133.638385 
L 259.643847 133.638385 
L 259.643847 133.390482 
L 259.850753 133.225213 
L 259.850753 132.729406 
L 260.161112 132.646771 
L 260.368019 132.398868 
L 260.368019 132.06833 
L 260.988737 131.985695 
L 261.506002 131.655157 
L 261.816362 131.572523 
L 261.816362 131.489888 
L 262.540533 131.407254 
L 262.643986 130.994082 
L 263.368158 130.746178 
L 263.368158 130.498275 
L 263.78197 130.498275 
L 263.78197 130.250371 
L 264.609594 130.167737 
L 265.333766 129.919833 
L 265.644125 129.837199 
L 265.644125 129.754564 
L 266.057937 129.67193 
L 266.16139 129.424026 
L 266.47175 129.424026 
L 266.47175 129.341392 
L 267.092468 129.093488 
L 267.092468 128.845585 
L 267.402827 128.845585 
L 267.402827 128.76295 
L 267.81664 128.515047 
L 267.81664 128.267143 
L 268.644264 128.184509 
L 268.747717 127.688702 
L 268.954623 127.688702 
L 269.058076 126.862357 
L 269.471889 126.779722 
L 269.782248 126.531819 
L 270.092607 126.449184 
L 270.092607 126.36655 
L 270.299513 126.36655 
L 270.299513 126.283915 
L 270.402966 126.201281 
L 270.506419 125.953377 
L 270.816779 125.870743 
L 271.230591 125.540205 
L 272.265122 125.45757 
L 272.265122 125.374936 
L 272.88584 125.292301 
L 272.88584 125.127032 
L 273.299652 125.044398 
L 273.403105 124.879129 
L 273.506559 124.879129 
L 273.506559 124.465956 
L 273.816918 124.383322 
L 274.127277 124.218053 
L 275.058355 124.135418 
L 275.161808 124.052784 
L 275.472167 124.052784 
L 275.472167 123.970149 
L 275.472167 123.80488 
L 275.782526 123.722246 
L 275.782526 123.639611 
L 275.885979 123.639611 
L 276.092885 123.474342 
L 276.610151 123.391708 
L 277.023963 123.06117 
L 277.334322 122.978535 
L 277.334322 122.895901 
L 277.437775 122.895901 
L 278.161947 122.813266 
L 278.161947 122.647997 
L 278.679212 122.565363 
L 278.679212 122.400094 
L 279.196477 122.400094 
L 279.506837 122.069556 
L 279.713743 121.986921 
L 279.713743 121.739018 
L 280.231008 121.656383 
L 280.334461 121.491114 
L 280.437914 121.40848 
L 280.748273 121.325845 
L 280.851727 120.912673 
L 281.368992 120.830038 
L 281.472445 120.664769 
L 281.782804 120.582135 
L 282.30007 120.251597 
L 282.817335 120.086328 
L 283.231147 120.003694 
L 283.3346 119.838425 
L 283.438053 119.673156 
L 283.644959 119.673156 
L 283.748413 119.425252 
L 284.058772 119.425252 
L 284.576037 119.094714 
L 285.093302 119.01208 
L 285.093302 118.681542 
L 285.610568 118.598907 
L 285.610568 118.516273 
L 285.817474 118.516273 
L 285.817474 118.351004 
L 285.920927 118.351004 
L 286.438192 118.020466 
L 286.645098 118.020466 
L 286.645098 117.937831 
L 287.162364 117.772562 
L 287.36927 117.524659 
L 287.783082 117.442024 
L 287.886535 117.276755 
L 288.300348 117.194121 
L 288.300348 117.111486 
L 288.403801 117.111486 
L 289.231425 117.028852 
L 289.231425 116.946217 
L 289.541784 116.946217 
L 289.645238 116.780948 
L 289.852144 116.780948 
L 289.852144 116.698314 
L 290.05905 116.533045 
L 290.05905 116.367776 
L 290.783221 116.285141 
L 290.783221 116.202507 
L 290.886674 116.202507 
L 291.093581 116.037238 
L 291.093581 115.789334 
L 292.024658 115.7067 
L 292.024658 115.624065 
L 292.541924 115.624065 
L 292.541924 115.458796 
L 293.266095 115.376162 
L 293.473001 115.128258 
L 293.78336 115.045624 
L 293.78336 114.549817 
L 293.886813 114.549817 
L 294.197173 114.467182 
L 294.197173 114.136644 
L 294.714438 114.05401 
L 294.817891 113.888741 
L 295.645516 113.806106 
L 295.748969 113.723472 
L 295.748969 113.558203 
L 296.162781 113.392934 
L 296.266234 113.227665 
L 296.886952 112.897127 
L 296.886952 112.566589 
L 297.81803 112.236051 
L 297.921483 112.070782 
L 298.024936 111.657609 
L 298.231842 111.574975 
L 298.231842 111.49234 
L 298.749108 111.409706 
L 298.749108 111.327071 
L 299.783638 111.327071 
L 299.783638 111.161802 
L 300.093998 111.079168 
L 300.197451 110.996533 
L 300.404357 110.996533 
L 300.404357 110.831264 
L 300.611263 110.831264 
L 300.611263 110.74863 
L 301.542341 110.335457 
L 301.542341 110.252823 
L 301.8527 110.170188 
L 301.8527 109.922285 
L 302.266512 109.922285 
L 302.369965 109.674381 
L 302.783778 109.591747 
L 302.783778 109.509112 
L 303.19759 109.426478 
L 303.301043 109.261209 
L 303.507949 109.261209 
L 303.714855 109.013306 
L 304.335574 108.930671 
L 304.335574 108.765402 
L 305.266651 108.682768 
L 305.680463 108.104326 
L 306.197729 108.021692 
L 306.9219 107.608519 
L 307.335713 107.608519 
L 307.439166 107.44325 
L 308.059884 107.360616 
L 308.059884 107.277981 
L 308.163337 107.277981 
L 308.370243 107.030078 
L 308.680603 107.030078 
L 308.680603 106.947443 
L 308.887509 106.69954 
L 309.197868 106.69954 
L 309.301321 106.451636 
L 309.404774 106.451636 
L 309.404774 105.955829 
L 311.163476 105.873195 
L 311.163476 105.625291 
L 311.370382 105.625291 
L 311.370382 105.542657 
L 311.473835 105.460022 
L 311.887648 105.460022 
L 311.991101 105.129484 
L 312.30146 105.129484 
L 313.542897 104.551043 
L 313.749803 104.551043 
L 313.853256 104.220505 
L 313.853256 104.055236 
L 314.473975 103.972601 
L 314.473975 103.889967 
L 314.577428 103.889967 
L 314.784334 103.642063 
L 315.094693 103.642063 
L 315.198146 103.311525 
L 315.301599 103.311525 
L 315.301599 103.146256 
L 316.025771 103.063622 
L 316.232677 102.650449 
L 316.749942 102.567815 
L 316.749942 102.237277 
L 316.956848 102.237277 
L 316.956848 101.989373 
L 317.163754 101.989373 
L 317.163754 101.906739 
L 317.163754 101.74147 
L 317.68102 101.658835 
L 317.784473 101.410932 
L 318.094832 101.410932 
L 318.094832 101.328297 
L 318.198285 101.245663 
L 318.922457 101.163028 
L 318.922457 101.080394 
L 319.232816 101.080394 
L 319.336269 100.83249 
L 319.646628 100.83249 
L 319.750081 100.667221 
L 320.3708 100.501952 
L 320.681159 100.419318 
L 320.784612 100.254049 
L 320.991518 100.171414 
L 320.991518 100.08878 
L 321.612236 100.08878 
L 321.612236 99.923511 
L 322.336408 99.592973 
L 322.439861 99.262435 
L 323.267486 99.1798 
L 323.370939 98.931897 
L 323.474392 98.931897 
L 323.577845 98.43609 
L 324.302016 98.43609 
L 324.302016 98.270821 
L 324.508922 98.270821 
L 324.612375 98.105552 
L 324.715829 97.69238 
L 324.819282 97.69238 
L 324.922735 97.361842 
L 325.233094 97.279207 
L 325.233094 97.196573 
L 325.646906 97.113938 
L 325.646906 97.031304 
L 325.750359 97.031304 
L 326.267625 96.700766 
L 326.474531 96.700766 
L 326.681437 96.287593 
L 327.302155 96.204959 
L 328.233233 95.626517 
L 328.336686 95.295979 
L 328.647045 95.213345 
L 328.750498 94.634903 
L 328.957404 94.552269 
L 329.060857 94.387 
L 329.578123 94.304365 
L 329.578123 93.973827 
L 329.888482 93.725924 
L 330.5092 93.643289 
L 331.026466 93.47802 
L 331.543731 93.395386 
L 331.647184 93.230117 
L 331.957543 93.147482 
L 331.957543 92.486406 
L 332.060997 92.486406 
L 332.888621 92.403772 
L 332.992074 92.238503 
L 333.19898 92.073234 
L 333.50934 92.073234 
L 333.50934 91.907965 
L 333.612793 91.907965 
L 333.819699 91.742696 
L 334.026605 91.742696 
L 334.130058 91.577427 
L 334.233511 91.494792 
L 334.336964 91.246889 
L 334.957683 91.246889 
L 334.957683 91.08162 
L 335.268042 91.08162 
L 335.268042 90.668447 
L 335.371495 90.668447 
L 335.474948 90.585813 
L 335.992213 90.585813 
L 335.992213 90.337909 
L 336.302572 90.337909 
L 336.302572 90.255275 
L 336.302572 90.090006 
L 337.130197 90.007371 
L 337.23365 89.759468 
L 337.440556 89.759468 
L 337.544009 89.42893 
L 337.854368 89.346295 
L 337.854368 89.263661 
L 338.164728 89.263661 
L 338.268181 88.850488 
L 338.681993 88.767854 
L 338.681993 88.685219 
L 339.095805 88.602585 
L 339.095805 88.272047 
L 340.130336 88.024143 
L 340.751054 87.941509 
L 340.751054 87.77624 
L 340.854508 87.77624 
L 341.26832 87.77624 
L 341.26832 87.610971 
L 341.785585 87.445702 
L 341.785585 87.280433 
L 341.992491 87.280433 
L 341.992491 87.115164 
L 342.302851 86.867261 
L 342.302851 86.454088 
L 342.406304 86.454088 
L 342.61321 86.371454 
L 343.9581 86.288819 
L 344.165006 86.12355 
L 344.371912 86.12355 
L 344.371912 85.875647 
L 344.475365 85.875647 
L 344.682271 85.875647 
L 344.682271 85.462474 
L 345.096083 85.37984 
L 345.716802 85.297205 
L 345.820255 84.884033 
L 346.440973 84.801398 
L 346.544426 84.718764 
L 346.647879 84.305591 
L 347.061692 83.975053 
L 347.372051 83.892419 
L 347.475504 83.231343 
L 348.199676 83.148708 
L 348.199676 83.066074 
L 348.406582 83.066074 
L 348.406582 82.900805 
L 348.923847 82.570267 
L 349.130753 82.570267 
L 349.337659 82.322363 
L 349.441112 81.743922 
L 349.751472 81.661287 
L 349.854925 81.496018 
L 349.958378 81.496018 
L 349.958378 81.413384 
L 351.303268 81.000211 
L 351.303268 80.834942 
L 352.441251 80.834942 
L 352.648158 80.587039 
L 352.855064 80.587039 
L 352.855064 80.42177 
L 353.786141 80.339135 
L 353.786141 80.256501 
L 353.889594 80.256501 
L 354.199954 80.008597 
L 354.820672 79.925963 
L 354.820672 79.595425 
L 355.234484 79.595425 
L 355.234484 79.51279 
L 355.544844 79.264887 
L 355.958656 79.182252 
L 356.062109 79.016983 
L 356.165562 78.603811 
L 356.372468 78.521176 
L 356.372468 78.108004 
L 356.475921 78.108004 
L 356.682827 77.942735 
L 356.889733 77.942735 
L 356.889733 77.8601 
L 357.510452 77.612197 
L 357.613905 77.446928 
L 358.13117 77.364293 
L 358.234623 77.199024 
L 358.44153 77.199024 
L 358.648436 77.033755 
L 358.958795 77.033755 
L 358.958795 76.951121 
L 359.165701 76.785852 
L 359.786419 76.785852 
L 359.786419 76.620583 
L 359.993326 76.620583 
L 359.993326 76.455314 
L 360.303685 76.372679 
L 360.407138 76.20741 
L 361.752028 76.124776 
L 361.752028 75.959507 
L 362.16584 75.876873 
L 362.16584 75.628969 
L 362.890012 75.546335 
L 362.993465 75.298431 
L 363.717636 75.298431 
L 363.717636 75.215797 
L 363.924542 75.133162 
L 364.545261 75.133162 
L 364.648714 74.71999 
L 365.372885 74.637355 
L 365.372885 74.554721 
L 365.683244 74.554721 
L 365.786698 74.389452 
L 366.407416 74.306817 
L 366.407416 74.224183 
L 367.855759 74.141548 
L 368.166118 73.976279 
L 368.269571 73.81101 
L 368.786837 73.728376 
L 368.89029 73.480472 
L 369.717914 73.397838 
L 369.821367 73.232569 
L 369.92482 73.149934 
L 370.442086 73.0673 
L 370.855898 72.819396 
L 371.062804 72.819396 
L 371.062804 72.736762 
L 371.062804 72.488858 
L 371.26971 72.488858 
L 371.26971 72.240955 
L 371.683523 72.15832 
L 371.683523 72.075686 
L 371.890429 72.075686 
L 371.993882 71.827782 
L 372.407694 71.827782 
L 372.407694 71.745148 
L 372.6146 71.579879 
L 373.442225 71.497244 
L 373.442225 71.331975 
L 374.062943 71.249341 
L 374.476756 70.836168 
L 374.994021 70.753534 
L 374.994021 70.588265 
L 375.511286 70.50563 
L 375.614739 70.175092 
L 376.752723 70.092458 
L 376.752723 70.009823 
L 377.476895 69.927189 
L 378.201066 69.844554 
L 378.201066 69.76192 
L 378.925238 69.679285 
L 379.028691 69.431382 
L 379.649409 69.431382 
L 379.959768 69.183478 
L 380.270127 69.183478 
L 380.373581 68.935575 
L 380.477034 68.935575 
L 380.477034 68.85294 
L 380.477034 68.605037 
L 380.580487 68.605037 
L 380.890846 68.357133 
L 381.097752 68.357133 
L 381.201205 68.191864 
L 381.304658 67.943961 
L 381.821924 67.943961 
L 382.235736 67.778692 
L 382.546095 67.365519 
L 383.06336 67.365519 
L 383.166813 67.117616 
L 383.994438 67.034981 
L 384.511703 66.45654 
L 384.71861 66.45654 
L 384.71861 66.373905 
L 384.925516 66.126002 
L 385.546234 65.630195 
L 385.856593 65.382291 
L 385.960046 65.051754 
L 386.063499 65.051754 
L 386.063499 64.969119 
L 386.166952 64.80385 
L 386.477312 64.721216 
L 386.477312 64.638581 
L 388.236014 64.555947 
L 388.339467 64.390678 
L 389.684357 63.977505 
L 389.684357 63.894871 
L 389.994716 63.894871 
L 389.994716 63.729602 
L 390.098169 63.729602 
L 390.511981 63.646967 
L 390.511981 63.564333 
L 390.925794 63.481698 
L 391.029247 63.316429 
L 391.339606 63.316429 
L 391.339606 63.233795 
L 391.443059 63.068526 
L 391.443059 62.572719 
L 391.546512 62.572719 
L 391.960324 62.324815 
L 391.960324 62.242181 
L 392.167231 62.242181 
L 392.167231 62.159546 
L 393.098308 61.746374 
L 393.201761 61.581105 
L 394.443198 61.49847 
L 394.85701 61.250567 
L 395.16737 61.167932 
L 396.51226 60.424222 
L 396.615713 60.093684 
L 396.719166 60.011049 
L 396.926072 59.680511 
L 397.132978 59.680511 
L 397.132978 59.515242 
L 397.339884 59.515242 
L 397.339884 59.432608 
L 398.374415 59.10207 
L 398.995133 58.523628 
L 399.408946 58.440994 
L 399.512399 58.358359 
L 399.719305 58.358359 
L 399.926211 58.110456 
L 400.340023 57.779918 
L 401.478007 57.779918 
L 402.615991 57.284111 
L 403.443615 57.201476 
L 403.443615 57.118842 
L 403.547068 57.118842 
L 404.064334 57.036207 
L 404.788505 56.788304 
L 405.202317 56.705669 
L 405.305771 56.623035 
L 405.926489 56.623035 
L 407.788644 56.209862 
L 408.512816 56.209862 
L 408.719722 56.044593 
L 414.72 54.144 
L 414.72 54.144 
" clip-path="url(#p877bfcf549)" style="fill: none; stroke: #1f77b4; stroke-width: 1.5; stroke-linecap: square"/>
   </g>
   <g id="line2d_14">
    <path d="M 57.6 307.584 
L 414.72 54.144 
" clip-path="url(#p877bfcf549)" style="fill: none; stroke-dasharray: 5.55,2.4; stroke-dashoffset: 0; stroke: #000000; stroke-width: 1.5"/>
   </g>
   <g id="patch_3">
    <path d="M 57.6 307.584 
L 57.6 41.472 
" style="fill: none; stroke: #000000; stroke-width: 0.8; stroke-linejoin: miter; stroke-linecap: square"/>
   </g>
   <g id="patch_4">
    <path d="M 414.72 307.584 
L 414.72 41.472 
" style="fill: none; stroke: #000000; stroke-width: 0.8; stroke-linejoin: miter; stroke-linecap: square"/>
   </g>
   <g id="patch_5">
    <path d="M 57.6 307.584 
L 414.72 307.584 
" style="fill: none; stroke: #000000; stroke-width: 0.8; stroke-linejoin: miter; stroke-linecap: square"/>
   </g>
   <g id="patch_6">
    <path d="M 57.6 41.472 
L 414.72 41.472 
" style="fill: none; stroke: #000000; stroke-width: 0.8; stroke-linejoin: miter; stroke-linecap: square"/>
   </g>
   <g id="text_15">
    <!-- Receiver Operating Characteristic -->
    <g transform="translate(134.656875 35.472) scale(0.12 -0.12)">
     <defs>
      <path id="DejaVuSans-63" d="M 3122 3366 
L 3122 2828 
Q 2878 2963 2633 3030 
Q 2388 3097 2138 3097 
Q 1578 3097 1268 2742 
Q 959 2388 959 1747 
Q 959 1106 1268 751 
Q 1578 397 2138 397 
Q 2388 397 2633 464 
Q 2878 531 3122 666 
L 3122 134 
Q 2881 22 2623 -34 
Q 2366 -91 2075 -91 
Q 1284 -91 818 406 
Q 353 903 353 1747 
Q 353 2603 823 3093 
Q 1294 3584 2113 3584 
Q 2378 3584 2631 3529 
Q 2884 3475 3122 3366 
z
" transform="scale(0.015625)"/>
      <path id="DejaVuSans-4f" d="M 2522 4238 
Q 1834 4238 1429 3725 
Q 1025 3213 1025 2328 
Q 1025 1447 1429 934 
Q 1834 422 2522 422 
Q 3209 422 3611 934 
Q 4013 1447 4013 2328 
Q 4013 3213 3611 3725 
Q 3209 4238 2522 4238 
z
M 2522 4750 
Q 3503 4750 4090 4092 
Q 4678 3434 4678 2328 
Q 4678 1225 4090 567 
Q 3503 -91 2522 -91 
Q 1538 -91 948 565 
Q 359 1222 359 2328 
Q 359 3434 948 4092 
Q 1538 4750 2522 4750 
z
" transform="scale(0.015625)"/>
      <path id="DejaVuSans-70" d="M 1159 525 
L 1159 -1331 
L 581 -1331 
L 581 3500 
L 1159 3500 
L 1159 2969 
Q 1341 3281 1617 3432 
Q 1894 3584 2278 3584 
Q 2916 3584 3314 3078 
Q 3713 2572 3713 1747 
Q 3713 922 3314 415 
Q 2916 -91 2278 -91 
Q 1894 -91 1617 61 
Q 1341 213 1159 525 
z
M 3116 1747 
Q 3116 2381 2855 2742 
Q 2594 3103 2138 3103 
Q 1681 3103 1420 2742 
Q 1159 2381 1159 1747 
Q 1159 1113 1420 752 
Q 1681 391 2138 391 
Q 2594 391 2855 752 
Q 3116 1113 3116 1747 
z
" transform="scale(0.015625)"/>
      <path id="DejaVuSans-6e" d="M 3513 2113 
L 3513 0 
L 2938 0 
L 2938 2094 
Q 2938 2591 2744 2837 
Q 2550 3084 2163 3084 
Q 1697 3084 1428 2787 
Q 1159 2491 1159 1978 
L 1159 0 
L 581 0 
L 581 3500 
L 1159 3500 
L 1159 2956 
Q 1366 3272 1645 3428 
Q 1925 3584 2291 3584 
Q 2894 3584 3203 3211 
Q 3513 2838 3513 2113 
z
" transform="scale(0.015625)"/>
      <path id="DejaVuSans-67" d="M 2906 1791 
Q 2906 2416 2648 2759 
Q 2391 3103 1925 3103 
Q 1463 3103 1205 2759 
Q 947 2416 947 1791 
Q 947 1169 1205 825 
Q 1463 481 1925 481 
Q 2391 481 2648 825 
Q 2906 1169 2906 1791 
z
M 3481 434 
Q 3481 -459 3084 -895 
Q 2688 -1331 1869 -1331 
Q 1566 -1331 1297 -1286 
Q 1028 -1241 775 -1147 
L 775 -588 
Q 1028 -725 1275 -790 
Q 1522 -856 1778 -856 
Q 2344 -856 2625 -561 
Q 2906 -266 2906 331 
L 2906 616 
Q 2728 306 2450 153 
Q 2172 0 1784 0 
Q 1141 0 747 490 
Q 353 981 353 1791 
Q 353 2603 747 3093 
Q 1141 3584 1784 3584 
Q 2172 3584 2450 3431 
Q 2728 3278 2906 2969 
L 2906 3500 
L 3481 3500 
L 3481 434 
z
" transform="scale(0.015625)"/>
      <path id="DejaVuSans-43" d="M 4122 4306 
L 4122 3641 
Q 3803 3938 3442 4084 
Q 3081 4231 2675 4231 
Q 1875 4231 1450 3742 
Q 1025 3253 1025 2328 
Q 1025 1406 1450 917 
Q 1875 428 2675 428 
Q 3081 428 3442 575 
Q 3803 722 4122 1019 
L 4122 359 
Q 3791 134 3420 21 
Q 3050 -91 2638 -91 
Q 1578 -91 968 557 
Q 359 1206 359 2328 
Q 359 3453 968 4101 
Q 1578 4750 2638 4750 
Q 3056 4750 3426 4639 
Q 3797 4528 4122 4306 
z
" transform="scale(0.015625)"/>
      <path id="DejaVuSans-68" d="M 3513 2113 
L 3513 0 
L 2938 0 
L 2938 2094 
Q 2938 2591 2744 2837 
Q 2550 3084 2163 3084 
Q 1697 3084 1428 2787 
Q 1159 2491 1159 1978 
L 1159 0 
L 581 0 
L 581 4863 
L 1159 4863 
L 1159 2956 
Q 1366 3272 1645 3428 
Q 1925 3584 2291 3584 
Q 2894 3584 3203 3211 
Q 3513 2838 3513 2113 
z
" transform="scale(0.015625)"/>
     </defs>
     <use xlink:href="#DejaVuSans-52"/>
     <use xlink:href="#DejaVuSans-65" x="64.982422"/>
     <use xlink:href="#DejaVuSans-63" x="126.505859"/>
     <use xlink:href="#DejaVuSans-65" x="181.486328"/>
     <use xlink:href="#DejaVuSans-69" x="243.009766"/>
     <use xlink:href="#DejaVuSans-76" x="270.792969"/>
     <use xlink:href="#DejaVuSans-65" x="329.972656"/>
     <use xlink:href="#DejaVuSans-72" x="391.496094"/>
     <use xlink:href="#DejaVuSans-20" x="432.609375"/>
     <use xlink:href="#DejaVuSans-4f" x="464.396484"/>
     <use xlink:href="#DejaVuSans-70" x="543.107422"/>
     <use xlink:href="#DejaVuSans-65" x="606.583984"/>
     <use xlink:href="#DejaVuSans-72" x="668.107422"/>
     <use xlink:href="#DejaVuSans-61" x="709.220703"/>
     <use xlink:href="#DejaVuSans-74" x="770.5"/>
     <use xlink:href="#DejaVuSans-69" x="809.708984"/>
     <use xlink:href="#DejaVuSans-6e" x="837.492188"/>
     <use xlink:href="#DejaVuSans-67" x="900.871094"/>
     <use xlink:href="#DejaVuSans-20" x="964.347656"/>
     <use xlink:href="#DejaVuSans-43" x="996.134766"/>
     <use xlink:href="#DejaVuSans-68" x="1065.958984"/>
     <use xlink:href="#DejaVuSans-61" x="1129.337891"/>
     <use xlink:href="#DejaVuSans-72" x="1190.617188"/>
     <use xlink:href="#DejaVuSans-61" x="1231.730469"/>
     <use xlink:href="#DejaVuSans-63" x="1293.009766"/>
     <use xlink:href="#DejaVuSans-74" x="1347.990234"/>
     <use xlink:href="#DejaVuSans-65" x="1387.199219"/>
     <use xlink:href="#DejaVuSans-72" x="1448.722656"/>
     <use xlink:href="#DejaVuSans-69" x="1489.835938"/>
     <use xlink:href="#DejaVuSans-73" x="1517.619141"/>
     <use xlink:href="#DejaVuSans-74" x="1569.71875"/>
     <use xlink:href="#DejaVuSans-69" x="1608.927734"/>
     <use xlink:href="#DejaVuSans-63" x="1636.710938"/>
    </g>
   </g>
   <g id="legend_1">
    <g id="patch_7">
     <path d="M 252.441875 302.584 
L 407.72 302.584 
Q 409.72 302.584 409.72 300.584 
L 409.72 286.905875 
Q 409.72 284.905875 407.72 284.905875 
L 252.441875 284.905875 
Q 250.441875 284.905875 250.441875 286.905875 
L 250.441875 300.584 
Q 250.441875 302.584 252.441875 302.584 
z
" style="fill: #ffffff; opacity: 0.8; stroke: #cccccc; stroke-linejoin: miter"/>
    </g>
    <g id="line2d_15">
     <path d="M 254.441875 293.004312 
L 264.441875 293.004312 
L 274.441875 293.004312 
" style="fill: none; stroke: #1f77b4; stroke-width: 1.5; stroke-linecap: square"/>
    </g>
    <g id="text_16">
     <!-- ROC curve (area = 0.58) -->
     <g transform="translate(282.441875 296.504312) scale(0.1 -0.1)">
      <defs>
       <path id="DejaVuSans-28" d="M 1984 4856 
Q 1566 4138 1362 3434 
Q 1159 2731 1159 2009 
Q 1159 1288 1364 580 
Q 1569 -128 1984 -844 
L 1484 -844 
Q 1016 -109 783 600 
Q 550 1309 550 2009 
Q 550 2706 781 3412 
Q 1013 4119 1484 4856 
L 1984 4856 
z
" transform="scale(0.015625)"/>
       <path id="DejaVuSans-3d" d="M 678 2906 
L 4684 2906 
L 4684 2381 
L 678 2381 
L 678 2906 
z
M 678 1631 
L 4684 1631 
L 4684 1100 
L 678 1100 
L 678 1631 
z
" transform="scale(0.015625)"/>
       <path id="DejaVuSans-35" d="M 691 4666 
L 3169 4666 
L 3169 4134 
L 1269 4134 
L 1269 2991 
Q 1406 3038 1543 3061 
Q 1681 3084 1819 3084 
Q 2600 3084 3056 2656 
Q 3513 2228 3513 1497 
Q 3513 744 3044 326 
Q 2575 -91 1722 -91 
Q 1428 -91 1123 -41 
Q 819 9 494 109 
L 494 744 
Q 775 591 1075 516 
Q 1375 441 1709 441 
Q 2250 441 2565 725 
Q 2881 1009 2881 1497 
Q 2881 1984 2565 2268 
Q 2250 2553 1709 2553 
Q 1456 2553 1204 2497 
Q 953 2441 691 2322 
L 691 4666 
z
" transform="scale(0.015625)"/>
       <path id="DejaVuSans-29" d="M 513 4856 
L 1013 4856 
Q 1481 4119 1714 3412 
Q 1947 2706 1947 2009 
Q 1947 1309 1714 600 
Q 1481 -109 1013 -844 
L 513 -844 
Q 928 -128 1133 580 
Q 1338 1288 1338 2009 
Q 1338 2731 1133 3434 
Q 928 4138 513 4856 
z
" transform="scale(0.015625)"/>
      </defs>
      <use xlink:href="#DejaVuSans-52"/>
      <use xlink:href="#DejaVuSans-4f" x="69.482422"/>
      <use xlink:href="#DejaVuSans-43" x="148.193359"/>
      <use xlink:href="#DejaVuSans-20" x="218.017578"/>
      <use xlink:href="#DejaVuSans-63" x="249.804688"/>
      <use xlink:href="#DejaVuSans-75" x="304.785156"/>
      <use xlink:href="#DejaVuSans-72" x="368.164062"/>
      <use xlink:href="#DejaVuSans-76" x="409.277344"/>
      <use xlink:href="#DejaVuSans-65" x="468.457031"/>
      <use xlink:href="#DejaVuSans-20" x="529.980469"/>
      <use xlink:href="#DejaVuSans-28" x="561.767578"/>
      <use xlink:href="#DejaVuSans-61" x="600.78125"/>
      <use xlink:href="#DejaVuSans-72" x="662.060547"/>
      <use xlink:href="#DejaVuSans-65" x="700.923828"/>
      <use xlink:href="#DejaVuSans-61" x="762.447266"/>
      <use xlink:href="#DejaVuSans-20" x="823.726562"/>
      <use xlink:href="#DejaVuSans-3d" x="855.513672"/>
      <use xlink:href="#DejaVuSans-20" x="939.302734"/>
      <use xlink:href="#DejaVuSans-30" x="971.089844"/>
      <use xlink:href="#DejaVuSans-2e" x="1034.712891"/>
      <use xlink:href="#DejaVuSans-35" x="1066.5"/>
      <use xlink:href="#DejaVuSans-38" x="1130.123047"/>
      <use xlink:href="#DejaVuSans-29" x="1193.746094"/>
     </g>
    </g>
   </g>
  </g>
 </g>
 <defs>
  <clipPath id="p877bfcf549">
   <rect x="57.6" y="41.472" width="357.12" height="266.112"/>
  </clipPath>
 </defs>
</svg>
