<?xml version="1.0" encoding="utf-8" standalone="no"?>
<!DOCTYPE svg PUBLIC "-//W3C//DTD SVG 1.1//EN"
  "http://www.w3.org/Graphics/SVG/1.1/DTD/svg11.dtd">
<svg xmlns:xlink="http://www.w3.org/1999/xlink" width="460.8pt" height="345.6pt" viewBox="0 0 460.8 345.6" xmlns="http://www.w3.org/2000/svg" version="1.1">
 <metadata>
  <rdf:RDF xmlns:dc="http://purl.org/dc/elements/1.1/" xmlns:cc="http://creativecommons.org/ns#" xmlns:rdf="http://www.w3.org/1999/02/22-rdf-syntax-ns#">
   <cc:Work>
    <dc:type rdf:resource="http://purl.org/dc/dcmitype/StillImage"/>
    <dc:date>2024-05-01T16:49:25.989982</dc:date>
    <dc:format>image/svg+xml</dc:format>
    <dc:creator>
     <cc:Agent>
      <dc:title>Matplotlib v3.8.3, https://matplotlib.org/</dc:title>
     </cc:Agent>
    </dc:creator>
   </cc:Work>
  </rdf:RDF>
 </metadata>
 <defs>
  <style type="text/css">*{stroke-linejoin: round; stroke-linecap: butt}</style>
 </defs>
 <g id="figure_1">
  <g id="patch_1">
   <path d="M 0 345.6 
L 460.8 345.6 
L 460.8 0 
L 0 0 
z
" style="fill: #ffffff"/>
  </g>
  <g id="axes_1">
   <g id="patch_2">
    <path d="M 57.6 307.584 
L 414.72 307.584 
L 414.72 41.472 
L 57.6 41.472 
z
" style="fill: #ffffff"/>
   </g>
   <g id="matplotlib.axis_1">
    <g id="xtick_1">
     <g id="line2d_1">
      <defs>
       <path id="m5a9683dc5c" d="M 0 0 
L 0 3.5 
" style="stroke: #000000; stroke-width: 0.8"/>
      </defs>
      <g>
       <use xlink:href="#m5a9683dc5c" x="57.6" y="307.584" style="stroke: #000000; stroke-width: 0.8"/>
      </g>
     </g>
     <g id="text_1">
      <!-- 0.0 -->
      <g transform="translate(49.648438 322.182437) scale(0.1 -0.1)">
       <defs>
        <path id="DejaVuSans-30" d="M 2034 4250 
Q 1547 4250 1301 3770 
Q 1056 3291 1056 2328 
Q 1056 1369 1301 889 
Q 1547 409 2034 409 
Q 2525 409 2770 889 
Q 3016 1369 3016 2328 
Q 3016 3291 2770 3770 
Q 2525 4250 2034 4250 
z
M 2034 4750 
Q 2819 4750 3233 4129 
Q 3647 3509 3647 2328 
Q 3647 1150 3233 529 
Q 2819 -91 2034 -91 
Q 1250 -91 836 529 
Q 422 1150 422 2328 
Q 422 3509 836 4129 
Q 1250 4750 2034 4750 
z
" transform="scale(0.015625)"/>
        <path id="DejaVuSans-2e" d="M 684 794 
L 1344 794 
L 1344 0 
L 684 0 
L 684 794 
z
" transform="scale(0.015625)"/>
       </defs>
       <use xlink:href="#DejaVuSans-30"/>
       <use xlink:href="#DejaVuSans-2e" x="63.623047"/>
       <use xlink:href="#DejaVuSans-30" x="95.410156"/>
      </g>
     </g>
    </g>
    <g id="xtick_2">
     <g id="line2d_2">
      <g>
       <use xlink:href="#m5a9683dc5c" x="129.024" y="307.584" style="stroke: #000000; stroke-width: 0.8"/>
      </g>
     </g>
     <g id="text_2">
      <!-- 0.2 -->
      <g transform="translate(121.072438 322.182437) scale(0.1 -0.1)">
       <defs>
        <path id="DejaVuSans-32" d="M 1228 531 
L 3431 531 
L 3431 0 
L 469 0 
L 469 531 
Q 828 903 1448 1529 
Q 2069 2156 2228 2338 
Q 2531 2678 2651 2914 
Q 2772 3150 2772 3378 
Q 2772 3750 2511 3984 
Q 2250 4219 1831 4219 
Q 1534 4219 1204 4116 
Q 875 4013 500 3803 
L 500 4441 
Q 881 4594 1212 4672 
Q 1544 4750 1819 4750 
Q 2544 4750 2975 4387 
Q 3406 4025 3406 3419 
Q 3406 3131 3298 2873 
Q 3191 2616 2906 2266 
Q 2828 2175 2409 1742 
Q 1991 1309 1228 531 
z
" transform="scale(0.015625)"/>
       </defs>
       <use xlink:href="#DejaVuSans-30"/>
       <use xlink:href="#DejaVuSans-2e" x="63.623047"/>
       <use xlink:href="#DejaVuSans-32" x="95.410156"/>
      </g>
     </g>
    </g>
    <g id="xtick_3">
     <g id="line2d_3">
      <g>
       <use xlink:href="#m5a9683dc5c" x="200.448" y="307.584" style="stroke: #000000; stroke-width: 0.8"/>
      </g>
     </g>
     <g id="text_3">
      <!-- 0.4 -->
      <g transform="translate(192.496438 322.182437) scale(0.1 -0.1)">
       <defs>
        <path id="DejaVuSans-34" d="M 2419 4116 
L 825 1625 
L 2419 1625 
L 2419 4116 
z
M 2253 4666 
L 3047 4666 
L 3047 1625 
L 3713 1625 
L 3713 1100 
L 3047 1100 
L 3047 0 
L 2419 0 
L 2419 1100 
L 313 1100 
L 313 1709 
L 2253 4666 
z
" transform="scale(0.015625)"/>
       </defs>
       <use xlink:href="#DejaVuSans-30"/>
       <use xlink:href="#DejaVuSans-2e" x="63.623047"/>
       <use xlink:href="#DejaVuSans-34" x="95.410156"/>
      </g>
     </g>
    </g>
    <g id="xtick_4">
     <g id="line2d_4">
      <g>
       <use xlink:href="#m5a9683dc5c" x="271.872" y="307.584" style="stroke: #000000; stroke-width: 0.8"/>
      </g>
     </g>
     <g id="text_4">
      <!-- 0.6 -->
      <g transform="translate(263.920438 322.182437) scale(0.1 -0.1)">
       <defs>
        <path id="DejaVuSans-36" d="M 2113 2584 
Q 1688 2584 1439 2293 
Q 1191 2003 1191 1497 
Q 1191 994 1439 701 
Q 1688 409 2113 409 
Q 2538 409 2786 701 
Q 3034 994 3034 1497 
Q 3034 2003 2786 2293 
Q 2538 2584 2113 2584 
z
M 3366 4563 
L 3366 3988 
Q 3128 4100 2886 4159 
Q 2644 4219 2406 4219 
Q 1781 4219 1451 3797 
Q 1122 3375 1075 2522 
Q 1259 2794 1537 2939 
Q 1816 3084 2150 3084 
Q 2853 3084 3261 2657 
Q 3669 2231 3669 1497 
Q 3669 778 3244 343 
Q 2819 -91 2113 -91 
Q 1303 -91 875 529 
Q 447 1150 447 2328 
Q 447 3434 972 4092 
Q 1497 4750 2381 4750 
Q 2619 4750 2861 4703 
Q 3103 4656 3366 4563 
z
" transform="scale(0.015625)"/>
       </defs>
       <use xlink:href="#DejaVuSans-30"/>
       <use xlink:href="#DejaVuSans-2e" x="63.623047"/>
       <use xlink:href="#DejaVuSans-36" x="95.410156"/>
      </g>
     </g>
    </g>
    <g id="xtick_5">
     <g id="line2d_5">
      <g>
       <use xlink:href="#m5a9683dc5c" x="343.296" y="307.584" style="stroke: #000000; stroke-width: 0.8"/>
      </g>
     </g>
     <g id="text_5">
      <!-- 0.8 -->
      <g transform="translate(335.344438 322.182437) scale(0.1 -0.1)">
       <defs>
        <path id="DejaVuSans-38" d="M 2034 2216 
Q 1584 2216 1326 1975 
Q 1069 1734 1069 1313 
Q 1069 891 1326 650 
Q 1584 409 2034 409 
Q 2484 409 2743 651 
Q 3003 894 3003 1313 
Q 3003 1734 2745 1975 
Q 2488 2216 2034 2216 
z
M 1403 2484 
Q 997 2584 770 2862 
Q 544 3141 544 3541 
Q 544 4100 942 4425 
Q 1341 4750 2034 4750 
Q 2731 4750 3128 4425 
Q 3525 4100 3525 3541 
Q 3525 3141 3298 2862 
Q 3072 2584 2669 2484 
Q 3125 2378 3379 2068 
Q 3634 1759 3634 1313 
Q 3634 634 3220 271 
Q 2806 -91 2034 -91 
Q 1263 -91 848 271 
Q 434 634 434 1313 
Q 434 1759 690 2068 
Q 947 2378 1403 2484 
z
M 1172 3481 
Q 1172 3119 1398 2916 
Q 1625 2713 2034 2713 
Q 2441 2713 2670 2916 
Q 2900 3119 2900 3481 
Q 2900 3844 2670 4047 
Q 2441 4250 2034 4250 
Q 1625 4250 1398 4047 
Q 1172 3844 1172 3481 
z
" transform="scale(0.015625)"/>
       </defs>
       <use xlink:href="#DejaVuSans-30"/>
       <use xlink:href="#DejaVuSans-2e" x="63.623047"/>
       <use xlink:href="#DejaVuSans-38" x="95.410156"/>
      </g>
     </g>
    </g>
    <g id="xtick_6">
     <g id="line2d_6">
      <g>
       <use xlink:href="#m5a9683dc5c" x="414.72" y="307.584" style="stroke: #000000; stroke-width: 0.8"/>
      </g>
     </g>
     <g id="text_6">
      <!-- 1.0 -->
      <g transform="translate(406.768438 322.182437) scale(0.1 -0.1)">
       <defs>
        <path id="DejaVuSans-31" d="M 794 531 
L 1825 531 
L 1825 4091 
L 703 3866 
L 703 4441 
L 1819 4666 
L 2450 4666 
L 2450 531 
L 3481 531 
L 3481 0 
L 794 0 
L 794 531 
z
" transform="scale(0.015625)"/>
       </defs>
       <use xlink:href="#DejaVuSans-31"/>
       <use xlink:href="#DejaVuSans-2e" x="63.623047"/>
       <use xlink:href="#DejaVuSans-30" x="95.410156"/>
      </g>
     </g>
    </g>
    <g id="text_7">
     <!-- False Positive Rate -->
     <g transform="translate(189.693594 335.860562) scale(0.1 -0.1)">
      <defs>
       <path id="DejaVuSans-46" d="M 628 4666 
L 3309 4666 
L 3309 4134 
L 1259 4134 
L 1259 2759 
L 3109 2759 
L 3109 2228 
L 1259 2228 
L 1259 0 
L 628 0 
L 628 4666 
z
" transform="scale(0.015625)"/>
       <path id="DejaVuSans-61" d="M 2194 1759 
Q 1497 1759 1228 1600 
Q 959 1441 959 1056 
Q 959 750 1161 570 
Q 1363 391 1709 391 
Q 2188 391 2477 730 
Q 2766 1069 2766 1631 
L 2766 1759 
L 2194 1759 
z
M 3341 1997 
L 3341 0 
L 2766 0 
L 2766 531 
Q 2569 213 2275 61 
Q 1981 -91 1556 -91 
Q 1019 -91 701 211 
Q 384 513 384 1019 
Q 384 1609 779 1909 
Q 1175 2209 1959 2209 
L 2766 2209 
L 2766 2266 
Q 2766 2663 2505 2880 
Q 2244 3097 1772 3097 
Q 1472 3097 1187 3025 
Q 903 2953 641 2809 
L 641 3341 
Q 956 3463 1253 3523 
Q 1550 3584 1831 3584 
Q 2591 3584 2966 3190 
Q 3341 2797 3341 1997 
z
" transform="scale(0.015625)"/>
       <path id="DejaVuSans-6c" d="M 603 4863 
L 1178 4863 
L 1178 0 
L 603 0 
L 603 4863 
z
" transform="scale(0.015625)"/>
       <path id="DejaVuSans-73" d="M 2834 3397 
L 2834 2853 
Q 2591 2978 2328 3040 
Q 2066 3103 1784 3103 
Q 1356 3103 1142 2972 
Q 928 2841 928 2578 
Q 928 2378 1081 2264 
Q 1234 2150 1697 2047 
L 1894 2003 
Q 2506 1872 2764 1633 
Q 3022 1394 3022 966 
Q 3022 478 2636 193 
Q 2250 -91 1575 -91 
Q 1294 -91 989 -36 
Q 684 19 347 128 
L 347 722 
Q 666 556 975 473 
Q 1284 391 1588 391 
Q 1994 391 2212 530 
Q 2431 669 2431 922 
Q 2431 1156 2273 1281 
Q 2116 1406 1581 1522 
L 1381 1569 
Q 847 1681 609 1914 
Q 372 2147 372 2553 
Q 372 3047 722 3315 
Q 1072 3584 1716 3584 
Q 2034 3584 2315 3537 
Q 2597 3491 2834 3397 
z
" transform="scale(0.015625)"/>
       <path id="DejaVuSans-65" d="M 3597 1894 
L 3597 1613 
L 953 1613 
Q 991 1019 1311 708 
Q 1631 397 2203 397 
Q 2534 397 2845 478 
Q 3156 559 3463 722 
L 3463 178 
Q 3153 47 2828 -22 
Q 2503 -91 2169 -91 
Q 1331 -91 842 396 
Q 353 884 353 1716 
Q 353 2575 817 3079 
Q 1281 3584 2069 3584 
Q 2775 3584 3186 3129 
Q 3597 2675 3597 1894 
z
M 3022 2063 
Q 3016 2534 2758 2815 
Q 2500 3097 2075 3097 
Q 1594 3097 1305 2825 
Q 1016 2553 972 2059 
L 3022 2063 
z
" transform="scale(0.015625)"/>
       <path id="DejaVuSans-20" transform="scale(0.015625)"/>
       <path id="DejaVuSans-50" d="M 1259 4147 
L 1259 2394 
L 2053 2394 
Q 2494 2394 2734 2622 
Q 2975 2850 2975 3272 
Q 2975 3691 2734 3919 
Q 2494 4147 2053 4147 
L 1259 4147 
z
M 628 4666 
L 2053 4666 
Q 2838 4666 3239 4311 
Q 3641 3956 3641 3272 
Q 3641 2581 3239 2228 
Q 2838 1875 2053 1875 
L 1259 1875 
L 1259 0 
L 628 0 
L 628 4666 
z
" transform="scale(0.015625)"/>
       <path id="DejaVuSans-6f" d="M 1959 3097 
Q 1497 3097 1228 2736 
Q 959 2375 959 1747 
Q 959 1119 1226 758 
Q 1494 397 1959 397 
Q 2419 397 2687 759 
Q 2956 1122 2956 1747 
Q 2956 2369 2687 2733 
Q 2419 3097 1959 3097 
z
M 1959 3584 
Q 2709 3584 3137 3096 
Q 3566 2609 3566 1747 
Q 3566 888 3137 398 
Q 2709 -91 1959 -91 
Q 1206 -91 779 398 
Q 353 888 353 1747 
Q 353 2609 779 3096 
Q 1206 3584 1959 3584 
z
" transform="scale(0.015625)"/>
       <path id="DejaVuSans-69" d="M 603 3500 
L 1178 3500 
L 1178 0 
L 603 0 
L 603 3500 
z
M 603 4863 
L 1178 4863 
L 1178 4134 
L 603 4134 
L 603 4863 
z
" transform="scale(0.015625)"/>
       <path id="DejaVuSans-74" d="M 1172 4494 
L 1172 3500 
L 2356 3500 
L 2356 3053 
L 1172 3053 
L 1172 1153 
Q 1172 725 1289 603 
Q 1406 481 1766 481 
L 2356 481 
L 2356 0 
L 1766 0 
Q 1100 0 847 248 
Q 594 497 594 1153 
L 594 3053 
L 172 3053 
L 172 3500 
L 594 3500 
L 594 4494 
L 1172 4494 
z
" transform="scale(0.015625)"/>
       <path id="DejaVuSans-76" d="M 191 3500 
L 800 3500 
L 1894 563 
L 2988 3500 
L 3597 3500 
L 2284 0 
L 1503 0 
L 191 3500 
z
" transform="scale(0.015625)"/>
       <path id="DejaVuSans-52" d="M 2841 2188 
Q 3044 2119 3236 1894 
Q 3428 1669 3622 1275 
L 4263 0 
L 3584 0 
L 2988 1197 
Q 2756 1666 2539 1819 
Q 2322 1972 1947 1972 
L 1259 1972 
L 1259 0 
L 628 0 
L 628 4666 
L 2053 4666 
Q 2853 4666 3247 4331 
Q 3641 3997 3641 3322 
Q 3641 2881 3436 2590 
Q 3231 2300 2841 2188 
z
M 1259 4147 
L 1259 2491 
L 2053 2491 
Q 2509 2491 2742 2702 
Q 2975 2913 2975 3322 
Q 2975 3731 2742 3939 
Q 2509 4147 2053 4147 
L 1259 4147 
z
" transform="scale(0.015625)"/>
      </defs>
      <use xlink:href="#DejaVuSans-46"/>
      <use xlink:href="#DejaVuSans-61" x="48.394531"/>
      <use xlink:href="#DejaVuSans-6c" x="109.673828"/>
      <use xlink:href="#DejaVuSans-73" x="137.457031"/>
      <use xlink:href="#DejaVuSans-65" x="189.556641"/>
      <use xlink:href="#DejaVuSans-20" x="251.080078"/>
      <use xlink:href="#DejaVuSans-50" x="282.867188"/>
      <use xlink:href="#DejaVuSans-6f" x="339.544922"/>
      <use xlink:href="#DejaVuSans-73" x="400.726562"/>
      <use xlink:href="#DejaVuSans-69" x="452.826172"/>
      <use xlink:href="#DejaVuSans-74" x="480.609375"/>
      <use xlink:href="#DejaVuSans-69" x="519.818359"/>
      <use xlink:href="#DejaVuSans-76" x="547.601562"/>
      <use xlink:href="#DejaVuSans-65" x="606.78125"/>
      <use xlink:href="#DejaVuSans-20" x="668.304688"/>
      <use xlink:href="#DejaVuSans-52" x="700.091797"/>
      <use xlink:href="#DejaVuSans-61" x="767.324219"/>
      <use xlink:href="#DejaVuSans-74" x="828.603516"/>
      <use xlink:href="#DejaVuSans-65" x="867.8125"/>
     </g>
    </g>
   </g>
   <g id="matplotlib.axis_2">
    <g id="ytick_1">
     <g id="line2d_7">
      <defs>
       <path id="m8e0a336177" d="M 0 0 
L -3.5 0 
" style="stroke: #000000; stroke-width: 0.8"/>
      </defs>
      <g>
       <use xlink:href="#m8e0a336177" x="57.6" y="307.584" style="stroke: #000000; stroke-width: 0.8"/>
      </g>
     </g>
     <g id="text_8">
      <!-- 0.0 -->
      <g transform="translate(34.696875 311.383219) scale(0.1 -0.1)">
       <use xlink:href="#DejaVuSans-30"/>
       <use xlink:href="#DejaVuSans-2e" x="63.623047"/>
       <use xlink:href="#DejaVuSans-30" x="95.410156"/>
      </g>
     </g>
    </g>
    <g id="ytick_2">
     <g id="line2d_8">
      <g>
       <use xlink:href="#m8e0a336177" x="57.6" y="256.896" style="stroke: #000000; stroke-width: 0.8"/>
      </g>
     </g>
     <g id="text_9">
      <!-- 0.2 -->
      <g transform="translate(34.696875 260.695219) scale(0.1 -0.1)">
       <use xlink:href="#DejaVuSans-30"/>
       <use xlink:href="#DejaVuSans-2e" x="63.623047"/>
       <use xlink:href="#DejaVuSans-32" x="95.410156"/>
      </g>
     </g>
    </g>
    <g id="ytick_3">
     <g id="line2d_9">
      <g>
       <use xlink:href="#m8e0a336177" x="57.6" y="206.208" style="stroke: #000000; stroke-width: 0.8"/>
      </g>
     </g>
     <g id="text_10">
      <!-- 0.4 -->
      <g transform="translate(34.696875 210.007219) scale(0.1 -0.1)">
       <use xlink:href="#DejaVuSans-30"/>
       <use xlink:href="#DejaVuSans-2e" x="63.623047"/>
       <use xlink:href="#DejaVuSans-34" x="95.410156"/>
      </g>
     </g>
    </g>
    <g id="ytick_4">
     <g id="line2d_10">
      <g>
       <use xlink:href="#m8e0a336177" x="57.6" y="155.52" style="stroke: #000000; stroke-width: 0.8"/>
      </g>
     </g>
     <g id="text_11">
      <!-- 0.6 -->
      <g transform="translate(34.696875 159.319219) scale(0.1 -0.1)">
       <use xlink:href="#DejaVuSans-30"/>
       <use xlink:href="#DejaVuSans-2e" x="63.623047"/>
       <use xlink:href="#DejaVuSans-36" x="95.410156"/>
      </g>
     </g>
    </g>
    <g id="ytick_5">
     <g id="line2d_11">
      <g>
       <use xlink:href="#m8e0a336177" x="57.6" y="104.832" style="stroke: #000000; stroke-width: 0.8"/>
      </g>
     </g>
     <g id="text_12">
      <!-- 0.8 -->
      <g transform="translate(34.696875 108.631219) scale(0.1 -0.1)">
       <use xlink:href="#DejaVuSans-30"/>
       <use xlink:href="#DejaVuSans-2e" x="63.623047"/>
       <use xlink:href="#DejaVuSans-38" x="95.410156"/>
      </g>
     </g>
    </g>
    <g id="ytick_6">
     <g id="line2d_12">
      <g>
       <use xlink:href="#m8e0a336177" x="57.6" y="54.144" style="stroke: #000000; stroke-width: 0.8"/>
      </g>
     </g>
     <g id="text_13">
      <!-- 1.0 -->
      <g transform="translate(34.696875 57.943219) scale(0.1 -0.1)">
       <use xlink:href="#DejaVuSans-31"/>
       <use xlink:href="#DejaVuSans-2e" x="63.623047"/>
       <use xlink:href="#DejaVuSans-30" x="95.410156"/>
      </g>
     </g>
    </g>
    <g id="text_14">
     <!-- True Positive Rate -->
     <g transform="translate(28.617187 219.057687) rotate(-90) scale(0.1 -0.1)">
      <defs>
       <path id="DejaVuSans-54" d="M -19 4666 
L 3928 4666 
L 3928 4134 
L 2272 4134 
L 2272 0 
L 1638 0 
L 1638 4134 
L -19 4134 
L -19 4666 
z
" transform="scale(0.015625)"/>
       <path id="DejaVuSans-72" d="M 2631 2963 
Q 2534 3019 2420 3045 
Q 2306 3072 2169 3072 
Q 1681 3072 1420 2755 
Q 1159 2438 1159 1844 
L 1159 0 
L 581 0 
L 581 3500 
L 1159 3500 
L 1159 2956 
Q 1341 3275 1631 3429 
Q 1922 3584 2338 3584 
Q 2397 3584 2469 3576 
Q 2541 3569 2628 3553 
L 2631 2963 
z
" transform="scale(0.015625)"/>
       <path id="DejaVuSans-75" d="M 544 1381 
L 544 3500 
L 1119 3500 
L 1119 1403 
Q 1119 906 1312 657 
Q 1506 409 1894 409 
Q 2359 409 2629 706 
Q 2900 1003 2900 1516 
L 2900 3500 
L 3475 3500 
L 3475 0 
L 2900 0 
L 2900 538 
Q 2691 219 2414 64 
Q 2138 -91 1772 -91 
Q 1169 -91 856 284 
Q 544 659 544 1381 
z
M 1991 3584 
L 1991 3584 
z
" transform="scale(0.015625)"/>
      </defs>
      <use xlink:href="#DejaVuSans-54"/>
      <use xlink:href="#DejaVuSans-72" x="46.333984"/>
      <use xlink:href="#DejaVuSans-75" x="87.447266"/>
      <use xlink:href="#DejaVuSans-65" x="150.826172"/>
      <use xlink:href="#DejaVuSans-20" x="212.349609"/>
      <use xlink:href="#DejaVuSans-50" x="244.136719"/>
      <use xlink:href="#DejaVuSans-6f" x="300.814453"/>
      <use xlink:href="#DejaVuSans-73" x="361.996094"/>
      <use xlink:href="#DejaVuSans-69" x="414.095703"/>
      <use xlink:href="#DejaVuSans-74" x="441.878906"/>
      <use xlink:href="#DejaVuSans-69" x="481.087891"/>
      <use xlink:href="#DejaVuSans-76" x="508.871094"/>
      <use xlink:href="#DejaVuSans-65" x="568.050781"/>
      <use xlink:href="#DejaVuSans-20" x="629.574219"/>
      <use xlink:href="#DejaVuSans-52" x="661.361328"/>
      <use xlink:href="#DejaVuSans-61" x="728.59375"/>
      <use xlink:href="#DejaVuSans-74" x="789.873047"/>
      <use xlink:href="#DejaVuSans-65" x="829.082031"/>
     </g>
    </g>
   </g>
   <g id="line2d_13">
    <path d="M 57.6 307.584 
L 58.224336 305.777819 
L 58.640559 305.69572 
L 58.744615 305.613621 
L 59.160839 304.710531 
L 60.097343 303.479044 
L 60.097343 303.150647 
L 60.305455 303.150647 
L 60.305455 302.90435 
L 60.513566 302.90435 
L 60.513566 302.658052 
L 61.033846 302.411755 
L 61.033846 302.247557 
L 61.137902 302.247557 
L 61.866294 301.837061 
L 62.178462 301.262367 
L 62.178462 301.098169 
L 62.386573 300.933971 
L 62.802797 300.851872 
L 62.802797 300.605574 
L 63.427133 300.523475 
L 63.427133 300.441376 
L 63.739301 299.866682 
L 63.947413 299.866682 
L 64.051469 299.538286 
L 64.155524 299.456187 
L 64.155524 298.963592 
L 64.363636 298.963592 
L 64.363636 298.799394 
L 64.571748 298.799394 
L 64.571748 297.896303 
L 64.883916 297.896303 
L 64.883916 297.732105 
L 65.196084 297.321609 
L 65.404196 297.321609 
L 65.404196 297.23951 
L 65.508252 296.746915 
L 65.924476 296.418519 
L 65.924476 296.172222 
L 66.444755 296.008023 
L 66.548811 295.761726 
L 66.652867 295.761726 
L 66.860979 295.597528 
L 66.965035 295.269131 
L 67.277203 295.187032 
L 67.277203 295.104933 
L 67.589371 295.104933 
L 67.693427 294.776536 
L 67.901538 294.694437 
L 67.901538 294.44814 
L 68.005594 294.44814 
L 68.942098 294.366041 
L 68.942098 294.201843 
L 69.046154 294.201843 
L 69.358322 293.627149 
L 69.878601 293.46295 
L 70.086713 293.46295 
L 70.086713 293.216653 
L 70.502937 293.134554 
L 70.606993 292.970356 
L 70.919161 292.970356 
L 70.919161 292.888257 
L 71.647552 292.477761 
L 71.751608 292.231464 
L 71.95972 292.231464 
L 71.95972 292.149364 
L 72.167832 291.738869 
L 72.271888 291.738869 
L 72.271888 291.65677 
L 73.416503 291.328373 
L 73.416503 290.999977 
L 73.728671 290.999977 
L 73.728671 290.753679 
L 74.040839 290.753679 
L 74.040839 290.67158 
L 74.144895 290.014787 
L 74.248951 289.850589 
L 74.353007 289.604292 
L 74.353007 289.193796 
L 74.873287 289.111697 
L 75.913846 288.208606 
L 76.017902 287.962309 
L 76.121958 287.962309 
L 76.121958 287.88021 
L 76.121958 287.716012 
L 76.434126 287.716012 
L 76.538182 287.305516 
L 76.746294 287.223417 
L 76.85035 286.730822 
L 77.058462 286.730822 
L 77.162517 286.156128 
L 77.370629 286.156128 
L 77.370629 285.827732 
L 77.786853 285.827732 
L 77.786853 285.663534 
L 78.099021 285.663534 
L 78.411189 285.335137 
L 78.411189 285.253038 
L 78.827413 285.170939 
L 78.827413 284.924641 
L 79.13958 284.924641 
L 79.13958 284.596245 
L 79.243636 284.596245 
L 79.347692 284.514146 
L 79.555804 284.514146 
L 79.555804 283.857353 
L 79.763916 283.857353 
L 79.763916 283.775254 
L 80.18014 283.20056 
L 80.388252 283.118461 
L 80.388252 282.872163 
L 80.596364 282.872163 
L 80.70042 282.379569 
L 81.116643 282.379569 
L 81.116643 282.297469 
L 81.220699 281.476478 
L 81.324755 281.31228 
L 81.636923 281.31228 
L 81.740979 280.901784 
L 81.949091 280.901784 
L 82.157203 280.737586 
L 82.573427 280.655487 
L 82.573427 280.40919 
L 82.781538 280.244991 
L 82.98965 280.080793 
L 83.50993 279.998694 
L 84.238322 278.931405 
L 84.55049 278.849306 
L 84.55049 278.274612 
L 84.758601 278.274612 
L 84.862657 278.028315 
L 84.966713 277.946216 
L 85.278881 277.864117 
L 85.278881 277.782017 
L 85.486993 277.782017 
L 85.486993 277.699918 
L 86.111329 277.289423 
L 86.319441 277.207324 
L 86.423497 276.961026 
L 86.527552 276.961026 
L 86.527552 276.878927 
L 86.631608 276.63263 
L 86.83972 276.550531 
L 87.047832 276.386332 
L 87.047832 276.057936 
L 87.255944 275.893738 
L 87.255944 275.729539 
L 87.672168 275.64744 
L 87.776224 275.483242 
L 87.88028 275.483242 
L 87.984336 274.990647 
L 88.088392 274.990647 
L 88.088392 274.826449 
L 88.400559 274.826449 
L 88.400559 274.580152 
L 88.608671 274.580152 
L 88.608671 274.498052 
L 88.816783 274.333854 
L 88.920839 274.005458 
L 89.337063 274.005458 
L 89.441119 273.594962 
L 89.961399 273.512863 
L 90.065455 273.102367 
L 90.377622 273.020268 
L 90.377622 272.85607 
L 90.481678 272.85607 
L 90.68979 272.773971 
L 90.68979 272.609773 
L 91.106014 272.609773 
L 91.21007 271.706682 
L 91.626294 271.624583 
L 92.042517 271.460385 
L 92.146573 271.214087 
L 92.458741 271.131988 
L 92.770909 270.885691 
L 93.083077 270.803592 
L 93.187133 270.721493 
L 93.811469 270.721493 
L 93.915524 270.310997 
L 94.227692 270.228898 
L 94.227692 270.146799 
L 94.331748 270.146799 
L 94.435804 269.900501 
L 95.164196 269.900501 
L 95.476364 269.325808 
L 95.684476 269.243708 
L 95.684476 268.833213 
L 95.996643 268.751114 
L 96.100699 268.586915 
L 96.308811 268.504816 
L 96.308811 268.422717 
L 96.516923 268.422717 
L 96.516923 268.012222 
L 96.829091 268.012222 
L 96.829091 267.683825 
L 96.933147 267.683825 
L 97.037203 267.519627 
L 97.037203 267.19123 
L 97.453427 267.109131 
L 97.557483 267.027032 
L 97.661538 266.780735 
L 97.973706 266.698636 
L 98.077762 266.28814 
L 98.493986 266.206041 
L 98.493986 265.959743 
L 99.014266 265.877644 
L 99.118322 265.631347 
L 99.222378 265.549248 
L 99.742657 265.467149 
L 99.742657 265.056653 
L 100.366993 264.974554 
L 100.366993 264.892455 
L 100.679161 264.892455 
L 100.679161 264.646157 
L 100.991329 264.564058 
L 100.991329 264.481959 
L 101.303497 264.39986 
L 101.303497 264.153563 
L 101.71972 264.071464 
L 101.71972 263.907265 
L 101.927832 263.907265 
L 101.927832 263.825166 
L 102.135944 263.743067 
L 102.448112 263.332571 
L 102.552168 262.347382 
L 102.864336 262.265283 
L 102.968392 261.690589 
L 103.488671 261.690589 
L 103.488671 261.60849 
L 104.217063 261.033796 
L 104.425175 261.033796 
L 104.425175 260.787499 
L 104.633287 260.6233 
L 104.841399 260.6233 
L 104.841399 260.459102 
L 105.04951 260.459102 
L 105.04951 260.212805 
L 105.153566 260.212805 
L 105.56979 260.212805 
L 105.56979 260.130706 
L 105.673846 260.048606 
L 105.777902 259.72021 
L 105.881958 259.72021 
L 105.881958 259.556012 
L 106.194126 259.473913 
L 106.194126 259.391813 
L 106.61035 259.309714 
L 106.61035 259.145516 
L 107.130629 259.063417 
L 107.234685 258.570822 
L 107.546853 258.488723 
L 107.754965 258.078227 
L 108.067133 257.996128 
L 108.067133 257.914029 
L 108.275245 257.914029 
L 108.275245 257.83193 
L 108.483357 257.749831 
L 108.587413 257.339335 
L 108.691469 257.339335 
L 108.691469 257.175137 
L 109.003636 257.175137 
L 109.003636 257.093038 
L 109.211748 257.010939 
L 109.211748 256.846741 
L 109.315804 256.846741 
L 109.94014 256.764641 
L 110.044196 256.518344 
L 110.356364 256.436245 
L 110.46042 255.94365 
L 110.564476 255.94365 
L 110.564476 255.861551 
L 110.876643 255.451055 
L 111.084755 255.451055 
L 111.188811 255.204758 
L 111.396923 255.122659 
L 111.500979 254.958461 
L 111.500979 254.794262 
L 111.605035 254.794262 
L 111.917203 254.794262 
L 111.917203 254.712163 
L 111.917203 254.465866 
L 112.125315 254.465866 
L 112.125315 254.383767 
L 112.853706 253.809073 
L 113.26993 253.809073 
L 113.26993 253.562776 
L 113.582098 253.562776 
L 113.582098 253.480676 
L 113.582098 253.070181 
L 113.894266 253.070181 
L 114.206434 252.741784 
L 114.622657 252.741784 
L 114.726713 252.24919 
L 114.934825 252.24919 
L 114.934825 252.002892 
L 115.351049 251.838694 
L 115.455105 251.346099 
L 115.975385 251.264 
L 115.975385 251.181901 
L 116.287552 251.099802 
L 116.287552 250.853504 
L 116.807832 250.853504 
L 116.911888 250.525108 
L 117.224056 250.443009 
L 117.224056 249.950414 
L 117.328112 249.950414 
L 117.64028 249.868315 
L 117.64028 249.457819 
L 118.472727 249.37572 
L 118.576783 248.718927 
L 118.888951 248.636828 
L 118.888951 248.390531 
L 119.097063 248.390531 
L 119.097063 248.308431 
L 119.201119 248.062134 
L 119.201119 247.815837 
L 119.92951 247.241143 
L 120.033566 246.830647 
L 120.345734 246.748548 
L 120.44979 246.255953 
L 120.553846 246.255953 
L 120.761958 245.927557 
L 121.178182 245.845458 
L 121.178182 245.763359 
L 121.386294 245.763359 
L 121.386294 245.59916 
L 121.802517 245.59916 
L 121.906573 245.270764 
L 122.218741 245.188665 
L 122.322797 244.860268 
L 122.530909 244.69607 
L 122.634965 244.285574 
L 123.675524 244.203475 
L 123.77958 244.121376 
L 124.403916 244.039277 
L 124.507972 243.71088 
L 124.82014 243.71088 
L 124.924196 243.464583 
L 125.028252 243.464583 
L 125.028252 243.382484 
L 125.236364 243.218286 
L 125.236364 242.971988 
L 125.756643 242.971988 
L 125.756643 242.889889 
L 125.860699 242.479394 
L 126.172867 242.233096 
L 126.172867 242.068898 
L 126.380979 242.068898 
L 126.380979 241.986799 
L 126.589091 241.9047 
L 126.693147 241.740501 
L 126.901259 241.740501 
L 127.005315 241.330006 
L 127.317483 241.330006 
L 127.317483 241.083708 
L 127.525594 241.083708 
L 127.525594 240.755312 
L 127.733706 240.591114 
L 127.837762 240.509015 
L 128.253986 240.426915 
L 128.566154 240.262717 
L 128.566154 240.098519 
L 129.19049 240.01642 
L 129.294545 239.688023 
L 129.398601 239.688023 
L 129.398601 239.605924 
L 129.398601 239.359627 
L 130.335105 239.03123 
L 130.439161 238.538636 
L 130.543217 238.538636 
L 130.647273 238.210239 
L 130.855385 238.12814 
L 130.959441 237.553446 
L 131.167552 237.553446 
L 131.167552 237.389248 
L 131.271608 237.389248 
L 131.687832 237.307149 
L 131.791888 237.060851 
L 132.312168 236.978752 
L 132.312168 236.896653 
L 132.832448 236.896653 
L 132.832448 236.814554 
L 133.664895 236.23986 
L 134.185175 236.157761 
L 135.017622 235.911464 
L 135.121678 235.500968 
L 135.32979 235.418869 
L 135.433846 235.172571 
L 135.641958 234.679977 
L 135.85007 234.515778 
L 135.954126 234.433679 
L 136.058182 234.105283 
L 136.266294 234.023184 
L 136.266294 233.858985 
L 136.578462 233.776886 
L 136.578462 233.694787 
L 136.786573 233.694787 
L 136.786573 233.44849 
L 136.994685 233.44849 
L 136.994685 233.202192 
L 137.619021 233.120093 
L 137.723077 232.873796 
L 137.827133 232.873796 
L 137.931189 232.627499 
L 138.243357 232.545399 
L 138.243357 232.134904 
L 138.555524 232.052805 
L 138.763636 231.970706 
L 138.867692 231.724408 
L 138.971748 231.724408 
L 138.971748 231.642309 
L 139.075804 231.396012 
L 139.70014 231.313913 
L 139.804196 231.067615 
L 139.908252 231.067615 
L 139.908252 230.739219 
L 140.22042 230.65712 
L 140.324476 230.410822 
L 140.532587 230.410822 
L 140.740699 230.246624 
L 140.844755 229.754029 
L 141.052867 229.67193 
L 141.052867 229.589831 
L 141.469091 229.507732 
L 141.573147 229.343534 
L 142.093427 229.179335 
L 143.02993 229.097236 
L 143.238042 229.015137 
L 143.238042 228.604641 
L 143.654266 228.522542 
L 143.758322 227.701551 
L 144.07049 227.455254 
L 144.278601 227.455254 
L 144.278601 227.126857 
L 144.382657 227.126857 
L 144.798881 226.716362 
L 144.798881 226.634262 
L 145.215105 226.552163 
L 145.319161 226.223767 
L 145.839441 226.141668 
L 145.943497 225.566974 
L 146.255664 225.484875 
L 146.35972 225.074379 
L 146.567832 225.074379 
L 146.671888 224.828082 
L 147.088112 224.581784 
L 147.40028 224.417586 
L 147.40028 224.171289 
L 147.504336 224.171289 
L 147.712448 223.924991 
L 147.712448 223.760793 
L 148.024615 223.678694 
L 148.024615 223.596595 
L 148.128671 223.596595 
L 148.753007 223.596595 
L 148.753007 223.268198 
L 148.961119 223.268198 
L 149.065175 222.857703 
L 149.169231 222.857703 
L 149.273287 222.611405 
L 149.481399 222.529306 
L 149.585455 222.20091 
L 150.001678 222.11881 
L 150.001678 221.708315 
L 150.105734 221.708315 
L 150.626014 221.21572 
L 150.626014 221.133621 
L 150.938182 221.051522 
L 151.042238 220.558927 
L 151.25035 220.558927 
L 151.354406 220.066332 
L 151.562517 219.984233 
L 151.666573 219.32744 
L 152.082797 219.245341 
L 152.082797 219.163242 
L 152.499021 219.081143 
L 152.499021 218.999044 
L 152.811189 218.999044 
L 152.915245 218.670647 
L 153.123357 218.670647 
L 153.123357 218.506449 
L 153.331469 218.506449 
L 153.331469 218.42435 
L 153.435524 218.260152 
L 153.435524 217.931755 
L 153.53958 217.931755 
L 153.747692 217.767557 
L 153.851748 217.274962 
L 154.05986 217.192863 
L 154.05986 217.110764 
L 154.58014 217.028665 
L 154.58014 216.782367 
L 154.684196 216.782367 
L 154.996364 216.782367 
L 154.996364 216.618169 
L 155.308531 216.453971 
L 155.308531 216.207673 
L 155.620699 216.207673 
L 155.724755 215.55088 
L 155.828811 215.55088 
L 155.932867 215.140385 
L 156.140979 215.140385 
L 156.140979 214.976187 
L 156.765315 214.894087 
L 156.869371 214.64779 
L 156.973427 214.565691 
L 157.077483 214.155195 
L 157.285594 214.073096 
L 157.285594 213.7447 
L 157.90993 213.580501 
L 158.013986 213.252105 
L 158.222098 213.252105 
L 158.222098 213.170006 
L 158.638322 213.005808 
L 158.742378 212.513213 
L 158.95049 212.513213 
L 158.95049 212.349015 
L 159.054545 212.349015 
L 159.574825 212.020618 
L 159.886993 211.938519 
L 159.991049 211.692222 
L 160.199161 211.610122 
L 160.199161 211.528023 
L 160.511329 211.528023 
L 160.615385 211.117528 
L 160.719441 211.117528 
L 160.719441 211.035429 
L 161.031608 210.707032 
L 161.135664 210.296536 
L 161.551888 210.214437 
L 161.655944 209.96814 
L 162.176224 209.886041 
L 162.176224 209.803942 
L 162.800559 209.721843 
L 162.800559 209.639743 
L 162.904615 209.639743 
L 163.216783 209.557644 
L 163.216783 209.147149 
L 163.320839 209.147149 
L 163.424895 209.06505 
L 163.737063 208.98295 
L 163.737063 208.818752 
L 163.841119 208.818752 
L 163.945175 208.736653 
L 164.049231 208.490356 
L 164.361399 208.408257 
L 164.985734 207.833563 
L 165.506014 207.833563 
L 165.61007 207.423067 
L 165.922238 206.930472 
L 166.754685 206.848373 
L 166.858741 206.437878 
L 167.066853 206.355778 
L 167.066853 206.109481 
L 167.483077 206.109481 
L 167.587133 205.781085 
L 168.003357 205.616886 
L 168.107413 205.124292 
L 168.523636 205.042192 
L 168.627692 204.795895 
L 168.731748 204.795895 
L 168.835804 204.467499 
L 169.043916 204.467499 
L 169.043916 204.3033 
L 169.252028 204.3033 
L 169.46014 204.139102 
L 169.564196 203.564408 
L 169.98042 203.564408 
L 170.188531 203.153913 
L 170.500699 203.071813 
L 170.604755 202.49712 
L 170.812867 202.41502 
L 170.812867 201.922426 
L 170.916923 201.922426 
L 171.437203 201.840327 
L 171.437203 201.758227 
L 171.853427 201.429831 
L 171.957483 200.855137 
L 172.061538 200.855137 
L 172.061538 200.690939 
L 172.165594 200.690939 
L 173.31021 198.802659 
L 173.622378 198.802659 
L 173.726434 197.817469 
L 173.934545 197.571172 
L 174.038601 197.406974 
L 174.454825 197.078577 
L 174.454825 196.750181 
L 174.871049 196.750181 
L 174.871049 196.585983 
L 175.391329 196.503883 
L 175.599441 196.339685 
L 175.703497 195.108198 
L 176.952168 195.108198 
L 176.952168 194.944 
L 177.472448 194.697703 
L 177.472448 194.615603 
L 177.888671 194.615603 
L 177.888671 194.451405 
L 177.992727 194.451405 
L 178.096783 194.287207 
L 178.096783 193.876711 
L 178.200839 193.876711 
L 178.304895 193.794612 
L 178.513007 193.794612 
L 178.513007 193.137819 
L 179.241399 193.05572 
L 179.345455 192.809423 
L 179.553566 192.809423 
L 179.657622 192.316828 
L 179.761678 192.316828 
L 179.761678 192.15263 
L 180.177902 191.988431 
L 181.530629 191.906332 
L 181.842797 191.660035 
L 182.154965 191.660035 
L 182.259021 191.249539 
L 182.363077 191.085341 
L 182.675245 191.003242 
L 182.779301 190.839044 
L 183.29958 190.756945 
L 183.403636 189.853854 
L 183.611748 189.853854 
L 183.715804 189.197061 
L 184.548252 188.622367 
L 184.548252 188.37607 
L 184.964476 188.293971 
L 185.068531 187.47298 
L 185.484755 187.144583 
L 185.484755 186.980385 
L 185.692867 186.980385 
L 185.796923 186.405691 
L 186.109091 186.405691 
L 186.109091 185.995195 
L 186.317203 185.995195 
L 186.317203 185.913096 
L 186.525315 185.748898 
L 186.733427 185.748898 
L 186.733427 185.666799 
L 187.045594 185.256303 
L 187.045594 185.092105 
L 187.357762 185.092105 
L 187.461818 184.59951 
L 187.982098 184.271114 
L 188.086154 184.271114 
L 188.19021 183.942717 
L 188.294266 183.942717 
L 188.294266 183.860618 
L 188.814545 183.614321 
L 188.918601 183.203825 
L 189.646993 182.629131 
L 189.751049 182.382834 
L 190.063217 182.300735 
L 190.167273 182.136536 
L 190.479441 181.972338 
L 190.791608 181.890239 
L 190.895664 181.561843 
L 191.103776 181.479743 
L 191.207832 180.740851 
L 191.52 180.412455 
L 191.936224 180.330356 
L 191.936224 180.166157 
L 192.144336 180.166157 
L 192.248392 179.755662 
L 192.456503 179.755662 
L 192.456503 179.427265 
L 192.976783 179.427265 
L 193.080839 178.606274 
L 193.393007 178.524175 
L 193.393007 177.949481 
L 193.809231 177.867382 
L 193.809231 177.703184 
L 194.121399 177.703184 
L 194.121399 177.538985 
L 194.32951 177.538985 
L 194.32951 177.292688 
L 194.433566 177.292688 
L 194.84979 177.292688 
L 195.057902 177.046391 
L 195.266014 176.964292 
L 195.266014 176.882192 
L 195.994406 176.635895 
L 196.098462 176.471697 
L 196.618741 176.389598 
L 196.930909 175.979102 
L 197.034965 175.979102 
L 197.034965 175.650706 
L 197.243077 175.650706 
L 197.347133 174.993913 
L 197.451189 174.993913 
L 197.555245 174.747615 
L 197.763357 174.747615 
L 197.763357 174.665516 
L 198.075524 174.419219 
L 198.17958 174.090822 
L 198.491748 174.008723 
L 198.491748 173.926624 
L 198.803916 173.844525 
L 198.907972 173.598227 
L 199.636364 173.516128 
L 199.636364 173.434029 
L 199.948531 173.35193 
L 199.948531 173.105633 
L 200.052587 173.105633 
L 200.156643 173.023534 
L 200.156643 172.777236 
L 200.260699 172.777236 
L 200.468811 172.613038 
L 200.885035 172.530939 
L 200.989091 172.202542 
L 201.093147 172.038344 
L 201.197203 171.874146 
L 201.613427 171.874146 
L 201.613427 171.627848 
L 202.02965 171.545749 
L 202.133706 171.299452 
L 202.862098 171.217353 
L 203.174266 170.971055 
L 203.902657 170.888956 
L 204.006713 170.642659 
L 204.110769 170.642659 
L 204.110769 170.478461 
L 205.047273 170.150064 
L 205.151329 169.57537 
L 205.359441 169.57537 
L 205.359441 169.411172 
L 205.775664 169.411172 
L 205.775664 169.329073 
L 205.87972 169.082776 
L 206.087832 169.082776 
L 206.087832 168.836478 
L 206.4 168.836478 
L 206.504056 168.343883 
L 206.712168 168.343883 
L 206.712168 168.261784 
L 206.816224 168.179685 
L 206.92028 167.112397 
L 207.024336 167.112397 
L 207.024336 166.948198 
L 207.544615 166.866099 
L 207.648671 166.619802 
L 207.752727 166.619802 
L 207.752727 166.455603 
L 207.856783 166.455603 
L 208.064895 166.373504 
L 208.793287 166.373504 
L 208.793287 166.291405 
L 208.793287 165.963009 
L 209.001399 165.963009 
L 209.001399 165.79881 
L 209.20951 165.79881 
L 209.313566 165.552513 
L 209.833846 165.470414 
L 209.833846 164.89572 
L 209.937902 164.89572 
L 210.146014 164.89572 
L 210.146014 164.731522 
L 210.25007 164.731522 
L 211.186573 164.649423 
L 211.290629 164.238927 
L 211.394685 164.238927 
L 211.394685 164.074729 
L 211.914965 163.910531 
L 212.435245 163.500035 
L 212.539301 163.253738 
L 212.851469 163.171638 
L 213.05958 162.925341 
L 213.05958 162.432746 
L 213.163636 162.432746 
L 214.204196 162.186449 
L 214.204196 161.940152 
L 214.62042 161.858052 
L 214.62042 161.775953 
L 214.828531 161.529656 
L 215.348811 161.447557 
L 215.348811 161.283359 
L 215.452867 161.283359 
L 215.765035 161.201259 
L 215.973147 161.201259 
L 215.973147 161.037061 
L 216.285315 161.037061 
L 216.389371 160.708665 
L 216.90965 160.298169 
L 217.42993 160.298169 
L 217.638042 160.133971 
L 218.678601 160.051872 
L 218.678601 159.887673 
L 218.886713 159.887673 
L 218.990769 159.066682 
L 219.198881 158.984583 
L 219.302937 158.574087 
L 219.511049 158.32779 
L 219.511049 158.245691 
L 219.719161 158.245691 
L 219.823217 157.753096 
L 220.135385 157.670997 
L 220.239441 157.4247 
L 220.343497 157.4247 
L 220.343497 157.342601 
L 220.551608 157.096303 
L 220.75972 157.096303 
L 220.75972 157.014204 
L 220.863776 156.685808 
L 220.967832 156.521609 
L 221.592168 156.43951 
L 222.008392 156.275312 
L 222.840839 156.275312 
L 222.840839 156.029015 
L 222.944895 156.029015 
L 223.153007 155.864816 
L 223.257063 155.208023 
L 223.673287 155.125924 
L 223.673287 155.043825 
L 223.777343 155.043825 
L 223.985455 155.043825 
L 224.08951 154.715429 
L 225.442238 154.633329 
L 225.442238 154.469131 
L 225.546294 154.469131 
L 225.65035 154.387032 
L 225.858462 154.387032 
L 226.066573 153.976536 
L 226.066573 153.730239 
L 226.170629 153.730239 
L 226.794965 153.64814 
L 226.794965 153.566041 
L 227.107133 153.566041 
L 227.107133 153.483942 
L 227.419301 153.319743 
L 227.523357 153.073446 
L 227.627413 153.073446 
L 227.731469 152.66295 
L 227.835524 152.498752 
L 228.043636 152.498752 
L 228.043636 152.416653 
L 228.043636 152.252455 
L 228.147692 152.252455 
L 228.667972 152.170356 
L 228.667972 152.006157 
L 229.396364 151.924058 
L 229.50042 151.513563 
L 229.708531 151.513563 
L 229.812587 151.103067 
L 229.916643 151.103067 
L 229.916643 150.938869 
L 230.124755 150.938869 
L 230.228811 150.528373 
L 230.540979 150.528373 
L 230.540979 150.446274 
L 230.749091 150.199977 
L 230.853147 150.199977 
L 230.957203 149.87158 
L 230.957203 149.543184 
L 231.477483 149.461085 
L 231.581538 148.886391 
L 232.101818 148.804292 
L 232.205874 148.229598 
L 232.30993 148.229598 
L 232.30993 148.147499 
L 232.413986 148.065399 
L 233.662657 148.065399 
L 233.662657 147.9833 
L 233.766713 147.901201 
L 233.974825 147.901201 
L 233.974825 147.737003 
L 234.182937 147.737003 
L 234.286993 147.490706 
L 234.911329 147.408606 
L 235.015385 147.244408 
L 235.431608 147.162309 
L 235.535664 146.916012 
L 235.743776 146.833913 
L 235.847832 146.505516 
L 236.264056 146.423417 
L 236.576224 146.17712 
L 236.576224 146.012921 
L 236.68028 146.012921 
L 236.784336 145.930822 
L 236.784336 145.602426 
L 236.888392 145.602426 
L 237.200559 145.602426 
L 237.304615 145.356128 
L 237.616783 145.109831 
L 237.720839 144.453038 
L 238.137063 144.370939 
L 238.241119 144.042542 
L 238.449231 144.042542 
L 238.449231 143.30365 
L 238.865455 143.221551 
L 238.96951 142.975254 
L 239.073566 142.975254 
L 239.177622 142.40056 
L 239.48979 142.318461 
L 239.48979 142.236362 
L 239.593846 142.236362 
L 239.697902 142.154262 
L 239.697902 141.907965 
L 239.801958 141.907965 
L 240.322238 141.497469 
L 240.53035 141.497469 
L 240.634406 141.251172 
L 240.738462 141.251172 
L 240.842517 141.004875 
L 240.946573 141.004875 
L 240.946573 140.840676 
L 241.258741 140.758577 
L 241.258741 140.676478 
L 241.570909 140.594379 
L 241.674965 140.265983 
L 242.091189 140.183883 
L 242.091189 140.101784 
L 242.195245 140.101784 
L 243.547972 139.691289 
L 243.547972 139.60919 
L 244.38042 139.52709 
L 244.38042 139.444991 
L 244.796643 139.280793 
L 245.733147 139.198694 
L 245.837203 139.034496 
L 246.253427 139.034496 
L 246.66965 138.788198 
L 247.085874 138.706099 
L 247.18993 138.459802 
L 247.398042 138.459802 
L 247.398042 138.295603 
L 247.502098 138.295603 
L 247.71021 138.049306 
L 248.334545 137.967207 
L 248.334545 137.803009 
L 248.750769 137.556711 
L 248.750769 137.228315 
L 249.062937 137.228315 
L 249.166993 136.817819 
L 249.375105 136.817819 
L 249.375105 136.571522 
L 250.207552 136.489423 
L 250.207552 136.325224 
L 250.311608 136.325224 
L 250.935944 135.914729 
L 251.04 135.175837 
L 251.352168 135.093738 
L 251.352168 134.929539 
L 252.184615 134.84744 
L 252.184615 134.683242 
L 252.288671 134.683242 
L 252.704895 134.436945 
L 252.808951 134.108548 
L 253.433287 134.026449 
L 253.433287 133.862251 
L 253.641399 133.862251 
L 253.745455 133.451755 
L 254.057622 133.287557 
L 254.161678 133.287557 
L 254.161678 133.205458 
L 254.265734 133.123359 
L 254.265734 132.712863 
L 254.994126 132.630764 
L 254.994126 132.466566 
L 256.242797 132.384466 
L 256.971189 132.138169 
L 256.971189 131.973971 
L 257.075245 131.973971 
L 257.387413 131.645574 
L 257.491469 131.235079 
L 257.69958 131.235079 
L 257.69958 131.15298 
L 257.803636 130.906682 
L 258.844196 130.824583 
L 258.948252 130.742484 
L 259.052308 130.496187 
L 259.156364 130.331988 
L 259.884755 130.331988 
L 259.884755 129.839394 
L 260.300979 129.757294 
L 260.405035 129.593096 
L 260.509091 129.593096 
L 260.613147 129.2647 
L 262.06993 129.182601 
L 262.382098 129.018402 
L 262.382098 128.936303 
L 263.214545 128.854204 
L 263.214545 128.690006 
L 263.422657 128.525808 
L 263.734825 128.443708 
L 263.838881 128.27951 
L 264.151049 128.27951 
L 264.151049 128.115312 
L 264.255105 128.115312 
L 264.567273 128.115312 
L 264.567273 127.869015 
L 264.671329 127.869015 
L 264.983497 127.704816 
L 265.815944 127.622717 
L 265.815944 127.458519 
L 266.128112 127.458519 
L 266.44028 126.801726 
L 266.752448 126.801726 
L 266.856503 126.473329 
L 267.168671 126.39123 
L 267.272727 126.144933 
L 267.376783 126.144933 
L 267.376783 125.980735 
L 268.001119 125.898636 
L 268.001119 125.816536 
L 268.313287 125.816536 
L 268.313287 125.734437 
L 268.417343 125.652338 
L 268.417343 125.406041 
L 268.625455 125.406041 
L 268.72951 125.077644 
L 269.145734 124.995545 
L 269.145734 124.913446 
L 269.457902 124.913446 
L 269.561958 124.420851 
L 269.874126 124.420851 
L 269.874126 124.256653 
L 269.978182 124.256653 
L 270.186294 124.174554 
L 270.29035 123.846157 
L 270.394406 123.846157 
L 270.394406 123.764058 
L 270.706573 123.517761 
L 270.914685 123.517761 
L 271.018741 123.353563 
L 271.018741 123.107265 
L 271.226853 123.107265 
L 271.226853 123.025166 
L 271.330909 122.69677 
L 271.955245 122.614671 
L 271.955245 122.286274 
L 272.371469 122.204175 
L 272.475524 122.039977 
L 273.203916 121.957878 
L 273.307972 121.629481 
L 273.62014 121.465283 
L 273.62014 121.136886 
L 273.932308 121.136886 
L 273.932308 120.972688 
L 274.14042 120.80849 
L 274.14042 120.644292 
L 274.244476 120.644292 
L 274.764755 120.233796 
L 275.076923 120.233796 
L 275.701259 119.8233 
L 275.805315 119.494904 
L 276.221538 119.166507 
L 276.221538 119.002309 
L 276.325594 119.002309 
L 276.637762 118.838111 
L 276.741818 118.756012 
L 276.741818 118.591813 
L 277.053986 118.591813 
L 277.053986 118.427615 
L 277.262098 118.427615 
L 277.366154 118.263417 
L 277.366154 118.01712 
L 278.510769 117.93502 
L 278.510769 117.852921 
L 278.614825 117.852921 
L 279.135105 117.524525 
L 279.655385 117.442426 
L 279.759441 117.278227 
L 279.863497 117.196128 
L 280.904056 117.114029 
L 280.904056 117.03193 
L 281.32028 117.03193 
L 281.424336 116.785633 
L 282.777063 116.621434 
L 282.985175 116.539335 
L 282.985175 116.457236 
L 283.297343 116.210939 
L 283.60951 115.964641 
L 284.12979 115.882542 
L 284.233846 115.718344 
L 284.441958 115.718344 
L 284.546014 115.14365 
L 284.65007 115.14365 
L 284.65007 114.979452 
L 284.754126 114.979452 
L 284.962238 114.815254 
L 285.066294 114.568956 
L 285.482517 114.486857 
L 285.482517 114.322659 
L 285.586573 114.322659 
L 285.898741 114.24056 
L 286.106853 114.076362 
L 286.210909 113.830064 
L 286.419021 113.747965 
L 286.419021 113.665866 
L 287.043357 113.583767 
L 287.147413 113.419569 
L 288.187972 113.419569 
L 288.187972 113.173271 
L 288.292028 113.173271 
L 289.332587 113.091172 
L 289.436643 112.926974 
L 289.852867 112.35228 
L 290.581259 112.35228 
L 290.789371 112.188082 
L 290.893427 111.941784 
L 291.517762 111.941784 
L 291.517762 111.859685 
L 291.725874 111.777586 
L 292.454266 111.695487 
L 292.454266 111.44919 
L 293.390769 111.36709 
L 293.390769 111.284991 
L 293.702937 111.284991 
L 293.702937 111.038694 
L 294.223217 110.464 
L 294.951608 110.464 
L 294.951608 110.299802 
L 295.68 110.217703 
L 295.68 110.053504 
L 295.888112 110.053504 
L 295.888112 109.971405 
L 296.20028 109.725108 
L 297.448951 109.643009 
L 297.448951 109.396711 
L 297.553007 109.396711 
L 297.761119 109.396711 
L 297.865175 109.068315 
L 298.177343 108.822017 
L 298.385455 108.822017 
L 298.385455 108.493621 
L 298.905734 108.411522 
L 299.217902 108.083125 
L 299.738182 108.001026 
L 299.738182 107.918927 
L 299.946294 107.918927 
L 300.258462 107.754729 
L 300.362517 107.508431 
L 300.570629 107.508431 
L 300.570629 107.426332 
L 300.674685 107.344233 
L 300.986853 107.344233 
L 301.194965 107.097936 
L 301.194965 106.769539 
L 301.923357 106.68744 
L 302.027413 106.441143 
L 302.235524 106.359044 
L 302.235524 106.194845 
L 303.172028 106.112746 
L 303.172028 106.030647 
L 303.38014 106.030647 
L 303.38014 105.866449 
L 303.796364 105.866449 
L 303.90042 105.538052 
L 304.420699 105.127557 
L 305.357203 105.045458 
L 305.357203 104.881259 
L 305.565315 104.881259 
L 305.565315 104.79916 
L 305.669371 104.634962 
L 306.085594 104.552863 
L 306.085594 104.470764 
L 306.397762 104.470764 
L 306.397762 104.388665 
L 306.605874 104.142367 
L 307.438322 104.060268 
L 307.542378 103.978169 
L 307.958601 103.978169 
L 307.958601 103.89607 
L 308.062657 103.813971 
L 308.270769 103.813971 
L 308.478881 103.649773 
L 308.582937 103.403475 
L 308.895105 103.075079 
L 308.895105 102.99298 
L 309.103217 102.99298 
L 309.103217 102.91088 
L 309.311329 102.746682 
L 309.831608 102.582484 
L 309.935664 102.418286 
L 310.03972 102.418286 
L 310.03972 102.336187 
L 310.351888 102.089889 
L 311.392448 102.00779 
L 311.704615 101.761493 
L 312.120839 101.679394 
L 312.120839 101.597294 
L 312.641119 101.515195 
L 312.641119 101.350997 
L 313.88979 101.268898 
L 313.88979 101.186799 
L 313.993846 101.186799 
L 314.826294 101.1047 
L 315.034406 101.022601 
L 315.866853 100.940501 
L 315.970909 100.858402 
L 316.179021 100.858402 
L 316.387133 100.694204 
L 316.699301 100.530006 
L 316.699301 100.201609 
L 316.907413 100.201609 
L 316.907413 100.037411 
L 317.21958 99.873213 
L 317.531748 99.791114 
L 317.531748 99.626915 
L 317.73986 99.626915 
L 317.947972 99.462717 
L 317.947972 99.21642 
L 318.052028 99.21642 
L 318.26014 99.052222 
L 318.884476 98.970122 
L 318.884476 98.805924 
L 318.988531 98.805924 
L 319.092587 98.641726 
L 319.300699 98.641726 
L 319.300699 98.559627 
L 319.820979 98.313329 
L 319.925035 97.32814 
L 320.133147 97.081843 
L 320.341259 97.081843 
L 320.341259 96.999743 
L 320.445315 96.753446 
L 320.653427 96.753446 
L 320.653427 96.589248 
L 321.06965 96.507149 
L 321.277762 96.260851 
L 321.381818 96.014554 
L 321.58993 96.014554 
L 321.58993 95.768257 
L 321.693986 95.768257 
L 322.318322 95.521959 
L 322.63049 95.521959 
L 322.63049 95.193563 
L 322.734545 95.193563 
L 324.503497 94.700968 
L 324.503497 94.53677 
L 325.335944 94.454671 
L 325.544056 94.290472 
L 326.272448 94.044175 
L 326.376503 93.715778 
L 326.480559 93.715778 
L 326.480559 93.633679 
L 327.208951 93.141085 
L 327.208951 92.894787 
L 327.313007 92.894787 
L 327.625175 92.812688 
L 328.457622 92.730589 
L 328.561678 92.566391 
L 328.873846 92.484292 
L 328.977902 92.320093 
L 329.081958 92.320093 
L 329.29007 91.991697 
L 329.602238 91.991697 
L 329.914406 91.6633 
L 330.018462 91.499102 
L 330.122517 91.499102 
L 330.122517 91.417003 
L 330.330629 91.252805 
L 330.434685 90.842309 
L 330.538741 90.678111 
L 331.163077 90.678111 
L 331.267133 90.513913 
L 331.267133 90.103417 
L 331.371189 90.103417 
L 332.09958 89.85712 
L 332.09958 89.528723 
L 332.307692 89.528723 
L 332.411748 89.282426 
L 332.515804 89.282426 
L 332.723916 89.036128 
L 333.868531 88.954029 
L 334.076643 88.789831 
L 334.492867 88.707732 
L 334.596923 88.543534 
L 334.805035 88.543534 
L 334.909091 88.133038 
L 335.013147 88.133038 
L 335.013147 87.96884 
L 335.741538 87.886741 
L 335.741538 87.722542 
L 336.053706 87.640443 
L 336.157762 87.312047 
L 336.573986 87.229948 
L 336.573986 87.147848 
L 336.886154 87.065749 
L 337.718601 86.98365 
L 337.822657 86.819452 
L 338.030769 86.737353 
L 338.134825 86.573155 
L 338.655105 86.491055 
L 338.759161 85.998461 
L 339.175385 85.834262 
L 339.175385 85.752163 
L 339.279441 85.752163 
L 340.111888 85.670064 
L 340.215944 85.587965 
L 341.360559 85.505866 
L 341.464615 85.259569 
L 341.568671 85.013271 
L 342.297063 84.931172 
L 342.297063 84.766974 
L 342.505175 84.766974 
L 342.921399 84.602776 
L 343.545734 84.602776 
L 343.545734 84.520676 
L 343.64979 84.438577 
L 344.17007 84.356478 
L 344.274126 84.274379 
L 344.69035 84.274379 
L 344.794406 83.863883 
L 345.002517 83.781784 
L 345.002517 83.699685 
L 345.210629 83.699685 
L 345.210629 83.617586 
L 345.522797 83.535487 
L 345.626853 83.28919 
L 346.043077 83.28919 
L 346.043077 83.042892 
L 346.147133 83.042892 
L 346.251189 82.714496 
L 346.771469 82.632397 
L 346.97958 82.304 
L 347.49986 82.221901 
L 347.49986 82.139802 
L 348.02014 82.057703 
L 348.02014 81.893504 
L 348.124196 81.893504 
L 348.54042 81.565108 
L 348.748531 81.565108 
L 348.748531 81.483009 
L 348.956643 81.236711 
L 350.101259 81.154612 
L 350.309371 80.908315 
L 350.413427 80.744117 
L 350.725594 80.579918 
L 350.725594 80.497819 
L 351.037762 80.497819 
L 351.037762 80.333621 
L 351.766154 80.087324 
L 351.766154 79.841026 
L 351.974266 79.841026 
L 351.974266 79.758927 
L 352.078322 79.594729 
L 352.494545 79.348431 
L 353.118881 79.266332 
L 353.222937 79.020035 
L 353.847273 78.937936 
L 353.847273 78.855837 
L 354.367552 78.773738 
L 354.471608 78.363242 
L 355.72028 78.281143 
L 355.72028 78.116945 
L 356.552727 78.034845 
L 356.552727 77.870647 
L 356.760839 77.870647 
L 357.073007 77.460152 
L 357.281119 77.378052 
L 357.593287 77.378052 
L 357.801399 77.131755 
L 358.52979 77.131755 
L 358.52979 76.967557 
L 359.986573 76.885458 
L 359.986573 76.803359 
L 360.090629 76.803359 
L 360.506853 76.721259 
L 360.610909 76.392863 
L 361.131189 76.310764 
L 361.235245 76.064466 
L 361.547413 76.064466 
L 362.37986 75.900268 
L 363.004196 75.818169 
L 363.004196 75.73607 
L 363.628531 75.73607 
L 363.628531 75.489773 
L 363.732587 75.489773 
L 363.836643 75.243475 
L 364.044755 75.243475 
L 364.148811 75.079277 
L 365.085315 74.997178 
L 365.501538 74.668781 
L 365.813706 74.668781 
L 365.917762 74.422484 
L 366.438042 74.340385 
L 366.542098 74.258286 
L 367.374545 74.176187 
L 367.374545 74.094087 
L 367.686713 74.011988 
L 367.790769 73.683592 
L 368.311049 73.683592 
L 368.311049 73.601493 
L 368.935385 73.519394 
L 369.247552 73.437294 
L 369.351608 73.108898 
L 369.975944 72.862601 
L 369.975944 72.698402 
L 370.08 72.698402 
L 370.184056 72.616303 
L 370.184056 72.452105 
L 370.704336 72.370006 
L 370.704336 72.123708 
L 371.016503 72.123708 
L 371.016503 72.041609 
L 371.016503 71.795312 
L 371.953007 71.713213 
L 371.953007 71.549015 
L 372.057063 71.549015 
L 372.369231 71.384816 
L 372.577343 71.302717 
L 372.577343 71.220618 
L 373.617902 71.138519 
L 373.617902 71.05642 
L 373.826014 71.05642 
L 373.826014 70.810122 
L 373.93007 70.810122 
L 374.970629 70.728023 
L 374.970629 70.645924 
L 375.386853 70.563825 
L 375.386853 70.481726 
L 375.699021 70.399627 
L 375.699021 70.235429 
L 375.803077 70.235429 
L 376.011189 70.153329 
L 376.323357 70.07123 
L 376.531469 69.989131 
L 377.25986 69.907032 
L 377.25986 69.742834 
L 377.467972 69.742834 
L 377.572028 69.250239 
L 377.78014 69.250239 
L 377.78014 69.16814 
L 377.78014 68.921843 
L 378.092308 68.921843 
L 378.092308 68.839743 
L 378.30042 68.593446 
L 379.757203 68.18295 
L 379.757203 67.936653 
L 380.173427 67.936653 
L 380.485594 67.608257 
L 380.485594 67.526157 
L 381.10993 67.444058 
L 381.213986 66.869364 
L 381.422098 66.869364 
L 381.942378 66.623067 
L 381.942378 66.540968 
L 382.982937 66.458869 
L 383.503217 66.212571 
L 383.503217 66.130472 
L 383.607273 66.130472 
L 385.168112 65.473679 
L 385.168112 65.39158 
L 385.688392 65.309481 
L 385.688392 65.227382 
L 386.000559 64.816886 
L 386.833007 64.816886 
L 386.833007 64.652688 
L 387.041119 64.652688 
L 387.665455 64.406391 
L 387.873566 64.160093 
L 387.977622 63.995895 
L 388.601958 63.913796 
L 388.601958 63.831697 
L 388.914126 63.831697 
L 389.538462 63.092805 
L 389.850629 63.092805 
L 389.850629 63.010706 
L 390.162797 62.846507 
L 391.099301 62.764408 
L 391.099301 62.682309 
L 392.035804 62.682309 
L 392.13986 62.436012 
L 392.66014 62.353913 
L 394.012867 62.189714 
L 394.116923 62.189714 
L 394.116923 62.107615 
L 394.325035 61.779219 
L 394.637203 61.69712 
L 394.637203 61.61502 
L 394.741259 61.61502 
L 395.365594 61.61502 
L 395.46965 61.286624 
L 395.781818 61.204525 
L 396.406154 60.794029 
L 396.614266 60.629831 
L 396.614266 60.383534 
L 397.03049 60.383534 
L 397.862937 60.055137 
L 398.383217 59.644641 
L 399.215664 59.562542 
L 399.215664 59.480443 
L 399.527832 59.398344 
L 399.631888 59.069948 
L 399.944056 58.905749 
L 400.568392 58.659452 
L 401.400839 58.577353 
L 402.545455 58.084758 
L 402.545455 57.92056 
L 402.64951 57.92056 
L 402.961678 57.92056 
L 402.961678 57.838461 
L 404.002238 57.427965 
L 405.042797 57.345866 
L 405.250909 57.263767 
L 405.979301 57.181668 
L 405.979301 57.099569 
L 406.395524 57.099569 
L 408.476643 56.606974 
L 409.725315 56.524875 
L 409.933427 56.278577 
L 410.141538 56.278577 
L 410.557762 55.868082 
L 410.765874 55.868082 
L 410.765874 55.703883 
L 411.286154 55.539685 
L 411.598322 55.539685 
L 414.72 54.144 
L 414.72 54.144 
" clip-path="url(#p20cf00dd02)" style="fill: none; stroke: #1f77b4; stroke-width: 1.5; stroke-linecap: square"/>
   </g>
   <g id="line2d_14">
    <path d="M 57.6 307.584 
L 414.72 54.144 
" clip-path="url(#p20cf00dd02)" style="fill: none; stroke-dasharray: 5.55,2.4; stroke-dashoffset: 0; stroke: #000000; stroke-width: 1.5"/>
   </g>
   <g id="patch_3">
    <path d="M 57.6 307.584 
L 57.6 41.472 
" style="fill: none; stroke: #000000; stroke-width: 0.8; stroke-linejoin: miter; stroke-linecap: square"/>
   </g>
   <g id="patch_4">
    <path d="M 414.72 307.584 
L 414.72 41.472 
" style="fill: none; stroke: #000000; stroke-width: 0.8; stroke-linejoin: miter; stroke-linecap: square"/>
   </g>
   <g id="patch_5">
    <path d="M 57.6 307.584 
L 414.72 307.584 
" style="fill: none; stroke: #000000; stroke-width: 0.8; stroke-linejoin: miter; stroke-linecap: square"/>
   </g>
   <g id="patch_6">
    <path d="M 57.6 41.472 
L 414.72 41.472 
" style="fill: none; stroke: #000000; stroke-width: 0.8; stroke-linejoin: miter; stroke-linecap: square"/>
   </g>
   <g id="text_15">
    <!-- Receiver Operating Characteristic -->
    <g transform="translate(134.656875 35.472) scale(0.12 -0.12)">
     <defs>
      <path id="DejaVuSans-63" d="M 3122 3366 
L 3122 2828 
Q 2878 2963 2633 3030 
Q 2388 3097 2138 3097 
Q 1578 3097 1268 2742 
Q 959 2388 959 1747 
Q 959 1106 1268 751 
Q 1578 397 2138 397 
Q 2388 397 2633 464 
Q 2878 531 3122 666 
L 3122 134 
Q 2881 22 2623 -34 
Q 2366 -91 2075 -91 
Q 1284 -91 818 406 
Q 353 903 353 1747 
Q 353 2603 823 3093 
Q 1294 3584 2113 3584 
Q 2378 3584 2631 3529 
Q 2884 3475 3122 3366 
z
" transform="scale(0.015625)"/>
      <path id="DejaVuSans-4f" d="M 2522 4238 
Q 1834 4238 1429 3725 
Q 1025 3213 1025 2328 
Q 1025 1447 1429 934 
Q 1834 422 2522 422 
Q 3209 422 3611 934 
Q 4013 1447 4013 2328 
Q 4013 3213 3611 3725 
Q 3209 4238 2522 4238 
z
M 2522 4750 
Q 3503 4750 4090 4092 
Q 4678 3434 4678 2328 
Q 4678 1225 4090 567 
Q 3503 -91 2522 -91 
Q 1538 -91 948 565 
Q 359 1222 359 2328 
Q 359 3434 948 4092 
Q 1538 4750 2522 4750 
z
" transform="scale(0.015625)"/>
      <path id="DejaVuSans-70" d="M 1159 525 
L 1159 -1331 
L 581 -1331 
L 581 3500 
L 1159 3500 
L 1159 2969 
Q 1341 3281 1617 3432 
Q 1894 3584 2278 3584 
Q 2916 3584 3314 3078 
Q 3713 2572 3713 1747 
Q 3713 922 3314 415 
Q 2916 -91 2278 -91 
Q 1894 -91 1617 61 
Q 1341 213 1159 525 
z
M 3116 1747 
Q 3116 2381 2855 2742 
Q 2594 3103 2138 3103 
Q 1681 3103 1420 2742 
Q 1159 2381 1159 1747 
Q 1159 1113 1420 752 
Q 1681 391 2138 391 
Q 2594 391 2855 752 
Q 3116 1113 3116 1747 
z
" transform="scale(0.015625)"/>
      <path id="DejaVuSans-6e" d="M 3513 2113 
L 3513 0 
L 2938 0 
L 2938 2094 
Q 2938 2591 2744 2837 
Q 2550 3084 2163 3084 
Q 1697 3084 1428 2787 
Q 1159 2491 1159 1978 
L 1159 0 
L 581 0 
L 581 3500 
L 1159 3500 
L 1159 2956 
Q 1366 3272 1645 3428 
Q 1925 3584 2291 3584 
Q 2894 3584 3203 3211 
Q 3513 2838 3513 2113 
z
" transform="scale(0.015625)"/>
      <path id="DejaVuSans-67" d="M 2906 1791 
Q 2906 2416 2648 2759 
Q 2391 3103 1925 3103 
Q 1463 3103 1205 2759 
Q 947 2416 947 1791 
Q 947 1169 1205 825 
Q 1463 481 1925 481 
Q 2391 481 2648 825 
Q 2906 1169 2906 1791 
z
M 3481 434 
Q 3481 -459 3084 -895 
Q 2688 -1331 1869 -1331 
Q 1566 -1331 1297 -1286 
Q 1028 -1241 775 -1147 
L 775 -588 
Q 1028 -725 1275 -790 
Q 1522 -856 1778 -856 
Q 2344 -856 2625 -561 
Q 2906 -266 2906 331 
L 2906 616 
Q 2728 306 2450 153 
Q 2172 0 1784 0 
Q 1141 0 747 490 
Q 353 981 353 1791 
Q 353 2603 747 3093 
Q 1141 3584 1784 3584 
Q 2172 3584 2450 3431 
Q 2728 3278 2906 2969 
L 2906 3500 
L 3481 3500 
L 3481 434 
z
" transform="scale(0.015625)"/>
      <path id="DejaVuSans-43" d="M 4122 4306 
L 4122 3641 
Q 3803 3938 3442 4084 
Q 3081 4231 2675 4231 
Q 1875 4231 1450 3742 
Q 1025 3253 1025 2328 
Q 1025 1406 1450 917 
Q 1875 428 2675 428 
Q 3081 428 3442 575 
Q 3803 722 4122 1019 
L 4122 359 
Q 3791 134 3420 21 
Q 3050 -91 2638 -91 
Q 1578 -91 968 557 
Q 359 1206 359 2328 
Q 359 3453 968 4101 
Q 1578 4750 2638 4750 
Q 3056 4750 3426 4639 
Q 3797 4528 4122 4306 
z
" transform="scale(0.015625)"/>
      <path id="DejaVuSans-68" d="M 3513 2113 
L 3513 0 
L 2938 0 
L 2938 2094 
Q 2938 2591 2744 2837 
Q 2550 3084 2163 3084 
Q 1697 3084 1428 2787 
Q 1159 2491 1159 1978 
L 1159 0 
L 581 0 
L 581 4863 
L 1159 4863 
L 1159 2956 
Q 1366 3272 1645 3428 
Q 1925 3584 2291 3584 
Q 2894 3584 3203 3211 
Q 3513 2838 3513 2113 
z
" transform="scale(0.015625)"/>
     </defs>
     <use xlink:href="#DejaVuSans-52"/>
     <use xlink:href="#DejaVuSans-65" x="64.982422"/>
     <use xlink:href="#DejaVuSans-63" x="126.505859"/>
     <use xlink:href="#DejaVuSans-65" x="181.486328"/>
     <use xlink:href="#DejaVuSans-69" x="243.009766"/>
     <use xlink:href="#DejaVuSans-76" x="270.792969"/>
     <use xlink:href="#DejaVuSans-65" x="329.972656"/>
     <use xlink:href="#DejaVuSans-72" x="391.496094"/>
     <use xlink:href="#DejaVuSans-20" x="432.609375"/>
     <use xlink:href="#DejaVuSans-4f" x="464.396484"/>
     <use xlink:href="#DejaVuSans-70" x="543.107422"/>
     <use xlink:href="#DejaVuSans-65" x="606.583984"/>
     <use xlink:href="#DejaVuSans-72" x="668.107422"/>
     <use xlink:href="#DejaVuSans-61" x="709.220703"/>
     <use xlink:href="#DejaVuSans-74" x="770.5"/>
     <use xlink:href="#DejaVuSans-69" x="809.708984"/>
     <use xlink:href="#DejaVuSans-6e" x="837.492188"/>
     <use xlink:href="#DejaVuSans-67" x="900.871094"/>
     <use xlink:href="#DejaVuSans-20" x="964.347656"/>
     <use xlink:href="#DejaVuSans-43" x="996.134766"/>
     <use xlink:href="#DejaVuSans-68" x="1065.958984"/>
     <use xlink:href="#DejaVuSans-61" x="1129.337891"/>
     <use xlink:href="#DejaVuSans-72" x="1190.617188"/>
     <use xlink:href="#DejaVuSans-61" x="1231.730469"/>
     <use xlink:href="#DejaVuSans-63" x="1293.009766"/>
     <use xlink:href="#DejaVuSans-74" x="1347.990234"/>
     <use xlink:href="#DejaVuSans-65" x="1387.199219"/>
     <use xlink:href="#DejaVuSans-72" x="1448.722656"/>
     <use xlink:href="#DejaVuSans-69" x="1489.835938"/>
     <use xlink:href="#DejaVuSans-73" x="1517.619141"/>
     <use xlink:href="#DejaVuSans-74" x="1569.71875"/>
     <use xlink:href="#DejaVuSans-69" x="1608.927734"/>
     <use xlink:href="#DejaVuSans-63" x="1636.710938"/>
    </g>
   </g>
   <g id="legend_1">
    <g id="patch_7">
     <path d="M 252.441875 302.584 
L 407.72 302.584 
Q 409.72 302.584 409.72 300.584 
L 409.72 286.905875 
Q 409.72 284.905875 407.72 284.905875 
L 252.441875 284.905875 
Q 250.441875 284.905875 250.441875 286.905875 
L 250.441875 300.584 
Q 250.441875 302.584 252.441875 302.584 
z
" style="fill: #ffffff; opacity: 0.8; stroke: #cccccc; stroke-linejoin: miter"/>
    </g>
    <g id="line2d_15">
     <path d="M 254.441875 293.004312 
L 264.441875 293.004312 
L 274.441875 293.004312 
" style="fill: none; stroke: #1f77b4; stroke-width: 1.5; stroke-linecap: square"/>
    </g>
    <g id="text_16">
     <!-- ROC curve (area = 0.58) -->
     <g transform="translate(282.441875 296.504312) scale(0.1 -0.1)">
      <defs>
       <path id="DejaVuSans-28" d="M 1984 4856 
Q 1566 4138 1362 3434 
Q 1159 2731 1159 2009 
Q 1159 1288 1364 580 
Q 1569 -128 1984 -844 
L 1484 -844 
Q 1016 -109 783 600 
Q 550 1309 550 2009 
Q 550 2706 781 3412 
Q 1013 4119 1484 4856 
L 1984 4856 
z
" transform="scale(0.015625)"/>
       <path id="DejaVuSans-3d" d="M 678 2906 
L 4684 2906 
L 4684 2381 
L 678 2381 
L 678 2906 
z
M 678 1631 
L 4684 1631 
L 4684 1100 
L 678 1100 
L 678 1631 
z
" transform="scale(0.015625)"/>
       <path id="DejaVuSans-35" d="M 691 4666 
L 3169 4666 
L 3169 4134 
L 1269 4134 
L 1269 2991 
Q 1406 3038 1543 3061 
Q 1681 3084 1819 3084 
Q 2600 3084 3056 2656 
Q 3513 2228 3513 1497 
Q 3513 744 3044 326 
Q 2575 -91 1722 -91 
Q 1428 -91 1123 -41 
Q 819 9 494 109 
L 494 744 
Q 775 591 1075 516 
Q 1375 441 1709 441 
Q 2250 441 2565 725 
Q 2881 1009 2881 1497 
Q 2881 1984 2565 2268 
Q 2250 2553 1709 2553 
Q 1456 2553 1204 2497 
Q 953 2441 691 2322 
L 691 4666 
z
" transform="scale(0.015625)"/>
       <path id="DejaVuSans-29" d="M 513 4856 
L 1013 4856 
Q 1481 4119 1714 3412 
Q 1947 2706 1947 2009 
Q 1947 1309 1714 600 
Q 1481 -109 1013 -844 
L 513 -844 
Q 928 -128 1133 580 
Q 1338 1288 1338 2009 
Q 1338 2731 1133 3434 
Q 928 4138 513 4856 
z
" transform="scale(0.015625)"/>
      </defs>
      <use xlink:href="#DejaVuSans-52"/>
      <use xlink:href="#DejaVuSans-4f" x="69.482422"/>
      <use xlink:href="#DejaVuSans-43" x="148.193359"/>
      <use xlink:href="#DejaVuSans-20" x="218.017578"/>
      <use xlink:href="#DejaVuSans-63" x="249.804688"/>
      <use xlink:href="#DejaVuSans-75" x="304.785156"/>
      <use xlink:href="#DejaVuSans-72" x="368.164062"/>
      <use xlink:href="#DejaVuSans-76" x="409.277344"/>
      <use xlink:href="#DejaVuSans-65" x="468.457031"/>
      <use xlink:href="#DejaVuSans-20" x="529.980469"/>
      <use xlink:href="#DejaVuSans-28" x="561.767578"/>
      <use xlink:href="#DejaVuSans-61" x="600.78125"/>
      <use xlink:href="#DejaVuSans-72" x="662.060547"/>
      <use xlink:href="#DejaVuSans-65" x="700.923828"/>
      <use xlink:href="#DejaVuSans-61" x="762.447266"/>
      <use xlink:href="#DejaVuSans-20" x="823.726562"/>
      <use xlink:href="#DejaVuSans-3d" x="855.513672"/>
      <use xlink:href="#DejaVuSans-20" x="939.302734"/>
      <use xlink:href="#DejaVuSans-30" x="971.089844"/>
      <use xlink:href="#DejaVuSans-2e" x="1034.712891"/>
      <use xlink:href="#DejaVuSans-35" x="1066.5"/>
      <use xlink:href="#DejaVuSans-38" x="1130.123047"/>
      <use xlink:href="#DejaVuSans-29" x="1193.746094"/>
     </g>
    </g>
   </g>
  </g>
 </g>
 <defs>
  <clipPath id="p20cf00dd02">
   <rect x="57.6" y="41.472" width="357.12" height="266.112"/>
  </clipPath>
 </defs>
</svg>
