<?xml version="1.0" encoding="utf-8" standalone="no"?>
<!DOCTYPE svg PUBLIC "-//W3C//DTD SVG 1.1//EN"
  "http://www.w3.org/Graphics/SVG/1.1/DTD/svg11.dtd">
<svg xmlns:xlink="http://www.w3.org/1999/xlink" width="460.8pt" height="345.6pt" viewBox="0 0 460.8 345.6" xmlns="http://www.w3.org/2000/svg" version="1.1">
 <metadata>
  <rdf:RDF xmlns:dc="http://purl.org/dc/elements/1.1/" xmlns:cc="http://creativecommons.org/ns#" xmlns:rdf="http://www.w3.org/1999/02/22-rdf-syntax-ns#">
   <cc:Work>
    <dc:type rdf:resource="http://purl.org/dc/dcmitype/StillImage"/>
    <dc:date>2024-05-01T16:46:00.471605</dc:date>
    <dc:format>image/svg+xml</dc:format>
    <dc:creator>
     <cc:Agent>
      <dc:title>Matplotlib v3.8.3, https://matplotlib.org/</dc:title>
     </cc:Agent>
    </dc:creator>
   </cc:Work>
  </rdf:RDF>
 </metadata>
 <defs>
  <style type="text/css">*{stroke-linejoin: round; stroke-linecap: butt}</style>
 </defs>
 <g id="figure_1">
  <g id="patch_1">
   <path d="M 0 345.6 
L 460.8 345.6 
L 460.8 0 
L 0 0 
z
" style="fill: #ffffff"/>
  </g>
  <g id="axes_1">
   <g id="patch_2">
    <path d="M 57.6 307.584 
L 414.72 307.584 
L 414.72 41.472 
L 57.6 41.472 
z
" style="fill: #ffffff"/>
   </g>
   <g id="matplotlib.axis_1">
    <g id="xtick_1">
     <g id="line2d_1">
      <defs>
       <path id="mdfbe22d6fd" d="M 0 0 
L 0 3.5 
" style="stroke: #000000; stroke-width: 0.8"/>
      </defs>
      <g>
       <use xlink:href="#mdfbe22d6fd" x="57.6" y="307.584" style="stroke: #000000; stroke-width: 0.8"/>
      </g>
     </g>
     <g id="text_1">
      <!-- 0.0 -->
      <g transform="translate(49.648438 322.182437) scale(0.1 -0.1)">
       <defs>
        <path id="DejaVuSans-30" d="M 2034 4250 
Q 1547 4250 1301 3770 
Q 1056 3291 1056 2328 
Q 1056 1369 1301 889 
Q 1547 409 2034 409 
Q 2525 409 2770 889 
Q 3016 1369 3016 2328 
Q 3016 3291 2770 3770 
Q 2525 4250 2034 4250 
z
M 2034 4750 
Q 2819 4750 3233 4129 
Q 3647 3509 3647 2328 
Q 3647 1150 3233 529 
Q 2819 -91 2034 -91 
Q 1250 -91 836 529 
Q 422 1150 422 2328 
Q 422 3509 836 4129 
Q 1250 4750 2034 4750 
z
" transform="scale(0.015625)"/>
        <path id="DejaVuSans-2e" d="M 684 794 
L 1344 794 
L 1344 0 
L 684 0 
L 684 794 
z
" transform="scale(0.015625)"/>
       </defs>
       <use xlink:href="#DejaVuSans-30"/>
       <use xlink:href="#DejaVuSans-2e" x="63.623047"/>
       <use xlink:href="#DejaVuSans-30" x="95.410156"/>
      </g>
     </g>
    </g>
    <g id="xtick_2">
     <g id="line2d_2">
      <g>
       <use xlink:href="#mdfbe22d6fd" x="129.024" y="307.584" style="stroke: #000000; stroke-width: 0.8"/>
      </g>
     </g>
     <g id="text_2">
      <!-- 0.2 -->
      <g transform="translate(121.072438 322.182437) scale(0.1 -0.1)">
       <defs>
        <path id="DejaVuSans-32" d="M 1228 531 
L 3431 531 
L 3431 0 
L 469 0 
L 469 531 
Q 828 903 1448 1529 
Q 2069 2156 2228 2338 
Q 2531 2678 2651 2914 
Q 2772 3150 2772 3378 
Q 2772 3750 2511 3984 
Q 2250 4219 1831 4219 
Q 1534 4219 1204 4116 
Q 875 4013 500 3803 
L 500 4441 
Q 881 4594 1212 4672 
Q 1544 4750 1819 4750 
Q 2544 4750 2975 4387 
Q 3406 4025 3406 3419 
Q 3406 3131 3298 2873 
Q 3191 2616 2906 2266 
Q 2828 2175 2409 1742 
Q 1991 1309 1228 531 
z
" transform="scale(0.015625)"/>
       </defs>
       <use xlink:href="#DejaVuSans-30"/>
       <use xlink:href="#DejaVuSans-2e" x="63.623047"/>
       <use xlink:href="#DejaVuSans-32" x="95.410156"/>
      </g>
     </g>
    </g>
    <g id="xtick_3">
     <g id="line2d_3">
      <g>
       <use xlink:href="#mdfbe22d6fd" x="200.448" y="307.584" style="stroke: #000000; stroke-width: 0.8"/>
      </g>
     </g>
     <g id="text_3">
      <!-- 0.4 -->
      <g transform="translate(192.496438 322.182437) scale(0.1 -0.1)">
       <defs>
        <path id="DejaVuSans-34" d="M 2419 4116 
L 825 1625 
L 2419 1625 
L 2419 4116 
z
M 2253 4666 
L 3047 4666 
L 3047 1625 
L 3713 1625 
L 3713 1100 
L 3047 1100 
L 3047 0 
L 2419 0 
L 2419 1100 
L 313 1100 
L 313 1709 
L 2253 4666 
z
" transform="scale(0.015625)"/>
       </defs>
       <use xlink:href="#DejaVuSans-30"/>
       <use xlink:href="#DejaVuSans-2e" x="63.623047"/>
       <use xlink:href="#DejaVuSans-34" x="95.410156"/>
      </g>
     </g>
    </g>
    <g id="xtick_4">
     <g id="line2d_4">
      <g>
       <use xlink:href="#mdfbe22d6fd" x="271.872" y="307.584" style="stroke: #000000; stroke-width: 0.8"/>
      </g>
     </g>
     <g id="text_4">
      <!-- 0.6 -->
      <g transform="translate(263.920438 322.182437) scale(0.1 -0.1)">
       <defs>
        <path id="DejaVuSans-36" d="M 2113 2584 
Q 1688 2584 1439 2293 
Q 1191 2003 1191 1497 
Q 1191 994 1439 701 
Q 1688 409 2113 409 
Q 2538 409 2786 701 
Q 3034 994 3034 1497 
Q 3034 2003 2786 2293 
Q 2538 2584 2113 2584 
z
M 3366 4563 
L 3366 3988 
Q 3128 4100 2886 4159 
Q 2644 4219 2406 4219 
Q 1781 4219 1451 3797 
Q 1122 3375 1075 2522 
Q 1259 2794 1537 2939 
Q 1816 3084 2150 3084 
Q 2853 3084 3261 2657 
Q 3669 2231 3669 1497 
Q 3669 778 3244 343 
Q 2819 -91 2113 -91 
Q 1303 -91 875 529 
Q 447 1150 447 2328 
Q 447 3434 972 4092 
Q 1497 4750 2381 4750 
Q 2619 4750 2861 4703 
Q 3103 4656 3366 4563 
z
" transform="scale(0.015625)"/>
       </defs>
       <use xlink:href="#DejaVuSans-30"/>
       <use xlink:href="#DejaVuSans-2e" x="63.623047"/>
       <use xlink:href="#DejaVuSans-36" x="95.410156"/>
      </g>
     </g>
    </g>
    <g id="xtick_5">
     <g id="line2d_5">
      <g>
       <use xlink:href="#mdfbe22d6fd" x="343.296" y="307.584" style="stroke: #000000; stroke-width: 0.8"/>
      </g>
     </g>
     <g id="text_5">
      <!-- 0.8 -->
      <g transform="translate(335.344438 322.182437) scale(0.1 -0.1)">
       <defs>
        <path id="DejaVuSans-38" d="M 2034 2216 
Q 1584 2216 1326 1975 
Q 1069 1734 1069 1313 
Q 1069 891 1326 650 
Q 1584 409 2034 409 
Q 2484 409 2743 651 
Q 3003 894 3003 1313 
Q 3003 1734 2745 1975 
Q 2488 2216 2034 2216 
z
M 1403 2484 
Q 997 2584 770 2862 
Q 544 3141 544 3541 
Q 544 4100 942 4425 
Q 1341 4750 2034 4750 
Q 2731 4750 3128 4425 
Q 3525 4100 3525 3541 
Q 3525 3141 3298 2862 
Q 3072 2584 2669 2484 
Q 3125 2378 3379 2068 
Q 3634 1759 3634 1313 
Q 3634 634 3220 271 
Q 2806 -91 2034 -91 
Q 1263 -91 848 271 
Q 434 634 434 1313 
Q 434 1759 690 2068 
Q 947 2378 1403 2484 
z
M 1172 3481 
Q 1172 3119 1398 2916 
Q 1625 2713 2034 2713 
Q 2441 2713 2670 2916 
Q 2900 3119 2900 3481 
Q 2900 3844 2670 4047 
Q 2441 4250 2034 4250 
Q 1625 4250 1398 4047 
Q 1172 3844 1172 3481 
z
" transform="scale(0.015625)"/>
       </defs>
       <use xlink:href="#DejaVuSans-30"/>
       <use xlink:href="#DejaVuSans-2e" x="63.623047"/>
       <use xlink:href="#DejaVuSans-38" x="95.410156"/>
      </g>
     </g>
    </g>
    <g id="xtick_6">
     <g id="line2d_6">
      <g>
       <use xlink:href="#mdfbe22d6fd" x="414.72" y="307.584" style="stroke: #000000; stroke-width: 0.8"/>
      </g>
     </g>
     <g id="text_6">
      <!-- 1.0 -->
      <g transform="translate(406.768438 322.182437) scale(0.1 -0.1)">
       <defs>
        <path id="DejaVuSans-31" d="M 794 531 
L 1825 531 
L 1825 4091 
L 703 3866 
L 703 4441 
L 1819 4666 
L 2450 4666 
L 2450 531 
L 3481 531 
L 3481 0 
L 794 0 
L 794 531 
z
" transform="scale(0.015625)"/>
       </defs>
       <use xlink:href="#DejaVuSans-31"/>
       <use xlink:href="#DejaVuSans-2e" x="63.623047"/>
       <use xlink:href="#DejaVuSans-30" x="95.410156"/>
      </g>
     </g>
    </g>
    <g id="text_7">
     <!-- False Positive Rate -->
     <g transform="translate(189.693594 335.860562) scale(0.1 -0.1)">
      <defs>
       <path id="DejaVuSans-46" d="M 628 4666 
L 3309 4666 
L 3309 4134 
L 1259 4134 
L 1259 2759 
L 3109 2759 
L 3109 2228 
L 1259 2228 
L 1259 0 
L 628 0 
L 628 4666 
z
" transform="scale(0.015625)"/>
       <path id="DejaVuSans-61" d="M 2194 1759 
Q 1497 1759 1228 1600 
Q 959 1441 959 1056 
Q 959 750 1161 570 
Q 1363 391 1709 391 
Q 2188 391 2477 730 
Q 2766 1069 2766 1631 
L 2766 1759 
L 2194 1759 
z
M 3341 1997 
L 3341 0 
L 2766 0 
L 2766 531 
Q 2569 213 2275 61 
Q 1981 -91 1556 -91 
Q 1019 -91 701 211 
Q 384 513 384 1019 
Q 384 1609 779 1909 
Q 1175 2209 1959 2209 
L 2766 2209 
L 2766 2266 
Q 2766 2663 2505 2880 
Q 2244 3097 1772 3097 
Q 1472 3097 1187 3025 
Q 903 2953 641 2809 
L 641 3341 
Q 956 3463 1253 3523 
Q 1550 3584 1831 3584 
Q 2591 3584 2966 3190 
Q 3341 2797 3341 1997 
z
" transform="scale(0.015625)"/>
       <path id="DejaVuSans-6c" d="M 603 4863 
L 1178 4863 
L 1178 0 
L 603 0 
L 603 4863 
z
" transform="scale(0.015625)"/>
       <path id="DejaVuSans-73" d="M 2834 3397 
L 2834 2853 
Q 2591 2978 2328 3040 
Q 2066 3103 1784 3103 
Q 1356 3103 1142 2972 
Q 928 2841 928 2578 
Q 928 2378 1081 2264 
Q 1234 2150 1697 2047 
L 1894 2003 
Q 2506 1872 2764 1633 
Q 3022 1394 3022 966 
Q 3022 478 2636 193 
Q 2250 -91 1575 -91 
Q 1294 -91 989 -36 
Q 684 19 347 128 
L 347 722 
Q 666 556 975 473 
Q 1284 391 1588 391 
Q 1994 391 2212 530 
Q 2431 669 2431 922 
Q 2431 1156 2273 1281 
Q 2116 1406 1581 1522 
L 1381 1569 
Q 847 1681 609 1914 
Q 372 2147 372 2553 
Q 372 3047 722 3315 
Q 1072 3584 1716 3584 
Q 2034 3584 2315 3537 
Q 2597 3491 2834 3397 
z
" transform="scale(0.015625)"/>
       <path id="DejaVuSans-65" d="M 3597 1894 
L 3597 1613 
L 953 1613 
Q 991 1019 1311 708 
Q 1631 397 2203 397 
Q 2534 397 2845 478 
Q 3156 559 3463 722 
L 3463 178 
Q 3153 47 2828 -22 
Q 2503 -91 2169 -91 
Q 1331 -91 842 396 
Q 353 884 353 1716 
Q 353 2575 817 3079 
Q 1281 3584 2069 3584 
Q 2775 3584 3186 3129 
Q 3597 2675 3597 1894 
z
M 3022 2063 
Q 3016 2534 2758 2815 
Q 2500 3097 2075 3097 
Q 1594 3097 1305 2825 
Q 1016 2553 972 2059 
L 3022 2063 
z
" transform="scale(0.015625)"/>
       <path id="DejaVuSans-20" transform="scale(0.015625)"/>
       <path id="DejaVuSans-50" d="M 1259 4147 
L 1259 2394 
L 2053 2394 
Q 2494 2394 2734 2622 
Q 2975 2850 2975 3272 
Q 2975 3691 2734 3919 
Q 2494 4147 2053 4147 
L 1259 4147 
z
M 628 4666 
L 2053 4666 
Q 2838 4666 3239 4311 
Q 3641 3956 3641 3272 
Q 3641 2581 3239 2228 
Q 2838 1875 2053 1875 
L 1259 1875 
L 1259 0 
L 628 0 
L 628 4666 
z
" transform="scale(0.015625)"/>
       <path id="DejaVuSans-6f" d="M 1959 3097 
Q 1497 3097 1228 2736 
Q 959 2375 959 1747 
Q 959 1119 1226 758 
Q 1494 397 1959 397 
Q 2419 397 2687 759 
Q 2956 1122 2956 1747 
Q 2956 2369 2687 2733 
Q 2419 3097 1959 3097 
z
M 1959 3584 
Q 2709 3584 3137 3096 
Q 3566 2609 3566 1747 
Q 3566 888 3137 398 
Q 2709 -91 1959 -91 
Q 1206 -91 779 398 
Q 353 888 353 1747 
Q 353 2609 779 3096 
Q 1206 3584 1959 3584 
z
" transform="scale(0.015625)"/>
       <path id="DejaVuSans-69" d="M 603 3500 
L 1178 3500 
L 1178 0 
L 603 0 
L 603 3500 
z
M 603 4863 
L 1178 4863 
L 1178 4134 
L 603 4134 
L 603 4863 
z
" transform="scale(0.015625)"/>
       <path id="DejaVuSans-74" d="M 1172 4494 
L 1172 3500 
L 2356 3500 
L 2356 3053 
L 1172 3053 
L 1172 1153 
Q 1172 725 1289 603 
Q 1406 481 1766 481 
L 2356 481 
L 2356 0 
L 1766 0 
Q 1100 0 847 248 
Q 594 497 594 1153 
L 594 3053 
L 172 3053 
L 172 3500 
L 594 3500 
L 594 4494 
L 1172 4494 
z
" transform="scale(0.015625)"/>
       <path id="DejaVuSans-76" d="M 191 3500 
L 800 3500 
L 1894 563 
L 2988 3500 
L 3597 3500 
L 2284 0 
L 1503 0 
L 191 3500 
z
" transform="scale(0.015625)"/>
       <path id="DejaVuSans-52" d="M 2841 2188 
Q 3044 2119 3236 1894 
Q 3428 1669 3622 1275 
L 4263 0 
L 3584 0 
L 2988 1197 
Q 2756 1666 2539 1819 
Q 2322 1972 1947 1972 
L 1259 1972 
L 1259 0 
L 628 0 
L 628 4666 
L 2053 4666 
Q 2853 4666 3247 4331 
Q 3641 3997 3641 3322 
Q 3641 2881 3436 2590 
Q 3231 2300 2841 2188 
z
M 1259 4147 
L 1259 2491 
L 2053 2491 
Q 2509 2491 2742 2702 
Q 2975 2913 2975 3322 
Q 2975 3731 2742 3939 
Q 2509 4147 2053 4147 
L 1259 4147 
z
" transform="scale(0.015625)"/>
      </defs>
      <use xlink:href="#DejaVuSans-46"/>
      <use xlink:href="#DejaVuSans-61" x="48.394531"/>
      <use xlink:href="#DejaVuSans-6c" x="109.673828"/>
      <use xlink:href="#DejaVuSans-73" x="137.457031"/>
      <use xlink:href="#DejaVuSans-65" x="189.556641"/>
      <use xlink:href="#DejaVuSans-20" x="251.080078"/>
      <use xlink:href="#DejaVuSans-50" x="282.867188"/>
      <use xlink:href="#DejaVuSans-6f" x="339.544922"/>
      <use xlink:href="#DejaVuSans-73" x="400.726562"/>
      <use xlink:href="#DejaVuSans-69" x="452.826172"/>
      <use xlink:href="#DejaVuSans-74" x="480.609375"/>
      <use xlink:href="#DejaVuSans-69" x="519.818359"/>
      <use xlink:href="#DejaVuSans-76" x="547.601562"/>
      <use xlink:href="#DejaVuSans-65" x="606.78125"/>
      <use xlink:href="#DejaVuSans-20" x="668.304688"/>
      <use xlink:href="#DejaVuSans-52" x="700.091797"/>
      <use xlink:href="#DejaVuSans-61" x="767.324219"/>
      <use xlink:href="#DejaVuSans-74" x="828.603516"/>
      <use xlink:href="#DejaVuSans-65" x="867.8125"/>
     </g>
    </g>
   </g>
   <g id="matplotlib.axis_2">
    <g id="ytick_1">
     <g id="line2d_7">
      <defs>
       <path id="mde6302a3e4" d="M 0 0 
L -3.5 0 
" style="stroke: #000000; stroke-width: 0.8"/>
      </defs>
      <g>
       <use xlink:href="#mde6302a3e4" x="57.6" y="307.584" style="stroke: #000000; stroke-width: 0.8"/>
      </g>
     </g>
     <g id="text_8">
      <!-- 0.0 -->
      <g transform="translate(34.696875 311.383219) scale(0.1 -0.1)">
       <use xlink:href="#DejaVuSans-30"/>
       <use xlink:href="#DejaVuSans-2e" x="63.623047"/>
       <use xlink:href="#DejaVuSans-30" x="95.410156"/>
      </g>
     </g>
    </g>
    <g id="ytick_2">
     <g id="line2d_8">
      <g>
       <use xlink:href="#mde6302a3e4" x="57.6" y="256.896" style="stroke: #000000; stroke-width: 0.8"/>
      </g>
     </g>
     <g id="text_9">
      <!-- 0.2 -->
      <g transform="translate(34.696875 260.695219) scale(0.1 -0.1)">
       <use xlink:href="#DejaVuSans-30"/>
       <use xlink:href="#DejaVuSans-2e" x="63.623047"/>
       <use xlink:href="#DejaVuSans-32" x="95.410156"/>
      </g>
     </g>
    </g>
    <g id="ytick_3">
     <g id="line2d_9">
      <g>
       <use xlink:href="#mde6302a3e4" x="57.6" y="206.208" style="stroke: #000000; stroke-width: 0.8"/>
      </g>
     </g>
     <g id="text_10">
      <!-- 0.4 -->
      <g transform="translate(34.696875 210.007219) scale(0.1 -0.1)">
       <use xlink:href="#DejaVuSans-30"/>
       <use xlink:href="#DejaVuSans-2e" x="63.623047"/>
       <use xlink:href="#DejaVuSans-34" x="95.410156"/>
      </g>
     </g>
    </g>
    <g id="ytick_4">
     <g id="line2d_10">
      <g>
       <use xlink:href="#mde6302a3e4" x="57.6" y="155.52" style="stroke: #000000; stroke-width: 0.8"/>
      </g>
     </g>
     <g id="text_11">
      <!-- 0.6 -->
      <g transform="translate(34.696875 159.319219) scale(0.1 -0.1)">
       <use xlink:href="#DejaVuSans-30"/>
       <use xlink:href="#DejaVuSans-2e" x="63.623047"/>
       <use xlink:href="#DejaVuSans-36" x="95.410156"/>
      </g>
     </g>
    </g>
    <g id="ytick_5">
     <g id="line2d_11">
      <g>
       <use xlink:href="#mde6302a3e4" x="57.6" y="104.832" style="stroke: #000000; stroke-width: 0.8"/>
      </g>
     </g>
     <g id="text_12">
      <!-- 0.8 -->
      <g transform="translate(34.696875 108.631219) scale(0.1 -0.1)">
       <use xlink:href="#DejaVuSans-30"/>
       <use xlink:href="#DejaVuSans-2e" x="63.623047"/>
       <use xlink:href="#DejaVuSans-38" x="95.410156"/>
      </g>
     </g>
    </g>
    <g id="ytick_6">
     <g id="line2d_12">
      <g>
       <use xlink:href="#mde6302a3e4" x="57.6" y="54.144" style="stroke: #000000; stroke-width: 0.8"/>
      </g>
     </g>
     <g id="text_13">
      <!-- 1.0 -->
      <g transform="translate(34.696875 57.943219) scale(0.1 -0.1)">
       <use xlink:href="#DejaVuSans-31"/>
       <use xlink:href="#DejaVuSans-2e" x="63.623047"/>
       <use xlink:href="#DejaVuSans-30" x="95.410156"/>
      </g>
     </g>
    </g>
    <g id="text_14">
     <!-- True Positive Rate -->
     <g transform="translate(28.617187 219.057687) rotate(-90) scale(0.1 -0.1)">
      <defs>
       <path id="DejaVuSans-54" d="M -19 4666 
L 3928 4666 
L 3928 4134 
L 2272 4134 
L 2272 0 
L 1638 0 
L 1638 4134 
L -19 4134 
L -19 4666 
z
" transform="scale(0.015625)"/>
       <path id="DejaVuSans-72" d="M 2631 2963 
Q 2534 3019 2420 3045 
Q 2306 3072 2169 3072 
Q 1681 3072 1420 2755 
Q 1159 2438 1159 1844 
L 1159 0 
L 581 0 
L 581 3500 
L 1159 3500 
L 1159 2956 
Q 1341 3275 1631 3429 
Q 1922 3584 2338 3584 
Q 2397 3584 2469 3576 
Q 2541 3569 2628 3553 
L 2631 2963 
z
" transform="scale(0.015625)"/>
       <path id="DejaVuSans-75" d="M 544 1381 
L 544 3500 
L 1119 3500 
L 1119 1403 
Q 1119 906 1312 657 
Q 1506 409 1894 409 
Q 2359 409 2629 706 
Q 2900 1003 2900 1516 
L 2900 3500 
L 3475 3500 
L 3475 0 
L 2900 0 
L 2900 538 
Q 2691 219 2414 64 
Q 2138 -91 1772 -91 
Q 1169 -91 856 284 
Q 544 659 544 1381 
z
M 1991 3584 
L 1991 3584 
z
" transform="scale(0.015625)"/>
      </defs>
      <use xlink:href="#DejaVuSans-54"/>
      <use xlink:href="#DejaVuSans-72" x="46.333984"/>
      <use xlink:href="#DejaVuSans-75" x="87.447266"/>
      <use xlink:href="#DejaVuSans-65" x="150.826172"/>
      <use xlink:href="#DejaVuSans-20" x="212.349609"/>
      <use xlink:href="#DejaVuSans-50" x="244.136719"/>
      <use xlink:href="#DejaVuSans-6f" x="300.814453"/>
      <use xlink:href="#DejaVuSans-73" x="361.996094"/>
      <use xlink:href="#DejaVuSans-69" x="414.095703"/>
      <use xlink:href="#DejaVuSans-74" x="441.878906"/>
      <use xlink:href="#DejaVuSans-69" x="481.087891"/>
      <use xlink:href="#DejaVuSans-76" x="508.871094"/>
      <use xlink:href="#DejaVuSans-65" x="568.050781"/>
      <use xlink:href="#DejaVuSans-20" x="629.574219"/>
      <use xlink:href="#DejaVuSans-52" x="661.361328"/>
      <use xlink:href="#DejaVuSans-61" x="728.59375"/>
      <use xlink:href="#DejaVuSans-74" x="789.873047"/>
      <use xlink:href="#DejaVuSans-65" x="829.082031"/>
     </g>
    </g>
   </g>
   <g id="line2d_13">
    <path d="M 57.6 307.584 
L 58.857096 305.302225 
L 59.276128 304.976257 
L 59.485644 304.568797 
L 59.590402 304.568797 
L 59.590402 304.405814 
L 59.69516 304.405814 
L 60.323708 303.672386 
L 60.74274 303.590894 
L 60.847498 302.938958 
L 61.161772 302.775974 
L 61.26653 302.775974 
L 61.371288 302.287023 
L 61.685562 301.961055 
L 62.104594 301.716579 
L 62.209352 301.146135 
L 62.523626 301.064643 
L 62.628384 300.983151 
L 62.8379 300.657183 
L 63.047416 300.657183 
L 63.256932 300.494199 
L 63.256932 300.249723 
L 63.675964 299.516296 
L 63.675964 298.619884 
L 63.990238 298.130932 
L 64.199754 298.130932 
L 64.514028 297.804965 
L 64.618786 297.641981 
L 64.93306 297.560489 
L 65.142576 297.560489 
L 65.247334 297.071537 
L 65.352092 296.419601 
L 65.561608 296.338109 
L 65.561608 296.093633 
L 65.771123 296.093633 
L 65.875881 295.849158 
L 65.980639 295.604682 
L 65.980639 295.278714 
L 66.085397 295.278714 
L 66.294913 295.278714 
L 66.504429 294.789762 
L 66.609187 294.789762 
L 66.609187 294.626778 
L 66.713945 294.626778 
L 66.923461 294.382302 
L 67.447251 294.30081 
L 67.447251 294.219318 
L 67.971041 293.811859 
L 67.971041 293.648875 
L 68.180557 293.648875 
L 68.180557 293.404399 
L 68.809105 293.322907 
L 69.123379 292.996939 
L 69.332895 292.507987 
L 69.437653 292.100527 
L 70.066201 292.019035 
L 70.170959 291.448592 
L 70.275717 291.3671 
L 70.694749 291.285608 
L 71.113781 290.95964 
L 71.218539 290.55218 
L 71.637571 290.470688 
L 71.637571 290.226212 
L 72.056603 290.14472 
L 72.161361 289.818752 
L 72.370877 289.574277 
L 72.475635 289.574277 
L 72.475635 289.492785 
L 72.685151 289.003833 
L 73.104183 288.922341 
L 73.104183 288.677865 
L 73.208941 288.677865 
L 73.627973 288.596373 
L 73.837489 288.270405 
L 74.151763 288.270405 
L 74.151763 288.107421 
L 74.361279 288.107421 
L 74.466037 287.618469 
L 75.094585 287.455486 
L 75.094585 287.129518 
L 75.199343 287.129518 
L 75.408859 286.966534 
L 75.618375 286.80355 
L 75.723133 286.559074 
L 75.827891 286.559074 
L 75.827891 286.070122 
L 76.456439 285.499678 
L 76.561197 284.684759 
L 76.980229 284.684759 
L 76.980229 284.358791 
L 77.189745 284.358791 
L 77.294503 283.462379 
L 77.399261 283.462379 
L 77.399261 283.380887 
L 77.504019 283.299395 
L 77.608777 282.973428 
L 77.818293 282.891936 
L 77.923051 281.914032 
L 78.132567 281.914032 
L 78.132567 281.42508 
L 78.342083 281.42508 
L 78.342083 281.343588 
L 78.446841 280.936129 
L 78.656357 280.854637 
L 78.761115 280.447177 
L 78.970631 280.447177 
L 79.075389 280.039717 
L 79.284905 279.958225 
L 79.389663 279.306289 
L 79.599179 279.224797 
L 80.227727 279.061814 
L 80.332485 279.061814 
L 80.332485 278.817338 
L 80.542001 278.735846 
L 80.646759 277.757942 
L 80.751517 277.757942 
L 80.961033 277.513466 
L 81.275307 277.431974 
L 81.275307 277.187498 
L 81.380065 277.187498 
L 81.589581 276.780039 
L 81.589581 276.454071 
L 81.903855 276.454071 
L 81.903855 276.209595 
L 82.008612 276.209595 
L 82.63716 276.046611 
L 82.741918 276.046611 
L 82.741918 275.883627 
L 83.056192 275.883627 
L 83.056192 275.802135 
L 83.475224 275.720643 
L 83.475224 275.150199 
L 83.68474 275.150199 
L 83.68474 275.068707 
L 83.789498 274.987215 
L 83.789498 274.824232 
L 83.894256 274.824232 
L 83.999014 274.74274 
L 83.999014 274.579756 
L 84.627562 274.33528 
L 84.627562 273.92782 
L 84.837078 273.846328 
L 84.941836 273.194392 
L 85.046594 273.194392 
L 85.151352 272.705441 
L 85.25611 272.705441 
L 85.360868 272.216489 
L 85.570384 271.972013 
L 85.675142 271.972013 
L 85.675142 271.727537 
L 85.7799 271.727537 
L 85.884658 271.646045 
L 85.884658 271.238585 
L 86.094174 271.238585 
L 86.094174 270.749633 
L 86.932238 270.342174 
L 86.932238 270.097698 
L 87.036996 270.097698 
L 87.141754 269.690238 
L 87.456028 269.690238 
L 87.456028 269.608746 
L 87.770302 269.445762 
L 87.979818 269.36427 
L 87.979818 269.119794 
L 88.294092 269.119794 
L 88.39885 268.875318 
L 88.608366 268.793826 
L 88.713124 268.386367 
L 88.817882 268.386367 
L 88.92264 268.060399 
L 89.132156 267.978907 
L 89.236914 267.571447 
L 89.44643 267.163987 
L 89.655946 267.163987 
L 89.97022 266.675035 
L 90.49401 266.593543 
L 90.598768 266.512051 
L 90.808284 266.512051 
L 90.808284 266.267576 
L 91.436832 266.186084 
L 91.436832 266.104592 
L 92.06538 266.0231 
L 92.274896 265.778624 
L 92.693928 265.61564 
L 92.798686 264.882212 
L 93.11296 264.80072 
L 93.322476 264.719228 
L 93.322476 264.311768 
L 93.63675 264.311768 
L 93.741508 263.822817 
L 94.16054 263.822817 
L 94.16054 263.741325 
L 94.265298 263.578341 
L 94.370056 263.089389 
L 94.893846 263.007897 
L 94.893846 262.600437 
L 95.103362 262.600437 
L 95.20812 262.111486 
L 95.312878 262.111486 
L 95.417636 261.86701 
L 95.522394 261.704026 
L 95.941426 260.970598 
L 95.941426 260.481646 
L 96.046184 260.481646 
L 96.360458 259.992695 
L 96.674732 259.992695 
L 96.674732 259.911203 
L 97.408038 259.340759 
L 97.931828 259.259267 
L 98.036586 258.525839 
L 98.350859 258.444347 
L 98.455617 258.281363 
L 98.665133 258.281363 
L 98.665133 258.118379 
L 98.769891 258.118379 
L 98.979407 257.873904 
L 98.979407 257.547936 
L 99.503197 257.466444 
L 99.922229 257.140476 
L 100.550777 257.058984 
L 100.655535 256.977492 
L 100.655535 256.733016 
L 100.760293 256.733016 
L 101.074567 256.570032 
L 101.493599 256.570032 
L 101.493599 256.325556 
L 101.598357 256.325556 
L 101.912631 255.999588 
L 102.541179 255.918096 
L 102.645937 255.592129 
L 102.750695 255.510637 
L 102.855453 255.103177 
L 103.169727 255.021685 
L 103.274485 254.777209 
L 103.484001 254.695717 
L 103.798275 254.614225 
L 103.798275 254.369749 
L 104.007791 254.369749 
L 104.112549 253.962289 
L 104.636339 253.962289 
L 104.741097 253.717814 
L 104.950613 253.636322 
L 105.369645 253.391846 
L 105.474403 252.495434 
L 105.683919 252.413942 
L 105.788677 252.250958 
L 106.312467 252.169466 
L 106.312467 251.92499 
L 106.521983 251.92499 
L 106.521983 251.354547 
L 106.626741 251.354547 
L 106.731499 251.273055 
L 107.150531 251.273055 
L 107.150531 251.110071 
L 107.360047 251.110071 
L 107.360047 250.784103 
L 107.674321 250.784103 
L 107.674321 250.621119 
L 107.988595 250.539627 
L 108.093353 250.213659 
L 108.407627 249.887691 
L 108.617143 249.887691 
L 108.617143 249.806199 
L 108.826659 249.724707 
L 109.245691 249.643215 
L 109.350449 249.39874 
L 109.455207 249.39874 
L 109.455207 249.235756 
L 109.664723 249.235756 
L 109.769481 248.99128 
L 110.398029 248.746804 
L 110.712303 248.58382 
L 110.921819 248.502328 
L 111.236093 248.257852 
L 111.340851 247.850392 
L 111.445609 247.850392 
L 111.445609 247.7689 
L 111.655125 247.605916 
L 111.759883 247.279949 
L 112.074157 247.279949 
L 112.178915 246.790997 
L 112.493189 246.220553 
L 112.702705 246.220553 
L 112.702705 245.976077 
L 112.807463 245.976077 
L 113.226495 245.650109 
L 113.436011 245.650109 
L 113.436011 245.568617 
L 113.645527 245.324141 
L 113.750285 245.324141 
L 113.855043 244.998174 
L 114.378833 244.753698 
L 114.902622 244.346238 
L 115.321654 244.264746 
L 115.321654 243.857286 
L 115.53117 243.857286 
L 115.53117 243.775794 
L 115.53117 243.368334 
L 115.635928 243.368334 
L 115.740686 243.286842 
L 115.845444 242.960875 
L 116.57875 242.879383 
L 116.57875 242.634907 
L 116.893024 242.634907 
L 116.893024 242.553415 
L 116.997782 242.471923 
L 116.997782 242.308939 
L 117.521572 242.145955 
L 117.940604 242.064463 
L 117.940604 241.901479 
L 118.045362 241.901479 
L 118.15012 241.657003 
L 118.359636 241.575511 
L 118.883426 241.575511 
L 118.988184 241.086559 
L 119.407216 241.005068 
L 119.407216 240.842084 
L 120.035764 240.760592 
L 120.140522 240.434624 
L 120.559554 240.353132 
L 120.664312 240.27164 
L 120.664312 240.027164 
L 121.083344 240.027164 
L 121.083344 239.945672 
L 121.188102 239.86418 
L 121.29286 239.538212 
L 121.502376 239.45672 
L 121.607134 238.804785 
L 121.711892 238.804785 
L 121.81665 238.152849 
L 122.130924 238.071357 
L 122.654714 238.071357 
L 122.654714 237.826881 
L 122.968988 237.745389 
L 122.968988 237.419421 
L 123.073746 237.419421 
L 123.178504 237.337929 
L 123.178504 237.093453 
L 123.38802 237.093453 
L 123.38802 236.930469 
L 123.492778 236.930469 
L 124.121326 236.848977 
L 124.226084 236.441518 
L 124.330842 236.441518 
L 124.4356 236.034058 
L 124.854632 235.952566 
L 124.95939 235.871074 
L 125.064148 235.545106 
L 126.111728 235.463614 
L 126.216486 235.219138 
L 126.426002 235.219138 
L 126.740276 234.974662 
L 126.845034 234.567203 
L 126.949792 234.567203 
L 126.949792 234.404219 
L 127.264066 234.404219 
L 127.264066 234.322727 
L 127.57834 233.996759 
L 127.787856 233.996759 
L 127.892614 233.752283 
L 127.997372 233.752283 
L 127.997372 233.589299 
L 128.416404 233.589299 
L 128.521162 233.263331 
L 128.940194 233.018855 
L 129.254468 233.018855 
L 129.359226 232.611395 
L 129.6735 232.611395 
L 129.6735 232.448412 
L 129.883016 232.448412 
L 129.883016 232.285428 
L 130.19729 232.285428 
L 130.19729 232.040952 
L 130.406806 231.877968 
L 130.616322 231.877968 
L 130.930595 231.389016 
L 131.559143 231.063048 
L 131.663901 230.492605 
L 131.768659 230.492605 
L 131.873417 230.166637 
L 131.978175 230.166637 
L 132.082933 229.922161 
L 132.397207 229.840669 
L 132.501965 229.270225 
L 132.711481 229.188733 
L 133.025755 229.107241 
L 133.025755 228.944257 
L 133.235271 228.944257 
L 133.340029 228.129338 
L 133.444787 228.129338 
L 133.444787 228.047846 
L 134.073335 227.640386 
L 134.282851 227.640386 
L 134.597125 226.825466 
L 134.911399 226.743974 
L 135.016157 226.499498 
L 135.539947 226.418006 
L 135.539947 226.336514 
L 135.749463 226.336514 
L 136.063737 226.092039 
L 136.797043 226.010547 
L 136.797043 225.929055 
L 137.216075 225.929055 
L 137.216075 225.847563 
L 137.530349 225.684579 
L 137.635107 225.358611 
L 137.844623 225.277119 
L 137.949381 225.032643 
L 138.054139 225.032643 
L 138.054139 224.788167 
L 138.368413 224.788167 
L 138.473171 224.543691 
L 138.473171 224.380707 
L 138.577929 224.380707 
L 138.787445 224.217723 
L 139.311235 224.05474 
L 139.311235 223.810264 
L 139.415993 223.810264 
L 139.730267 223.565788 
L 139.730267 222.83236 
L 139.835025 222.83236 
L 139.939783 222.750868 
L 140.044541 222.4249 
L 140.149299 222.4249 
L 140.254057 222.180424 
L 140.463573 222.098932 
L 140.568331 221.691473 
L 140.777847 221.446997 
L 140.987363 221.446997 
L 140.987363 221.365505 
L 141.511153 221.121029 
L 141.615911 220.632077 
L 141.825427 220.550585 
L 141.825427 220.469093 
L 142.349217 220.469093 
L 142.349217 220.306109 
L 142.663491 220.224617 
L 142.663491 220.061633 
L 142.768249 220.061633 
L 142.873007 219.89865 
L 143.187281 219.735666 
L 143.292039 219.08373 
L 143.606313 219.002238 
L 143.606313 218.839254 
L 143.711071 218.839254 
L 144.339619 218.757762 
L 144.653893 218.350302 
L 145.282441 218.26881 
L 145.282441 218.105826 
L 145.806231 218.105826 
L 146.539537 217.616875 
L 146.958568 217.616875 
L 146.958568 217.535383 
L 147.063326 217.046431 
L 147.272842 216.964939 
L 147.3776 216.801955 
L 148.215664 216.720463 
L 148.320422 215.905543 
L 148.634696 215.824051 
L 148.634696 215.661068 
L 149.053728 215.579576 
L 149.053728 215.498084 
L 149.158486 215.498084 
L 149.263244 215.416592 
L 149.368002 215.172116 
L 150.310824 215.090624 
L 150.310824 215.009132 
L 150.625098 214.92764 
L 150.729856 214.846148 
L 151.04413 214.764656 
L 151.04413 214.357196 
L 151.463162 214.031228 
L 151.56792 213.70526 
L 151.882194 213.623768 
L 151.986952 213.297801 
L 152.09171 213.216309 
L 152.510742 213.134817 
L 152.510742 212.971833 
L 152.6155 212.971833 
L 152.929774 212.890341 
L 152.929774 212.808849 
L 153.034532 212.808849 
L 153.244048 212.808849 
L 153.244048 212.238405 
L 153.767838 212.075421 
L 153.872596 211.586469 
L 154.082112 211.504977 
L 154.082112 211.17901 
L 154.605902 211.17901 
L 154.605902 211.016026 
L 154.920176 210.934534 
L 155.129692 210.77155 
L 155.23445 210.36409 
L 155.443966 210.282598 
L 155.443966 210.119614 
L 155.653482 210.119614 
L 155.653482 209.793646 
L 156.177272 209.712154 
L 156.177272 209.630662 
L 156.80582 209.54917 
L 156.910578 209.060219 
L 157.120094 209.060219 
L 157.224852 208.897235 
L 157.434368 208.897235 
L 157.539126 207.919331 
L 157.748642 207.919331 
L 157.748642 207.348887 
L 158.272432 207.267395 
L 158.37719 207.02292 
L 158.586706 206.778444 
L 158.586706 206.533968 
L 158.691464 206.533968 
L 158.796222 206.452476 
L 158.90098 206.208 
L 159.110496 206.045016 
L 159.110496 205.80054 
L 159.94856 205.474572 
L 160.053318 205.39308 
L 160.47235 205.39308 
L 160.47235 205.230096 
L 160.891382 205.148605 
L 160.99614 204.985621 
L 161.310414 204.985621 
L 161.310414 204.822637 
L 161.415172 204.822637 
L 161.938962 204.659653 
L 161.938962 204.496669 
L 162.253236 204.415177 
L 162.357994 204.333685 
L 162.777026 204.252193 
L 162.777026 204.089209 
L 163.0913 204.007717 
L 163.0913 203.926225 
L 163.196057 203.926225 
L 163.510331 203.763241 
L 163.615089 203.763241 
L 163.615089 203.355781 
L 164.557911 203.355781 
L 164.662669 202.785338 
L 164.872185 202.703846 
L 164.976943 202.377878 
L 165.605491 202.296386 
L 165.605491 202.05191 
L 165.710249 202.05191 
L 165.919765 201.888926 
L 166.757829 201.318482 
L 167.281619 201.318482 
L 167.386377 201.074006 
L 167.491135 201.074006 
L 167.595893 200.829531 
L 167.910167 200.748039 
L 167.910167 200.422071 
L 168.119683 200.422071 
L 168.224441 200.014611 
L 168.329199 200.014611 
L 168.538715 199.851627 
L 168.748231 199.851627 
L 168.748231 199.770135 
L 168.852989 199.118199 
L 169.272021 199.118199 
L 169.272021 198.71074 
L 169.586295 198.71074 
L 169.586295 198.629248 
L 169.691053 198.384772 
L 170.110085 198.058804 
L 170.214843 197.732836 
L 170.319601 197.732836 
L 170.424359 197.48836 
L 170.633875 197.48836 
L 170.633875 197.406868 
L 170.948149 197.243884 
L 171.052907 196.917916 
L 171.471939 196.836424 
L 171.471939 196.754932 
L 171.576697 196.754932 
L 171.890971 196.591949 
L 172.729035 196.510457 
L 172.833793 196.428965 
L 172.833793 196.265981 
L 173.043309 196.265981 
L 173.252825 195.940013 
L 173.671857 195.858521 
L 173.776615 195.777029 
L 173.881373 195.532553 
L 173.986131 195.288077 
L 173.986131 194.962109 
L 174.300405 194.880617 
L 174.300405 194.636141 
L 174.824195 194.55465 
L 174.824195 194.473158 
L 175.033711 194.473158 
L 175.033711 194.310174 
L 175.138469 194.310174 
L 175.871775 194.228682 
L 175.976533 193.902714 
L 176.186049 193.821222 
L 176.290807 193.413762 
L 176.814597 193.33227 
L 177.233629 192.761826 
L 177.338387 192.272875 
L 177.652661 192.109891 
L 177.757419 192.028399 
L 178.595483 191.946907 
L 178.595483 191.865415 
L 178.804999 191.865415 
L 178.804999 191.702431 
L 179.224031 191.294971 
L 179.328789 191.050495 
L 179.433546 190.969003 
L 179.643062 190.969003 
L 179.643062 190.806019 
L 179.852578 190.806019 
L 179.957336 190.317068 
L 180.166852 190.235576 
L 180.166852 189.909608 
L 181.004916 189.828116 
L 181.31919 189.502148 
L 181.423948 189.257672 
L 181.633464 189.257672 
L 181.633464 189.094688 
L 181.84298 189.094688 
L 181.84298 188.931704 
L 181.947738 188.931704 
L 182.157254 188.76872 
L 182.157254 188.524244 
L 182.995318 188.524244 
L 182.995318 188.36126 
L 183.100076 188.36126 
L 183.41435 188.279768 
L 183.519108 187.790817 
L 183.728624 187.627833 
L 184.357172 187.546341 
L 184.671446 187.464849 
L 184.98572 186.894405 
L 184.98572 186.405453 
L 185.299994 186.405453 
L 185.299994 186.160977 
L 185.404752 186.160977 
L 185.50951 186.079486 
L 185.719026 185.590534 
L 186.0333 185.590534 
L 186.0333 185.509042 
L 186.661848 185.264566 
L 186.871364 185.101582 
L 187.395154 185.02009 
L 187.499912 184.857106 
L 187.814186 184.775614 
L 187.918944 184.286662 
L 188.12846 184.20517 
L 188.12846 184.042186 
L 188.337976 183.879203 
L 188.757008 183.797711 
L 188.861766 183.471743 
L 188.966524 183.390251 
L 189.385556 183.390251 
L 189.385556 183.308759 
L 189.490314 182.982791 
L 189.804588 182.901299 
L 189.804588 182.819807 
L 190.014104 182.819807 
L 190.014104 182.575331 
L 190.642652 182.493839 
L 191.061684 182.086379 
L 191.166442 181.597428 
L 191.480716 181.515936 
L 191.690232 181.352952 
L 192.423538 181.27146 
L 192.423538 180.945492 
L 192.633054 180.945492 
L 192.633054 180.864 
L 192.633054 180.619524 
L 193.052086 180.538032 
L 193.156844 180.212064 
L 193.261602 180.212064 
L 193.261602 179.967588 
L 193.994908 179.886096 
L 194.099666 179.560129 
L 194.204424 179.560129 
L 194.309182 179.315653 
L 194.41394 179.315653 
L 194.518698 178.908193 
L 195.775793 178.826701 
L 195.880551 178.663717 
L 196.194825 178.663717 
L 196.194825 178.582225 
L 196.299583 178.500733 
L 196.509099 178.500733 
L 196.823373 178.256257 
L 196.928131 177.930289 
L 197.137647 177.930289 
L 197.242405 177.685814 
L 197.556679 177.604322 
L 197.661437 177.359846 
L 198.185227 177.278354 
L 198.289985 177.033878 
L 198.499501 176.789402 
L 198.604259 176.626418 
L 199.337565 176.626418 
L 199.337565 176.381942 
L 199.756597 176.30045 
L 199.756597 176.137466 
L 200.070871 176.055974 
L 200.070871 175.974482 
L 200.385145 175.89299 
L 200.385145 175.811498 
L 201.432725 175.730006 
L 201.537483 175.567023 
L 201.746999 175.567023 
L 201.851757 175.159563 
L 201.956515 175.078071 
L 202.061273 174.752103 
L 202.270789 174.752103 
L 202.270789 174.181659 
L 203.318369 174.100167 
L 203.423127 173.529723 
L 203.527885 173.529723 
L 203.527885 173.448232 
L 203.632643 173.040772 
L 204.365949 172.95928 
L 204.365949 172.796296 
L 204.575465 172.796296 
L 204.994497 172.225852 
L 205.099255 172.225852 
L 205.099255 171.899884 
L 205.727803 171.818392 
L 205.727803 171.573916 
L 206.461109 171.492424 
L 206.565867 171.329441 
L 206.880141 171.003473 
L 206.984899 170.514521 
L 207.718205 170.514521 
L 207.718205 170.107061 
L 208.032479 170.025569 
L 208.032479 169.699601 
L 208.137237 169.699601 
L 208.241995 169.618109 
L 208.241995 169.455125 
L 208.556269 169.455125 
L 208.661027 169.292141 
L 208.975301 169.21065 
L 209.080059 169.129158 
L 209.184817 168.477222 
L 209.289575 168.477222 
L 209.289575 168.232746 
L 209.394333 168.232746 
L 209.499091 168.151254 
L 209.499091 167.662302 
L 210.127639 167.58081 
L 210.127639 167.417826 
L 210.860945 167.336334 
L 210.860945 167.254842 
L 211.175219 167.254842 
L 211.175219 167.091859 
L 211.489493 167.091859 
L 211.594251 166.765891 
L 211.908524 166.439923 
L 211.908524 166.358431 
L 212.537072 166.276939 
L 212.537072 166.195447 
L 212.746588 166.195447 
L 212.746588 166.032463 
L 212.851346 166.032463 
L 213.16562 165.950971 
L 213.16562 165.380527 
L 213.584652 165.299035 
L 213.68941 165.217543 
L 213.68941 164.973068 
L 213.794168 164.973068 
L 214.632232 164.891576 
L 214.632232 164.810084 
L 215.26078 164.565608 
L 215.679812 164.484116 
L 215.679812 164.23964 
L 216.30836 164.158148 
L 216.413118 163.995164 
L 216.727392 163.995164 
L 216.83215 163.750688 
L 216.936908 163.750688 
L 216.936908 163.180244 
L 217.460698 163.098752 
L 217.460698 162.609801 
L 217.774972 162.528309 
L 217.87973 162.446817 
L 218.508278 162.365325 
L 218.717794 162.283833 
L 219.032068 162.202341 
L 219.136826 161.631897 
L 219.241584 161.631897 
L 219.241584 161.550405 
L 219.555858 161.387421 
L 219.870132 161.305929 
L 219.97489 160.653994 
L 220.079648 160.49101 
L 220.289164 160.49101 
L 220.393922 160.08355 
L 221.127228 159.594598 
L 221.231986 159.105646 
L 221.651018 159.105646 
L 221.651018 159.024154 
L 221.965292 158.86117 
L 222.174808 158.779678 
L 222.489082 158.779678 
L 222.489082 158.698186 
L 223.222388 158.535203 
L 223.222388 158.290727 
L 223.536662 158.209235 
L 223.64142 157.475807 
L 223.746178 157.475807 
L 223.746178 157.231331 
L 223.955694 157.231331 
L 223.955694 157.068347 
L 224.689 156.986855 
L 224.689 156.905363 
L 224.793758 156.905363 
L 225.108032 156.497904 
L 225.21279 156.497904 
L 225.21279 156.416412 
L 225.422306 156.33492 
L 225.527064 155.764476 
L 225.631822 155.764476 
L 225.631822 155.52 
L 225.73658 155.52 
L 225.841338 155.357016 
L 226.050854 155.11254 
L 226.050854 154.623588 
L 226.26037 154.623588 
L 226.26037 154.460605 
L 226.365128 154.460605 
L 226.469886 154.379113 
L 226.888918 154.379113 
L 226.888918 154.297621 
L 227.098434 154.134637 
L 227.517466 154.134637 
L 227.622224 153.645685 
L 228.250771 153.564193 
L 228.565045 153.401209 
L 229.088835 153.401209 
L 229.088835 153.238225 
L 229.298351 153.238225 
L 229.403109 152.586289 
L 229.507867 152.586289 
L 229.507867 152.504797 
L 229.926899 152.260322 
L 230.660205 152.260322 
L 230.660205 152.17883 
L 230.764963 152.097338 
L 230.974479 152.097338 
L 230.974479 151.852862 
L 231.183995 151.852862 
L 231.183995 151.608386 
L 231.498269 151.526894 
L 231.498269 151.445402 
L 232.022059 151.36391 
L 232.126817 151.200926 
L 232.545849 151.119434 
L 232.545849 151.037942 
L 232.755365 151.037942 
L 232.860123 150.304514 
L 232.964881 150.304514 
L 232.964881 150.223023 
L 233.279155 149.978547 
L 233.488671 149.978547 
L 233.488671 149.897055 
L 233.802945 149.815563 
L 233.907703 149.489595 
L 234.431493 149.408103 
L 234.431493 149.245119 
L 234.536251 149.245119 
L 235.164799 149.245119 
L 235.269557 148.919151 
L 235.479073 148.837659 
L 235.583831 148.593183 
L 235.898105 148.593183 
L 236.002863 147.941248 
L 236.107621 147.941248 
L 236.107621 147.778264 
L 236.212379 147.778264 
L 236.421895 147.696772 
L 236.421895 147.533788 
L 236.736169 147.533788 
L 236.736169 147.044836 
L 237.050443 147.044836 
L 237.050443 146.963344 
L 237.050443 146.80036 
L 237.259959 146.637376 
L 237.469475 146.637376 
L 237.469475 146.555884 
L 237.678991 146.474392 
L 238.517055 146.3929 
L 238.517055 146.148424 
L 238.621813 146.148424 
L 238.726571 146.066932 
L 239.040845 145.985441 
L 239.145603 145.903949 
L 239.355119 145.903949 
L 239.459877 145.577981 
L 239.774151 145.333505 
L 239.878909 145.089029 
L 240.612215 145.007537 
L 241.031247 144.844553 
L 241.555037 144.763061 
L 241.555037 144.518585 
L 242.497859 144.437093 
L 242.497859 144.192617 
L 242.707375 144.192617 
L 242.707375 144.111125 
L 242.812133 143.540682 
L 242.916891 143.45919 
L 243.335923 143.377698 
L 243.440681 143.214714 
L 243.440681 142.970238 
L 244.278744 142.888746 
L 244.278744 142.807254 
L 244.802534 142.562778 
L 244.907292 142.399794 
L 245.326324 142.318302 
L 245.431082 142.23681 
L 245.431082 141.910842 
L 245.954872 141.747859 
L 246.164388 141.747859 
L 246.269146 141.340399 
L 246.58342 141.258907 
L 246.58342 141.177415 
L 246.897694 141.095923 
L 247.002452 141.014431 
L 247.002452 140.769955 
L 247.211968 140.769955 
L 247.316726 140.362495 
L 247.631 140.281003 
L 247.735758 140.118019 
L 248.364306 140.036527 
L 248.364306 139.873543 
L 248.573822 139.873543 
L 248.573822 139.710559 
L 248.67858 139.710559 
L 248.783338 139.629068 
L 248.783338 139.466084 
L 248.992854 139.466084 
L 249.097612 138.569672 
L 249.935676 138.48818 
L 249.935676 138.243704 
L 250.354708 137.999228 
L 250.77374 137.754752 
L 251.088014 137.510277 
L 251.926078 137.510277 
L 251.926078 137.428785 
L 252.449868 137.102817 
L 252.449868 137.021325 
L 252.973658 137.021325 
L 252.973658 136.858341 
L 253.078416 136.858341 
L 253.183174 136.776849 
L 253.287932 136.369389 
L 253.497448 136.287897 
L 253.602206 135.961929 
L 254.021238 135.880437 
L 254.335512 135.717453 
L 254.335512 135.635961 
L 254.545028 135.635961 
L 254.545028 135.472977 
L 254.754544 135.472977 
L 254.859302 135.228502 
L 255.278334 135.14701 
L 255.278334 134.902534 
L 255.383092 134.902534 
L 255.697366 134.576566 
L 255.697366 134.413582 
L 255.802124 134.413582 
L 256.221156 134.087614 
L 256.221156 133.92463 
L 256.954462 133.843138 
L 257.05922 133.598662 
L 257.687768 133.51717 
L 257.792526 133.354186 
L 258.316316 133.272695 
L 258.316316 132.946727 
L 258.944864 132.865235 
L 258.944864 132.783743 
L 259.049622 132.783743 
L 259.573412 132.702251 
L 259.573412 132.539267 
L 259.67817 132.539267 
L 260.411476 131.968823 
L 260.830507 131.887331 
L 260.830507 131.642855 
L 261.668571 131.561363 
L 261.668571 131.479871 
L 262.087603 131.235395 
L 262.192361 131.072412 
L 262.297119 131.072412 
L 262.297119 130.420476 
L 262.820909 130.338984 
L 262.925667 130.176 
L 263.763731 130.094508 
L 263.763731 129.850032 
L 264.601795 129.76854 
L 264.706553 129.442572 
L 264.811311 129.442572 
L 264.916069 129.116605 
L 265.754133 129.035113 
L 265.754133 128.872129 
L 265.858891 128.872129 
L 266.487439 128.709145 
L 267.115987 128.627653 
L 267.430261 128.464669 
L 267.639777 128.464669 
L 267.639777 128.301685 
L 267.744535 128.301685 
L 268.163567 127.975717 
L 268.163567 127.731241 
L 268.477841 127.731241 
L 268.477841 127.486765 
L 268.582599 127.486765 
L 268.896873 127.486765 
L 269.001631 127.242289 
L 269.420663 127.160797 
L 269.525421 126.671846 
L 270.153969 126.590354 
L 270.258727 126.42737 
L 270.782517 126.42737 
L 270.782517 126.101402 
L 271.306307 126.101402 
L 271.411065 125.449466 
L 271.830097 125.367974 
L 271.934855 124.960514 
L 272.563403 124.879023 
L 272.668161 124.634547 
L 273.191951 124.553055 
L 273.506225 124.390071 
L 273.610983 123.982611 
L 274.134773 123.901119 
L 274.344289 123.819627 
L 275.287111 123.738135 
L 275.391869 123.656643 
L 275.810901 123.656643 
L 275.810901 123.575151 
L 275.810901 123.330675 
L 276.439449 123.167691 
L 276.439449 122.841723 
L 276.85848 122.841723 
L 276.963238 122.434264 
L 277.172754 122.434264 
L 277.277512 122.189788 
L 277.591786 122.189788 
L 277.591786 122.026804 
L 277.90606 122.026804 
L 277.90606 121.945312 
L 278.010818 121.782328 
L 278.42985 121.700836 
L 278.42985 121.619344 
L 278.744124 121.537852 
L 278.744124 121.45636 
L 279.058398 121.45636 
L 279.058398 121.130392 
L 279.372672 121.0489 
L 279.372672 120.804424 
L 279.47743 120.804424 
L 280.105978 120.233981 
L 280.210736 119.908013 
L 280.315494 119.826521 
L 280.839284 119.745029 
L 281.363074 119.500553 
L 281.363074 119.337569 
L 281.677348 119.256077 
L 281.782106 118.930109 
L 282.09638 118.848617 
L 282.09638 118.767125 
L 282.305896 118.767125 
L 282.305896 118.685633 
L 282.410654 118.441158 
L 283.14396 118.359666 
L 283.14396 118.278174 
L 283.248718 118.278174 
L 283.562992 117.952206 
L 283.66775 117.70773 
L 283.772508 117.70773 
L 283.772508 117.544746 
L 284.086782 117.463254 
L 284.086782 117.30027 
L 284.505814 117.218778 
L 284.505814 117.137286 
L 284.924846 117.137286 
L 285.134362 116.89281 
L 285.76291 116.648334 
L 285.76291 116.48535 
L 285.972426 116.48535 
L 286.077184 116.322367 
L 286.705732 116.240875 
L 286.81049 115.914907 
L 287.124764 115.833415 
L 287.229522 115.670431 
L 287.33428 115.588939 
L 287.753312 115.507447 
L 287.753312 115.425955 
L 287.85807 115.425955 
L 288.172344 115.344463 
L 288.38186 115.344463 
L 288.38186 115.181479 
L 288.90565 115.099987 
L 289.010408 114.855511 
L 289.219924 114.855511 
L 289.324682 114.529543 
L 289.848472 114.448051 
L 289.95323 114.203576 
L 290.791294 114.122084 
L 291.105568 114.040592 
L 291.105568 113.877608 
L 291.629358 113.796116 
L 291.629358 113.714624 
L 292.153148 113.633132 
L 292.257906 113.388656 
L 292.362664 113.388656 
L 292.467422 113.062688 
L 292.991211 112.981196 
L 292.991211 112.73672 
L 293.829275 112.655228 
L 294.457823 112.410752 
L 294.667339 112.410752 
L 294.667339 112.247768 
L 295.505403 112.166277 
L 295.610161 112.084785 
L 295.819677 112.084785 
L 295.819677 111.921801 
L 295.924435 111.921801 
L 296.657741 111.840309 
L 296.657741 111.758817 
L 296.972015 111.595833 
L 297.076773 111.432849 
L 298.019595 111.351357 
L 298.124353 110.943897 
L 298.229111 110.943897 
L 298.229111 110.780913 
L 298.857659 110.780913 
L 298.857659 110.454945 
L 299.590965 110.373453 
L 300.114755 110.128977 
L 300.219513 109.965994 
L 300.638545 109.884502 
L 300.743303 109.721518 
L 301.162335 109.640026 
L 301.267093 109.151074 
L 301.686125 109.151074 
L 301.790883 108.743614 
L 302.000399 108.743614 
L 302.000399 108.58063 
L 302.209915 108.417646 
L 302.314673 108.091678 
L 302.419431 108.091678 
L 302.628947 107.847203 
L 302.838463 107.847203 
L 302.943221 107.439743 
L 303.047979 107.439743 
L 303.047979 107.195267 
L 303.467011 106.950791 
L 303.571769 106.624823 
L 303.886043 106.543331 
L 304.724107 106.217363 
L 305.038381 106.217363 
L 305.038381 105.972887 
L 305.352655 105.891395 
L 305.352655 105.64692 
L 305.562171 105.64692 
L 305.562171 105.483936 
L 305.666929 105.483936 
L 305.771687 105.402444 
L 305.771687 105.23946 
L 305.876445 105.23946 
L 306.504993 105.157968 
L 306.609751 104.832 
L 307.028783 104.587524 
L 307.028783 104.42454 
L 307.238299 104.42454 
L 307.238299 104.343048 
L 307.238299 104.098572 
L 307.447815 103.935588 
L 307.447815 103.691113 
L 308.076363 103.609621 
L 308.181121 103.202161 
L 308.600153 103.202161 
L 308.704911 102.876193 
L 308.914427 102.794701 
L 308.914427 102.631717 
L 309.019185 102.631717 
L 309.647732 102.550225 
L 309.647732 102.468733 
L 310.171522 102.387241 
L 310.171522 102.224257 
L 310.80007 102.142765 
L 310.80007 101.898289 
L 311.32386 101.816797 
L 311.32386 101.735305 
L 311.638134 101.735305 
L 311.638134 101.49083 
L 311.84765 101.49083 
L 312.161924 100.920386 
L 312.685714 100.838894 
L 312.790472 100.757402 
L 313.314262 100.67591 
L 313.314262 100.594418 
L 313.94281 100.512926 
L 314.047568 100.26845 
L 314.257084 100.186958 
L 314.361842 100.105466 
L 315.199906 100.023974 
L 315.199906 99.942482 
L 315.409422 99.942482 
L 315.51418 99.698006 
L 315.618938 99.616514 
L 316.03797 99.616514 
L 316.03797 99.453531 
L 316.666518 99.453531 
L 316.666518 99.290547 
L 316.980792 99.209055 
L 317.08555 98.964579 
L 317.818856 98.883087 
L 317.818856 98.801595 
L 317.923614 98.801595 
L 318.028372 98.720103 
L 318.237888 98.720103 
L 318.342646 98.231151 
L 319.18071 98.149659 
L 319.18071 97.986675 
L 319.914016 97.905183 
L 320.018774 97.823691 
L 320.856838 97.742199 
L 320.961596 97.497723 
L 321.485386 97.416232 
L 321.485386 97.253248 
L 321.694902 97.253248 
L 321.694902 97.090264 
L 321.79966 97.090264 
L 322.113934 96.92728 
L 322.428208 96.845788 
L 322.428208 96.764296 
L 322.742482 96.682804 
L 322.742482 96.51982 
L 322.951998 96.51982 
L 322.951998 96.438328 
L 323.475788 96.275344 
L 323.475788 96.030868 
L 323.580546 96.030868 
L 324.104336 95.949376 
L 324.837642 95.460424 
L 325.675705 95.378932 
L 325.675705 95.297441 
L 325.780463 95.297441 
L 325.885221 95.215949 
L 325.885221 94.808489 
L 326.304253 94.726997 
L 326.304253 94.645505 
L 327.037559 94.564013 
L 327.037559 94.401029 
L 327.142317 94.401029 
L 327.247075 94.319537 
L 327.980381 94.238045 
L 327.980381 94.156553 
L 328.189897 94.156553 
L 328.294655 93.993569 
L 328.504171 93.993569 
L 328.608929 93.749093 
L 328.923203 93.749093 
L 328.923203 93.586109 
L 329.656509 93.504617 
L 330.075541 93.260141 
L 330.180299 93.17865 
L 330.704089 93.17865 
L 330.704089 93.097158 
L 330.808847 92.852682 
L 331.123121 92.77119 
L 331.437395 92.526714 
L 332.065943 92.445222 
L 332.065943 92.282238 
L 332.694491 92.200746 
L 332.799249 92.037762 
L 333.113523 92.037762 
L 333.113523 91.95627 
L 333.427797 91.793286 
L 333.637313 91.711794 
L 333.742071 91.54881 
L 334.475377 91.467318 
L 334.580135 91.304334 
L 334.684893 91.304334 
L 334.789651 90.978367 
L 335.103925 90.896875 
L 335.418199 90.733891 
L 336.046747 90.652399 
L 336.151505 90.407923 
L 336.256263 90.407923 
L 336.361021 90.081955 
L 336.884811 90.081955 
L 336.884811 90.000463 
L 336.989569 89.918971 
L 337.303843 89.837479 
L 337.408601 89.430019 
L 337.618117 89.430019 
L 337.722875 89.185543 
L 337.932391 89.104051 
L 337.932391 89.022559 
L 338.560939 88.941068 
L 338.770455 88.778084 
L 340.341825 88.696592 
L 340.446583 88.452116 
L 340.865615 88.370624 
L 340.865615 88.289132 
L 341.075131 88.289132 
L 341.389405 87.718688 
L 341.598921 87.718688 
L 341.598921 87.555704 
L 341.703678 87.555704 
L 341.913194 87.555704 
L 342.017952 87.311228 
L 342.227468 87.311228 
L 342.227468 87.229736 
L 342.332226 87.148244 
L 342.541742 87.148244 
L 342.541742 86.740785 
L 343.379806 86.659293 
L 343.379806 86.414817 
L 343.484564 86.414817 
L 343.589322 86.333325 
L 344.636902 86.251833 
L 344.636902 86.170341 
L 344.951176 86.170341 
L 344.951176 85.681389 
L 345.370208 85.599897 
L 345.474966 85.355421 
L 345.998756 85.273929 
L 346.103514 84.45901 
L 346.522546 84.45901 
L 346.522546 84.296026 
L 346.941578 84.296026 
L 347.046336 84.133042 
L 347.989158 84.05155 
L 347.989158 83.970058 
L 348.303432 83.888566 
L 348.303432 83.807074 
L 348.93198 83.807074 
L 348.93198 83.725582 
L 349.246254 83.399614 
L 349.874802 83.318122 
L 349.874802 83.073646 
L 351.02714 82.666186 
L 351.131898 82.584695 
L 351.236656 82.258727 
L 351.341414 82.258727 
L 351.760446 81.932759 
L 352.912784 81.851267 
L 352.912784 81.606791 
L 353.855606 81.525299 
L 353.855606 81.362315 
L 354.16988 81.280823 
L 354.274638 81.117839 
L 354.903186 81.036347 
L 354.903186 80.873363 
L 355.21746 80.873363 
L 355.531734 80.710379 
L 355.531734 80.547395 
L 355.950766 80.465904 
L 356.055524 80.30292 
L 356.684072 80.221428 
L 356.684072 80.139936 
L 357.522136 80.058444 
L 357.83641 79.89546 
L 358.150683 79.813968 
L 358.150683 79.732476 
L 358.569715 79.650984 
L 358.674473 78.917556 
L 358.988747 78.754572 
L 359.093505 78.428605 
L 359.826811 78.347113 
L 359.826811 78.102637 
L 360.560117 78.021145 
L 360.874391 77.776669 
L 360.979149 77.450701 
L 361.188665 77.287717 
L 362.341003 77.206225 
L 362.445761 76.880257 
L 363.283825 76.798765 
L 363.702857 76.554289 
L 364.017131 76.472797 
L 364.226647 76.309814 
L 365.274227 76.14683 
L 365.483743 76.065338 
L 365.588501 75.820862 
L 366.112291 75.820862 
L 366.112291 75.576386 
L 366.426565 75.494894 
L 366.531323 75.33191 
L 366.845597 75.250418 
L 366.845597 75.168926 
L 367.369387 75.087434 
L 367.474145 74.92445 
L 368.102693 74.598482 
L 368.207451 74.354006 
L 368.731241 74.109531 
L 368.835999 73.865055 
L 368.940757 73.783563 
L 370.407369 73.702071 
L 370.407369 73.539087 
L 373.026319 72.887151 
L 373.131077 72.398199 
L 373.550109 72.316707 
L 373.654867 72.235215 
L 374.178656 72.153723 
L 374.283414 71.909248 
L 374.388172 71.909248 
L 374.388172 71.827756 
L 374.597688 71.58328 
L 374.911962 71.501788 
L 375.01672 71.338804 
L 375.330994 70.931344 
L 375.750026 70.931344 
L 375.750026 70.76836 
L 376.169058 70.686868 
L 376.378574 70.605376 
L 376.692848 70.279408 
L 377.11188 70.197916 
L 377.11188 70.116424 
L 377.426154 70.116424 
L 377.426154 69.871949 
L 378.997524 69.790457 
L 379.102282 69.708965 
L 379.521314 69.708965 
L 379.521314 69.545981 
L 379.940346 69.382997 
L 380.045104 68.894045 
L 380.359378 68.731061 
L 381.616474 68.649569 
L 382.035506 68.568077 
L 382.664054 68.486585 
L 382.664054 68.405093 
L 382.87357 68.405093 
L 382.87357 68.242109 
L 382.978328 68.242109 
L 384.654456 67.753158 
L 384.96873 67.42719 
L 385.178246 67.345698 
L 385.178246 67.182714 
L 385.387762 67.182714 
L 385.49252 66.938238 
L 385.806794 66.775254 
L 385.806794 66.61227 
L 386.121068 66.61227 
L 386.225826 66.367794 
L 386.644858 66.286302 
L 386.644858 66.20481 
L 386.959132 66.123318 
L 387.58768 65.878842 
L 387.692438 65.634367 
L 388.006712 65.552875 
L 388.006712 65.471383 
L 388.216228 65.308399 
L 388.320986 64.982431 
L 388.740018 64.411987 
L 388.844776 64.411987 
L 388.844776 64.330495 
L 388.949534 64.167511 
L 389.473324 64.167511 
L 389.473324 63.923035 
L 389.892356 63.597068 
L 390.625661 63.434084 
L 390.730419 63.189608 
L 391.254209 63.108116 
L 391.254209 63.026624 
L 391.673241 63.026624 
L 392.406547 62.700656 
L 392.406547 62.619164 
L 392.930337 62.537672 
L 392.930337 62.374688 
L 393.873159 61.967228 
L 393.873159 61.722752 
L 394.292191 61.722752 
L 394.292191 61.478277 
L 395.130255 61.396785 
L 395.444529 61.070817 
L 395.654045 61.070817 
L 395.654045 60.907833 
L 395.758803 60.907833 
L 395.968319 60.663357 
L 396.177835 60.663357 
L 396.177835 60.581865 
L 396.282593 60.418881 
L 397.120657 60.337389 
L 397.853963 59.848437 
L 398.482511 59.766945 
L 398.587269 59.603961 
L 399.425333 59.522469 
L 399.634849 59.033518 
L 400.787187 58.626058 
L 400.787187 58.544566 
L 401.834767 57.811138 
L 402.149041 57.729646 
L 402.253799 57.403678 
L 403.196621 57.403678 
L 403.301379 57.159203 
L 404.244201 56.996219 
L 404.348959 56.833235 
L 404.767991 56.751743 
L 406.025087 56.344283 
L 406.339361 56.344283 
L 406.653634 56.181299 
L 407.596456 56.018315 
L 407.596456 55.855331 
L 408.120246 55.855331 
L 409.272584 55.610855 
L 409.4821 55.610855 
L 414.72 54.144 
L 414.72 54.144 
" clip-path="url(#p1ca215ac72)" style="fill: none; stroke: #1f77b4; stroke-width: 1.5; stroke-linecap: square"/>
   </g>
   <g id="line2d_14">
    <path d="M 57.6 307.584 
L 414.72 54.144 
" clip-path="url(#p1ca215ac72)" style="fill: none; stroke-dasharray: 5.55,2.4; stroke-dashoffset: 0; stroke: #000000; stroke-width: 1.5"/>
   </g>
   <g id="patch_3">
    <path d="M 57.6 307.584 
L 57.6 41.472 
" style="fill: none; stroke: #000000; stroke-width: 0.8; stroke-linejoin: miter; stroke-linecap: square"/>
   </g>
   <g id="patch_4">
    <path d="M 414.72 307.584 
L 414.72 41.472 
" style="fill: none; stroke: #000000; stroke-width: 0.8; stroke-linejoin: miter; stroke-linecap: square"/>
   </g>
   <g id="patch_5">
    <path d="M 57.6 307.584 
L 414.72 307.584 
" style="fill: none; stroke: #000000; stroke-width: 0.8; stroke-linejoin: miter; stroke-linecap: square"/>
   </g>
   <g id="patch_6">
    <path d="M 57.6 41.472 
L 414.72 41.472 
" style="fill: none; stroke: #000000; stroke-width: 0.8; stroke-linejoin: miter; stroke-linecap: square"/>
   </g>
   <g id="text_15">
    <!-- Receiver Operating Characteristic -->
    <g transform="translate(134.656875 35.472) scale(0.12 -0.12)">
     <defs>
      <path id="DejaVuSans-63" d="M 3122 3366 
L 3122 2828 
Q 2878 2963 2633 3030 
Q 2388 3097 2138 3097 
Q 1578 3097 1268 2742 
Q 959 2388 959 1747 
Q 959 1106 1268 751 
Q 1578 397 2138 397 
Q 2388 397 2633 464 
Q 2878 531 3122 666 
L 3122 134 
Q 2881 22 2623 -34 
Q 2366 -91 2075 -91 
Q 1284 -91 818 406 
Q 353 903 353 1747 
Q 353 2603 823 3093 
Q 1294 3584 2113 3584 
Q 2378 3584 2631 3529 
Q 2884 3475 3122 3366 
z
" transform="scale(0.015625)"/>
      <path id="DejaVuSans-4f" d="M 2522 4238 
Q 1834 4238 1429 3725 
Q 1025 3213 1025 2328 
Q 1025 1447 1429 934 
Q 1834 422 2522 422 
Q 3209 422 3611 934 
Q 4013 1447 4013 2328 
Q 4013 3213 3611 3725 
Q 3209 4238 2522 4238 
z
M 2522 4750 
Q 3503 4750 4090 4092 
Q 4678 3434 4678 2328 
Q 4678 1225 4090 567 
Q 3503 -91 2522 -91 
Q 1538 -91 948 565 
Q 359 1222 359 2328 
Q 359 3434 948 4092 
Q 1538 4750 2522 4750 
z
" transform="scale(0.015625)"/>
      <path id="DejaVuSans-70" d="M 1159 525 
L 1159 -1331 
L 581 -1331 
L 581 3500 
L 1159 3500 
L 1159 2969 
Q 1341 3281 1617 3432 
Q 1894 3584 2278 3584 
Q 2916 3584 3314 3078 
Q 3713 2572 3713 1747 
Q 3713 922 3314 415 
Q 2916 -91 2278 -91 
Q 1894 -91 1617 61 
Q 1341 213 1159 525 
z
M 3116 1747 
Q 3116 2381 2855 2742 
Q 2594 3103 2138 3103 
Q 1681 3103 1420 2742 
Q 1159 2381 1159 1747 
Q 1159 1113 1420 752 
Q 1681 391 2138 391 
Q 2594 391 2855 752 
Q 3116 1113 3116 1747 
z
" transform="scale(0.015625)"/>
      <path id="DejaVuSans-6e" d="M 3513 2113 
L 3513 0 
L 2938 0 
L 2938 2094 
Q 2938 2591 2744 2837 
Q 2550 3084 2163 3084 
Q 1697 3084 1428 2787 
Q 1159 2491 1159 1978 
L 1159 0 
L 581 0 
L 581 3500 
L 1159 3500 
L 1159 2956 
Q 1366 3272 1645 3428 
Q 1925 3584 2291 3584 
Q 2894 3584 3203 3211 
Q 3513 2838 3513 2113 
z
" transform="scale(0.015625)"/>
      <path id="DejaVuSans-67" d="M 2906 1791 
Q 2906 2416 2648 2759 
Q 2391 3103 1925 3103 
Q 1463 3103 1205 2759 
Q 947 2416 947 1791 
Q 947 1169 1205 825 
Q 1463 481 1925 481 
Q 2391 481 2648 825 
Q 2906 1169 2906 1791 
z
M 3481 434 
Q 3481 -459 3084 -895 
Q 2688 -1331 1869 -1331 
Q 1566 -1331 1297 -1286 
Q 1028 -1241 775 -1147 
L 775 -588 
Q 1028 -725 1275 -790 
Q 1522 -856 1778 -856 
Q 2344 -856 2625 -561 
Q 2906 -266 2906 331 
L 2906 616 
Q 2728 306 2450 153 
Q 2172 0 1784 0 
Q 1141 0 747 490 
Q 353 981 353 1791 
Q 353 2603 747 3093 
Q 1141 3584 1784 3584 
Q 2172 3584 2450 3431 
Q 2728 3278 2906 2969 
L 2906 3500 
L 3481 3500 
L 3481 434 
z
" transform="scale(0.015625)"/>
      <path id="DejaVuSans-43" d="M 4122 4306 
L 4122 3641 
Q 3803 3938 3442 4084 
Q 3081 4231 2675 4231 
Q 1875 4231 1450 3742 
Q 1025 3253 1025 2328 
Q 1025 1406 1450 917 
Q 1875 428 2675 428 
Q 3081 428 3442 575 
Q 3803 722 4122 1019 
L 4122 359 
Q 3791 134 3420 21 
Q 3050 -91 2638 -91 
Q 1578 -91 968 557 
Q 359 1206 359 2328 
Q 359 3453 968 4101 
Q 1578 4750 2638 4750 
Q 3056 4750 3426 4639 
Q 3797 4528 4122 4306 
z
" transform="scale(0.015625)"/>
      <path id="DejaVuSans-68" d="M 3513 2113 
L 3513 0 
L 2938 0 
L 2938 2094 
Q 2938 2591 2744 2837 
Q 2550 3084 2163 3084 
Q 1697 3084 1428 2787 
Q 1159 2491 1159 1978 
L 1159 0 
L 581 0 
L 581 4863 
L 1159 4863 
L 1159 2956 
Q 1366 3272 1645 3428 
Q 1925 3584 2291 3584 
Q 2894 3584 3203 3211 
Q 3513 2838 3513 2113 
z
" transform="scale(0.015625)"/>
     </defs>
     <use xlink:href="#DejaVuSans-52"/>
     <use xlink:href="#DejaVuSans-65" x="64.982422"/>
     <use xlink:href="#DejaVuSans-63" x="126.505859"/>
     <use xlink:href="#DejaVuSans-65" x="181.486328"/>
     <use xlink:href="#DejaVuSans-69" x="243.009766"/>
     <use xlink:href="#DejaVuSans-76" x="270.792969"/>
     <use xlink:href="#DejaVuSans-65" x="329.972656"/>
     <use xlink:href="#DejaVuSans-72" x="391.496094"/>
     <use xlink:href="#DejaVuSans-20" x="432.609375"/>
     <use xlink:href="#DejaVuSans-4f" x="464.396484"/>
     <use xlink:href="#DejaVuSans-70" x="543.107422"/>
     <use xlink:href="#DejaVuSans-65" x="606.583984"/>
     <use xlink:href="#DejaVuSans-72" x="668.107422"/>
     <use xlink:href="#DejaVuSans-61" x="709.220703"/>
     <use xlink:href="#DejaVuSans-74" x="770.5"/>
     <use xlink:href="#DejaVuSans-69" x="809.708984"/>
     <use xlink:href="#DejaVuSans-6e" x="837.492188"/>
     <use xlink:href="#DejaVuSans-67" x="900.871094"/>
     <use xlink:href="#DejaVuSans-20" x="964.347656"/>
     <use xlink:href="#DejaVuSans-43" x="996.134766"/>
     <use xlink:href="#DejaVuSans-68" x="1065.958984"/>
     <use xlink:href="#DejaVuSans-61" x="1129.337891"/>
     <use xlink:href="#DejaVuSans-72" x="1190.617188"/>
     <use xlink:href="#DejaVuSans-61" x="1231.730469"/>
     <use xlink:href="#DejaVuSans-63" x="1293.009766"/>
     <use xlink:href="#DejaVuSans-74" x="1347.990234"/>
     <use xlink:href="#DejaVuSans-65" x="1387.199219"/>
     <use xlink:href="#DejaVuSans-72" x="1448.722656"/>
     <use xlink:href="#DejaVuSans-69" x="1489.835938"/>
     <use xlink:href="#DejaVuSans-73" x="1517.619141"/>
     <use xlink:href="#DejaVuSans-74" x="1569.71875"/>
     <use xlink:href="#DejaVuSans-69" x="1608.927734"/>
     <use xlink:href="#DejaVuSans-63" x="1636.710938"/>
    </g>
   </g>
   <g id="legend_1">
    <g id="patch_7">
     <path d="M 252.441875 302.584 
L 407.72 302.584 
Q 409.72 302.584 409.72 300.584 
L 409.72 286.905875 
Q 409.72 284.905875 407.72 284.905875 
L 252.441875 284.905875 
Q 250.441875 284.905875 250.441875 286.905875 
L 250.441875 300.584 
Q 250.441875 302.584 252.441875 302.584 
z
" style="fill: #ffffff; opacity: 0.8; stroke: #cccccc; stroke-linejoin: miter"/>
    </g>
    <g id="line2d_15">
     <path d="M 254.441875 293.004312 
L 264.441875 293.004312 
L 274.441875 293.004312 
" style="fill: none; stroke: #1f77b4; stroke-width: 1.5; stroke-linecap: square"/>
    </g>
    <g id="text_16">
     <!-- ROC curve (area = 0.59) -->
     <g transform="translate(282.441875 296.504312) scale(0.1 -0.1)">
      <defs>
       <path id="DejaVuSans-28" d="M 1984 4856 
Q 1566 4138 1362 3434 
Q 1159 2731 1159 2009 
Q 1159 1288 1364 580 
Q 1569 -128 1984 -844 
L 1484 -844 
Q 1016 -109 783 600 
Q 550 1309 550 2009 
Q 550 2706 781 3412 
Q 1013 4119 1484 4856 
L 1984 4856 
z
" transform="scale(0.015625)"/>
       <path id="DejaVuSans-3d" d="M 678 2906 
L 4684 2906 
L 4684 2381 
L 678 2381 
L 678 2906 
z
M 678 1631 
L 4684 1631 
L 4684 1100 
L 678 1100 
L 678 1631 
z
" transform="scale(0.015625)"/>
       <path id="DejaVuSans-35" d="M 691 4666 
L 3169 4666 
L 3169 4134 
L 1269 4134 
L 1269 2991 
Q 1406 3038 1543 3061 
Q 1681 3084 1819 3084 
Q 2600 3084 3056 2656 
Q 3513 2228 3513 1497 
Q 3513 744 3044 326 
Q 2575 -91 1722 -91 
Q 1428 -91 1123 -41 
Q 819 9 494 109 
L 494 744 
Q 775 591 1075 516 
Q 1375 441 1709 441 
Q 2250 441 2565 725 
Q 2881 1009 2881 1497 
Q 2881 1984 2565 2268 
Q 2250 2553 1709 2553 
Q 1456 2553 1204 2497 
Q 953 2441 691 2322 
L 691 4666 
z
" transform="scale(0.015625)"/>
       <path id="DejaVuSans-39" d="M 703 97 
L 703 672 
Q 941 559 1184 500 
Q 1428 441 1663 441 
Q 2288 441 2617 861 
Q 2947 1281 2994 2138 
Q 2813 1869 2534 1725 
Q 2256 1581 1919 1581 
Q 1219 1581 811 2004 
Q 403 2428 403 3163 
Q 403 3881 828 4315 
Q 1253 4750 1959 4750 
Q 2769 4750 3195 4129 
Q 3622 3509 3622 2328 
Q 3622 1225 3098 567 
Q 2575 -91 1691 -91 
Q 1453 -91 1209 -44 
Q 966 3 703 97 
z
M 1959 2075 
Q 2384 2075 2632 2365 
Q 2881 2656 2881 3163 
Q 2881 3666 2632 3958 
Q 2384 4250 1959 4250 
Q 1534 4250 1286 3958 
Q 1038 3666 1038 3163 
Q 1038 2656 1286 2365 
Q 1534 2075 1959 2075 
z
" transform="scale(0.015625)"/>
       <path id="DejaVuSans-29" d="M 513 4856 
L 1013 4856 
Q 1481 4119 1714 3412 
Q 1947 2706 1947 2009 
Q 1947 1309 1714 600 
Q 1481 -109 1013 -844 
L 513 -844 
Q 928 -128 1133 580 
Q 1338 1288 1338 2009 
Q 1338 2731 1133 3434 
Q 928 4138 513 4856 
z
" transform="scale(0.015625)"/>
      </defs>
      <use xlink:href="#DejaVuSans-52"/>
      <use xlink:href="#DejaVuSans-4f" x="69.482422"/>
      <use xlink:href="#DejaVuSans-43" x="148.193359"/>
      <use xlink:href="#DejaVuSans-20" x="218.017578"/>
      <use xlink:href="#DejaVuSans-63" x="249.804688"/>
      <use xlink:href="#DejaVuSans-75" x="304.785156"/>
      <use xlink:href="#DejaVuSans-72" x="368.164062"/>
      <use xlink:href="#DejaVuSans-76" x="409.277344"/>
      <use xlink:href="#DejaVuSans-65" x="468.457031"/>
      <use xlink:href="#DejaVuSans-20" x="529.980469"/>
      <use xlink:href="#DejaVuSans-28" x="561.767578"/>
      <use xlink:href="#DejaVuSans-61" x="600.78125"/>
      <use xlink:href="#DejaVuSans-72" x="662.060547"/>
      <use xlink:href="#DejaVuSans-65" x="700.923828"/>
      <use xlink:href="#DejaVuSans-61" x="762.447266"/>
      <use xlink:href="#DejaVuSans-20" x="823.726562"/>
      <use xlink:href="#DejaVuSans-3d" x="855.513672"/>
      <use xlink:href="#DejaVuSans-20" x="939.302734"/>
      <use xlink:href="#DejaVuSans-30" x="971.089844"/>
      <use xlink:href="#DejaVuSans-2e" x="1034.712891"/>
      <use xlink:href="#DejaVuSans-35" x="1066.5"/>
      <use xlink:href="#DejaVuSans-39" x="1130.123047"/>
      <use xlink:href="#DejaVuSans-29" x="1193.746094"/>
     </g>
    </g>
   </g>
  </g>
 </g>
 <defs>
  <clipPath id="p1ca215ac72">
   <rect x="57.6" y="41.472" width="357.12" height="266.112"/>
  </clipPath>
 </defs>
</svg>
