<?xml version="1.0" encoding="utf-8" standalone="no"?>
<!DOCTYPE svg PUBLIC "-//W3C//DTD SVG 1.1//EN"
  "http://www.w3.org/Graphics/SVG/1.1/DTD/svg11.dtd">
<svg xmlns:xlink="http://www.w3.org/1999/xlink" width="460.8pt" height="345.6pt" viewBox="0 0 460.8 345.6" xmlns="http://www.w3.org/2000/svg" version="1.1">
 <metadata>
  <rdf:RDF xmlns:dc="http://purl.org/dc/elements/1.1/" xmlns:cc="http://creativecommons.org/ns#" xmlns:rdf="http://www.w3.org/1999/02/22-rdf-syntax-ns#">
   <cc:Work>
    <dc:type rdf:resource="http://purl.org/dc/dcmitype/StillImage"/>
    <dc:date>2024-05-01T17:15:52.278327</dc:date>
    <dc:format>image/svg+xml</dc:format>
    <dc:creator>
     <cc:Agent>
      <dc:title>Matplotlib v3.8.3, https://matplotlib.org/</dc:title>
     </cc:Agent>
    </dc:creator>
   </cc:Work>
  </rdf:RDF>
 </metadata>
 <defs>
  <style type="text/css">*{stroke-linejoin: round; stroke-linecap: butt}</style>
 </defs>
 <g id="figure_1">
  <g id="patch_1">
   <path d="M 0 345.6 
L 460.8 345.6 
L 460.8 0 
L 0 0 
z
" style="fill: #ffffff"/>
  </g>
  <g id="axes_1">
   <g id="patch_2">
    <path d="M 57.6 307.584 
L 414.72 307.584 
L 414.72 41.472 
L 57.6 41.472 
z
" style="fill: #ffffff"/>
   </g>
   <g id="matplotlib.axis_1">
    <g id="xtick_1">
     <g id="line2d_1">
      <defs>
       <path id="mcfb88b1dd9" d="M 0 0 
L 0 3.5 
" style="stroke: #000000; stroke-width: 0.8"/>
      </defs>
      <g>
       <use xlink:href="#mcfb88b1dd9" x="57.6" y="307.584" style="stroke: #000000; stroke-width: 0.8"/>
      </g>
     </g>
     <g id="text_1">
      <!-- 0.0 -->
      <g transform="translate(49.648438 322.182437) scale(0.1 -0.1)">
       <defs>
        <path id="DejaVuSans-30" d="M 2034 4250 
Q 1547 4250 1301 3770 
Q 1056 3291 1056 2328 
Q 1056 1369 1301 889 
Q 1547 409 2034 409 
Q 2525 409 2770 889 
Q 3016 1369 3016 2328 
Q 3016 3291 2770 3770 
Q 2525 4250 2034 4250 
z
M 2034 4750 
Q 2819 4750 3233 4129 
Q 3647 3509 3647 2328 
Q 3647 1150 3233 529 
Q 2819 -91 2034 -91 
Q 1250 -91 836 529 
Q 422 1150 422 2328 
Q 422 3509 836 4129 
Q 1250 4750 2034 4750 
z
" transform="scale(0.015625)"/>
        <path id="DejaVuSans-2e" d="M 684 794 
L 1344 794 
L 1344 0 
L 684 0 
L 684 794 
z
" transform="scale(0.015625)"/>
       </defs>
       <use xlink:href="#DejaVuSans-30"/>
       <use xlink:href="#DejaVuSans-2e" x="63.623047"/>
       <use xlink:href="#DejaVuSans-30" x="95.410156"/>
      </g>
     </g>
    </g>
    <g id="xtick_2">
     <g id="line2d_2">
      <g>
       <use xlink:href="#mcfb88b1dd9" x="129.024" y="307.584" style="stroke: #000000; stroke-width: 0.8"/>
      </g>
     </g>
     <g id="text_2">
      <!-- 0.2 -->
      <g transform="translate(121.072438 322.182437) scale(0.1 -0.1)">
       <defs>
        <path id="DejaVuSans-32" d="M 1228 531 
L 3431 531 
L 3431 0 
L 469 0 
L 469 531 
Q 828 903 1448 1529 
Q 2069 2156 2228 2338 
Q 2531 2678 2651 2914 
Q 2772 3150 2772 3378 
Q 2772 3750 2511 3984 
Q 2250 4219 1831 4219 
Q 1534 4219 1204 4116 
Q 875 4013 500 3803 
L 500 4441 
Q 881 4594 1212 4672 
Q 1544 4750 1819 4750 
Q 2544 4750 2975 4387 
Q 3406 4025 3406 3419 
Q 3406 3131 3298 2873 
Q 3191 2616 2906 2266 
Q 2828 2175 2409 1742 
Q 1991 1309 1228 531 
z
" transform="scale(0.015625)"/>
       </defs>
       <use xlink:href="#DejaVuSans-30"/>
       <use xlink:href="#DejaVuSans-2e" x="63.623047"/>
       <use xlink:href="#DejaVuSans-32" x="95.410156"/>
      </g>
     </g>
    </g>
    <g id="xtick_3">
     <g id="line2d_3">
      <g>
       <use xlink:href="#mcfb88b1dd9" x="200.448" y="307.584" style="stroke: #000000; stroke-width: 0.8"/>
      </g>
     </g>
     <g id="text_3">
      <!-- 0.4 -->
      <g transform="translate(192.496438 322.182437) scale(0.1 -0.1)">
       <defs>
        <path id="DejaVuSans-34" d="M 2419 4116 
L 825 1625 
L 2419 1625 
L 2419 4116 
z
M 2253 4666 
L 3047 4666 
L 3047 1625 
L 3713 1625 
L 3713 1100 
L 3047 1100 
L 3047 0 
L 2419 0 
L 2419 1100 
L 313 1100 
L 313 1709 
L 2253 4666 
z
" transform="scale(0.015625)"/>
       </defs>
       <use xlink:href="#DejaVuSans-30"/>
       <use xlink:href="#DejaVuSans-2e" x="63.623047"/>
       <use xlink:href="#DejaVuSans-34" x="95.410156"/>
      </g>
     </g>
    </g>
    <g id="xtick_4">
     <g id="line2d_4">
      <g>
       <use xlink:href="#mcfb88b1dd9" x="271.872" y="307.584" style="stroke: #000000; stroke-width: 0.8"/>
      </g>
     </g>
     <g id="text_4">
      <!-- 0.6 -->
      <g transform="translate(263.920438 322.182437) scale(0.1 -0.1)">
       <defs>
        <path id="DejaVuSans-36" d="M 2113 2584 
Q 1688 2584 1439 2293 
Q 1191 2003 1191 1497 
Q 1191 994 1439 701 
Q 1688 409 2113 409 
Q 2538 409 2786 701 
Q 3034 994 3034 1497 
Q 3034 2003 2786 2293 
Q 2538 2584 2113 2584 
z
M 3366 4563 
L 3366 3988 
Q 3128 4100 2886 4159 
Q 2644 4219 2406 4219 
Q 1781 4219 1451 3797 
Q 1122 3375 1075 2522 
Q 1259 2794 1537 2939 
Q 1816 3084 2150 3084 
Q 2853 3084 3261 2657 
Q 3669 2231 3669 1497 
Q 3669 778 3244 343 
Q 2819 -91 2113 -91 
Q 1303 -91 875 529 
Q 447 1150 447 2328 
Q 447 3434 972 4092 
Q 1497 4750 2381 4750 
Q 2619 4750 2861 4703 
Q 3103 4656 3366 4563 
z
" transform="scale(0.015625)"/>
       </defs>
       <use xlink:href="#DejaVuSans-30"/>
       <use xlink:href="#DejaVuSans-2e" x="63.623047"/>
       <use xlink:href="#DejaVuSans-36" x="95.410156"/>
      </g>
     </g>
    </g>
    <g id="xtick_5">
     <g id="line2d_5">
      <g>
       <use xlink:href="#mcfb88b1dd9" x="343.296" y="307.584" style="stroke: #000000; stroke-width: 0.8"/>
      </g>
     </g>
     <g id="text_5">
      <!-- 0.8 -->
      <g transform="translate(335.344438 322.182437) scale(0.1 -0.1)">
       <defs>
        <path id="DejaVuSans-38" d="M 2034 2216 
Q 1584 2216 1326 1975 
Q 1069 1734 1069 1313 
Q 1069 891 1326 650 
Q 1584 409 2034 409 
Q 2484 409 2743 651 
Q 3003 894 3003 1313 
Q 3003 1734 2745 1975 
Q 2488 2216 2034 2216 
z
M 1403 2484 
Q 997 2584 770 2862 
Q 544 3141 544 3541 
Q 544 4100 942 4425 
Q 1341 4750 2034 4750 
Q 2731 4750 3128 4425 
Q 3525 4100 3525 3541 
Q 3525 3141 3298 2862 
Q 3072 2584 2669 2484 
Q 3125 2378 3379 2068 
Q 3634 1759 3634 1313 
Q 3634 634 3220 271 
Q 2806 -91 2034 -91 
Q 1263 -91 848 271 
Q 434 634 434 1313 
Q 434 1759 690 2068 
Q 947 2378 1403 2484 
z
M 1172 3481 
Q 1172 3119 1398 2916 
Q 1625 2713 2034 2713 
Q 2441 2713 2670 2916 
Q 2900 3119 2900 3481 
Q 2900 3844 2670 4047 
Q 2441 4250 2034 4250 
Q 1625 4250 1398 4047 
Q 1172 3844 1172 3481 
z
" transform="scale(0.015625)"/>
       </defs>
       <use xlink:href="#DejaVuSans-30"/>
       <use xlink:href="#DejaVuSans-2e" x="63.623047"/>
       <use xlink:href="#DejaVuSans-38" x="95.410156"/>
      </g>
     </g>
    </g>
    <g id="xtick_6">
     <g id="line2d_6">
      <g>
       <use xlink:href="#mcfb88b1dd9" x="414.72" y="307.584" style="stroke: #000000; stroke-width: 0.8"/>
      </g>
     </g>
     <g id="text_6">
      <!-- 1.0 -->
      <g transform="translate(406.768438 322.182437) scale(0.1 -0.1)">
       <defs>
        <path id="DejaVuSans-31" d="M 794 531 
L 1825 531 
L 1825 4091 
L 703 3866 
L 703 4441 
L 1819 4666 
L 2450 4666 
L 2450 531 
L 3481 531 
L 3481 0 
L 794 0 
L 794 531 
z
" transform="scale(0.015625)"/>
       </defs>
       <use xlink:href="#DejaVuSans-31"/>
       <use xlink:href="#DejaVuSans-2e" x="63.623047"/>
       <use xlink:href="#DejaVuSans-30" x="95.410156"/>
      </g>
     </g>
    </g>
    <g id="text_7">
     <!-- False Positive Rate -->
     <g transform="translate(189.693594 335.860562) scale(0.1 -0.1)">
      <defs>
       <path id="DejaVuSans-46" d="M 628 4666 
L 3309 4666 
L 3309 4134 
L 1259 4134 
L 1259 2759 
L 3109 2759 
L 3109 2228 
L 1259 2228 
L 1259 0 
L 628 0 
L 628 4666 
z
" transform="scale(0.015625)"/>
       <path id="DejaVuSans-61" d="M 2194 1759 
Q 1497 1759 1228 1600 
Q 959 1441 959 1056 
Q 959 750 1161 570 
Q 1363 391 1709 391 
Q 2188 391 2477 730 
Q 2766 1069 2766 1631 
L 2766 1759 
L 2194 1759 
z
M 3341 1997 
L 3341 0 
L 2766 0 
L 2766 531 
Q 2569 213 2275 61 
Q 1981 -91 1556 -91 
Q 1019 -91 701 211 
Q 384 513 384 1019 
Q 384 1609 779 1909 
Q 1175 2209 1959 2209 
L 2766 2209 
L 2766 2266 
Q 2766 2663 2505 2880 
Q 2244 3097 1772 3097 
Q 1472 3097 1187 3025 
Q 903 2953 641 2809 
L 641 3341 
Q 956 3463 1253 3523 
Q 1550 3584 1831 3584 
Q 2591 3584 2966 3190 
Q 3341 2797 3341 1997 
z
" transform="scale(0.015625)"/>
       <path id="DejaVuSans-6c" d="M 603 4863 
L 1178 4863 
L 1178 0 
L 603 0 
L 603 4863 
z
" transform="scale(0.015625)"/>
       <path id="DejaVuSans-73" d="M 2834 3397 
L 2834 2853 
Q 2591 2978 2328 3040 
Q 2066 3103 1784 3103 
Q 1356 3103 1142 2972 
Q 928 2841 928 2578 
Q 928 2378 1081 2264 
Q 1234 2150 1697 2047 
L 1894 2003 
Q 2506 1872 2764 1633 
Q 3022 1394 3022 966 
Q 3022 478 2636 193 
Q 2250 -91 1575 -91 
Q 1294 -91 989 -36 
Q 684 19 347 128 
L 347 722 
Q 666 556 975 473 
Q 1284 391 1588 391 
Q 1994 391 2212 530 
Q 2431 669 2431 922 
Q 2431 1156 2273 1281 
Q 2116 1406 1581 1522 
L 1381 1569 
Q 847 1681 609 1914 
Q 372 2147 372 2553 
Q 372 3047 722 3315 
Q 1072 3584 1716 3584 
Q 2034 3584 2315 3537 
Q 2597 3491 2834 3397 
z
" transform="scale(0.015625)"/>
       <path id="DejaVuSans-65" d="M 3597 1894 
L 3597 1613 
L 953 1613 
Q 991 1019 1311 708 
Q 1631 397 2203 397 
Q 2534 397 2845 478 
Q 3156 559 3463 722 
L 3463 178 
Q 3153 47 2828 -22 
Q 2503 -91 2169 -91 
Q 1331 -91 842 396 
Q 353 884 353 1716 
Q 353 2575 817 3079 
Q 1281 3584 2069 3584 
Q 2775 3584 3186 3129 
Q 3597 2675 3597 1894 
z
M 3022 2063 
Q 3016 2534 2758 2815 
Q 2500 3097 2075 3097 
Q 1594 3097 1305 2825 
Q 1016 2553 972 2059 
L 3022 2063 
z
" transform="scale(0.015625)"/>
       <path id="DejaVuSans-20" transform="scale(0.015625)"/>
       <path id="DejaVuSans-50" d="M 1259 4147 
L 1259 2394 
L 2053 2394 
Q 2494 2394 2734 2622 
Q 2975 2850 2975 3272 
Q 2975 3691 2734 3919 
Q 2494 4147 2053 4147 
L 1259 4147 
z
M 628 4666 
L 2053 4666 
Q 2838 4666 3239 4311 
Q 3641 3956 3641 3272 
Q 3641 2581 3239 2228 
Q 2838 1875 2053 1875 
L 1259 1875 
L 1259 0 
L 628 0 
L 628 4666 
z
" transform="scale(0.015625)"/>
       <path id="DejaVuSans-6f" d="M 1959 3097 
Q 1497 3097 1228 2736 
Q 959 2375 959 1747 
Q 959 1119 1226 758 
Q 1494 397 1959 397 
Q 2419 397 2687 759 
Q 2956 1122 2956 1747 
Q 2956 2369 2687 2733 
Q 2419 3097 1959 3097 
z
M 1959 3584 
Q 2709 3584 3137 3096 
Q 3566 2609 3566 1747 
Q 3566 888 3137 398 
Q 2709 -91 1959 -91 
Q 1206 -91 779 398 
Q 353 888 353 1747 
Q 353 2609 779 3096 
Q 1206 3584 1959 3584 
z
" transform="scale(0.015625)"/>
       <path id="DejaVuSans-69" d="M 603 3500 
L 1178 3500 
L 1178 0 
L 603 0 
L 603 3500 
z
M 603 4863 
L 1178 4863 
L 1178 4134 
L 603 4134 
L 603 4863 
z
" transform="scale(0.015625)"/>
       <path id="DejaVuSans-74" d="M 1172 4494 
L 1172 3500 
L 2356 3500 
L 2356 3053 
L 1172 3053 
L 1172 1153 
Q 1172 725 1289 603 
Q 1406 481 1766 481 
L 2356 481 
L 2356 0 
L 1766 0 
Q 1100 0 847 248 
Q 594 497 594 1153 
L 594 3053 
L 172 3053 
L 172 3500 
L 594 3500 
L 594 4494 
L 1172 4494 
z
" transform="scale(0.015625)"/>
       <path id="DejaVuSans-76" d="M 191 3500 
L 800 3500 
L 1894 563 
L 2988 3500 
L 3597 3500 
L 2284 0 
L 1503 0 
L 191 3500 
z
" transform="scale(0.015625)"/>
       <path id="DejaVuSans-52" d="M 2841 2188 
Q 3044 2119 3236 1894 
Q 3428 1669 3622 1275 
L 4263 0 
L 3584 0 
L 2988 1197 
Q 2756 1666 2539 1819 
Q 2322 1972 1947 1972 
L 1259 1972 
L 1259 0 
L 628 0 
L 628 4666 
L 2053 4666 
Q 2853 4666 3247 4331 
Q 3641 3997 3641 3322 
Q 3641 2881 3436 2590 
Q 3231 2300 2841 2188 
z
M 1259 4147 
L 1259 2491 
L 2053 2491 
Q 2509 2491 2742 2702 
Q 2975 2913 2975 3322 
Q 2975 3731 2742 3939 
Q 2509 4147 2053 4147 
L 1259 4147 
z
" transform="scale(0.015625)"/>
      </defs>
      <use xlink:href="#DejaVuSans-46"/>
      <use xlink:href="#DejaVuSans-61" x="48.394531"/>
      <use xlink:href="#DejaVuSans-6c" x="109.673828"/>
      <use xlink:href="#DejaVuSans-73" x="137.457031"/>
      <use xlink:href="#DejaVuSans-65" x="189.556641"/>
      <use xlink:href="#DejaVuSans-20" x="251.080078"/>
      <use xlink:href="#DejaVuSans-50" x="282.867188"/>
      <use xlink:href="#DejaVuSans-6f" x="339.544922"/>
      <use xlink:href="#DejaVuSans-73" x="400.726562"/>
      <use xlink:href="#DejaVuSans-69" x="452.826172"/>
      <use xlink:href="#DejaVuSans-74" x="480.609375"/>
      <use xlink:href="#DejaVuSans-69" x="519.818359"/>
      <use xlink:href="#DejaVuSans-76" x="547.601562"/>
      <use xlink:href="#DejaVuSans-65" x="606.78125"/>
      <use xlink:href="#DejaVuSans-20" x="668.304688"/>
      <use xlink:href="#DejaVuSans-52" x="700.091797"/>
      <use xlink:href="#DejaVuSans-61" x="767.324219"/>
      <use xlink:href="#DejaVuSans-74" x="828.603516"/>
      <use xlink:href="#DejaVuSans-65" x="867.8125"/>
     </g>
    </g>
   </g>
   <g id="matplotlib.axis_2">
    <g id="ytick_1">
     <g id="line2d_7">
      <defs>
       <path id="m423a2bff06" d="M 0 0 
L -3.5 0 
" style="stroke: #000000; stroke-width: 0.8"/>
      </defs>
      <g>
       <use xlink:href="#m423a2bff06" x="57.6" y="307.584" style="stroke: #000000; stroke-width: 0.8"/>
      </g>
     </g>
     <g id="text_8">
      <!-- 0.0 -->
      <g transform="translate(34.696875 311.383219) scale(0.1 -0.1)">
       <use xlink:href="#DejaVuSans-30"/>
       <use xlink:href="#DejaVuSans-2e" x="63.623047"/>
       <use xlink:href="#DejaVuSans-30" x="95.410156"/>
      </g>
     </g>
    </g>
    <g id="ytick_2">
     <g id="line2d_8">
      <g>
       <use xlink:href="#m423a2bff06" x="57.6" y="256.896" style="stroke: #000000; stroke-width: 0.8"/>
      </g>
     </g>
     <g id="text_9">
      <!-- 0.2 -->
      <g transform="translate(34.696875 260.695219) scale(0.1 -0.1)">
       <use xlink:href="#DejaVuSans-30"/>
       <use xlink:href="#DejaVuSans-2e" x="63.623047"/>
       <use xlink:href="#DejaVuSans-32" x="95.410156"/>
      </g>
     </g>
    </g>
    <g id="ytick_3">
     <g id="line2d_9">
      <g>
       <use xlink:href="#m423a2bff06" x="57.6" y="206.208" style="stroke: #000000; stroke-width: 0.8"/>
      </g>
     </g>
     <g id="text_10">
      <!-- 0.4 -->
      <g transform="translate(34.696875 210.007219) scale(0.1 -0.1)">
       <use xlink:href="#DejaVuSans-30"/>
       <use xlink:href="#DejaVuSans-2e" x="63.623047"/>
       <use xlink:href="#DejaVuSans-34" x="95.410156"/>
      </g>
     </g>
    </g>
    <g id="ytick_4">
     <g id="line2d_10">
      <g>
       <use xlink:href="#m423a2bff06" x="57.6" y="155.52" style="stroke: #000000; stroke-width: 0.8"/>
      </g>
     </g>
     <g id="text_11">
      <!-- 0.6 -->
      <g transform="translate(34.696875 159.319219) scale(0.1 -0.1)">
       <use xlink:href="#DejaVuSans-30"/>
       <use xlink:href="#DejaVuSans-2e" x="63.623047"/>
       <use xlink:href="#DejaVuSans-36" x="95.410156"/>
      </g>
     </g>
    </g>
    <g id="ytick_5">
     <g id="line2d_11">
      <g>
       <use xlink:href="#m423a2bff06" x="57.6" y="104.832" style="stroke: #000000; stroke-width: 0.8"/>
      </g>
     </g>
     <g id="text_12">
      <!-- 0.8 -->
      <g transform="translate(34.696875 108.631219) scale(0.1 -0.1)">
       <use xlink:href="#DejaVuSans-30"/>
       <use xlink:href="#DejaVuSans-2e" x="63.623047"/>
       <use xlink:href="#DejaVuSans-38" x="95.410156"/>
      </g>
     </g>
    </g>
    <g id="ytick_6">
     <g id="line2d_12">
      <g>
       <use xlink:href="#m423a2bff06" x="57.6" y="54.144" style="stroke: #000000; stroke-width: 0.8"/>
      </g>
     </g>
     <g id="text_13">
      <!-- 1.0 -->
      <g transform="translate(34.696875 57.943219) scale(0.1 -0.1)">
       <use xlink:href="#DejaVuSans-31"/>
       <use xlink:href="#DejaVuSans-2e" x="63.623047"/>
       <use xlink:href="#DejaVuSans-30" x="95.410156"/>
      </g>
     </g>
    </g>
    <g id="text_14">
     <!-- True Positive Rate -->
     <g transform="translate(28.617187 219.057687) rotate(-90) scale(0.1 -0.1)">
      <defs>
       <path id="DejaVuSans-54" d="M -19 4666 
L 3928 4666 
L 3928 4134 
L 2272 4134 
L 2272 0 
L 1638 0 
L 1638 4134 
L -19 4134 
L -19 4666 
z
" transform="scale(0.015625)"/>
       <path id="DejaVuSans-72" d="M 2631 2963 
Q 2534 3019 2420 3045 
Q 2306 3072 2169 3072 
Q 1681 3072 1420 2755 
Q 1159 2438 1159 1844 
L 1159 0 
L 581 0 
L 581 3500 
L 1159 3500 
L 1159 2956 
Q 1341 3275 1631 3429 
Q 1922 3584 2338 3584 
Q 2397 3584 2469 3576 
Q 2541 3569 2628 3553 
L 2631 2963 
z
" transform="scale(0.015625)"/>
       <path id="DejaVuSans-75" d="M 544 1381 
L 544 3500 
L 1119 3500 
L 1119 1403 
Q 1119 906 1312 657 
Q 1506 409 1894 409 
Q 2359 409 2629 706 
Q 2900 1003 2900 1516 
L 2900 3500 
L 3475 3500 
L 3475 0 
L 2900 0 
L 2900 538 
Q 2691 219 2414 64 
Q 2138 -91 1772 -91 
Q 1169 -91 856 284 
Q 544 659 544 1381 
z
M 1991 3584 
L 1991 3584 
z
" transform="scale(0.015625)"/>
      </defs>
      <use xlink:href="#DejaVuSans-54"/>
      <use xlink:href="#DejaVuSans-72" x="46.333984"/>
      <use xlink:href="#DejaVuSans-75" x="87.447266"/>
      <use xlink:href="#DejaVuSans-65" x="150.826172"/>
      <use xlink:href="#DejaVuSans-20" x="212.349609"/>
      <use xlink:href="#DejaVuSans-50" x="244.136719"/>
      <use xlink:href="#DejaVuSans-6f" x="300.814453"/>
      <use xlink:href="#DejaVuSans-73" x="361.996094"/>
      <use xlink:href="#DejaVuSans-69" x="414.095703"/>
      <use xlink:href="#DejaVuSans-74" x="441.878906"/>
      <use xlink:href="#DejaVuSans-69" x="481.087891"/>
      <use xlink:href="#DejaVuSans-76" x="508.871094"/>
      <use xlink:href="#DejaVuSans-65" x="568.050781"/>
      <use xlink:href="#DejaVuSans-20" x="629.574219"/>
      <use xlink:href="#DejaVuSans-52" x="661.361328"/>
      <use xlink:href="#DejaVuSans-61" x="728.59375"/>
      <use xlink:href="#DejaVuSans-74" x="789.873047"/>
      <use xlink:href="#DejaVuSans-65" x="829.082031"/>
     </g>
    </g>
   </g>
   <g id="line2d_13">
    <path d="M 57.6 307.584 
L 60.285113 304.934513 
L 60.285113 304.76892 
L 60.388386 304.76892 
L 60.698207 304.520531 
L 61.111301 304.520531 
L 61.627669 303.609769 
L 61.93749 303.444176 
L 62.040763 303.195787 
L 62.144037 303.195787 
L 62.144037 303.112991 
L 62.350584 302.450619 
L 62.453858 302.367822 
L 62.557131 302.119433 
L 62.970226 302.119433 
L 62.970226 302.036636 
L 63.280046 301.788247 
L 63.38332 301.374265 
L 63.796414 301.374265 
L 63.796414 301.208672 
L 64.209508 300.794689 
L 64.312782 300.380707 
L 64.519329 300.29791 
L 64.622603 300.215114 
L 64.725876 299.883928 
L 65.138971 299.552742 
L 65.242244 299.055963 
L 65.655338 298.807574 
L 65.655338 298.476388 
L 65.758612 298.476388 
L 66.068433 298.145202 
L 66.068433 298.062406 
L 66.171706 298.062406 
L 66.27498 297.896813 
L 66.481527 297.896813 
L 66.481527 297.814016 
L 67.204442 296.737662 
L 67.514263 296.654866 
L 68.03063 296.406476 
L 68.133904 295.992494 
L 68.546998 295.164529 
L 68.650272 295.164529 
L 68.650272 295.081733 
L 68.753545 294.998936 
L 68.753545 294.833343 
L 68.960093 294.833343 
L 68.960093 294.750547 
L 69.16664 294.66775 
L 69.269913 294.253768 
L 69.373187 294.253768 
L 69.373187 294.088175 
L 69.683008 294.005379 
L 69.786281 293.425803 
L 70.096102 293.343007 
L 70.096102 293.094617 
L 70.302649 292.929025 
L 70.92229 292.515042 
L 71.335385 292.432246 
L 71.335385 292.266653 
L 71.645205 292.266653 
L 71.748479 292.018263 
L 71.851752 292.018263 
L 71.851752 291.85267 
L 71.955026 291.85267 
L 72.161573 291.604281 
L 72.264847 291.438688 
L 72.471394 291.438688 
L 72.471394 290.69352 
L 72.677941 290.69352 
L 72.781215 290.031148 
L 73.091035 289.948352 
L 73.194309 288.871997 
L 73.400856 288.789201 
L 73.400856 288.623608 
L 73.710677 288.623608 
L 73.81395 288.209626 
L 74.020497 288.209626 
L 74.020497 288.126829 
L 74.020497 287.795643 
L 74.433592 287.712847 
L 75.053233 287.547254 
L 75.053233 287.298864 
L 75.672874 287.298864 
L 75.672874 287.133271 
L 75.982695 287.133271 
L 76.085969 286.4709 
L 76.292516 286.139714 
L 76.499063 286.139714 
L 76.602337 285.394546 
L 77.015431 285.146156 
L 77.325252 285.146156 
L 77.325252 284.732174 
L 77.531799 284.566581 
L 77.944893 284.566581 
L 78.048167 283.821413 
L 78.254714 283.738616 
L 78.254714 283.65582 
L 78.461261 283.241837 
L 78.461261 282.910651 
L 78.564534 282.910651 
L 78.977629 282.496669 
L 79.803817 282.413873 
L 79.907091 282.165483 
L 80.320185 282.165483 
L 80.526732 281.99989 
L 80.836553 281.917094 
L 80.939826 281.420315 
L 81.146374 281.337518 
L 81.146374 281.254722 
L 81.352921 281.254722 
L 81.456194 280.426757 
L 81.662741 280.343961 
L 81.766015 280.095571 
L 81.869289 280.012775 
L 81.972562 279.102014 
L 82.179109 279.102014 
L 82.179109 278.936421 
L 82.695477 278.853624 
L 82.798751 278.02566 
L 82.902024 278.02566 
L 83.005298 277.528881 
L 83.108571 277.528881 
L 83.211845 277.032102 
L 83.418392 276.866509 
L 83.418392 276.36973 
L 83.624939 276.36973 
L 83.624939 276.204137 
L 84.347854 276.204137 
L 84.451128 275.955748 
L 84.967496 275.872951 
L 84.967496 275.707358 
L 85.174043 275.707358 
L 85.174043 275.624562 
L 85.277316 275.376172 
L 85.483864 275.376172 
L 85.483864 275.293376 
L 85.793684 275.127783 
L 85.896958 275.127783 
L 86.000231 274.796597 
L 86.206778 274.796597 
L 86.206778 274.548208 
L 86.413326 274.465411 
L 86.82642 273.223464 
L 86.929693 272.726685 
L 87.136241 272.726685 
L 87.239514 272.312703 
L 87.549335 272.064314 
L 87.859156 272.064314 
L 87.962429 271.733128 
L 88.478797 271.650331 
L 88.582071 271.070756 
L 89.098438 270.987959 
L 89.098438 270.822367 
L 89.408259 270.822367 
L 89.511533 270.242791 
L 89.614806 270.242791 
L 89.71808 269.911605 
L 89.821353 269.911605 
L 89.821353 269.083641 
L 90.337721 269.083641 
L 90.440995 268.586862 
L 90.544268 268.586862 
L 90.544268 268.421269 
L 91.16391 268.255676 
L 91.16391 268.007287 
L 91.680278 267.676101 
L 91.886825 267.676101 
L 91.990098 267.096525 
L 92.196645 267.013729 
L 92.196645 266.848136 
L 92.299919 266.848136 
L 92.91956 266.765339 
L 93.022834 265.937375 
L 93.229381 265.937375 
L 93.332655 265.688985 
L 93.745749 265.606189 
L 93.745749 265.440596 
L 94.158843 265.357799 
L 94.262117 265.275003 
L 94.778485 265.192206 
L 94.778485 265.026614 
L 94.881758 265.026614 
L 95.191579 264.778224 
L 95.294853 264.281445 
L 95.398126 264.198649 
L 95.707947 264.198649 
L 95.914494 263.950259 
L 96.637409 263.867463 
L 96.637409 263.784666 
L 96.740682 263.784666 
L 96.843956 263.619074 
L 96.843956 262.956702 
L 97.670145 262.873905 
L 97.773418 262.708312 
L 97.979965 262.625516 
L 97.979965 262.542719 
L 98.496333 262.459923 
L 98.599607 262.128737 
L 98.806154 262.128737 
L 98.909427 261.963144 
L 99.219248 261.963144 
L 99.322522 261.135179 
L 99.735616 260.638401 
L 100.045437 260.555604 
L 100.045437 260.472808 
L 100.251984 260.472808 
L 100.355257 260.224418 
L 100.871625 259.976029 
L 101.078172 259.976029 
L 101.181446 259.644843 
L 101.284719 259.644843 
L 101.387993 259.065268 
L 101.59454 258.982471 
L 101.801087 258.899675 
L 101.801087 258.651285 
L 102.214182 258.568489 
L 102.317455 258.320099 
L 103.04037 258.237303 
L 103.143644 257.906117 
L 103.350191 257.906117 
L 103.453464 257.409338 
L 103.660012 257.409338 
L 103.660012 257.243745 
L 103.866559 257.243745 
L 103.866559 257.160949 
L 103.969832 256.581373 
L 104.073106 256.581373 
L 104.176379 256.167391 
L 104.692747 255.753409 
L 105.002568 255.753409 
L 105.105842 255.091037 
L 105.415662 255.00824 
L 105.415662 254.842648 
L 105.518936 254.842648 
L 105.725483 254.842648 
L 105.725483 254.677055 
L 106.138577 254.594258 
L 106.138577 254.345869 
L 106.448398 254.263072 
L 106.551671 254.097479 
L 106.861492 253.84909 
L 106.964766 253.6007 
L 107.274586 253.517904 
L 107.37786 253.352311 
L 107.997501 253.269515 
L 107.997501 252.855532 
L 108.307322 252.772736 
L 108.307322 252.607143 
L 108.513869 252.607143 
L 108.513869 252.524346 
L 108.617143 252.275957 
L 109.030237 252.19316 
L 109.133511 251.861975 
L 109.236784 251.861975 
L 109.340058 251.613585 
L 109.443331 251.613585 
L 109.546605 250.951213 
L 109.856426 250.951213 
L 109.856426 250.868417 
L 109.959699 250.702824 
L 109.959699 250.454434 
L 110.062973 250.454434 
L 110.26952 250.206045 
L 110.682614 250.123249 
L 110.785888 249.957656 
L 111.508803 249.874859 
L 111.612076 249.62647 
L 111.818623 249.62647 
L 111.921897 248.632912 
L 112.025171 248.632912 
L 112.128444 248.301726 
L 112.541538 248.21893 
L 112.541538 248.053337 
L 113.16118 247.804947 
L 113.471001 247.722151 
L 113.884095 247.639354 
L 114.193916 247.639354 
L 114.297189 247.225372 
L 114.60701 246.894186 
L 114.813557 246.894186 
L 114.813557 246.81139 
L 114.916831 246.397407 
L 115.123378 246.397407 
L 115.226651 245.817832 
L 115.433198 245.817832 
L 115.536472 245.569443 
L 116.259387 245.569443 
L 116.36266 245.238257 
L 116.775755 245.15546 
L 116.775755 244.907071 
L 116.982302 244.907071 
L 116.982302 244.741478 
L 117.292123 244.741478 
L 117.395396 244.493089 
L 117.705217 244.410292 
L 117.705217 244.244699 
L 118.118311 244.161903 
L 118.221585 243.913513 
L 118.841226 243.913513 
L 118.9445 243.251141 
L 119.047773 243.251141 
L 119.151047 243.002752 
L 119.25432 243.002752 
L 119.25432 242.754363 
L 119.564141 242.671566 
L 119.667415 242.58877 
L 120.080509 242.505973 
L 120.080509 242.423177 
L 120.803424 242.34038 
L 120.803424 242.257584 
L 121.009971 242.257584 
L 121.113245 241.678008 
L 121.216518 241.678008 
L 121.216518 241.429619 
L 121.526339 241.429619 
L 121.526339 241.346823 
L 122.249254 240.850044 
L 122.352527 240.270468 
L 123.075442 240.187672 
L 123.178716 240.022079 
L 123.385263 240.022079 
L 123.488537 239.77369 
L 123.695084 239.690893 
L 123.798357 239.276911 
L 123.901631 239.194114 
L 124.004905 238.945725 
L 124.004905 238.780132 
L 124.211452 238.780132 
L 124.211452 238.697336 
L 124.314725 238.614539 
L 124.417999 238.200557 
L 124.72782 238.034964 
L 124.72782 237.869371 
L 124.934367 237.869371 
L 124.934367 237.703778 
L 125.244187 237.620981 
L 125.450735 237.455388 
L 125.554008 237.041406 
L 125.863829 236.95861 
L 125.967102 236.793017 
L 126.380197 236.793017 
L 126.380197 236.71022 
L 126.586744 236.461831 
L 126.586744 236.379034 
L 126.896564 236.296238 
L 126.896564 235.965052 
L 126.999838 235.965052 
L 127.103112 235.882255 
L 127.206385 235.633866 
L 127.309659 235.633866 
L 127.309659 235.385477 
L 127.9293 235.137087 
L 127.9293 235.054291 
L 128.135847 235.054291 
L 128.135847 234.723105 
L 128.239121 234.723105 
L 128.445668 234.640308 
L 128.445668 234.474715 
L 128.548942 234.474715 
L 129.065309 234.060733 
L 129.478404 233.977937 
L 129.581677 233.89514 
L 129.994772 233.89514 
L 129.994772 233.563954 
L 130.304592 233.563954 
L 130.304592 233.481158 
L 130.407866 233.149972 
L 130.614413 233.149972 
L 130.614413 232.984379 
L 130.924234 232.901582 
L 131.027507 232.73599 
L 131.234054 232.73599 
L 131.234054 232.570397 
L 131.440602 232.4876 
L 131.440602 232.156414 
L 131.647149 232.156414 
L 131.750422 231.494042 
L 131.956969 231.494042 
L 132.26679 230.914467 
L 133.092979 230.831671 
L 133.71262 230.417688 
L 133.815894 229.838113 
L 134.125714 229.755317 
L 134.642082 229.589724 
L 134.745356 229.589724 
L 134.848629 228.844555 
L 135.261724 228.761759 
L 135.261724 228.347777 
L 136.60428 227.188626 
L 137.533742 227.105829 
L 137.740289 226.85744 
L 137.740289 226.774644 
L 138.773025 226.774644 
L 138.773025 226.526254 
L 138.876298 226.526254 
L 138.979572 226.360661 
L 138.979572 226.195068 
L 139.082846 226.195068 
L 139.186119 225.781086 
L 139.186119 225.532697 
L 139.289393 225.532697 
L 139.392666 225.4499 
L 139.392666 225.284307 
L 139.599213 225.284307 
L 139.599213 225.035918 
L 140.012308 225.035918 
L 140.012308 224.787528 
L 140.322128 224.621935 
L 140.425402 224.373546 
L 140.838496 224.290749 
L 140.838496 224.125156 
L 141.458138 224.04236 
L 141.561411 223.628378 
L 141.767958 223.545581 
L 141.974505 223.462785 
L 142.181053 223.297192 
L 142.284326 223.214395 
L 142.3876 222.800413 
L 143.110515 222.717616 
L 143.213788 222.552024 
L 143.523609 222.552024 
L 143.523609 222.220838 
L 143.83343 222.138041 
L 143.936703 221.806855 
L 144.866165 221.724059 
L 144.969439 221.641262 
L 145.485807 221.641262 
L 145.485807 221.475669 
L 145.692354 221.475669 
L 145.795628 221.144484 
L 145.898901 221.144484 
L 146.002175 220.316519 
L 146.72509 220.233722 
L 146.72509 220.068129 
L 146.828363 220.068129 
L 146.931637 219.985333 
L 147.241457 219.985333 
L 147.344731 219.736943 
L 147.654552 219.736943 
L 147.654552 219.654147 
L 147.757825 219.571351 
L 147.964372 219.571351 
L 148.067646 219.157368 
L 148.274193 219.157368 
L 148.274193 219.074572 
L 148.377467 218.826182 
L 148.48074 218.826182 
L 148.48074 218.743386 
L 148.997108 218.329403 
L 149.61675 218.246607 
L 149.720023 217.749828 
L 149.823297 217.749828 
L 149.823297 217.584235 
L 150.959306 217.501439 
L 151.06258 217.170253 
L 151.269127 217.087456 
L 151.3724 216.921863 
L 151.888768 216.839067 
L 151.888768 216.507881 
L 151.992042 216.507881 
L 152.301862 216.342288 
L 152.301862 216.011102 
L 152.611683 215.928306 
L 152.611683 215.845509 
L 152.714957 215.845509 
L 153.334598 215.59712 
L 153.334598 215.431527 
L 153.541145 215.431527 
L 153.644419 215.100341 
L 153.954239 214.603562 
L 154.470607 214.437969 
L 154.573881 214.18958 
L 154.780428 214.106783 
L 154.986975 213.94119 
L 155.606617 213.858394 
L 155.70989 213.113226 
L 156.019711 212.78204 
L 156.019711 212.699243 
L 156.122984 212.699243 
L 156.639352 212.368057 
L 156.845899 212.368057 
L 156.949173 212.036872 
L 157.258994 212.036872 
L 157.258994 211.954075 
L 157.362267 211.540093 
L 157.568814 211.457296 
L 157.672088 211.043314 
L 157.981909 211.043314 
L 157.981909 210.960517 
L 158.188456 210.877721 
L 158.188456 210.712128 
L 158.395003 210.712128 
L 158.808097 210.298146 
L 159.117918 210.298146 
L 159.221191 209.96696 
L 159.427739 209.801367 
L 160.150654 209.71857 
L 160.253927 209.552977 
L 160.563748 209.304588 
L 160.563748 209.138995 
L 160.770295 208.890606 
L 160.770295 208.642216 
L 160.873569 208.642216 
L 160.976842 208.55942 
L 160.976842 208.393827 
L 161.183389 208.393827 
L 161.183389 208.145437 
L 161.286663 208.145437 
L 161.596484 207.979844 
L 162.216125 207.897048 
L 162.319398 207.234676 
L 162.629219 207.069083 
L 162.732493 206.655101 
L 163.042313 206.572304 
L 163.042313 206.323915 
L 163.145587 206.323915 
L 163.558681 205.992729 
L 163.661955 205.74434 
L 163.765228 205.74434 
L 163.765228 205.49595 
L 164.178323 205.330357 
L 164.178323 205.247561 
L 164.281596 205.247561 
L 164.488143 205.164764 
L 164.488143 204.502393 
L 165.314332 204.171207 
L 165.8307 204.08841 
L 165.8307 203.922817 
L 166.140521 203.840021 
L 166.140521 203.757224 
L 166.347068 203.757224 
L 166.450341 203.426039 
L 166.553615 203.426039 
L 166.553615 203.260446 
L 166.656888 203.260446 
L 166.966709 203.260446 
L 167.069983 202.846463 
L 167.379803 202.846463 
L 167.379803 202.763667 
L 167.379803 202.598074 
L 167.689624 202.515277 
L 167.689624 202.432481 
L 167.896171 202.432481 
L 167.896171 202.266888 
L 168.515813 202.184091 
L 168.619086 202.018499 
L 168.928907 201.935702 
L 168.928907 201.687313 
L 169.03218 201.687313 
L 169.238728 201.52172 
L 169.342001 201.107737 
L 169.548548 200.859348 
L 169.548548 200.693755 
L 169.755095 200.528162 
L 170.271463 200.445366 
L 170.271463 200.362569 
L 170.374737 200.362569 
L 170.891105 200.279773 
L 170.891105 200.196976 
L 171.200925 200.196976 
L 171.200925 200.031383 
L 171.717293 199.948587 
L 171.820567 199.782994 
L 172.027114 199.782994 
L 172.027114 199.534604 
L 172.130388 199.534604 
L 172.336935 199.534604 
L 172.440208 199.120622 
L 172.646755 199.120622 
L 172.646755 198.955029 
L 172.956576 198.955029 
L 173.05985 198.541047 
L 173.163123 198.541047 
L 173.163123 198.375454 
L 173.679491 198.292657 
L 173.782765 197.961471 
L 174.092585 197.878675 
L 174.092585 197.795878 
L 174.402406 197.713082 
L 174.402406 197.547489 
L 174.50568 197.547489 
L 174.712227 197.216303 
L 174.8155 196.802321 
L 175.125321 196.719524 
L 175.125321 196.471135 
L 175.331868 196.471135 
L 175.331868 196.222746 
L 175.435142 196.222746 
L 175.538415 196.057153 
L 175.848236 196.057153 
L 175.95151 195.64317 
L 177.190792 195.560374 
L 177.70716 195.146391 
L 177.810434 194.815205 
L 178.843169 194.732409 
L 179.049717 194.48402 
L 179.256264 194.401223 
L 179.359537 193.904444 
L 179.462811 193.904444 
L 179.462811 193.656055 
L 179.772632 193.573258 
L 179.875905 193.407665 
L 179.979179 193.324869 
L 179.979179 193.159276 
L 180.392273 193.07648 
L 180.495547 192.82809 
L 180.805367 192.662497 
L 180.805367 192.579701 
L 181.011914 192.414108 
L 181.115188 191.834533 
L 181.218462 191.834533 
L 181.218462 191.503347 
L 181.321735 191.503347 
L 181.838103 191.42055 
L 181.838103 191.337754 
L 182.664291 191.337754 
L 182.767565 191.089364 
L 182.974112 191.089364 
L 182.974112 190.923771 
L 183.387206 190.840975 
L 183.387206 190.509789 
L 183.593754 190.509789 
L 183.697027 190.2614 
L 183.903574 190.2614 
L 184.006848 189.516231 
L 184.419942 189.516231 
L 184.419942 189.433435 
L 184.626489 189.350638 
L 184.626489 189.019452 
L 184.93631 189.019452 
L 185.039584 188.522674 
L 185.142857 188.439877 
L 185.659225 188.025895 
L 185.659225 187.860302 
L 185.969046 187.860302 
L 186.072319 187.280727 
L 186.278866 187.280727 
L 186.278866 186.866744 
L 186.588687 186.866744 
L 186.588687 186.369965 
L 186.795234 186.369965 
L 186.898508 186.121576 
L 187.621423 186.038779 
L 187.724696 185.873187 
L 187.82797 185.873187 
L 187.931243 185.376408 
L 188.344338 185.045222 
L 188.550885 185.045222 
L 188.550885 184.879629 
L 188.757432 184.879629 
L 188.757432 184.631239 
L 189.067253 184.548443 
L 189.2738 184.300054 
L 189.377073 184.051664 
L 189.790168 183.968868 
L 189.893441 183.472089 
L 190.822903 183.389292 
L 190.822903 183.306496 
L 191.235998 183.306496 
L 191.339271 182.97531 
L 191.752366 182.892514 
L 192.062186 182.561328 
L 192.062186 182.395735 
L 192.268733 182.395735 
L 192.268733 182.230142 
L 192.372007 182.230142 
L 192.578554 182.230142 
L 192.578554 181.898956 
L 192.785101 181.898956 
L 192.785101 181.816159 
L 192.785101 181.650566 
L 193.094922 181.484974 
L 193.61129 181.236584 
L 193.714563 180.905398 
L 193.817837 180.657009 
L 194.230931 180.574212 
L 194.230931 180.491416 
L 194.540752 180.408619 
L 194.540752 180.325823 
L 195.36694 180.243026 
L 195.36694 180.16023 
L 195.780035 179.829044 
L 195.780035 179.663451 
L 196.399676 179.580655 
L 196.399676 179.497858 
L 196.50295 179.497858 
L 196.709497 179.415062 
L 196.81277 179.166672 
L 197.225865 178.835486 
L 197.329138 178.587097 
L 197.742233 178.587097 
L 197.742233 178.504301 
L 197.742233 178.255911 
L 198.465147 178.255911 
L 198.465147 178.090318 
L 199.188062 178.007522 
L 199.291336 177.924725 
L 199.807704 177.924725 
L 199.807704 177.676336 
L 200.633892 177.593539 
L 200.737166 177.34515 
L 201.253534 177.262353 
L 201.356807 176.931168 
L 201.460081 176.931168 
L 201.460081 176.848371 
L 201.666628 176.682778 
L 201.769902 176.599982 
L 202.182996 176.599982 
L 202.182996 176.434389 
L 202.492817 176.351592 
L 202.59609 176.185999 
L 202.699364 175.523628 
L 202.802637 175.440831 
L 202.905911 175.192442 
L 203.319005 175.109645 
L 203.319005 174.944052 
L 203.525552 174.944052 
L 203.732099 174.778459 
L 203.835373 174.53007 
L 203.835373 174.116088 
L 204.455014 174.116088 
L 204.558288 173.702105 
L 204.661562 173.702105 
L 204.661562 173.536512 
L 205.177929 173.453716 
L 205.281203 173.12253 
L 205.694297 173.12253 
L 205.694297 172.956937 
L 206.107392 172.87414 
L 206.210665 172.708548 
L 206.520486 172.708548 
L 206.520486 172.625751 
L 206.727033 172.460158 
L 206.727033 172.294565 
L 207.243401 172.294565 
L 207.346674 171.963379 
L 207.656495 171.797786 
L 207.759769 171.4666 
L 207.966316 171.383804 
L 208.069589 170.721432 
L 208.37941 170.473043 
L 208.37941 170.05906 
L 208.895778 169.976264 
L 209.102325 169.645078 
L 209.412146 169.562282 
L 209.412146 169.479485 
L 209.618693 169.231096 
L 210.444881 169.148299 
L 210.444881 168.982706 
L 210.961249 168.89991 
L 210.961249 168.734317 
L 211.167796 168.734317 
L 211.167796 168.485927 
L 211.27107 168.485927 
L 211.993985 168.237538 
L 211.993985 168.071945 
L 212.303806 168.071945 
L 212.303806 167.989149 
L 212.407079 167.906352 
L 212.923447 167.823556 
L 212.923447 167.740759 
L 213.233268 167.740759 
L 213.336541 167.409573 
L 213.543088 167.409573 
L 213.543088 167.326777 
L 213.646362 167.161184 
L 214.369277 167.078387 
L 214.472551 166.829998 
L 214.679098 166.747202 
L 214.782371 166.498812 
L 214.988918 166.498812 
L 214.988918 166.333219 
L 215.402013 166.250423 
L 215.505286 166.08483 
L 216.228201 166.002033 
L 216.228201 165.588051 
L 216.641296 165.505254 
L 216.847843 165.422458 
L 216.847843 165.256865 
L 217.467484 165.174069 
L 217.570758 164.842883 
L 218.087126 164.760086 
L 218.190399 164.263307 
L 218.396946 164.180511 
L 218.396946 164.014918 
L 219.223135 163.932122 
L 219.326408 163.683732 
L 219.739503 163.600936 
L 220.152597 163.352546 
L 220.875512 163.26975 
L 220.978785 163.104157 
L 221.185333 163.02136 
L 221.288606 162.855767 
L 221.7017 162.441785 
L 221.804974 161.779413 
L 222.631163 161.531024 
L 222.631163 161.034245 
L 223.14753 161.034245 
L 223.250804 160.703059 
L 223.457351 160.45467 
L 223.663898 160.45467 
L 223.663898 160.371873 
L 223.973719 160.20628 
L 224.076992 160.20628 
L 224.076992 159.875094 
L 224.799907 159.792298 
L 224.903181 159.378316 
L 225.522822 159.295519 
L 225.626096 159.129926 
L 225.72937 159.129926 
L 225.935917 158.964333 
L 226.349011 158.964333 
L 226.349011 158.881537 
L 226.555558 158.467554 
L 227.071926 158.384758 
L 227.1752 158.219165 
L 227.48502 158.219165 
L 227.588294 157.63959 
L 227.691567 157.63959 
L 227.794841 157.3912 
L 227.898115 157.308404 
L 228.414482 157.225607 
L 228.414482 156.977218 
L 228.827577 156.894421 
L 228.827577 156.811625 
L 228.93085 156.811625 
L 229.240671 156.728828 
L 229.240671 156.480439 
L 229.860312 156.397643 
L 229.860312 156.314846 
L 231.099595 156.23205 
L 231.202869 155.900864 
L 231.615963 155.900864 
L 231.615963 155.735271 
L 231.82251 155.735271 
L 231.82251 155.486881 
L 231.925784 155.486881 
L 232.751972 155.404085 
L 233.26834 155.072899 
L 233.578161 154.990103 
L 233.578161 154.82451 
L 233.784708 154.82451 
L 233.991255 154.658917 
L 234.610896 154.57612 
L 234.71417 154.244934 
L 235.127264 154.162138 
L 235.127264 154.079341 
L 235.540359 154.079341 
L 235.643632 153.913748 
L 236.573094 153.665359 
L 236.573094 153.499766 
L 236.676368 153.499766 
L 236.779641 153.41697 
L 236.882915 153.16858 
L 236.986189 153.16858 
L 236.986189 153.002987 
L 237.399283 152.920191 
L 237.399283 152.837394 
L 237.502556 152.837394 
L 237.60583 152.589005 
L 237.915651 152.506208 
L 238.018924 151.76104 
L 238.535292 151.595447 
L 238.535292 151.429854 
L 238.741839 151.429854 
L 238.741839 151.264261 
L 238.948386 151.264261 
L 238.948386 150.933075 
L 239.464754 150.850279 
L 239.568028 150.436297 
L 239.671301 150.436297 
L 239.671301 149.856721 
L 239.981122 149.773925 
L 240.187669 149.608332 
L 240.187669 149.442739 
L 240.394216 149.442739 
L 240.394216 149.359943 
L 240.49749 149.028757 
L 240.704037 148.94596 
L 240.910584 148.697571 
L 241.426952 148.614774 
L 241.530226 148.531978 
L 241.633499 148.200792 
L 242.253141 148.117995 
L 242.253141 148.035199 
L 242.356414 148.035199 
L 242.769508 148.035199 
L 242.769508 147.78681 
L 243.079329 147.78681 
L 243.079329 147.704013 
L 243.595697 147.372827 
L 243.698971 147.372827 
L 243.698971 147.207234 
L 244.318612 147.124438 
L 244.318612 146.876048 
L 244.628433 146.876048 
L 244.83498 146.37927 
L 245.248074 146.37927 
L 245.248074 146.213677 
L 245.557895 146.213677 
L 245.557895 146.13088 
L 246.177536 145.965287 
L 246.177536 145.882491 
L 246.59063 145.799694 
L 248.03646 145.220119 
L 248.03646 145.054526 
L 248.656102 144.97173 
L 248.656102 144.806137 
L 249.379017 144.640544 
L 249.48229 144.060968 
L 249.585564 144.060968 
L 249.585564 143.812579 
L 249.895385 143.812579 
L 249.998658 143.398597 
L 250.101932 143.398597 
L 250.101932 143.3158 
L 250.205205 143.233004 
L 250.515026 143.150207 
L 250.515026 143.067411 
L 250.824847 142.901818 
L 250.92812 142.653428 
L 251.031394 142.653428 
L 251.031394 142.487835 
L 251.341215 142.405039 
L 251.341215 142.322242 
L 251.444488 142.322242 
L 251.754309 142.073853 
L 252.06413 141.991057 
L 252.06413 141.742667 
L 253.303412 141.659871 
L 253.303412 140.997499 
L 253.50996 140.997499 
L 253.50996 140.914702 
L 253.613233 140.252331 
L 254.026327 140.169534 
L 254.026327 140.086738 
L 254.129601 140.086738 
L 254.336148 139.838348 
L 255.059063 139.755552 
L 255.162337 139.589959 
L 256.091799 139.507162 
L 256.091799 139.341569 
L 256.195072 139.341569 
L 256.608167 139.258773 
L 256.71144 139.09318 
L 257.537629 139.010384 
L 257.537629 138.927587 
L 257.640902 138.927587 
L 257.744176 138.761994 
L 258.053997 138.679198 
L 258.15727 138.513605 
L 258.570364 138.430808 
L 258.570364 138.348012 
L 259.293279 138.265215 
L 259.293279 138.182419 
L 259.809647 138.099622 
L 259.912921 137.934029 
L 260.326015 137.851233 
L 260.429289 137.271658 
L 260.532562 137.106065 
L 260.945656 136.609286 
L 261.04893 136.609286 
L 261.04893 136.2781 
L 261.152204 136.2781 
L 261.255477 136.195303 
L 261.565298 136.112507 
L 261.565298 136.029711 
L 261.668571 136.029711 
L 261.771845 135.864118 
L 262.391486 135.781321 
L 262.49476 135.118949 
L 262.907854 135.036153 
L 262.907854 134.953356 
L 263.424222 134.953356 
L 263.424222 134.787763 
L 263.527496 134.787763 
L 263.837316 134.704967 
L 264.353684 134.622171 
L 264.353684 134.456578 
L 264.456958 134.456578 
L 264.663505 134.373781 
L 264.766778 133.877002 
L 264.973326 133.794206 
L 265.076599 133.46302 
L 265.592967 133.46302 
L 265.696241 133.131834 
L 265.902788 133.049038 
L 266.006061 132.966241 
L 266.109335 132.386666 
L 266.419156 132.303869 
L 266.419156 132.221073 
L 267.658438 132.138276 
L 267.658438 132.05548 
L 267.968259 131.889887 
L 268.691174 131.80709 
L 268.691174 131.724294 
L 268.794448 131.724294 
L 269.620636 131.475905 
L 269.620636 131.227515 
L 270.653372 131.144719 
L 270.653372 130.979126 
L 270.859919 130.979126 
L 270.859919 130.896329 
L 271.066466 130.813533 
L 271.066466 130.64794 
L 271.376287 130.565143 
L 271.376287 130.233958 
L 271.582834 130.068365 
L 271.582834 129.737179 
L 271.789381 129.737179 
L 271.789381 129.488789 
L 272.202475 129.488789 
L 272.202475 129.405993 
L 272.92539 128.826418 
L 273.235211 128.826418 
L 273.235211 128.743621 
L 273.338485 128.412435 
L 273.545032 128.329639 
L 273.545032 127.998453 
L 274.164673 127.915656 
L 274.164673 127.58447 
L 274.577767 127.253285 
L 275.197409 127.170488 
L 275.300682 127.087692 
L 275.300682 126.673709 
L 275.403956 126.673709 
L 275.81705 126.42532 
L 275.81705 126.342523 
L 275.920324 126.342523 
L 276.333418 126.094134 
L 276.643239 125.928541 
L 276.643239 125.845745 
L 277.26288 125.762948 
L 277.469427 125.514559 
L 277.882522 125.514559 
L 277.882522 125.348966 
L 278.192342 125.266169 
L 278.192342 125.183373 
L 278.502163 125.100576 
L 278.502163 125.01778 
L 279.225078 125.01778 
L 279.328352 124.603797 
L 280.361087 124.521001 
L 280.361087 124.272612 
L 280.567634 124.272612 
L 280.670908 124.024222 
L 280.774182 124.024222 
L 280.774182 123.858629 
L 281.187276 123.775833 
L 281.187276 123.693036 
L 281.60037 123.61024 
L 281.703644 123.36185 
L 282.116738 123.36185 
L 282.116738 123.196257 
L 282.942927 123.196257 
L 283.0462 122.947868 
L 284.078936 122.865072 
L 284.49203 122.699479 
L 285.214945 122.616682 
L 285.318219 122.368293 
L 285.93786 122.285496 
L 286.041134 122.119903 
L 286.144407 122.119903 
L 286.144407 121.95431 
L 286.557501 121.871514 
L 286.557501 121.788717 
L 286.970596 121.705921 
L 287.073869 121.623124 
L 287.073869 121.457532 
L 287.280416 121.457532 
L 287.38369 121.126346 
L 287.900058 121.126346 
L 288.003331 120.54677 
L 288.209879 120.463974 
L 288.726246 120.463974 
L 288.726246 120.215584 
L 288.82952 120.215584 
L 289.345888 119.801602 
L 289.758982 119.718806 
L 289.758982 119.553213 
L 290.068803 119.553213 
L 290.068803 119.470416 
L 290.27535 119.304823 
L 290.27535 119.13923 
L 291.101538 119.056434 
L 291.204812 118.559655 
L 291.308086 118.559655 
L 291.308086 118.311266 
L 292.031001 118.228469 
L 292.134274 118.145673 
L 292.547368 118.062876 
L 292.547368 117.98008 
L 292.753916 117.98008 
L 292.857189 117.648894 
L 293.580104 117.566097 
L 293.580104 117.483301 
L 294.199746 117.483301 
L 294.199746 117.400504 
L 294.406293 117.317708 
L 294.406293 117.152115 
L 294.61284 117.152115 
L 294.716113 116.738133 
L 294.92266 116.738133 
L 294.92266 116.57254 
L 295.439028 116.489743 
L 295.439028 116.32415 
L 295.645575 116.32415 
L 295.748849 116.075761 
L 296.161943 115.992964 
L 296.265217 115.827371 
L 296.36849 115.827371 
L 296.36849 115.661779 
L 296.575038 115.661779 
L 296.575038 115.496186 
L 296.678311 115.496186 
L 297.194679 114.337035 
L 297.401226 114.337035 
L 297.5045 113.923053 
L 297.607773 113.840256 
L 297.607773 113.674663 
L 297.917594 113.591867 
L 298.020868 113.343477 
L 298.330688 113.343477 
L 298.537235 112.929495 
L 298.537235 112.763902 
L 298.743783 112.763902 
L 298.847056 112.515513 
L 299.156877 112.515513 
L 299.363424 112.34992 
L 299.466698 112.267123 
L 299.673245 112.267123 
L 299.776518 111.604751 
L 300.086339 111.604751 
L 300.189612 111.356362 
L 300.499433 111.356362 
L 300.499433 111.190769 
L 300.602707 111.190769 
L 300.912527 110.859583 
L 301.428895 110.776787 
L 301.428895 110.69399 
L 302.771452 110.69399 
L 302.977999 110.362804 
L 303.391093 110.362804 
L 303.391093 110.280008 
L 303.59764 110.114415 
L 303.804187 110.114415 
L 304.010735 109.948822 
L 304.217282 109.948822 
L 304.217282 109.866025 
L 304.320555 109.783229 
L 304.630376 109.783229 
L 304.73365 109.617636 
L 305.250017 109.53484 
L 305.250017 109.369247 
L 305.869659 109.28645 
L 306.076206 109.203654 
L 306.179479 108.955264 
L 306.386027 108.872468 
L 306.4893 108.292893 
L 306.902394 108.210096 
L 306.902394 108.1273 
L 307.005668 108.1273 
L 307.212215 107.961707 
L 307.831857 107.87891 
L 307.831857 107.796114 
L 307.93513 107.796114 
L 308.348224 107.796114 
L 308.451498 107.299335 
L 308.554772 107.133742 
L 308.554772 106.968149 
L 308.967866 106.885352 
L 308.967866 106.802556 
L 309.38096 106.71976 
L 309.38096 106.636963 
L 310.310422 106.554167 
L 310.310422 106.47137 
L 310.413696 106.47137 
L 310.620243 106.222981 
L 311.652979 106.140184 
L 311.652979 106.057388 
L 311.859526 106.057388 
L 311.859526 105.808998 
L 312.066073 105.643405 
L 312.27262 105.560609 
L 312.788988 105.31222 
L 312.892261 105.146627 
L 313.098809 105.146627 
L 313.098809 104.981034 
L 313.305356 104.815441 
L 313.305356 104.649848 
L 314.131544 104.567051 
L 314.234818 104.235865 
L 314.338091 104.153069 
L 314.647912 104.153069 
L 314.647912 103.987476 
L 314.751186 103.987476 
L 315.16428 103.821883 
L 315.16428 103.573494 
L 315.474101 103.573494 
L 315.474101 103.407901 
L 315.783921 103.325104 
L 315.990468 103.159511 
L 315.990468 102.993918 
L 316.506836 102.911122 
L 316.816657 102.662732 
L 316.816657 102.497139 
L 317.333025 102.497139 
L 317.436298 102.331547 
L 317.746119 102.331547 
L 317.746119 102.24875 
L 317.849393 102.165954 
L 317.849393 101.917564 
L 318.469034 101.917564 
L 318.882128 101.751971 
L 319.295223 101.751971 
L 319.295223 101.586378 
L 320.431232 101.503582 
L 320.431232 101.420785 
L 320.9476 101.337989 
L 321.25742 101.255192 
L 321.360694 101.006803 
L 321.567241 100.924007 
L 321.567241 100.592821 
L 321.670515 100.592821 
L 321.773788 100.427228 
L 322.70325 100.344431 
L 322.909798 100.096042 
L 323.219618 100.013245 
L 323.219618 99.847652 
L 323.632713 99.764856 
L 323.735986 99.599263 
L 324.665448 99.516467 
L 325.28509 99.102484 
L 325.491637 99.102484 
L 325.491637 98.936891 
L 325.698184 98.936891 
L 326.008005 98.688502 
L 326.008005 98.522909 
L 326.937467 98.440112 
L 326.937467 98.357316 
L 327.247287 98.274519 
L 327.350561 98.02613 
L 327.557108 97.943334 
L 327.660382 97.694944 
L 327.763655 97.694944 
L 327.763655 97.446555 
L 328.383297 97.363758 
L 328.48657 97.032572 
L 328.589844 97.032572 
L 328.589844 96.866979 
L 329.62258 96.452997 
L 329.62258 96.287404 
L 329.9324 96.287404 
L 330.138947 96.121811 
L 331.274957 96.039015 
L 331.274957 95.707829 
L 331.791324 95.707829 
L 331.791324 95.459439 
L 332.101145 95.459439 
L 332.204419 95.045457 
L 332.514239 95.045457 
L 332.617513 94.714271 
L 332.82406 94.714271 
L 332.82406 94.383085 
L 332.927334 94.383085 
L 333.340428 93.637917 
L 333.650249 93.555121 
L 333.650249 93.472324 
L 333.753522 93.472324 
L 334.063343 92.975545 
L 334.476437 92.892749 
L 334.476437 92.809952 
L 334.992805 92.727156 
L 335.096079 92.561563 
L 335.199352 92.561563 
L 335.199352 92.147581 
L 335.71572 92.064784 
L 335.71572 91.816395 
L 335.818994 91.816395 
L 336.232088 91.733598 
L 336.335361 91.485209 
L 336.748456 91.402412 
L 336.748456 91.236819 
L 337.058276 91.154023 
L 337.677918 90.740041 
L 338.813927 90.657244 
L 339.123748 90.574448 
L 339.330295 90.160465 
L 339.536842 90.077669 
L 339.743389 89.912076 
L 340.776125 89.829279 
L 340.879398 89.58089 
L 341.085946 89.001315 
L 341.808861 88.918518 
L 341.808861 88.752925 
L 342.118681 88.752925 
L 342.118681 88.670129 
L 342.325228 88.504536 
L 342.531776 88.504536 
L 342.531776 88.421739 
L 342.635049 88.338943 
L 342.841596 88.338943 
L 342.841596 88.256146 
L 342.94487 88.090553 
L 343.254691 88.007757 
L 343.254691 87.759368 
L 343.564511 87.759368 
L 344.080879 87.510978 
L 344.184153 87.428182 
L 344.287426 87.096996 
L 344.597247 87.014199 
L 344.597247 86.931403 
L 344.907068 86.931403 
L 345.010341 86.51742 
L 345.733256 86.51742 
L 345.733256 86.351828 
L 346.249624 86.269031 
L 346.352898 86.103438 
L 346.765992 86.103438 
L 346.869265 85.855049 
L 347.075813 85.689456 
L 347.798728 85.606659 
L 347.902001 85.523863 
L 348.108548 85.523863 
L 348.108548 85.35827 
L 348.211822 85.35827 
L 348.521643 85.35827 
L 348.521643 85.275473 
L 348.624916 85.192677 
L 348.831463 85.192677 
L 349.03801 84.944287 
L 349.03801 84.613102 
L 349.141284 84.613102 
L 349.244558 84.447509 
L 349.244558 84.199119 
L 349.657652 84.199119 
L 349.657652 84.116323 
L 351.516576 83.536747 
L 351.516576 83.453951 
L 351.61985 83.453951 
L 351.723123 83.371155 
L 352.136217 83.371155 
L 352.136217 83.205562 
L 352.446038 82.874376 
L 353.478774 82.791579 
L 353.582047 82.54319 
L 353.891868 82.460393 
L 353.995142 82.2948 
L 354.718057 82.2948 
L 354.718057 82.046411 
L 355.234425 81.549632 
L 355.234425 81.466836 
L 356.163887 81.384039 
L 356.576981 81.218446 
L 356.680254 80.721667 
L 356.783528 80.721667 
L 356.783528 80.473278 
L 356.990075 80.473278 
L 357.093349 79.976499 
L 357.093349 79.893703 
L 357.816264 79.810906 
L 357.816264 79.72811 
L 357.919537 79.72811 
L 358.848999 79.645313 
L 358.952273 79.47972 
L 359.262094 79.396924 
L 359.365367 78.900145 
L 359.985009 78.817349 
L 360.088282 78.651756 
L 361.327565 78.568959 
L 361.430839 78.237773 
L 361.843933 78.154977 
L 361.843933 78.07218 
L 362.463574 77.989384 
L 362.463574 77.906587 
L 362.876669 77.658198 
L 362.979942 77.658198 
L 363.083216 77.409809 
L 363.289763 77.409809 
L 363.393036 77.161419 
L 363.702857 77.078623 
L 363.702857 76.995826 
L 364.115951 76.995826 
L 364.115951 76.830233 
L 365.045414 76.333454 
L 365.974876 76.250658 
L 365.974876 76.167861 
L 366.38797 75.919472 
L 367.007611 75.836676 
L 367.110885 75.50549 
L 367.730526 75.422693 
L 367.937073 75.339897 
L 367.937073 75.091507 
L 368.040347 75.091507 
L 368.246894 75.091507 
L 368.453441 74.925914 
L 368.659988 74.843118 
L 369.27963 74.429136 
L 369.486177 74.429136 
L 369.486177 74.263543 
L 370.312366 74.180746 
L 370.312366 74.09795 
L 370.518913 73.932357 
L 370.932007 73.84956 
L 370.932007 73.683967 
L 371.241828 73.683967 
L 371.241828 73.518374 
L 371.551648 73.435578 
L 371.654922 73.187189 
L 371.758195 73.187189 
L 372.068016 72.938799 
L 372.274563 72.938799 
L 372.377837 72.607613 
L 372.790931 72.607613 
L 372.790931 72.524817 
L 372.790931 72.359224 
L 373.100752 72.276427 
L 373.204025 72.193631 
L 373.720393 72.110834 
L 373.720393 71.945241 
L 374.236761 71.862445 
L 374.340035 71.696852 
L 374.649855 71.614056 
L 374.649855 71.531259 
L 375.476044 71.531259 
L 375.476044 71.448463 
L 375.579318 71.28287 
L 375.785865 71.28287 
L 375.785865 71.200073 
L 375.992412 71.117277 
L 376.302233 71.117277 
L 376.405506 70.786091 
L 377.231695 70.703294 
L 377.748062 70.289312 
L 378.780798 70.289312 
L 378.884072 70.040923 
L 379.090619 70.040923 
L 379.090619 69.87533 
L 379.297166 69.87533 
L 379.297166 69.62694 
L 379.606987 69.544144 
L 379.606987 69.461347 
L 380.329902 69.378551 
L 380.329902 69.212958 
L 381.052817 69.130161 
L 381.052817 68.964568 
L 381.362637 68.881772 
L 381.362637 68.798975 
L 381.569184 68.798975 
L 381.569184 68.716179 
L 382.188826 68.550586 
L 382.808467 68.46779 
L 382.911741 68.302197 
L 383.118288 68.302197 
L 383.118288 68.136604 
L 383.737929 68.136604 
L 383.944477 67.639825 
L 384.151024 67.391435 
L 384.151024 67.225843 
L 384.254297 67.225843 
L 384.564118 67.225843 
L 384.564118 67.143046 
L 384.564118 66.977453 
L 384.667392 66.977453 
L 384.770665 66.894657 
L 385.287033 66.81186 
L 385.287033 66.729064 
L 385.803401 66.149488 
L 386.216495 66.066692 
L 386.319769 65.818303 
L 386.423042 65.735506 
L 386.93941 65.65271 
L 386.93941 65.569913 
L 387.042684 65.569913 
L 387.352504 65.238727 
L 387.352504 65.073134 
L 387.455778 65.073134 
L 387.662325 64.990338 
L 387.662325 64.824745 
L 388.281966 64.824745 
L 388.281966 64.741948 
L 388.488514 64.576355 
L 388.901608 64.327966 
L 389.211429 64.24517 
L 389.314702 64.079577 
L 389.727796 64.079577 
L 389.727796 63.831187 
L 390.140891 63.831187 
L 390.450711 63.500001 
L 390.967079 63.417205 
L 390.967079 63.168815 
L 391.483447 63.168815 
L 391.483447 62.920426 
L 391.999815 62.920426 
L 393.032551 62.423647 
L 393.652192 62.340851 
L 393.755466 62.258054 
L 394.16856 62.175258 
L 394.684928 61.678479 
L 394.891475 61.678479 
L 395.201296 61.43009 
L 395.61439 61.347293 
L 396.440578 60.684921 
L 396.647126 60.684921 
L 397.06022 60.353735 
L 397.576588 60.188142 
L 397.679861 60.022549 
L 398.609323 59.939753 
L 399.125691 59.856957 
L 399.228965 59.608567 
L 400.055153 59.608567 
L 400.881342 59.194585 
L 400.881342 59.028992 
L 401.70753 58.36662 
L 402.223898 58.283824 
L 402.327172 57.952638 
L 402.946813 57.869841 
L 403.050087 57.455859 
L 403.463181 57.373062 
L 403.876275 57.207469 
L 403.876275 57.041877 
L 405.631926 56.213912 
L 405.7352 56.213912 
L 405.838473 55.882726 
L 406.148294 55.799929 
L 414.72 54.144 
L 414.72 54.144 
" clip-path="url(#pb6a124bf16)" style="fill: none; stroke: #1f77b4; stroke-width: 1.5; stroke-linecap: square"/>
   </g>
   <g id="line2d_14">
    <path d="M 57.6 307.584 
L 414.72 54.144 
" clip-path="url(#pb6a124bf16)" style="fill: none; stroke-dasharray: 5.55,2.4; stroke-dashoffset: 0; stroke: #000000; stroke-width: 1.5"/>
   </g>
   <g id="patch_3">
    <path d="M 57.6 307.584 
L 57.6 41.472 
" style="fill: none; stroke: #000000; stroke-width: 0.8; stroke-linejoin: miter; stroke-linecap: square"/>
   </g>
   <g id="patch_4">
    <path d="M 414.72 307.584 
L 414.72 41.472 
" style="fill: none; stroke: #000000; stroke-width: 0.8; stroke-linejoin: miter; stroke-linecap: square"/>
   </g>
   <g id="patch_5">
    <path d="M 57.6 307.584 
L 414.72 307.584 
" style="fill: none; stroke: #000000; stroke-width: 0.8; stroke-linejoin: miter; stroke-linecap: square"/>
   </g>
   <g id="patch_6">
    <path d="M 57.6 41.472 
L 414.72 41.472 
" style="fill: none; stroke: #000000; stroke-width: 0.8; stroke-linejoin: miter; stroke-linecap: square"/>
   </g>
   <g id="text_15">
    <!-- Receiver Operating Characteristic -->
    <g transform="translate(134.656875 35.472) scale(0.12 -0.12)">
     <defs>
      <path id="DejaVuSans-63" d="M 3122 3366 
L 3122 2828 
Q 2878 2963 2633 3030 
Q 2388 3097 2138 3097 
Q 1578 3097 1268 2742 
Q 959 2388 959 1747 
Q 959 1106 1268 751 
Q 1578 397 2138 397 
Q 2388 397 2633 464 
Q 2878 531 3122 666 
L 3122 134 
Q 2881 22 2623 -34 
Q 2366 -91 2075 -91 
Q 1284 -91 818 406 
Q 353 903 353 1747 
Q 353 2603 823 3093 
Q 1294 3584 2113 3584 
Q 2378 3584 2631 3529 
Q 2884 3475 3122 3366 
z
" transform="scale(0.015625)"/>
      <path id="DejaVuSans-4f" d="M 2522 4238 
Q 1834 4238 1429 3725 
Q 1025 3213 1025 2328 
Q 1025 1447 1429 934 
Q 1834 422 2522 422 
Q 3209 422 3611 934 
Q 4013 1447 4013 2328 
Q 4013 3213 3611 3725 
Q 3209 4238 2522 4238 
z
M 2522 4750 
Q 3503 4750 4090 4092 
Q 4678 3434 4678 2328 
Q 4678 1225 4090 567 
Q 3503 -91 2522 -91 
Q 1538 -91 948 565 
Q 359 1222 359 2328 
Q 359 3434 948 4092 
Q 1538 4750 2522 4750 
z
" transform="scale(0.015625)"/>
      <path id="DejaVuSans-70" d="M 1159 525 
L 1159 -1331 
L 581 -1331 
L 581 3500 
L 1159 3500 
L 1159 2969 
Q 1341 3281 1617 3432 
Q 1894 3584 2278 3584 
Q 2916 3584 3314 3078 
Q 3713 2572 3713 1747 
Q 3713 922 3314 415 
Q 2916 -91 2278 -91 
Q 1894 -91 1617 61 
Q 1341 213 1159 525 
z
M 3116 1747 
Q 3116 2381 2855 2742 
Q 2594 3103 2138 3103 
Q 1681 3103 1420 2742 
Q 1159 2381 1159 1747 
Q 1159 1113 1420 752 
Q 1681 391 2138 391 
Q 2594 391 2855 752 
Q 3116 1113 3116 1747 
z
" transform="scale(0.015625)"/>
      <path id="DejaVuSans-6e" d="M 3513 2113 
L 3513 0 
L 2938 0 
L 2938 2094 
Q 2938 2591 2744 2837 
Q 2550 3084 2163 3084 
Q 1697 3084 1428 2787 
Q 1159 2491 1159 1978 
L 1159 0 
L 581 0 
L 581 3500 
L 1159 3500 
L 1159 2956 
Q 1366 3272 1645 3428 
Q 1925 3584 2291 3584 
Q 2894 3584 3203 3211 
Q 3513 2838 3513 2113 
z
" transform="scale(0.015625)"/>
      <path id="DejaVuSans-67" d="M 2906 1791 
Q 2906 2416 2648 2759 
Q 2391 3103 1925 3103 
Q 1463 3103 1205 2759 
Q 947 2416 947 1791 
Q 947 1169 1205 825 
Q 1463 481 1925 481 
Q 2391 481 2648 825 
Q 2906 1169 2906 1791 
z
M 3481 434 
Q 3481 -459 3084 -895 
Q 2688 -1331 1869 -1331 
Q 1566 -1331 1297 -1286 
Q 1028 -1241 775 -1147 
L 775 -588 
Q 1028 -725 1275 -790 
Q 1522 -856 1778 -856 
Q 2344 -856 2625 -561 
Q 2906 -266 2906 331 
L 2906 616 
Q 2728 306 2450 153 
Q 2172 0 1784 0 
Q 1141 0 747 490 
Q 353 981 353 1791 
Q 353 2603 747 3093 
Q 1141 3584 1784 3584 
Q 2172 3584 2450 3431 
Q 2728 3278 2906 2969 
L 2906 3500 
L 3481 3500 
L 3481 434 
z
" transform="scale(0.015625)"/>
      <path id="DejaVuSans-43" d="M 4122 4306 
L 4122 3641 
Q 3803 3938 3442 4084 
Q 3081 4231 2675 4231 
Q 1875 4231 1450 3742 
Q 1025 3253 1025 2328 
Q 1025 1406 1450 917 
Q 1875 428 2675 428 
Q 3081 428 3442 575 
Q 3803 722 4122 1019 
L 4122 359 
Q 3791 134 3420 21 
Q 3050 -91 2638 -91 
Q 1578 -91 968 557 
Q 359 1206 359 2328 
Q 359 3453 968 4101 
Q 1578 4750 2638 4750 
Q 3056 4750 3426 4639 
Q 3797 4528 4122 4306 
z
" transform="scale(0.015625)"/>
      <path id="DejaVuSans-68" d="M 3513 2113 
L 3513 0 
L 2938 0 
L 2938 2094 
Q 2938 2591 2744 2837 
Q 2550 3084 2163 3084 
Q 1697 3084 1428 2787 
Q 1159 2491 1159 1978 
L 1159 0 
L 581 0 
L 581 4863 
L 1159 4863 
L 1159 2956 
Q 1366 3272 1645 3428 
Q 1925 3584 2291 3584 
Q 2894 3584 3203 3211 
Q 3513 2838 3513 2113 
z
" transform="scale(0.015625)"/>
     </defs>
     <use xlink:href="#DejaVuSans-52"/>
     <use xlink:href="#DejaVuSans-65" x="64.982422"/>
     <use xlink:href="#DejaVuSans-63" x="126.505859"/>
     <use xlink:href="#DejaVuSans-65" x="181.486328"/>
     <use xlink:href="#DejaVuSans-69" x="243.009766"/>
     <use xlink:href="#DejaVuSans-76" x="270.792969"/>
     <use xlink:href="#DejaVuSans-65" x="329.972656"/>
     <use xlink:href="#DejaVuSans-72" x="391.496094"/>
     <use xlink:href="#DejaVuSans-20" x="432.609375"/>
     <use xlink:href="#DejaVuSans-4f" x="464.396484"/>
     <use xlink:href="#DejaVuSans-70" x="543.107422"/>
     <use xlink:href="#DejaVuSans-65" x="606.583984"/>
     <use xlink:href="#DejaVuSans-72" x="668.107422"/>
     <use xlink:href="#DejaVuSans-61" x="709.220703"/>
     <use xlink:href="#DejaVuSans-74" x="770.5"/>
     <use xlink:href="#DejaVuSans-69" x="809.708984"/>
     <use xlink:href="#DejaVuSans-6e" x="837.492188"/>
     <use xlink:href="#DejaVuSans-67" x="900.871094"/>
     <use xlink:href="#DejaVuSans-20" x="964.347656"/>
     <use xlink:href="#DejaVuSans-43" x="996.134766"/>
     <use xlink:href="#DejaVuSans-68" x="1065.958984"/>
     <use xlink:href="#DejaVuSans-61" x="1129.337891"/>
     <use xlink:href="#DejaVuSans-72" x="1190.617188"/>
     <use xlink:href="#DejaVuSans-61" x="1231.730469"/>
     <use xlink:href="#DejaVuSans-63" x="1293.009766"/>
     <use xlink:href="#DejaVuSans-74" x="1347.990234"/>
     <use xlink:href="#DejaVuSans-65" x="1387.199219"/>
     <use xlink:href="#DejaVuSans-72" x="1448.722656"/>
     <use xlink:href="#DejaVuSans-69" x="1489.835938"/>
     <use xlink:href="#DejaVuSans-73" x="1517.619141"/>
     <use xlink:href="#DejaVuSans-74" x="1569.71875"/>
     <use xlink:href="#DejaVuSans-69" x="1608.927734"/>
     <use xlink:href="#DejaVuSans-63" x="1636.710938"/>
    </g>
   </g>
   <g id="legend_1">
    <g id="patch_7">
     <path d="M 252.441875 302.584 
L 407.72 302.584 
Q 409.72 302.584 409.72 300.584 
L 409.72 286.905875 
Q 409.72 284.905875 407.72 284.905875 
L 252.441875 284.905875 
Q 250.441875 284.905875 250.441875 286.905875 
L 250.441875 300.584 
Q 250.441875 302.584 252.441875 302.584 
z
" style="fill: #ffffff; opacity: 0.8; stroke: #cccccc; stroke-linejoin: miter"/>
    </g>
    <g id="line2d_15">
     <path d="M 254.441875 293.004312 
L 264.441875 293.004312 
L 274.441875 293.004312 
" style="fill: none; stroke: #1f77b4; stroke-width: 1.5; stroke-linecap: square"/>
    </g>
    <g id="text_16">
     <!-- ROC curve (area = 0.58) -->
     <g transform="translate(282.441875 296.504312) scale(0.1 -0.1)">
      <defs>
       <path id="DejaVuSans-28" d="M 1984 4856 
Q 1566 4138 1362 3434 
Q 1159 2731 1159 2009 
Q 1159 1288 1364 580 
Q 1569 -128 1984 -844 
L 1484 -844 
Q 1016 -109 783 600 
Q 550 1309 550 2009 
Q 550 2706 781 3412 
Q 1013 4119 1484 4856 
L 1984 4856 
z
" transform="scale(0.015625)"/>
       <path id="DejaVuSans-3d" d="M 678 2906 
L 4684 2906 
L 4684 2381 
L 678 2381 
L 678 2906 
z
M 678 1631 
L 4684 1631 
L 4684 1100 
L 678 1100 
L 678 1631 
z
" transform="scale(0.015625)"/>
       <path id="DejaVuSans-35" d="M 691 4666 
L 3169 4666 
L 3169 4134 
L 1269 4134 
L 1269 2991 
Q 1406 3038 1543 3061 
Q 1681 3084 1819 3084 
Q 2600 3084 3056 2656 
Q 3513 2228 3513 1497 
Q 3513 744 3044 326 
Q 2575 -91 1722 -91 
Q 1428 -91 1123 -41 
Q 819 9 494 109 
L 494 744 
Q 775 591 1075 516 
Q 1375 441 1709 441 
Q 2250 441 2565 725 
Q 2881 1009 2881 1497 
Q 2881 1984 2565 2268 
Q 2250 2553 1709 2553 
Q 1456 2553 1204 2497 
Q 953 2441 691 2322 
L 691 4666 
z
" transform="scale(0.015625)"/>
       <path id="DejaVuSans-29" d="M 513 4856 
L 1013 4856 
Q 1481 4119 1714 3412 
Q 1947 2706 1947 2009 
Q 1947 1309 1714 600 
Q 1481 -109 1013 -844 
L 513 -844 
Q 928 -128 1133 580 
Q 1338 1288 1338 2009 
Q 1338 2731 1133 3434 
Q 928 4138 513 4856 
z
" transform="scale(0.015625)"/>
      </defs>
      <use xlink:href="#DejaVuSans-52"/>
      <use xlink:href="#DejaVuSans-4f" x="69.482422"/>
      <use xlink:href="#DejaVuSans-43" x="148.193359"/>
      <use xlink:href="#DejaVuSans-20" x="218.017578"/>
      <use xlink:href="#DejaVuSans-63" x="249.804688"/>
      <use xlink:href="#DejaVuSans-75" x="304.785156"/>
      <use xlink:href="#DejaVuSans-72" x="368.164062"/>
      <use xlink:href="#DejaVuSans-76" x="409.277344"/>
      <use xlink:href="#DejaVuSans-65" x="468.457031"/>
      <use xlink:href="#DejaVuSans-20" x="529.980469"/>
      <use xlink:href="#DejaVuSans-28" x="561.767578"/>
      <use xlink:href="#DejaVuSans-61" x="600.78125"/>
      <use xlink:href="#DejaVuSans-72" x="662.060547"/>
      <use xlink:href="#DejaVuSans-65" x="700.923828"/>
      <use xlink:href="#DejaVuSans-61" x="762.447266"/>
      <use xlink:href="#DejaVuSans-20" x="823.726562"/>
      <use xlink:href="#DejaVuSans-3d" x="855.513672"/>
      <use xlink:href="#DejaVuSans-20" x="939.302734"/>
      <use xlink:href="#DejaVuSans-30" x="971.089844"/>
      <use xlink:href="#DejaVuSans-2e" x="1034.712891"/>
      <use xlink:href="#DejaVuSans-35" x="1066.5"/>
      <use xlink:href="#DejaVuSans-38" x="1130.123047"/>
      <use xlink:href="#DejaVuSans-29" x="1193.746094"/>
     </g>
    </g>
   </g>
  </g>
 </g>
 <defs>
  <clipPath id="pb6a124bf16">
   <rect x="57.6" y="41.472" width="357.12" height="266.112"/>
  </clipPath>
 </defs>
</svg>
