<?xml version="1.0" encoding="utf-8" standalone="no"?>
<!DOCTYPE svg PUBLIC "-//W3C//DTD SVG 1.1//EN"
  "http://www.w3.org/Graphics/SVG/1.1/DTD/svg11.dtd">
<svg xmlns:xlink="http://www.w3.org/1999/xlink" width="460.8pt" height="345.6pt" viewBox="0 0 460.8 345.6" xmlns="http://www.w3.org/2000/svg" version="1.1">
 <metadata>
  <rdf:RDF xmlns:dc="http://purl.org/dc/elements/1.1/" xmlns:cc="http://creativecommons.org/ns#" xmlns:rdf="http://www.w3.org/1999/02/22-rdf-syntax-ns#">
   <cc:Work>
    <dc:type rdf:resource="http://purl.org/dc/dcmitype/StillImage"/>
    <dc:date>2024-05-01T18:27:57.939223</dc:date>
    <dc:format>image/svg+xml</dc:format>
    <dc:creator>
     <cc:Agent>
      <dc:title>Matplotlib v3.8.3, https://matplotlib.org/</dc:title>
     </cc:Agent>
    </dc:creator>
   </cc:Work>
  </rdf:RDF>
 </metadata>
 <defs>
  <style type="text/css">*{stroke-linejoin: round; stroke-linecap: butt}</style>
 </defs>
 <g id="figure_1">
  <g id="patch_1">
   <path d="M 0 345.6 
L 460.8 345.6 
L 460.8 0 
L 0 0 
z
" style="fill: #ffffff"/>
  </g>
  <g id="axes_1">
   <g id="patch_2">
    <path d="M 57.6 307.584 
L 414.72 307.584 
L 414.72 41.472 
L 57.6 41.472 
z
" style="fill: #ffffff"/>
   </g>
   <g id="matplotlib.axis_1">
    <g id="xtick_1">
     <g id="line2d_1">
      <defs>
       <path id="m8e42f6e81c" d="M 0 0 
L 0 3.5 
" style="stroke: #000000; stroke-width: 0.8"/>
      </defs>
      <g>
       <use xlink:href="#m8e42f6e81c" x="57.6" y="307.584" style="stroke: #000000; stroke-width: 0.8"/>
      </g>
     </g>
     <g id="text_1">
      <!-- 0.0 -->
      <g transform="translate(49.648438 322.182437) scale(0.1 -0.1)">
       <defs>
        <path id="DejaVuSans-30" d="M 2034 4250 
Q 1547 4250 1301 3770 
Q 1056 3291 1056 2328 
Q 1056 1369 1301 889 
Q 1547 409 2034 409 
Q 2525 409 2770 889 
Q 3016 1369 3016 2328 
Q 3016 3291 2770 3770 
Q 2525 4250 2034 4250 
z
M 2034 4750 
Q 2819 4750 3233 4129 
Q 3647 3509 3647 2328 
Q 3647 1150 3233 529 
Q 2819 -91 2034 -91 
Q 1250 -91 836 529 
Q 422 1150 422 2328 
Q 422 3509 836 4129 
Q 1250 4750 2034 4750 
z
" transform="scale(0.015625)"/>
        <path id="DejaVuSans-2e" d="M 684 794 
L 1344 794 
L 1344 0 
L 684 0 
L 684 794 
z
" transform="scale(0.015625)"/>
       </defs>
       <use xlink:href="#DejaVuSans-30"/>
       <use xlink:href="#DejaVuSans-2e" x="63.623047"/>
       <use xlink:href="#DejaVuSans-30" x="95.410156"/>
      </g>
     </g>
    </g>
    <g id="xtick_2">
     <g id="line2d_2">
      <g>
       <use xlink:href="#m8e42f6e81c" x="129.024" y="307.584" style="stroke: #000000; stroke-width: 0.8"/>
      </g>
     </g>
     <g id="text_2">
      <!-- 0.2 -->
      <g transform="translate(121.072438 322.182437) scale(0.1 -0.1)">
       <defs>
        <path id="DejaVuSans-32" d="M 1228 531 
L 3431 531 
L 3431 0 
L 469 0 
L 469 531 
Q 828 903 1448 1529 
Q 2069 2156 2228 2338 
Q 2531 2678 2651 2914 
Q 2772 3150 2772 3378 
Q 2772 3750 2511 3984 
Q 2250 4219 1831 4219 
Q 1534 4219 1204 4116 
Q 875 4013 500 3803 
L 500 4441 
Q 881 4594 1212 4672 
Q 1544 4750 1819 4750 
Q 2544 4750 2975 4387 
Q 3406 4025 3406 3419 
Q 3406 3131 3298 2873 
Q 3191 2616 2906 2266 
Q 2828 2175 2409 1742 
Q 1991 1309 1228 531 
z
" transform="scale(0.015625)"/>
       </defs>
       <use xlink:href="#DejaVuSans-30"/>
       <use xlink:href="#DejaVuSans-2e" x="63.623047"/>
       <use xlink:href="#DejaVuSans-32" x="95.410156"/>
      </g>
     </g>
    </g>
    <g id="xtick_3">
     <g id="line2d_3">
      <g>
       <use xlink:href="#m8e42f6e81c" x="200.448" y="307.584" style="stroke: #000000; stroke-width: 0.8"/>
      </g>
     </g>
     <g id="text_3">
      <!-- 0.4 -->
      <g transform="translate(192.496438 322.182437) scale(0.1 -0.1)">
       <defs>
        <path id="DejaVuSans-34" d="M 2419 4116 
L 825 1625 
L 2419 1625 
L 2419 4116 
z
M 2253 4666 
L 3047 4666 
L 3047 1625 
L 3713 1625 
L 3713 1100 
L 3047 1100 
L 3047 0 
L 2419 0 
L 2419 1100 
L 313 1100 
L 313 1709 
L 2253 4666 
z
" transform="scale(0.015625)"/>
       </defs>
       <use xlink:href="#DejaVuSans-30"/>
       <use xlink:href="#DejaVuSans-2e" x="63.623047"/>
       <use xlink:href="#DejaVuSans-34" x="95.410156"/>
      </g>
     </g>
    </g>
    <g id="xtick_4">
     <g id="line2d_4">
      <g>
       <use xlink:href="#m8e42f6e81c" x="271.872" y="307.584" style="stroke: #000000; stroke-width: 0.8"/>
      </g>
     </g>
     <g id="text_4">
      <!-- 0.6 -->
      <g transform="translate(263.920438 322.182437) scale(0.1 -0.1)">
       <defs>
        <path id="DejaVuSans-36" d="M 2113 2584 
Q 1688 2584 1439 2293 
Q 1191 2003 1191 1497 
Q 1191 994 1439 701 
Q 1688 409 2113 409 
Q 2538 409 2786 701 
Q 3034 994 3034 1497 
Q 3034 2003 2786 2293 
Q 2538 2584 2113 2584 
z
M 3366 4563 
L 3366 3988 
Q 3128 4100 2886 4159 
Q 2644 4219 2406 4219 
Q 1781 4219 1451 3797 
Q 1122 3375 1075 2522 
Q 1259 2794 1537 2939 
Q 1816 3084 2150 3084 
Q 2853 3084 3261 2657 
Q 3669 2231 3669 1497 
Q 3669 778 3244 343 
Q 2819 -91 2113 -91 
Q 1303 -91 875 529 
Q 447 1150 447 2328 
Q 447 3434 972 4092 
Q 1497 4750 2381 4750 
Q 2619 4750 2861 4703 
Q 3103 4656 3366 4563 
z
" transform="scale(0.015625)"/>
       </defs>
       <use xlink:href="#DejaVuSans-30"/>
       <use xlink:href="#DejaVuSans-2e" x="63.623047"/>
       <use xlink:href="#DejaVuSans-36" x="95.410156"/>
      </g>
     </g>
    </g>
    <g id="xtick_5">
     <g id="line2d_5">
      <g>
       <use xlink:href="#m8e42f6e81c" x="343.296" y="307.584" style="stroke: #000000; stroke-width: 0.8"/>
      </g>
     </g>
     <g id="text_5">
      <!-- 0.8 -->
      <g transform="translate(335.344438 322.182437) scale(0.1 -0.1)">
       <defs>
        <path id="DejaVuSans-38" d="M 2034 2216 
Q 1584 2216 1326 1975 
Q 1069 1734 1069 1313 
Q 1069 891 1326 650 
Q 1584 409 2034 409 
Q 2484 409 2743 651 
Q 3003 894 3003 1313 
Q 3003 1734 2745 1975 
Q 2488 2216 2034 2216 
z
M 1403 2484 
Q 997 2584 770 2862 
Q 544 3141 544 3541 
Q 544 4100 942 4425 
Q 1341 4750 2034 4750 
Q 2731 4750 3128 4425 
Q 3525 4100 3525 3541 
Q 3525 3141 3298 2862 
Q 3072 2584 2669 2484 
Q 3125 2378 3379 2068 
Q 3634 1759 3634 1313 
Q 3634 634 3220 271 
Q 2806 -91 2034 -91 
Q 1263 -91 848 271 
Q 434 634 434 1313 
Q 434 1759 690 2068 
Q 947 2378 1403 2484 
z
M 1172 3481 
Q 1172 3119 1398 2916 
Q 1625 2713 2034 2713 
Q 2441 2713 2670 2916 
Q 2900 3119 2900 3481 
Q 2900 3844 2670 4047 
Q 2441 4250 2034 4250 
Q 1625 4250 1398 4047 
Q 1172 3844 1172 3481 
z
" transform="scale(0.015625)"/>
       </defs>
       <use xlink:href="#DejaVuSans-30"/>
       <use xlink:href="#DejaVuSans-2e" x="63.623047"/>
       <use xlink:href="#DejaVuSans-38" x="95.410156"/>
      </g>
     </g>
    </g>
    <g id="xtick_6">
     <g id="line2d_6">
      <g>
       <use xlink:href="#m8e42f6e81c" x="414.72" y="307.584" style="stroke: #000000; stroke-width: 0.8"/>
      </g>
     </g>
     <g id="text_6">
      <!-- 1.0 -->
      <g transform="translate(406.768438 322.182437) scale(0.1 -0.1)">
       <defs>
        <path id="DejaVuSans-31" d="M 794 531 
L 1825 531 
L 1825 4091 
L 703 3866 
L 703 4441 
L 1819 4666 
L 2450 4666 
L 2450 531 
L 3481 531 
L 3481 0 
L 794 0 
L 794 531 
z
" transform="scale(0.015625)"/>
       </defs>
       <use xlink:href="#DejaVuSans-31"/>
       <use xlink:href="#DejaVuSans-2e" x="63.623047"/>
       <use xlink:href="#DejaVuSans-30" x="95.410156"/>
      </g>
     </g>
    </g>
    <g id="text_7">
     <!-- False Positive Rate -->
     <g transform="translate(189.693594 335.860562) scale(0.1 -0.1)">
      <defs>
       <path id="DejaVuSans-46" d="M 628 4666 
L 3309 4666 
L 3309 4134 
L 1259 4134 
L 1259 2759 
L 3109 2759 
L 3109 2228 
L 1259 2228 
L 1259 0 
L 628 0 
L 628 4666 
z
" transform="scale(0.015625)"/>
       <path id="DejaVuSans-61" d="M 2194 1759 
Q 1497 1759 1228 1600 
Q 959 1441 959 1056 
Q 959 750 1161 570 
Q 1363 391 1709 391 
Q 2188 391 2477 730 
Q 2766 1069 2766 1631 
L 2766 1759 
L 2194 1759 
z
M 3341 1997 
L 3341 0 
L 2766 0 
L 2766 531 
Q 2569 213 2275 61 
Q 1981 -91 1556 -91 
Q 1019 -91 701 211 
Q 384 513 384 1019 
Q 384 1609 779 1909 
Q 1175 2209 1959 2209 
L 2766 2209 
L 2766 2266 
Q 2766 2663 2505 2880 
Q 2244 3097 1772 3097 
Q 1472 3097 1187 3025 
Q 903 2953 641 2809 
L 641 3341 
Q 956 3463 1253 3523 
Q 1550 3584 1831 3584 
Q 2591 3584 2966 3190 
Q 3341 2797 3341 1997 
z
" transform="scale(0.015625)"/>
       <path id="DejaVuSans-6c" d="M 603 4863 
L 1178 4863 
L 1178 0 
L 603 0 
L 603 4863 
z
" transform="scale(0.015625)"/>
       <path id="DejaVuSans-73" d="M 2834 3397 
L 2834 2853 
Q 2591 2978 2328 3040 
Q 2066 3103 1784 3103 
Q 1356 3103 1142 2972 
Q 928 2841 928 2578 
Q 928 2378 1081 2264 
Q 1234 2150 1697 2047 
L 1894 2003 
Q 2506 1872 2764 1633 
Q 3022 1394 3022 966 
Q 3022 478 2636 193 
Q 2250 -91 1575 -91 
Q 1294 -91 989 -36 
Q 684 19 347 128 
L 347 722 
Q 666 556 975 473 
Q 1284 391 1588 391 
Q 1994 391 2212 530 
Q 2431 669 2431 922 
Q 2431 1156 2273 1281 
Q 2116 1406 1581 1522 
L 1381 1569 
Q 847 1681 609 1914 
Q 372 2147 372 2553 
Q 372 3047 722 3315 
Q 1072 3584 1716 3584 
Q 2034 3584 2315 3537 
Q 2597 3491 2834 3397 
z
" transform="scale(0.015625)"/>
       <path id="DejaVuSans-65" d="M 3597 1894 
L 3597 1613 
L 953 1613 
Q 991 1019 1311 708 
Q 1631 397 2203 397 
Q 2534 397 2845 478 
Q 3156 559 3463 722 
L 3463 178 
Q 3153 47 2828 -22 
Q 2503 -91 2169 -91 
Q 1331 -91 842 396 
Q 353 884 353 1716 
Q 353 2575 817 3079 
Q 1281 3584 2069 3584 
Q 2775 3584 3186 3129 
Q 3597 2675 3597 1894 
z
M 3022 2063 
Q 3016 2534 2758 2815 
Q 2500 3097 2075 3097 
Q 1594 3097 1305 2825 
Q 1016 2553 972 2059 
L 3022 2063 
z
" transform="scale(0.015625)"/>
       <path id="DejaVuSans-20" transform="scale(0.015625)"/>
       <path id="DejaVuSans-50" d="M 1259 4147 
L 1259 2394 
L 2053 2394 
Q 2494 2394 2734 2622 
Q 2975 2850 2975 3272 
Q 2975 3691 2734 3919 
Q 2494 4147 2053 4147 
L 1259 4147 
z
M 628 4666 
L 2053 4666 
Q 2838 4666 3239 4311 
Q 3641 3956 3641 3272 
Q 3641 2581 3239 2228 
Q 2838 1875 2053 1875 
L 1259 1875 
L 1259 0 
L 628 0 
L 628 4666 
z
" transform="scale(0.015625)"/>
       <path id="DejaVuSans-6f" d="M 1959 3097 
Q 1497 3097 1228 2736 
Q 959 2375 959 1747 
Q 959 1119 1226 758 
Q 1494 397 1959 397 
Q 2419 397 2687 759 
Q 2956 1122 2956 1747 
Q 2956 2369 2687 2733 
Q 2419 3097 1959 3097 
z
M 1959 3584 
Q 2709 3584 3137 3096 
Q 3566 2609 3566 1747 
Q 3566 888 3137 398 
Q 2709 -91 1959 -91 
Q 1206 -91 779 398 
Q 353 888 353 1747 
Q 353 2609 779 3096 
Q 1206 3584 1959 3584 
z
" transform="scale(0.015625)"/>
       <path id="DejaVuSans-69" d="M 603 3500 
L 1178 3500 
L 1178 0 
L 603 0 
L 603 3500 
z
M 603 4863 
L 1178 4863 
L 1178 4134 
L 603 4134 
L 603 4863 
z
" transform="scale(0.015625)"/>
       <path id="DejaVuSans-74" d="M 1172 4494 
L 1172 3500 
L 2356 3500 
L 2356 3053 
L 1172 3053 
L 1172 1153 
Q 1172 725 1289 603 
Q 1406 481 1766 481 
L 2356 481 
L 2356 0 
L 1766 0 
Q 1100 0 847 248 
Q 594 497 594 1153 
L 594 3053 
L 172 3053 
L 172 3500 
L 594 3500 
L 594 4494 
L 1172 4494 
z
" transform="scale(0.015625)"/>
       <path id="DejaVuSans-76" d="M 191 3500 
L 800 3500 
L 1894 563 
L 2988 3500 
L 3597 3500 
L 2284 0 
L 1503 0 
L 191 3500 
z
" transform="scale(0.015625)"/>
       <path id="DejaVuSans-52" d="M 2841 2188 
Q 3044 2119 3236 1894 
Q 3428 1669 3622 1275 
L 4263 0 
L 3584 0 
L 2988 1197 
Q 2756 1666 2539 1819 
Q 2322 1972 1947 1972 
L 1259 1972 
L 1259 0 
L 628 0 
L 628 4666 
L 2053 4666 
Q 2853 4666 3247 4331 
Q 3641 3997 3641 3322 
Q 3641 2881 3436 2590 
Q 3231 2300 2841 2188 
z
M 1259 4147 
L 1259 2491 
L 2053 2491 
Q 2509 2491 2742 2702 
Q 2975 2913 2975 3322 
Q 2975 3731 2742 3939 
Q 2509 4147 2053 4147 
L 1259 4147 
z
" transform="scale(0.015625)"/>
      </defs>
      <use xlink:href="#DejaVuSans-46"/>
      <use xlink:href="#DejaVuSans-61" x="48.394531"/>
      <use xlink:href="#DejaVuSans-6c" x="109.673828"/>
      <use xlink:href="#DejaVuSans-73" x="137.457031"/>
      <use xlink:href="#DejaVuSans-65" x="189.556641"/>
      <use xlink:href="#DejaVuSans-20" x="251.080078"/>
      <use xlink:href="#DejaVuSans-50" x="282.867188"/>
      <use xlink:href="#DejaVuSans-6f" x="339.544922"/>
      <use xlink:href="#DejaVuSans-73" x="400.726562"/>
      <use xlink:href="#DejaVuSans-69" x="452.826172"/>
      <use xlink:href="#DejaVuSans-74" x="480.609375"/>
      <use xlink:href="#DejaVuSans-69" x="519.818359"/>
      <use xlink:href="#DejaVuSans-76" x="547.601562"/>
      <use xlink:href="#DejaVuSans-65" x="606.78125"/>
      <use xlink:href="#DejaVuSans-20" x="668.304688"/>
      <use xlink:href="#DejaVuSans-52" x="700.091797"/>
      <use xlink:href="#DejaVuSans-61" x="767.324219"/>
      <use xlink:href="#DejaVuSans-74" x="828.603516"/>
      <use xlink:href="#DejaVuSans-65" x="867.8125"/>
     </g>
    </g>
   </g>
   <g id="matplotlib.axis_2">
    <g id="ytick_1">
     <g id="line2d_7">
      <defs>
       <path id="m67fa6c434b" d="M 0 0 
L -3.5 0 
" style="stroke: #000000; stroke-width: 0.8"/>
      </defs>
      <g>
       <use xlink:href="#m67fa6c434b" x="57.6" y="307.584" style="stroke: #000000; stroke-width: 0.8"/>
      </g>
     </g>
     <g id="text_8">
      <!-- 0.0 -->
      <g transform="translate(34.696875 311.383219) scale(0.1 -0.1)">
       <use xlink:href="#DejaVuSans-30"/>
       <use xlink:href="#DejaVuSans-2e" x="63.623047"/>
       <use xlink:href="#DejaVuSans-30" x="95.410156"/>
      </g>
     </g>
    </g>
    <g id="ytick_2">
     <g id="line2d_8">
      <g>
       <use xlink:href="#m67fa6c434b" x="57.6" y="256.896" style="stroke: #000000; stroke-width: 0.8"/>
      </g>
     </g>
     <g id="text_9">
      <!-- 0.2 -->
      <g transform="translate(34.696875 260.695219) scale(0.1 -0.1)">
       <use xlink:href="#DejaVuSans-30"/>
       <use xlink:href="#DejaVuSans-2e" x="63.623047"/>
       <use xlink:href="#DejaVuSans-32" x="95.410156"/>
      </g>
     </g>
    </g>
    <g id="ytick_3">
     <g id="line2d_9">
      <g>
       <use xlink:href="#m67fa6c434b" x="57.6" y="206.208" style="stroke: #000000; stroke-width: 0.8"/>
      </g>
     </g>
     <g id="text_10">
      <!-- 0.4 -->
      <g transform="translate(34.696875 210.007219) scale(0.1 -0.1)">
       <use xlink:href="#DejaVuSans-30"/>
       <use xlink:href="#DejaVuSans-2e" x="63.623047"/>
       <use xlink:href="#DejaVuSans-34" x="95.410156"/>
      </g>
     </g>
    </g>
    <g id="ytick_4">
     <g id="line2d_10">
      <g>
       <use xlink:href="#m67fa6c434b" x="57.6" y="155.52" style="stroke: #000000; stroke-width: 0.8"/>
      </g>
     </g>
     <g id="text_11">
      <!-- 0.6 -->
      <g transform="translate(34.696875 159.319219) scale(0.1 -0.1)">
       <use xlink:href="#DejaVuSans-30"/>
       <use xlink:href="#DejaVuSans-2e" x="63.623047"/>
       <use xlink:href="#DejaVuSans-36" x="95.410156"/>
      </g>
     </g>
    </g>
    <g id="ytick_5">
     <g id="line2d_11">
      <g>
       <use xlink:href="#m67fa6c434b" x="57.6" y="104.832" style="stroke: #000000; stroke-width: 0.8"/>
      </g>
     </g>
     <g id="text_12">
      <!-- 0.8 -->
      <g transform="translate(34.696875 108.631219) scale(0.1 -0.1)">
       <use xlink:href="#DejaVuSans-30"/>
       <use xlink:href="#DejaVuSans-2e" x="63.623047"/>
       <use xlink:href="#DejaVuSans-38" x="95.410156"/>
      </g>
     </g>
    </g>
    <g id="ytick_6">
     <g id="line2d_12">
      <g>
       <use xlink:href="#m67fa6c434b" x="57.6" y="54.144" style="stroke: #000000; stroke-width: 0.8"/>
      </g>
     </g>
     <g id="text_13">
      <!-- 1.0 -->
      <g transform="translate(34.696875 57.943219) scale(0.1 -0.1)">
       <use xlink:href="#DejaVuSans-31"/>
       <use xlink:href="#DejaVuSans-2e" x="63.623047"/>
       <use xlink:href="#DejaVuSans-30" x="95.410156"/>
      </g>
     </g>
    </g>
    <g id="text_14">
     <!-- True Positive Rate -->
     <g transform="translate(28.617187 219.057687) rotate(-90) scale(0.1 -0.1)">
      <defs>
       <path id="DejaVuSans-54" d="M -19 4666 
L 3928 4666 
L 3928 4134 
L 2272 4134 
L 2272 0 
L 1638 0 
L 1638 4134 
L -19 4134 
L -19 4666 
z
" transform="scale(0.015625)"/>
       <path id="DejaVuSans-72" d="M 2631 2963 
Q 2534 3019 2420 3045 
Q 2306 3072 2169 3072 
Q 1681 3072 1420 2755 
Q 1159 2438 1159 1844 
L 1159 0 
L 581 0 
L 581 3500 
L 1159 3500 
L 1159 2956 
Q 1341 3275 1631 3429 
Q 1922 3584 2338 3584 
Q 2397 3584 2469 3576 
Q 2541 3569 2628 3553 
L 2631 2963 
z
" transform="scale(0.015625)"/>
       <path id="DejaVuSans-75" d="M 544 1381 
L 544 3500 
L 1119 3500 
L 1119 1403 
Q 1119 906 1312 657 
Q 1506 409 1894 409 
Q 2359 409 2629 706 
Q 2900 1003 2900 1516 
L 2900 3500 
L 3475 3500 
L 3475 0 
L 2900 0 
L 2900 538 
Q 2691 219 2414 64 
Q 2138 -91 1772 -91 
Q 1169 -91 856 284 
Q 544 659 544 1381 
z
M 1991 3584 
L 1991 3584 
z
" transform="scale(0.015625)"/>
      </defs>
      <use xlink:href="#DejaVuSans-54"/>
      <use xlink:href="#DejaVuSans-72" x="46.333984"/>
      <use xlink:href="#DejaVuSans-75" x="87.447266"/>
      <use xlink:href="#DejaVuSans-65" x="150.826172"/>
      <use xlink:href="#DejaVuSans-20" x="212.349609"/>
      <use xlink:href="#DejaVuSans-50" x="244.136719"/>
      <use xlink:href="#DejaVuSans-6f" x="300.814453"/>
      <use xlink:href="#DejaVuSans-73" x="361.996094"/>
      <use xlink:href="#DejaVuSans-69" x="414.095703"/>
      <use xlink:href="#DejaVuSans-74" x="441.878906"/>
      <use xlink:href="#DejaVuSans-69" x="481.087891"/>
      <use xlink:href="#DejaVuSans-76" x="508.871094"/>
      <use xlink:href="#DejaVuSans-65" x="568.050781"/>
      <use xlink:href="#DejaVuSans-20" x="629.574219"/>
      <use xlink:href="#DejaVuSans-52" x="661.361328"/>
      <use xlink:href="#DejaVuSans-61" x="728.59375"/>
      <use xlink:href="#DejaVuSans-74" x="789.873047"/>
      <use xlink:href="#DejaVuSans-65" x="829.082031"/>
     </g>
    </g>
   </g>
   <g id="line2d_13">
    <path d="M 57.6 307.584 
L 59.763739 304.595517 
L 59.866774 304.595517 
L 59.866774 304.512503 
L 60.691056 303.184288 
L 61.206232 303.184288 
L 61.309267 302.852235 
L 61.515338 302.852235 
L 61.515338 302.769221 
L 61.618373 302.271141 
L 62.030514 302.188127 
L 62.030514 301.939087 
L 62.54569 300.942926 
L 62.75176 300.942926 
L 62.75176 300.859912 
L 63.369971 300.444845 
L 63.679077 300.361832 
L 63.679077 299.780738 
L 63.988182 299.780738 
L 64.503358 299.531697 
L 64.812464 299.199644 
L 64.915499 299.11663 
L 65.224605 299.033617 
L 65.224605 298.86759 
L 65.32764 298.86759 
L 66.357992 297.954442 
L 66.461027 297.788415 
L 66.770133 297.705402 
L 67.079238 297.705402 
L 67.079238 297.539375 
L 67.285309 297.539375 
L 67.285309 297.456362 
L 67.491379 297.207321 
L 67.491379 297.124308 
L 67.594414 297.124308 
L 68.10959 296.626227 
L 68.315661 296.4602 
L 68.624766 296.377187 
L 68.624766 296.21116 
L 68.727802 296.21116 
L 69.036907 296.21116 
L 69.036907 296.128147 
L 69.242977 295.96212 
L 69.861189 295.879106 
L 69.861189 295.796093 
L 69.964224 295.796093 
L 70.170294 295.547053 
L 70.376365 295.547053 
L 70.376365 295.464039 
L 70.4794 295.214999 
L 70.788505 295.131986 
L 70.891541 294.633905 
L 71.303681 294.467878 
L 71.303681 294.301851 
L 71.406717 294.301851 
L 72.127963 294.218838 
L 72.127963 293.886784 
L 72.334033 293.886784 
L 72.437069 293.637744 
L 72.643139 293.388704 
L 73.158315 293.388704 
L 73.158315 293.30569 
L 73.570456 293.139663 
L 73.982597 293.139663 
L 73.982597 293.05665 
L 74.188667 292.80761 
L 74.497773 292.143502 
L 74.703843 292.143502 
L 74.806878 291.645422 
L 74.909913 291.479395 
L 74.909913 291.147341 
L 75.115984 291.147341 
L 75.322054 290.732274 
L 75.425089 290.64926 
L 75.63116 290.64926 
L 75.63116 290.566247 
L 75.734195 290.234193 
L 75.83723 290.234193 
L 76.249371 289.90214 
L 76.249371 289.653099 
L 76.558477 289.653099 
L 76.558477 289.570086 
L 76.764547 289.321046 
L 76.764547 287.826804 
L 76.867582 287.826804 
L 77.176688 287.826804 
L 77.176688 287.660777 
L 77.794899 287.577764 
L 77.794899 287.162696 
L 78.310075 287.079683 
L 78.310075 286.830643 
L 78.619181 286.747629 
L 78.619181 286.664616 
L 78.825251 286.498589 
L 78.825251 286.166535 
L 78.928286 286.166535 
L 79.134357 286.000508 
L 79.237392 285.585441 
L 79.340427 285.585441 
L 79.443462 285.087361 
L 79.752568 285.004347 
L 79.855603 284.672293 
L 80.061673 284.58928 
L 80.061673 284.423253 
L 80.164709 284.423253 
L 80.370779 284.423253 
L 80.370779 283.842159 
L 80.78292 283.842159 
L 80.78292 283.593119 
L 80.885955 283.593119 
L 80.98899 283.344079 
L 81.195061 283.261065 
L 81.298096 283.012025 
L 81.401131 283.012025 
L 81.504166 282.264904 
L 81.710237 282.015864 
L 81.813272 282.015864 
L 81.916307 281.43477 
L 82.122377 281.351756 
L 82.122377 281.268743 
L 82.534518 281.019703 
L 82.534518 280.687649 
L 82.946659 280.687649 
L 83.152729 280.189568 
L 83.461835 280.189568 
L 83.56487 279.774501 
L 83.873976 279.691488 
L 83.977011 279.276421 
L 84.492187 279.193407 
L 84.492187 279.110394 
L 85.110398 279.02738 
L 85.110398 278.77834 
L 85.213433 278.77834 
L 85.316469 278.695327 
L 85.419504 278.363273 
L 85.625574 278.197246 
L 86.037715 278.197246 
L 86.449856 277.948206 
L 86.449856 277.699165 
L 86.552891 277.699165 
L 86.861997 277.533139 
L 87.068067 277.533139 
L 87.068067 277.118071 
L 87.171102 277.118071 
L 87.480208 277.035058 
L 87.789313 277.035058 
L 87.789313 276.536977 
L 87.995384 276.536977 
L 88.098419 275.955883 
L 88.304489 275.955883 
L 88.304489 275.789857 
L 88.51056 275.789857 
L 88.51056 275.706843 
L 88.613595 275.374789 
L 89.025736 275.291776 
L 89.128771 274.710682 
L 89.231806 274.710682 
L 89.231806 274.627669 
L 89.231806 274.378628 
L 89.334841 274.378628 
L 89.540912 274.212601 
L 90.159123 274.129588 
L 90.262158 273.797534 
L 90.365193 273.714521 
L 90.777334 273.631507 
L 90.880369 273.21644 
L 91.29251 272.9674 
L 92.116792 272.884387 
L 92.322862 272.635346 
L 92.322862 272.469319 
L 92.838038 272.386306 
L 92.941073 272.137266 
L 93.456249 272.054252 
L 93.456249 271.888225 
L 93.559284 271.888225 
L 93.971425 271.473158 
L 94.07446 270.56001 
L 94.589636 270.476997 
L 94.692672 270.144943 
L 94.898742 270.144943 
L 94.898742 269.314809 
L 95.516953 269.231796 
L 96.2382 268.733715 
L 96.2382 268.401661 
L 96.65034 268.318648 
L 96.856411 268.235634 
L 97.474622 268.152621 
L 97.474622 267.903581 
L 97.886763 267.903581 
L 97.989798 267.322487 
L 98.195868 267.322487 
L 98.401939 266.90742 
L 98.711044 266.824406 
L 98.81408 266.409339 
L 99.22622 266.160299 
L 99.329256 265.911258 
L 99.432291 265.911258 
L 99.535326 265.579205 
L 99.638361 265.579205 
L 99.741396 265.081124 
L 100.050502 264.998111 
L 100.153537 264.832084 
L 100.359608 264.832084 
L 100.359608 264.666057 
L 100.668713 264.583044 
L 100.668713 264.50003 
L 100.771748 264.50003 
L 101.080854 264.25099 
L 101.080854 264.084963 
L 101.59603 264.00195 
L 101.905136 263.503869 
L 102.008171 263.171815 
L 102.214241 263.171815 
L 102.317276 262.839762 
L 102.626382 262.839762 
L 102.935488 262.507708 
L 103.038523 262.424694 
L 103.038523 262.258668 
L 103.244593 262.258668 
L 103.244593 262.092641 
L 103.347628 262.092641 
L 103.96584 262.009627 
L 104.687086 261.760587 
L 105.099227 261.760587 
L 105.099227 261.677574 
L 105.305297 261.511547 
L 105.408332 261.262506 
L 105.614403 261.262506 
L 105.614403 260.930453 
L 105.717438 260.930453 
L 105.820473 260.847439 
L 106.129579 260.847439 
L 106.129579 260.681412 
L 106.438684 260.681412 
L 106.438684 260.515386 
L 106.54172 260.515386 
L 106.850825 260.515386 
L 106.95386 259.934292 
L 107.366001 259.519224 
L 107.366001 259.436211 
L 107.572072 259.436211 
L 107.572072 259.353198 
L 107.675107 258.44005 
L 107.778142 258.44005 
L 107.778142 258.274023 
L 107.984212 258.191009 
L 108.190283 257.775942 
L 108.293318 257.277862 
L 109.838846 257.194848 
L 110.044916 257.028821 
L 110.147952 256.281701 
L 110.250987 256.281701 
L 110.250987 256.115674 
L 110.663128 256.115674 
L 110.663128 255.949647 
L 110.869198 255.78362 
L 111.384374 255.78362 
L 111.384374 255.700607 
L 112.002585 255.285539 
L 112.002585 255.036499 
L 112.311691 255.036499 
L 112.311691 254.787459 
L 112.414726 254.787459 
L 112.620796 254.787459 
L 112.723832 254.455405 
L 112.929902 254.455405 
L 113.135972 254.206365 
L 113.548113 254.123351 
L 113.651148 253.542257 
L 113.857219 253.542257 
L 113.960254 252.87815 
L 114.47543 251.881989 
L 114.578465 251.632949 
L 114.990606 251.549935 
L 114.990606 251.466922 
L 115.196676 251.300895 
L 115.299711 250.968841 
L 115.608817 250.968841 
L 115.814887 250.802814 
L 115.814887 250.636787 
L 115.917923 250.636787 
L 116.845239 250.22172 
L 116.845239 249.72364 
L 117.05131 249.72364 
L 117.05131 249.640626 
L 117.154345 249.557613 
L 117.25738 249.308573 
L 117.360415 249.308573 
L 117.360415 248.976519 
L 117.772556 248.893505 
L 118.081662 248.644465 
L 118.184697 248.395425 
L 118.287732 248.395425 
L 118.287732 248.312411 
L 118.699873 247.980358 
L 118.802908 247.233237 
L 118.905943 247.233237 
L 119.008979 246.901183 
L 119.112014 246.901183 
L 119.215049 245.988035 
L 119.524155 245.988035 
L 119.524155 245.905022 
L 119.62719 245.822009 
L 119.730225 245.489955 
L 119.83326 245.406941 
L 119.936295 244.908861 
L 120.245401 244.908861 
L 120.554507 244.493794 
L 120.760577 244.41078 
L 120.863612 244.244753 
L 120.863612 243.9127 
L 120.966647 243.9127 
L 121.275753 243.9127 
L 121.378788 243.414619 
L 121.584859 243.414619 
L 121.584859 243.331606 
L 121.584859 243.165579 
L 121.893964 243.082565 
L 122.100035 242.999552 
L 122.20307 242.584485 
L 122.306105 242.584485 
L 122.718246 242.003391 
L 122.821281 242.003391 
L 122.821281 241.837364 
L 122.924316 241.837364 
L 123.130387 241.588324 
L 123.336457 241.588324 
L 123.336457 241.339283 
L 123.439492 241.339283 
L 123.542527 241.25627 
L 123.645563 240.924216 
L 124.057703 240.924216 
L 124.057703 240.509149 
L 124.263774 240.509149 
L 124.263774 240.343122 
L 124.469844 240.343122 
L 124.469844 240.177095 
L 124.675915 240.177095 
L 124.675915 240.011068 
L 124.98502 239.928055 
L 125.088055 239.762028 
L 125.294126 239.762028 
L 125.294126 239.679015 
L 125.912337 239.180934 
L 126.221443 239.097921 
L 126.221443 238.84888 
L 126.736619 238.765867 
L 126.839654 238.10176 
L 126.942689 238.10176 
L 126.942689 238.018746 
L 126.942689 237.769706 
L 127.045724 237.769706 
L 127.148759 237.686692 
L 127.5609 237.603679 
L 127.5609 237.520666 
L 127.766971 237.520666 
L 127.766971 237.354639 
L 127.870006 237.354639 
L 127.973041 237.188612 
L 128.076076 236.690531 
L 128.282147 236.690531 
L 128.282147 236.607518 
L 128.385182 236.441491 
L 128.797323 236.441491 
L 128.797323 236.358478 
L 129.106428 236.192451 
L 129.312499 236.109437 
L 129.415534 235.860397 
L 129.621604 235.777384 
L 129.724639 235.528343 
L 130.033745 235.279303 
L 130.445886 235.19629 
L 130.548921 235.113276 
L 130.548921 234.532182 
L 130.858027 234.532182 
L 130.961062 234.117115 
L 131.064097 234.117115 
L 131.064097 233.868075 
L 131.373203 233.785061 
L 131.476238 233.286981 
L 131.888379 233.203967 
L 131.888379 233.03794 
L 132.197484 232.954927 
L 132.300519 232.7889 
L 132.50659 232.705887 
L 132.609625 232.29082 
L 132.71266 232.29082 
L 132.71266 232.207806 
L 132.71266 232.041779 
L 132.918731 232.041779 
L 132.918731 231.792739 
L 133.021766 231.792739 
L 133.330871 231.626712 
L 133.330871 231.377672 
L 133.536942 231.377672 
L 133.536942 231.211645 
L 133.949083 231.128632 
L 133.949083 230.962605 
L 134.258188 230.713564 
L 134.361223 230.464524 
L 134.464259 230.464524 
L 134.670329 230.215484 
L 135.185505 229.88343 
L 135.391575 229.88343 
L 135.494611 229.053296 
L 135.597646 228.970282 
L 136.009786 228.887269 
L 136.731033 228.555215 
L 137.143174 228.555215 
L 137.143174 228.389188 
L 137.86442 228.306175 
L 137.967455 228.140148 
L 138.482631 228.057135 
L 138.585666 227.891108 
L 138.894772 227.808094 
L 138.894772 227.642067 
L 139.512983 227.559054 
L 139.512983 227.310014 
L 139.616018 227.310014 
L 139.822089 227.143987 
L 140.131194 227.060973 
L 140.131194 226.894947 
L 140.23423 226.894947 
L 140.64637 226.396866 
L 140.955476 226.230839 
L 141.058511 225.898785 
L 141.264582 225.898785 
L 141.264582 225.732759 
L 141.470652 225.732759 
L 141.470652 225.649745 
L 141.470652 225.483718 
L 141.573687 225.483718 
L 141.882793 225.483718 
L 141.882793 225.400705 
L 142.088863 225.234678 
L 142.81011 225.151665 
L 142.913145 224.653584 
L 143.531356 224.570571 
L 143.634391 224.32153 
L 144.046532 224.238517 
L 144.149567 223.657423 
L 144.664743 223.574409 
L 144.767778 223.408383 
L 144.870814 223.408383 
L 144.870814 223.325369 
L 145.076884 223.242356 
L 145.076884 222.993315 
L 145.38599 222.910302 
L 145.489025 222.744275 
L 145.79813 222.744275 
L 146.004201 222.329208 
L 146.004201 222.163181 
L 146.107236 222.163181 
L 146.416342 221.997154 
L 146.519377 221.748114 
L 146.622412 221.748114 
L 146.725447 220.668939 
L 147.034553 220.585926 
L 147.034553 220.502913 
L 147.240623 220.502913 
L 147.240623 220.253872 
L 147.343658 220.253872 
L 147.652764 220.087845 
L 147.755799 219.672778 
L 148.16794 219.589765 
L 148.270975 218.759631 
L 148.580081 218.676617 
L 148.580081 218.51059 
L 148.683116 218.51059 
L 148.889186 218.427577 
L 148.889186 218.178537 
L 149.095257 218.178537 
L 149.095257 218.095523 
L 149.095257 217.929496 
L 149.507398 217.846483 
L 149.507398 217.265389 
L 149.610433 217.265389 
L 149.816503 217.265389 
L 149.919538 216.933335 
L 150.125609 216.933335 
L 150.74382 216.020187 
L 150.846855 215.10704 
L 150.94989 215.024026 
L 151.052926 214.608959 
L 151.258996 214.442932 
L 151.258996 214.276905 
L 151.568102 214.193892 
L 151.671137 214.027865 
L 152.289348 213.944852 
L 152.392383 213.446771 
L 152.701489 213.363758 
L 152.701489 213.280744 
L 153.628806 213.197731 
L 153.628806 212.94869 
L 153.731841 212.94869 
L 154.143982 212.94869 
L 154.143982 212.782664 
L 154.762193 212.69965 
L 154.865228 212.20157 
L 155.586474 212.20157 
L 155.586474 212.118556 
L 155.68951 212.035543 
L 155.68951 211.869516 
L 155.89558 211.703489 
L 156.10165 211.454449 
L 156.204686 211.205408 
L 156.307721 211.205408 
L 156.307721 211.122395 
L 156.410756 211.039382 
L 156.513791 209.960207 
L 156.925932 209.79418 
L 157.028967 209.462126 
L 157.132002 209.379113 
L 157.132002 209.213086 
L 157.338073 209.213086 
L 157.441108 208.631992 
L 157.956284 208.548979 
L 158.059319 208.133912 
L 158.162354 208.133912 
L 158.162354 208.050898 
L 158.162354 207.884871 
L 158.265389 207.884871 
L 158.368425 207.718844 
L 158.780565 207.635831 
L 159.295741 207.303777 
L 160.016988 207.220764 
L 160.120023 206.473643 
L 160.532164 206.39063 
L 160.944305 205.975562 
L 160.944305 205.809536 
L 161.356445 205.145428 
L 161.356445 204.979401 
L 161.665551 204.979401 
L 161.665551 204.813374 
L 161.768586 204.813374 
L 161.974657 204.730361 
L 162.077692 204.481321 
L 162.489833 204.398307 
L 162.592868 203.236119 
L 163.211079 203.153106 
L 163.314114 202.904066 
L 163.62322 202.904066 
L 163.62322 202.572012 
L 163.932325 202.572012 
L 163.932325 202.405985 
L 164.138396 202.239958 
L 164.241431 201.741877 
L 164.550537 201.741877 
L 164.550537 201.492837 
L 164.653572 201.492837 
L 165.271783 201.409824 
L 165.374818 201.32681 
L 165.374818 200.911743 
L 165.786959 200.82873 
L 165.889994 200.662703 
L 165.993029 200.662703 
L 166.096065 200.330649 
L 166.302135 200.164622 
L 166.40517 199.749555 
L 166.817311 199.749555 
L 166.817311 199.583528 
L 167.126417 199.500515 
L 167.229452 199.334488 
L 168.053733 199.002434 
L 168.362839 198.919421 
L 168.465874 198.670381 
L 168.77498 198.587367 
L 168.878015 198.42134 
L 169.084085 198.42134 
L 169.084085 198.255313 
L 169.702297 198.006273 
L 169.702297 197.92326 
L 170.011402 197.840246 
L 170.114437 197.674219 
L 170.217473 197.674219 
L 170.320508 197.176139 
L 170.732649 197.176139 
L 170.835684 196.844085 
L 171.144789 196.761072 
L 171.659965 196.678058 
L 171.659965 196.262991 
L 172.072106 196.179978 
L 172.072106 196.096964 
L 172.278177 196.096964 
L 172.381212 195.847924 
L 172.484247 195.847924 
L 172.484247 195.681897 
L 172.896388 195.598884 
L 172.896388 195.26683 
L 172.999423 195.26683 
L 173.617634 194.768749 
L 173.92674 194.768749 
L 174.029775 194.104642 
L 174.441916 194.021629 
L 174.647986 193.772588 
L 174.647986 193.689575 
L 174.854057 193.689575 
L 174.957092 193.440535 
L 175.163162 193.440535 
L 175.163162 193.357521 
L 175.266197 193.025467 
L 175.575303 192.942454 
L 175.678338 192.36136 
L 176.193514 192.36136 
L 176.193514 192.11232 
L 177.017796 192.029306 
L 177.429937 191.531226 
L 177.739042 191.365199 
L 177.842077 190.950132 
L 178.254218 190.784105 
L 178.357253 190.452051 
L 178.563324 190.452051 
L 178.769394 190.203011 
L 178.872429 190.203011 
L 178.975465 189.870957 
L 179.0785 189.787944 
L 179.387605 189.787944 
L 179.902781 189.45589 
L 179.902781 189.123836 
L 180.417957 188.625756 
L 181.036168 188.542742 
L 181.139204 188.293702 
L 181.242239 188.293702 
L 181.242239 188.210689 
L 181.345274 187.961648 
L 181.551344 187.961648 
L 181.65438 187.712608 
L 181.757415 187.546581 
L 182.06652 187.546581 
L 182.06652 187.380554 
L 182.272591 187.380554 
L 182.375626 187.0485 
L 182.890802 186.882474 
L 182.993837 186.55042 
L 183.096872 186.467406 
L 183.509013 186.384393 
L 183.612048 186.30138 
L 183.715084 185.803299 
L 184.127224 185.803299 
L 184.127224 185.637272 
L 184.333295 185.637272 
L 184.333295 185.388232 
L 184.848471 185.305218 
L 184.848471 185.139192 
L 185.878823 184.890151 
L 185.878823 184.641111 
L 186.497034 184.558098 
L 186.600069 184.226044 
L 186.909175 184.060017 
L 187.01221 183.727963 
L 187.424351 183.64495 
L 187.424351 183.478923 
L 188.351668 183.39591 
L 188.351668 182.482762 
L 188.454703 182.482762 
L 188.557738 182.399748 
L 188.660773 181.901668 
L 189.485055 181.818654 
L 189.58809 181.652628 
L 189.691125 181.652628 
L 189.691125 181.569614 
L 189.79416 181.071534 
L 190.206301 180.98852 
L 190.206301 180.905507 
L 190.412372 180.822493 
L 190.412372 180.573453 
L 190.618442 180.573453 
L 190.618442 180.407426 
L 191.133618 180.324413 
L 191.133618 180.075372 
L 191.854864 180.075372 
L 191.854864 179.909346 
L 192.060935 179.909346 
L 192.060935 179.743319 
L 192.267005 179.577292 
L 192.576111 179.577292 
L 192.576111 179.494278 
L 192.679146 179.411265 
L 193.194322 179.328252 
L 193.503428 178.996198 
L 193.503428 178.913184 
L 194.018604 178.664144 
L 194.121639 178.498117 
L 194.224674 178.415104 
L 194.430744 178.415104 
L 194.430744 178.249077 
L 194.53378 178.249077 
L 194.636815 178.166064 
L 194.636815 177.917023 
L 194.73985 177.917023 
L 194.842885 177.83401 
L 194.842885 177.335929 
L 195.151991 177.252916 
L 195.151991 177.169902 
L 195.667167 177.086889 
L 195.667167 177.003876 
L 196.079308 177.003876 
L 196.079308 176.920862 
L 196.079308 176.754835 
L 196.594484 176.671822 
L 196.697519 176.173741 
L 196.903589 176.173741 
L 197.006624 175.841688 
L 197.624836 175.42662 
L 197.830906 175.343607 
L 197.933941 174.92854 
L 198.140012 174.845526 
L 198.243047 174.6795 
L 198.552152 174.596486 
L 198.655188 174.513473 
L 198.655188 174.347446 
L 198.861258 174.347446 
L 198.964293 174.098406 
L 199.067328 174.098406 
L 199.170364 173.849365 
L 199.273399 173.849365 
L 199.273399 173.600325 
L 199.994645 173.517311 
L 200.09768 173.185258 
L 200.612856 173.102244 
L 200.818927 172.853204 
L 201.334103 172.770191 
L 201.334103 172.52115 
L 201.437138 172.52115 
L 201.540173 172.438137 
L 201.849279 172.355123 
L 201.849279 172.189097 
L 202.158384 172.189097 
L 202.26142 171.774029 
L 202.46749 171.691016 
L 202.46749 171.192935 
L 202.879631 171.109922 
L 202.982666 170.777868 
L 203.497842 170.777868 
L 203.497842 170.694855 
L 204.013018 170.279788 
L 204.734264 170.279788 
L 204.734264 170.196774 
L 204.837299 170.113761 
L 205.04337 170.113761 
L 205.04337 169.947734 
L 205.24944 169.947734 
L 205.352475 169.61568 
L 205.558546 169.532667 
L 205.661581 169.36664 
L 205.970687 169.283627 
L 206.073722 169.1176 
L 206.691933 169.034586 
L 206.794968 168.702533 
L 207.207109 168.619519 
L 207.310144 168.453492 
L 207.516215 168.453492 
L 207.61925 168.204452 
L 208.340496 168.121439 
L 208.443531 167.955412 
L 208.546567 167.872398 
L 208.958707 167.872398 
L 208.958707 167.706371 
L 209.576919 167.623358 
L 209.782989 167.374318 
L 210.19513 167.374318 
L 210.19513 167.125277 
L 210.298165 167.125277 
L 210.710306 166.959251 
L 210.813341 166.46117 
L 211.225482 166.21213 
L 211.431552 166.129116 
L 211.637623 165.631036 
L 212.77101 165.132955 
L 212.77101 164.966928 
L 213.183151 164.883915 
L 213.183151 164.717888 
L 213.698327 164.634875 
L 213.801362 164.385834 
L 214.419573 164.302821 
L 214.625643 164.136794 
L 214.934749 164.053781 
L 214.934749 163.970767 
L 215.037784 163.970767 
L 215.243855 163.970767 
L 215.55296 163.80474 
L 216.068136 163.721727 
L 216.068136 163.5557 
L 216.686347 163.472687 
L 216.789383 163.057619 
L 216.995453 163.057619 
L 217.098488 162.891593 
L 217.304559 162.891593 
L 217.304559 162.808579 
L 217.510629 162.642552 
L 217.819735 162.310499 
L 217.819735 162.061458 
L 218.025805 162.061458 
L 218.025805 161.978445 
L 218.025805 161.812418 
L 218.334911 161.812418 
L 218.334911 161.646391 
L 218.644016 161.563378 
L 218.747051 160.982284 
L 219.056157 160.89927 
L 219.159192 160.65023 
L 219.365263 160.567217 
L 219.468298 160.235163 
L 219.674368 160.152149 
L 219.674368 160.069136 
L 219.777403 160.069136 
L 219.880439 159.986123 
L 219.880439 159.737082 
L 220.086509 159.654069 
L 220.086509 159.488042 
L 220.601685 159.488042 
L 220.70472 158.989961 
L 220.807755 158.989961 
L 220.807755 158.906948 
L 221.322931 158.491881 
L 221.425967 158.076814 
L 221.529002 157.910787 
L 221.529002 157.661746 
L 222.044178 157.163666 
L 222.559354 157.163666 
L 222.662389 156.499558 
L 223.177565 156.416545 
L 223.177565 156.333532 
L 223.2806 156.333532 
L 224.104882 156.084491 
L 224.104882 155.918464 
L 224.207917 155.918464 
L 224.517023 155.835451 
L 224.620058 155.33737 
L 225.135234 155.254357 
L 225.135234 155.08833 
L 225.341304 155.08833 
L 225.341304 154.922303 
L 225.547374 154.756276 
L 225.547374 154.59025 
L 226.06255 154.507236 
L 226.268621 154.424223 
L 226.371656 154.175182 
L 226.577726 154.175182 
L 226.680762 153.843129 
L 226.783797 153.760115 
L 226.783797 153.262035 
L 226.989867 153.262035 
L 227.092902 152.846968 
L 227.195938 152.680941 
L 227.402008 152.680941 
L 227.402008 152.597927 
L 227.402008 152.348887 
L 227.505043 152.348887 
L 227.814149 152.016833 
L 228.020219 151.767793 
L 228.22629 151.767793 
L 228.22629 151.68478 
L 228.329325 151.601766 
L 228.535395 151.601766 
L 228.535395 151.352726 
L 228.63843 151.352726 
L 228.844501 151.186699 
L 228.947536 151.103686 
L 229.153606 151.103686 
L 229.256642 150.854645 
L 229.874853 150.771632 
L 229.977888 150.522592 
L 230.080923 150.522592 
L 230.390029 149.775471 
L 230.80217 149.692457 
L 230.80217 149.609444 
L 231.00824 149.609444 
L 231.00824 149.360404 
L 231.21431 149.360404 
L 231.317346 149.111363 
L 231.626451 149.02835 
L 231.832522 148.945336 
L 232.141627 148.945336 
L 233.068944 148.530269 
L 233.068944 148.364242 
L 233.275014 148.364242 
L 233.275014 148.032189 
L 233.37805 148.032189 
L 233.58412 147.783148 
L 233.58412 147.617122 
L 233.79019 147.617122 
L 233.79019 147.451095 
L 233.893226 147.451095 
L 234.511437 147.368081 
L 234.614472 147.285068 
L 235.541789 147.285068 
L 235.644824 146.953014 
L 235.850894 146.870001 
L 235.95393 146.62096 
L 236.056965 146.537947 
L 236.572141 146.454934 
L 236.572141 146.37192 
L 236.778211 146.288907 
L 236.778211 146.039866 
L 237.087317 145.956853 
L 237.190352 145.707813 
L 237.396422 145.624799 
L 237.396422 145.541786 
L 237.911598 145.541786 
L 238.014634 145.209732 
L 238.117669 145.209732 
L 238.117669 145.043705 
L 238.426774 145.043705 
L 238.426774 144.877678 
L 238.52981 144.877678 
L 238.838915 144.794665 
L 239.354091 144.794665 
L 239.457126 144.213571 
L 239.766232 144.130557 
L 239.766232 144.047544 
L 240.178373 143.964531 
L 240.693549 143.798504 
L 240.693549 143.549463 
L 241.208725 143.549463 
L 241.31176 143.21741 
L 241.620866 142.553302 
L 241.826936 142.387275 
L 241.929971 142.055222 
L 242.445147 141.972208 
L 242.445147 141.889195 
L 242.548182 141.889195 
L 242.754253 141.806181 
L 242.754253 141.640155 
L 243.475499 141.391114 
L 243.578534 141.225087 
L 243.784605 141.225087 
L 243.88764 140.976047 
L 243.990675 140.893034 
L 244.505851 140.81002 
L 244.814957 140.643993 
L 244.814957 140.394953 
L 244.917992 140.394953 
L 245.742274 140.31194 
L 245.845309 140.145913 
L 246.154414 139.896873 
L 246.66959 139.813859 
L 247.184766 139.481805 
L 247.906013 139.232765 
L 247.906013 139.149752 
L 248.421189 139.066738 
L 248.421189 138.983725 
L 248.627259 138.983725 
L 248.627259 138.817698 
L 248.730294 138.817698 
L 248.833329 138.734685 
L 249.142435 138.734685 
L 249.142435 138.568658 
L 249.348505 138.568658 
L 249.348505 138.485644 
L 249.760646 138.236604 
L 249.863681 137.987564 
L 250.378857 137.90455 
L 250.481893 137.738523 
L 250.790998 137.738523 
L 250.894033 137.489483 
L 251.409209 137.40647 
L 251.409209 137.240443 
L 251.512245 137.240443 
L 251.924385 137.157429 
L 252.233491 136.991403 
L 252.645632 136.742362 
L 252.645632 136.659349 
L 253.366878 136.576335 
L 253.469913 136.493322 
L 253.779019 136.410309 
L 253.779019 136.327295 
L 253.985089 136.327295 
L 254.088125 135.995241 
L 254.603301 135.912228 
L 254.809371 135.663188 
L 255.324547 135.580174 
L 255.427582 135.331134 
L 256.148829 135.331134 
L 256.251864 134.99908 
L 256.354899 134.833053 
L 256.457934 134.501 
L 256.870075 134.417986 
L 256.870075 134.251959 
L 257.488286 134.168946 
L 257.488286 133.919906 
L 257.900427 133.836892 
L 257.900427 133.753879 
L 258.209533 133.670865 
L 258.621673 133.421825 
L 259.033814 133.421825 
L 259.033814 133.172785 
L 259.54899 133.172785 
L 259.858096 132.757718 
L 260.167201 132.674704 
L 260.270237 132.09361 
L 260.476307 132.09361 
L 260.476307 132.010597 
L 260.579342 131.927583 
L 260.682377 131.59553 
L 260.991483 131.59553 
L 260.991483 131.512516 
L 260.991483 131.346489 
L 261.506659 131.263476 
L 261.9188 131.180462 
L 262.227905 130.848409 
L 262.537011 130.848409 
L 262.537011 130.765395 
L 262.640046 130.682382 
L 263.876469 130.599368 
L 263.876469 130.516355 
L 263.979504 130.516355 
L 264.185574 130.350328 
L 264.597715 130.267315 
L 264.597715 130.101288 
L 265.009856 130.101288 
L 265.009856 130.018274 
L 265.215926 129.935261 
L 265.731102 129.852248 
L 265.834137 129.686221 
L 266.040208 129.686221 
L 266.143243 129.43718 
L 266.555384 129.354167 
L 266.761454 129.105127 
L 266.864489 129.022113 
L 267.07056 129.022113 
L 267.07056 128.856086 
L 267.173595 128.856086 
L 267.585736 128.773073 
L 267.791806 128.69006 
L 267.791806 128.607046 
L 267.997877 128.607046 
L 267.997877 128.441019 
L 268.410017 128.358006 
L 268.513053 128.108966 
L 268.719123 128.025952 
L 268.719123 127.942939 
L 269.543405 127.859925 
L 269.543405 127.527872 
L 269.64644 127.527872 
L 269.955545 127.361845 
L 270.05858 127.361845 
L 270.05858 127.278831 
L 270.367686 127.112804 
L 271.088932 127.029791 
L 271.088932 126.780751 
L 271.398038 126.614724 
L 271.501073 126.28267 
L 271.604108 126.28267 
L 271.604108 126.116643 
L 272.016249 125.701576 
L 272.63446 125.618563 
L 272.63446 125.535549 
L 273.252672 125.452536 
L 273.252672 125.369522 
L 273.355707 125.369522 
L 273.458742 125.286509 
L 273.561777 124.954455 
L 273.973918 124.954455 
L 274.179988 124.705415 
L 274.179988 124.373361 
L 274.283024 124.373361 
L 274.592129 124.124321 
L 274.901235 124.041308 
L 275.00427 123.62624 
L 275.313376 123.543227 
L 275.313376 123.3772 
L 275.828552 123.294187 
L 275.828552 123.211173 
L 275.931587 123.211173 
L 276.240692 123.12816 
L 276.446763 123.045146 
L 276.652833 122.962133 
L 276.755868 122.547066 
L 277.271044 122.464052 
L 277.37408 122.131999 
L 277.683185 122.131999 
L 277.683185 121.965972 
L 277.78622 121.965972 
L 278.301396 121.799945 
L 278.507467 121.799945 
L 278.507467 121.716932 
L 278.507467 121.384878 
L 278.610502 121.384878 
L 278.713537 121.052824 
L 279.125678 120.969811 
L 279.125678 120.803784 
L 280.15603 120.803784 
L 280.15603 120.637757 
L 280.3621 120.637757 
L 280.465136 120.47173 
L 280.980312 120.305703 
L 281.495488 120.22269 
L 281.495488 120.139676 
L 281.701558 120.139676 
L 281.701558 119.97365 
L 282.216734 119.890636 
L 282.52584 119.724609 
L 283.247086 119.641596 
L 283.247086 119.558582 
L 283.350121 119.558582 
L 284.071368 119.558582 
L 284.174403 119.392556 
L 284.174403 119.060502 
L 284.483508 118.728448 
L 284.483508 118.562421 
L 285.10172 118.479408 
L 285.204755 118.313381 
L 285.822966 118.230368 
L 285.926001 118.064341 
L 286.029036 118.064341 
L 286.132072 117.649274 
L 286.544212 117.56626 
L 286.956353 117.483247 
L 287.162424 117.483247 
L 287.471529 117.068179 
L 287.574564 117.068179 
L 287.6776 116.736126 
L 288.398846 116.653112 
L 288.501881 116.238045 
L 288.707952 116.155032 
L 288.810987 115.822978 
L 289.429198 115.739965 
L 289.429198 115.490924 
L 290.150444 115.407911 
L 290.150444 115.324897 
L 291.077761 115.324897 
L 291.077761 115.158871 
L 291.283832 115.158871 
L 291.386867 114.90983 
L 292.005078 114.577777 
L 292.108113 114.494763 
L 292.726324 114.494763 
L 292.829359 114.079696 
L 293.344535 113.996683 
L 293.962747 113.664629 
L 294.065782 113.415589 
L 294.271852 113.332575 
L 294.271852 113.166548 
L 295.405239 113.166548 
L 295.405239 113.000521 
L 295.920415 112.917508 
L 295.920415 112.419427 
L 296.435591 112.419427 
L 296.435591 112.253401 
L 296.641662 112.170387 
L 297.053803 112.170387 
L 297.053803 112.087374 
L 297.568979 111.174226 
L 297.672014 110.925186 
L 298.084155 110.842172 
L 298.084155 110.759159 
L 298.39326 110.676145 
L 298.496295 110.510119 
L 299.011471 110.178065 
L 299.114507 110.178065 
L 299.114507 110.012038 
L 299.217542 110.012038 
L 299.320577 109.929025 
L 299.320577 109.596971 
L 299.526647 109.596971 
L 299.526647 109.513957 
L 299.629683 109.430944 
L 299.732718 109.181904 
L 300.144859 109.09889 
L 300.144859 108.766837 
L 300.866105 108.683823 
L 300.866105 108.60081 
L 301.175211 108.60081 
L 301.175211 108.351769 
L 301.587351 108.268756 
L 301.587351 107.936702 
L 301.999492 107.770675 
L 301.999492 107.604649 
L 303.441985 107.521635 
L 303.441985 107.438622 
L 303.957161 107.355608 
L 304.163231 107.272595 
L 304.163231 106.940541 
L 304.575372 106.857528 
L 304.575372 106.774514 
L 306.017865 106.691501 
L 306.017865 106.442461 
L 306.430006 106.359447 
L 306.533041 106.19342 
L 306.739111 106.110407 
L 306.739111 106.027393 
L 307.048217 105.778353 
L 307.254287 105.363286 
L 307.357323 105.280273 
L 307.872499 105.197259 
L 307.975534 104.782192 
L 308.181604 104.782192 
L 308.181604 104.616165 
L 308.387675 104.450138 
L 308.593745 104.284111 
L 309.005886 104.201098 
L 309.005886 104.118085 
L 309.108921 104.118085 
L 309.211956 104.035071 
L 309.418027 104.035071 
L 309.624097 103.869044 
L 310.551414 103.620004 
L 310.654449 103.536991 
L 311.375695 103.453977 
L 311.375695 103.370964 
L 311.684801 103.28795 
L 311.684801 103.204937 
L 312.612118 103.121923 
L 312.715153 102.872883 
L 313.127294 102.457816 
L 313.230329 102.125762 
L 313.333364 102.125762 
L 313.333364 101.876722 
L 313.951575 101.793708 
L 314.054611 101.461655 
L 314.672822 101.378641 
L 314.672822 101.295628 
L 315.703174 101.212614 
L 315.909244 101.046588 
L 316.115314 101.046588 
L 316.115314 100.880561 
L 316.63049 100.880561 
L 316.733526 100.63152 
L 316.836561 100.13344 
L 316.939596 100.050426 
L 317.351737 100.050426 
L 317.660842 99.469332 
L 317.660842 99.303306 
L 318.691194 99.220292 
L 318.79423 98.888238 
L 319.0003 98.888238 
L 319.0003 98.805225 
L 319.309406 98.722212 
L 319.309406 98.556185 
L 319.515476 98.556185 
L 319.824582 98.390158 
L 319.824582 98.141118 
L 320.236722 98.058104 
L 320.236722 97.975091 
L 321.267074 97.72605 
L 321.37011 97.47701 
L 321.473145 97.393997 
L 321.57618 97.144956 
L 321.988321 97.061943 
L 322.091356 96.895916 
L 322.194391 96.812903 
L 322.194391 96.646876 
L 322.297426 96.646876 
L 323.018673 96.563862 
L 323.224743 96.397836 
L 323.533849 96.397836 
L 323.636884 96.065782 
L 323.842954 96.065782 
L 324.049025 95.899755 
L 324.15206 95.816742 
L 325.079377 95.816742 
L 325.182412 95.401674 
L 325.182412 95.069621 
L 325.697588 94.986607 
L 325.800623 94.57154 
L 326.212764 94.57154 
L 326.212764 94.3225 
L 326.830975 94.239486 
L 326.93401 94.07346 
L 327.140081 94.07346 
L 327.140081 93.990446 
L 327.346151 93.907433 
L 328.067398 93.907433 
L 328.170433 93.658392 
L 328.685609 93.575379 
L 328.788644 93.326339 
L 328.994714 93.160312 
L 329.406855 93.160312 
L 329.406855 93.077298 
L 329.50989 92.994285 
L 330.025066 92.911272 
L 330.231137 92.828258 
L 330.231137 92.579218 
L 331.261489 92.496204 
L 331.364524 92.247164 
L 331.776665 92.164151 
L 331.776665 91.998124 
L 331.8797 91.998124 
L 333.425228 91.998124 
L 333.425228 91.832097 
L 333.528263 91.832097 
L 333.631298 91.749084 
L 333.734334 91.001963 
L 333.940404 91.001963 
L 334.043439 90.337855 
L 334.558615 90.254842 
L 334.558615 90.171828 
L 335.176826 90.088815 
L 335.279862 89.839775 
L 335.382897 89.756761 
L 336.001108 89.673748 
L 336.310214 89.507721 
L 336.928425 89.424708 
L 337.340565 89.092654 
L 337.752706 89.00964 
L 337.752706 88.926627 
L 338.370917 88.926627 
L 338.370917 88.7606 
L 338.680023 88.7606 
L 338.680023 88.51156 
L 339.195199 88.428546 
L 339.195199 88.345533 
L 339.710375 88.262519 
L 339.710375 88.179506 
L 339.916445 88.179506 
L 339.916445 87.930466 
L 340.740727 87.847452 
L 340.843762 87.681425 
L 341.358938 87.598412 
L 341.461973 87.432385 
L 341.977149 87.349372 
L 342.080185 87.266358 
L 342.080185 87.100331 
L 342.492325 86.934305 
L 342.801431 86.934305 
L 342.801431 86.768278 
L 343.110537 86.685264 
L 343.316607 86.685264 
L 343.316607 86.519237 
L 343.522677 86.519237 
L 343.522677 86.436224 
L 343.728748 86.353211 
L 343.728748 86.10417 
L 343.831783 86.10417 
L 344.346959 86.021157 
L 344.449994 85.772117 
L 344.862135 85.772117 
L 344.96517 85.523076 
L 345.377311 85.440063 
L 345.377311 84.526915 
L 345.583381 84.526915 
L 345.995522 84.028835 
L 346.613733 83.945821 
L 346.716769 83.696781 
L 346.922839 83.696781 
L 347.231945 83.447741 
L 347.644085 83.364727 
L 347.644085 83.115687 
L 347.953191 83.115687 
L 348.056226 82.866647 
L 348.468367 82.783633 
L 348.880508 82.534593 
L 349.189613 82.368566 
L 349.189613 82.285553 
L 349.601754 82.202539 
L 349.704789 82.119526 
L 349.704789 81.953499 
L 350.323001 81.953499 
L 350.426036 81.538432 
L 350.838177 81.455418 
L 350.941212 81.206378 
L 351.456388 81.206378 
L 351.456388 80.874324 
L 352.48674 80.874324 
L 352.69281 80.708297 
L 353.104951 80.708297 
L 353.104951 80.625284 
L 353.104951 80.376244 
L 354.341373 80.29323 
L 354.341373 80.210217 
L 354.547444 80.210217 
L 354.650479 80.04419 
L 354.959585 80.04419 
L 354.959585 79.79515 
L 355.06262 79.79515 
L 355.165655 79.712136 
L 355.26869 79.463096 
L 355.474761 79.131042 
L 356.608148 79.048029 
L 356.711183 78.798989 
L 357.329394 78.715975 
L 357.329394 78.632962 
L 358.050641 78.549948 
L 358.153676 78.300908 
L 358.359746 78.300908 
L 358.462781 77.968854 
L 358.771887 77.802827 
L 359.287063 77.719814 
L 359.493133 77.636801 
L 359.596168 77.221733 
L 360.111344 77.13872 
L 361.347767 76.723653 
L 361.656872 76.640639 
L 361.656872 76.557626 
L 361.759908 76.557626 
L 362.275084 76.474613 
L 363.099365 75.810505 
L 363.820612 75.810505 
L 364.026682 75.644478 
L 364.953999 75.561465 
L 364.953999 75.478451 
L 367.426844 74.23325 
L 367.632914 74.150236 
L 367.735949 74.067223 
L 368.14809 73.901196 
L 368.14809 73.818183 
L 368.972372 73.735169 
L 368.972372 73.569142 
L 369.693618 73.486129 
L 369.693618 73.320102 
L 370.105759 73.320102 
L 370.105759 73.237089 
L 370.208794 72.905035 
L 370.620935 72.822022 
L 370.72397 72.489968 
L 370.827005 72.406954 
L 371.033076 72.406954 
L 371.033076 72.240928 
L 371.548252 72.157914 
L 371.651287 71.991887 
L 371.857357 71.742847 
L 371.960392 71.493807 
L 372.166463 71.410793 
L 372.166463 71.32778 
L 372.681639 71.244766 
L 372.784674 70.912713 
L 372.990744 70.912713 
L 372.990744 70.746686 
L 373.09378 70.746686 
L 373.29985 70.746686 
L 373.29985 70.580659 
L 373.711991 70.497646 
L 373.815026 70.414632 
L 374.124132 70.414632 
L 374.124132 70.248605 
L 374.227167 70.248605 
L 374.639308 69.833538 
L 374.742343 69.584498 
L 374.948413 69.418471 
L 375.051448 69.252444 
L 375.772695 69.169431 
L 376.803047 68.754364 
L 377.009117 68.67135 
L 377.009117 68.588337 
L 377.421258 68.505323 
L 377.421258 68.42231 
L 378.348575 68.339296 
L 378.760716 68.256283 
L 378.760716 68.090256 
L 378.966786 68.090256 
L 378.966786 67.924229 
L 380.203208 67.841216 
L 380.718384 67.758202 
L 380.82142 67.426149 
L 381.130525 67.426149 
L 381.23356 67.260122 
L 382.057842 67.011082 
L 382.573018 66.928068 
L 382.573018 66.679028 
L 382.676053 66.679028 
L 382.779088 66.513001 
L 382.985159 66.513001 
L 382.985159 66.263961 
L 383.191229 66.263961 
L 383.191229 66.097934 
L 383.500335 66.097934 
L 383.706405 65.931907 
L 383.912475 65.848894 
L 385.251933 65.76588 
L 385.251933 65.682867 
L 385.458003 65.682867 
L 386.488355 65.184786 
L 387.003531 65.184786 
L 387.003531 65.101773 
L 387.209602 64.852732 
L 387.518707 64.852732 
L 387.621743 64.354652 
L 388.136919 64.271638 
L 388.136919 64.105612 
L 388.858165 63.939585 
L 388.858165 63.690544 
L 389.888517 63.607531 
L 389.991552 63.441504 
L 390.197623 63.441504 
L 390.403693 63.275477 
L 390.918869 63.192464 
L 391.124939 63.10945 
L 391.846186 63.026437 
L 392.567432 62.528356 
L 392.670467 62.528356 
L 392.773503 62.279316 
L 393.700819 62.279316 
L 394.422066 62.030276 
L 394.422066 61.864249 
L 394.525101 61.864249 
L 394.731171 61.698222 
L 395.349383 61.615209 
L 396.48277 60.619047 
L 396.585805 60.453021 
L 398.234368 60.20398 
L 398.543474 59.871927 
L 399.05865 59.871927 
L 399.161685 59.7059 
L 399.367755 59.539873 
L 399.367755 59.290833 
L 401.119354 58.709739 
L 401.119354 58.543712 
L 401.63453 58.460698 
L 401.63453 58.377685 
L 401.737565 58.377685 
L 402.252741 58.294671 
L 402.252741 58.211658 
L 402.458811 58.211658 
L 402.870952 57.879604 
L 403.798269 57.879604 
L 403.901304 57.630564 
L 404.21041 57.547551 
L 406.580219 56.634403 
L 407.095395 56.551389 
L 407.713606 56.385363 
L 408.434853 56.136322 
L 409.36217 55.721255 
L 410.289486 55.638242 
L 410.495557 55.555228 
L 410.701627 55.555228 
L 414.72 54.144 
L 414.72 54.144 
" clip-path="url(#p16c9d0fec8)" style="fill: none; stroke: #1f77b4; stroke-width: 1.5; stroke-linecap: square"/>
   </g>
   <g id="line2d_14">
    <path d="M 57.6 307.584 
L 414.72 54.144 
" clip-path="url(#p16c9d0fec8)" style="fill: none; stroke-dasharray: 5.55,2.4; stroke-dashoffset: 0; stroke: #000000; stroke-width: 1.5"/>
   </g>
   <g id="patch_3">
    <path d="M 57.6 307.584 
L 57.6 41.472 
" style="fill: none; stroke: #000000; stroke-width: 0.8; stroke-linejoin: miter; stroke-linecap: square"/>
   </g>
   <g id="patch_4">
    <path d="M 414.72 307.584 
L 414.72 41.472 
" style="fill: none; stroke: #000000; stroke-width: 0.8; stroke-linejoin: miter; stroke-linecap: square"/>
   </g>
   <g id="patch_5">
    <path d="M 57.6 307.584 
L 414.72 307.584 
" style="fill: none; stroke: #000000; stroke-width: 0.8; stroke-linejoin: miter; stroke-linecap: square"/>
   </g>
   <g id="patch_6">
    <path d="M 57.6 41.472 
L 414.72 41.472 
" style="fill: none; stroke: #000000; stroke-width: 0.8; stroke-linejoin: miter; stroke-linecap: square"/>
   </g>
   <g id="text_15">
    <!-- Receiver Operating Characteristic -->
    <g transform="translate(134.656875 35.472) scale(0.12 -0.12)">
     <defs>
      <path id="DejaVuSans-63" d="M 3122 3366 
L 3122 2828 
Q 2878 2963 2633 3030 
Q 2388 3097 2138 3097 
Q 1578 3097 1268 2742 
Q 959 2388 959 1747 
Q 959 1106 1268 751 
Q 1578 397 2138 397 
Q 2388 397 2633 464 
Q 2878 531 3122 666 
L 3122 134 
Q 2881 22 2623 -34 
Q 2366 -91 2075 -91 
Q 1284 -91 818 406 
Q 353 903 353 1747 
Q 353 2603 823 3093 
Q 1294 3584 2113 3584 
Q 2378 3584 2631 3529 
Q 2884 3475 3122 3366 
z
" transform="scale(0.015625)"/>
      <path id="DejaVuSans-4f" d="M 2522 4238 
Q 1834 4238 1429 3725 
Q 1025 3213 1025 2328 
Q 1025 1447 1429 934 
Q 1834 422 2522 422 
Q 3209 422 3611 934 
Q 4013 1447 4013 2328 
Q 4013 3213 3611 3725 
Q 3209 4238 2522 4238 
z
M 2522 4750 
Q 3503 4750 4090 4092 
Q 4678 3434 4678 2328 
Q 4678 1225 4090 567 
Q 3503 -91 2522 -91 
Q 1538 -91 948 565 
Q 359 1222 359 2328 
Q 359 3434 948 4092 
Q 1538 4750 2522 4750 
z
" transform="scale(0.015625)"/>
      <path id="DejaVuSans-70" d="M 1159 525 
L 1159 -1331 
L 581 -1331 
L 581 3500 
L 1159 3500 
L 1159 2969 
Q 1341 3281 1617 3432 
Q 1894 3584 2278 3584 
Q 2916 3584 3314 3078 
Q 3713 2572 3713 1747 
Q 3713 922 3314 415 
Q 2916 -91 2278 -91 
Q 1894 -91 1617 61 
Q 1341 213 1159 525 
z
M 3116 1747 
Q 3116 2381 2855 2742 
Q 2594 3103 2138 3103 
Q 1681 3103 1420 2742 
Q 1159 2381 1159 1747 
Q 1159 1113 1420 752 
Q 1681 391 2138 391 
Q 2594 391 2855 752 
Q 3116 1113 3116 1747 
z
" transform="scale(0.015625)"/>
      <path id="DejaVuSans-6e" d="M 3513 2113 
L 3513 0 
L 2938 0 
L 2938 2094 
Q 2938 2591 2744 2837 
Q 2550 3084 2163 3084 
Q 1697 3084 1428 2787 
Q 1159 2491 1159 1978 
L 1159 0 
L 581 0 
L 581 3500 
L 1159 3500 
L 1159 2956 
Q 1366 3272 1645 3428 
Q 1925 3584 2291 3584 
Q 2894 3584 3203 3211 
Q 3513 2838 3513 2113 
z
" transform="scale(0.015625)"/>
      <path id="DejaVuSans-67" d="M 2906 1791 
Q 2906 2416 2648 2759 
Q 2391 3103 1925 3103 
Q 1463 3103 1205 2759 
Q 947 2416 947 1791 
Q 947 1169 1205 825 
Q 1463 481 1925 481 
Q 2391 481 2648 825 
Q 2906 1169 2906 1791 
z
M 3481 434 
Q 3481 -459 3084 -895 
Q 2688 -1331 1869 -1331 
Q 1566 -1331 1297 -1286 
Q 1028 -1241 775 -1147 
L 775 -588 
Q 1028 -725 1275 -790 
Q 1522 -856 1778 -856 
Q 2344 -856 2625 -561 
Q 2906 -266 2906 331 
L 2906 616 
Q 2728 306 2450 153 
Q 2172 0 1784 0 
Q 1141 0 747 490 
Q 353 981 353 1791 
Q 353 2603 747 3093 
Q 1141 3584 1784 3584 
Q 2172 3584 2450 3431 
Q 2728 3278 2906 2969 
L 2906 3500 
L 3481 3500 
L 3481 434 
z
" transform="scale(0.015625)"/>
      <path id="DejaVuSans-43" d="M 4122 4306 
L 4122 3641 
Q 3803 3938 3442 4084 
Q 3081 4231 2675 4231 
Q 1875 4231 1450 3742 
Q 1025 3253 1025 2328 
Q 1025 1406 1450 917 
Q 1875 428 2675 428 
Q 3081 428 3442 575 
Q 3803 722 4122 1019 
L 4122 359 
Q 3791 134 3420 21 
Q 3050 -91 2638 -91 
Q 1578 -91 968 557 
Q 359 1206 359 2328 
Q 359 3453 968 4101 
Q 1578 4750 2638 4750 
Q 3056 4750 3426 4639 
Q 3797 4528 4122 4306 
z
" transform="scale(0.015625)"/>
      <path id="DejaVuSans-68" d="M 3513 2113 
L 3513 0 
L 2938 0 
L 2938 2094 
Q 2938 2591 2744 2837 
Q 2550 3084 2163 3084 
Q 1697 3084 1428 2787 
Q 1159 2491 1159 1978 
L 1159 0 
L 581 0 
L 581 4863 
L 1159 4863 
L 1159 2956 
Q 1366 3272 1645 3428 
Q 1925 3584 2291 3584 
Q 2894 3584 3203 3211 
Q 3513 2838 3513 2113 
z
" transform="scale(0.015625)"/>
     </defs>
     <use xlink:href="#DejaVuSans-52"/>
     <use xlink:href="#DejaVuSans-65" x="64.982422"/>
     <use xlink:href="#DejaVuSans-63" x="126.505859"/>
     <use xlink:href="#DejaVuSans-65" x="181.486328"/>
     <use xlink:href="#DejaVuSans-69" x="243.009766"/>
     <use xlink:href="#DejaVuSans-76" x="270.792969"/>
     <use xlink:href="#DejaVuSans-65" x="329.972656"/>
     <use xlink:href="#DejaVuSans-72" x="391.496094"/>
     <use xlink:href="#DejaVuSans-20" x="432.609375"/>
     <use xlink:href="#DejaVuSans-4f" x="464.396484"/>
     <use xlink:href="#DejaVuSans-70" x="543.107422"/>
     <use xlink:href="#DejaVuSans-65" x="606.583984"/>
     <use xlink:href="#DejaVuSans-72" x="668.107422"/>
     <use xlink:href="#DejaVuSans-61" x="709.220703"/>
     <use xlink:href="#DejaVuSans-74" x="770.5"/>
     <use xlink:href="#DejaVuSans-69" x="809.708984"/>
     <use xlink:href="#DejaVuSans-6e" x="837.492188"/>
     <use xlink:href="#DejaVuSans-67" x="900.871094"/>
     <use xlink:href="#DejaVuSans-20" x="964.347656"/>
     <use xlink:href="#DejaVuSans-43" x="996.134766"/>
     <use xlink:href="#DejaVuSans-68" x="1065.958984"/>
     <use xlink:href="#DejaVuSans-61" x="1129.337891"/>
     <use xlink:href="#DejaVuSans-72" x="1190.617188"/>
     <use xlink:href="#DejaVuSans-61" x="1231.730469"/>
     <use xlink:href="#DejaVuSans-63" x="1293.009766"/>
     <use xlink:href="#DejaVuSans-74" x="1347.990234"/>
     <use xlink:href="#DejaVuSans-65" x="1387.199219"/>
     <use xlink:href="#DejaVuSans-72" x="1448.722656"/>
     <use xlink:href="#DejaVuSans-69" x="1489.835938"/>
     <use xlink:href="#DejaVuSans-73" x="1517.619141"/>
     <use xlink:href="#DejaVuSans-74" x="1569.71875"/>
     <use xlink:href="#DejaVuSans-69" x="1608.927734"/>
     <use xlink:href="#DejaVuSans-63" x="1636.710938"/>
    </g>
   </g>
   <g id="legend_1">
    <g id="patch_7">
     <path d="M 252.441875 302.584 
L 407.72 302.584 
Q 409.72 302.584 409.72 300.584 
L 409.72 286.905875 
Q 409.72 284.905875 407.72 284.905875 
L 252.441875 284.905875 
Q 250.441875 284.905875 250.441875 286.905875 
L 250.441875 300.584 
Q 250.441875 302.584 252.441875 302.584 
z
" style="fill: #ffffff; opacity: 0.8; stroke: #cccccc; stroke-linejoin: miter"/>
    </g>
    <g id="line2d_15">
     <path d="M 254.441875 293.004312 
L 264.441875 293.004312 
L 274.441875 293.004312 
" style="fill: none; stroke: #1f77b4; stroke-width: 1.5; stroke-linecap: square"/>
    </g>
    <g id="text_16">
     <!-- ROC curve (area = 0.58) -->
     <g transform="translate(282.441875 296.504312) scale(0.1 -0.1)">
      <defs>
       <path id="DejaVuSans-28" d="M 1984 4856 
Q 1566 4138 1362 3434 
Q 1159 2731 1159 2009 
Q 1159 1288 1364 580 
Q 1569 -128 1984 -844 
L 1484 -844 
Q 1016 -109 783 600 
Q 550 1309 550 2009 
Q 550 2706 781 3412 
Q 1013 4119 1484 4856 
L 1984 4856 
z
" transform="scale(0.015625)"/>
       <path id="DejaVuSans-3d" d="M 678 2906 
L 4684 2906 
L 4684 2381 
L 678 2381 
L 678 2906 
z
M 678 1631 
L 4684 1631 
L 4684 1100 
L 678 1100 
L 678 1631 
z
" transform="scale(0.015625)"/>
       <path id="DejaVuSans-35" d="M 691 4666 
L 3169 4666 
L 3169 4134 
L 1269 4134 
L 1269 2991 
Q 1406 3038 1543 3061 
Q 1681 3084 1819 3084 
Q 2600 3084 3056 2656 
Q 3513 2228 3513 1497 
Q 3513 744 3044 326 
Q 2575 -91 1722 -91 
Q 1428 -91 1123 -41 
Q 819 9 494 109 
L 494 744 
Q 775 591 1075 516 
Q 1375 441 1709 441 
Q 2250 441 2565 725 
Q 2881 1009 2881 1497 
Q 2881 1984 2565 2268 
Q 2250 2553 1709 2553 
Q 1456 2553 1204 2497 
Q 953 2441 691 2322 
L 691 4666 
z
" transform="scale(0.015625)"/>
       <path id="DejaVuSans-29" d="M 513 4856 
L 1013 4856 
Q 1481 4119 1714 3412 
Q 1947 2706 1947 2009 
Q 1947 1309 1714 600 
Q 1481 -109 1013 -844 
L 513 -844 
Q 928 -128 1133 580 
Q 1338 1288 1338 2009 
Q 1338 2731 1133 3434 
Q 928 4138 513 4856 
z
" transform="scale(0.015625)"/>
      </defs>
      <use xlink:href="#DejaVuSans-52"/>
      <use xlink:href="#DejaVuSans-4f" x="69.482422"/>
      <use xlink:href="#DejaVuSans-43" x="148.193359"/>
      <use xlink:href="#DejaVuSans-20" x="218.017578"/>
      <use xlink:href="#DejaVuSans-63" x="249.804688"/>
      <use xlink:href="#DejaVuSans-75" x="304.785156"/>
      <use xlink:href="#DejaVuSans-72" x="368.164062"/>
      <use xlink:href="#DejaVuSans-76" x="409.277344"/>
      <use xlink:href="#DejaVuSans-65" x="468.457031"/>
      <use xlink:href="#DejaVuSans-20" x="529.980469"/>
      <use xlink:href="#DejaVuSans-28" x="561.767578"/>
      <use xlink:href="#DejaVuSans-61" x="600.78125"/>
      <use xlink:href="#DejaVuSans-72" x="662.060547"/>
      <use xlink:href="#DejaVuSans-65" x="700.923828"/>
      <use xlink:href="#DejaVuSans-61" x="762.447266"/>
      <use xlink:href="#DejaVuSans-20" x="823.726562"/>
      <use xlink:href="#DejaVuSans-3d" x="855.513672"/>
      <use xlink:href="#DejaVuSans-20" x="939.302734"/>
      <use xlink:href="#DejaVuSans-30" x="971.089844"/>
      <use xlink:href="#DejaVuSans-2e" x="1034.712891"/>
      <use xlink:href="#DejaVuSans-35" x="1066.5"/>
      <use xlink:href="#DejaVuSans-38" x="1130.123047"/>
      <use xlink:href="#DejaVuSans-29" x="1193.746094"/>
     </g>
    </g>
   </g>
  </g>
 </g>
 <defs>
  <clipPath id="p16c9d0fec8">
   <rect x="57.6" y="41.472" width="357.12" height="266.112"/>
  </clipPath>
 </defs>
</svg>
