<?xml version="1.0" encoding="utf-8" standalone="no"?>
<!DOCTYPE svg PUBLIC "-//W3C//DTD SVG 1.1//EN"
  "http://www.w3.org/Graphics/SVG/1.1/DTD/svg11.dtd">
<svg xmlns:xlink="http://www.w3.org/1999/xlink" width="460.8pt" height="345.6pt" viewBox="0 0 460.8 345.6" xmlns="http://www.w3.org/2000/svg" version="1.1">
 <metadata>
  <rdf:RDF xmlns:dc="http://purl.org/dc/elements/1.1/" xmlns:cc="http://creativecommons.org/ns#" xmlns:rdf="http://www.w3.org/1999/02/22-rdf-syntax-ns#">
   <cc:Work>
    <dc:type rdf:resource="http://purl.org/dc/dcmitype/StillImage"/>
    <dc:date>2024-05-01T17:08:19.098246</dc:date>
    <dc:format>image/svg+xml</dc:format>
    <dc:creator>
     <cc:Agent>
      <dc:title>Matplotlib v3.8.3, https://matplotlib.org/</dc:title>
     </cc:Agent>
    </dc:creator>
   </cc:Work>
  </rdf:RDF>
 </metadata>
 <defs>
  <style type="text/css">*{stroke-linejoin: round; stroke-linecap: butt}</style>
 </defs>
 <g id="figure_1">
  <g id="patch_1">
   <path d="M 0 345.6 
L 460.8 345.6 
L 460.8 0 
L 0 0 
z
" style="fill: #ffffff"/>
  </g>
  <g id="axes_1">
   <g id="patch_2">
    <path d="M 57.6 307.584 
L 414.72 307.584 
L 414.72 41.472 
L 57.6 41.472 
z
" style="fill: #ffffff"/>
   </g>
   <g id="matplotlib.axis_1">
    <g id="xtick_1">
     <g id="line2d_1">
      <defs>
       <path id="m2ac304c957" d="M 0 0 
L 0 3.5 
" style="stroke: #000000; stroke-width: 0.8"/>
      </defs>
      <g>
       <use xlink:href="#m2ac304c957" x="57.6" y="307.584" style="stroke: #000000; stroke-width: 0.8"/>
      </g>
     </g>
     <g id="text_1">
      <!-- 0.0 -->
      <g transform="translate(49.648438 322.182437) scale(0.1 -0.1)">
       <defs>
        <path id="DejaVuSans-30" d="M 2034 4250 
Q 1547 4250 1301 3770 
Q 1056 3291 1056 2328 
Q 1056 1369 1301 889 
Q 1547 409 2034 409 
Q 2525 409 2770 889 
Q 3016 1369 3016 2328 
Q 3016 3291 2770 3770 
Q 2525 4250 2034 4250 
z
M 2034 4750 
Q 2819 4750 3233 4129 
Q 3647 3509 3647 2328 
Q 3647 1150 3233 529 
Q 2819 -91 2034 -91 
Q 1250 -91 836 529 
Q 422 1150 422 2328 
Q 422 3509 836 4129 
Q 1250 4750 2034 4750 
z
" transform="scale(0.015625)"/>
        <path id="DejaVuSans-2e" d="M 684 794 
L 1344 794 
L 1344 0 
L 684 0 
L 684 794 
z
" transform="scale(0.015625)"/>
       </defs>
       <use xlink:href="#DejaVuSans-30"/>
       <use xlink:href="#DejaVuSans-2e" x="63.623047"/>
       <use xlink:href="#DejaVuSans-30" x="95.410156"/>
      </g>
     </g>
    </g>
    <g id="xtick_2">
     <g id="line2d_2">
      <g>
       <use xlink:href="#m2ac304c957" x="129.024" y="307.584" style="stroke: #000000; stroke-width: 0.8"/>
      </g>
     </g>
     <g id="text_2">
      <!-- 0.2 -->
      <g transform="translate(121.072438 322.182437) scale(0.1 -0.1)">
       <defs>
        <path id="DejaVuSans-32" d="M 1228 531 
L 3431 531 
L 3431 0 
L 469 0 
L 469 531 
Q 828 903 1448 1529 
Q 2069 2156 2228 2338 
Q 2531 2678 2651 2914 
Q 2772 3150 2772 3378 
Q 2772 3750 2511 3984 
Q 2250 4219 1831 4219 
Q 1534 4219 1204 4116 
Q 875 4013 500 3803 
L 500 4441 
Q 881 4594 1212 4672 
Q 1544 4750 1819 4750 
Q 2544 4750 2975 4387 
Q 3406 4025 3406 3419 
Q 3406 3131 3298 2873 
Q 3191 2616 2906 2266 
Q 2828 2175 2409 1742 
Q 1991 1309 1228 531 
z
" transform="scale(0.015625)"/>
       </defs>
       <use xlink:href="#DejaVuSans-30"/>
       <use xlink:href="#DejaVuSans-2e" x="63.623047"/>
       <use xlink:href="#DejaVuSans-32" x="95.410156"/>
      </g>
     </g>
    </g>
    <g id="xtick_3">
     <g id="line2d_3">
      <g>
       <use xlink:href="#m2ac304c957" x="200.448" y="307.584" style="stroke: #000000; stroke-width: 0.8"/>
      </g>
     </g>
     <g id="text_3">
      <!-- 0.4 -->
      <g transform="translate(192.496438 322.182437) scale(0.1 -0.1)">
       <defs>
        <path id="DejaVuSans-34" d="M 2419 4116 
L 825 1625 
L 2419 1625 
L 2419 4116 
z
M 2253 4666 
L 3047 4666 
L 3047 1625 
L 3713 1625 
L 3713 1100 
L 3047 1100 
L 3047 0 
L 2419 0 
L 2419 1100 
L 313 1100 
L 313 1709 
L 2253 4666 
z
" transform="scale(0.015625)"/>
       </defs>
       <use xlink:href="#DejaVuSans-30"/>
       <use xlink:href="#DejaVuSans-2e" x="63.623047"/>
       <use xlink:href="#DejaVuSans-34" x="95.410156"/>
      </g>
     </g>
    </g>
    <g id="xtick_4">
     <g id="line2d_4">
      <g>
       <use xlink:href="#m2ac304c957" x="271.872" y="307.584" style="stroke: #000000; stroke-width: 0.8"/>
      </g>
     </g>
     <g id="text_4">
      <!-- 0.6 -->
      <g transform="translate(263.920438 322.182437) scale(0.1 -0.1)">
       <defs>
        <path id="DejaVuSans-36" d="M 2113 2584 
Q 1688 2584 1439 2293 
Q 1191 2003 1191 1497 
Q 1191 994 1439 701 
Q 1688 409 2113 409 
Q 2538 409 2786 701 
Q 3034 994 3034 1497 
Q 3034 2003 2786 2293 
Q 2538 2584 2113 2584 
z
M 3366 4563 
L 3366 3988 
Q 3128 4100 2886 4159 
Q 2644 4219 2406 4219 
Q 1781 4219 1451 3797 
Q 1122 3375 1075 2522 
Q 1259 2794 1537 2939 
Q 1816 3084 2150 3084 
Q 2853 3084 3261 2657 
Q 3669 2231 3669 1497 
Q 3669 778 3244 343 
Q 2819 -91 2113 -91 
Q 1303 -91 875 529 
Q 447 1150 447 2328 
Q 447 3434 972 4092 
Q 1497 4750 2381 4750 
Q 2619 4750 2861 4703 
Q 3103 4656 3366 4563 
z
" transform="scale(0.015625)"/>
       </defs>
       <use xlink:href="#DejaVuSans-30"/>
       <use xlink:href="#DejaVuSans-2e" x="63.623047"/>
       <use xlink:href="#DejaVuSans-36" x="95.410156"/>
      </g>
     </g>
    </g>
    <g id="xtick_5">
     <g id="line2d_5">
      <g>
       <use xlink:href="#m2ac304c957" x="343.296" y="307.584" style="stroke: #000000; stroke-width: 0.8"/>
      </g>
     </g>
     <g id="text_5">
      <!-- 0.8 -->
      <g transform="translate(335.344438 322.182437) scale(0.1 -0.1)">
       <defs>
        <path id="DejaVuSans-38" d="M 2034 2216 
Q 1584 2216 1326 1975 
Q 1069 1734 1069 1313 
Q 1069 891 1326 650 
Q 1584 409 2034 409 
Q 2484 409 2743 651 
Q 3003 894 3003 1313 
Q 3003 1734 2745 1975 
Q 2488 2216 2034 2216 
z
M 1403 2484 
Q 997 2584 770 2862 
Q 544 3141 544 3541 
Q 544 4100 942 4425 
Q 1341 4750 2034 4750 
Q 2731 4750 3128 4425 
Q 3525 4100 3525 3541 
Q 3525 3141 3298 2862 
Q 3072 2584 2669 2484 
Q 3125 2378 3379 2068 
Q 3634 1759 3634 1313 
Q 3634 634 3220 271 
Q 2806 -91 2034 -91 
Q 1263 -91 848 271 
Q 434 634 434 1313 
Q 434 1759 690 2068 
Q 947 2378 1403 2484 
z
M 1172 3481 
Q 1172 3119 1398 2916 
Q 1625 2713 2034 2713 
Q 2441 2713 2670 2916 
Q 2900 3119 2900 3481 
Q 2900 3844 2670 4047 
Q 2441 4250 2034 4250 
Q 1625 4250 1398 4047 
Q 1172 3844 1172 3481 
z
" transform="scale(0.015625)"/>
       </defs>
       <use xlink:href="#DejaVuSans-30"/>
       <use xlink:href="#DejaVuSans-2e" x="63.623047"/>
       <use xlink:href="#DejaVuSans-38" x="95.410156"/>
      </g>
     </g>
    </g>
    <g id="xtick_6">
     <g id="line2d_6">
      <g>
       <use xlink:href="#m2ac304c957" x="414.72" y="307.584" style="stroke: #000000; stroke-width: 0.8"/>
      </g>
     </g>
     <g id="text_6">
      <!-- 1.0 -->
      <g transform="translate(406.768438 322.182437) scale(0.1 -0.1)">
       <defs>
        <path id="DejaVuSans-31" d="M 794 531 
L 1825 531 
L 1825 4091 
L 703 3866 
L 703 4441 
L 1819 4666 
L 2450 4666 
L 2450 531 
L 3481 531 
L 3481 0 
L 794 0 
L 794 531 
z
" transform="scale(0.015625)"/>
       </defs>
       <use xlink:href="#DejaVuSans-31"/>
       <use xlink:href="#DejaVuSans-2e" x="63.623047"/>
       <use xlink:href="#DejaVuSans-30" x="95.410156"/>
      </g>
     </g>
    </g>
    <g id="text_7">
     <!-- False Positive Rate -->
     <g transform="translate(189.693594 335.860562) scale(0.1 -0.1)">
      <defs>
       <path id="DejaVuSans-46" d="M 628 4666 
L 3309 4666 
L 3309 4134 
L 1259 4134 
L 1259 2759 
L 3109 2759 
L 3109 2228 
L 1259 2228 
L 1259 0 
L 628 0 
L 628 4666 
z
" transform="scale(0.015625)"/>
       <path id="DejaVuSans-61" d="M 2194 1759 
Q 1497 1759 1228 1600 
Q 959 1441 959 1056 
Q 959 750 1161 570 
Q 1363 391 1709 391 
Q 2188 391 2477 730 
Q 2766 1069 2766 1631 
L 2766 1759 
L 2194 1759 
z
M 3341 1997 
L 3341 0 
L 2766 0 
L 2766 531 
Q 2569 213 2275 61 
Q 1981 -91 1556 -91 
Q 1019 -91 701 211 
Q 384 513 384 1019 
Q 384 1609 779 1909 
Q 1175 2209 1959 2209 
L 2766 2209 
L 2766 2266 
Q 2766 2663 2505 2880 
Q 2244 3097 1772 3097 
Q 1472 3097 1187 3025 
Q 903 2953 641 2809 
L 641 3341 
Q 956 3463 1253 3523 
Q 1550 3584 1831 3584 
Q 2591 3584 2966 3190 
Q 3341 2797 3341 1997 
z
" transform="scale(0.015625)"/>
       <path id="DejaVuSans-6c" d="M 603 4863 
L 1178 4863 
L 1178 0 
L 603 0 
L 603 4863 
z
" transform="scale(0.015625)"/>
       <path id="DejaVuSans-73" d="M 2834 3397 
L 2834 2853 
Q 2591 2978 2328 3040 
Q 2066 3103 1784 3103 
Q 1356 3103 1142 2972 
Q 928 2841 928 2578 
Q 928 2378 1081 2264 
Q 1234 2150 1697 2047 
L 1894 2003 
Q 2506 1872 2764 1633 
Q 3022 1394 3022 966 
Q 3022 478 2636 193 
Q 2250 -91 1575 -91 
Q 1294 -91 989 -36 
Q 684 19 347 128 
L 347 722 
Q 666 556 975 473 
Q 1284 391 1588 391 
Q 1994 391 2212 530 
Q 2431 669 2431 922 
Q 2431 1156 2273 1281 
Q 2116 1406 1581 1522 
L 1381 1569 
Q 847 1681 609 1914 
Q 372 2147 372 2553 
Q 372 3047 722 3315 
Q 1072 3584 1716 3584 
Q 2034 3584 2315 3537 
Q 2597 3491 2834 3397 
z
" transform="scale(0.015625)"/>
       <path id="DejaVuSans-65" d="M 3597 1894 
L 3597 1613 
L 953 1613 
Q 991 1019 1311 708 
Q 1631 397 2203 397 
Q 2534 397 2845 478 
Q 3156 559 3463 722 
L 3463 178 
Q 3153 47 2828 -22 
Q 2503 -91 2169 -91 
Q 1331 -91 842 396 
Q 353 884 353 1716 
Q 353 2575 817 3079 
Q 1281 3584 2069 3584 
Q 2775 3584 3186 3129 
Q 3597 2675 3597 1894 
z
M 3022 2063 
Q 3016 2534 2758 2815 
Q 2500 3097 2075 3097 
Q 1594 3097 1305 2825 
Q 1016 2553 972 2059 
L 3022 2063 
z
" transform="scale(0.015625)"/>
       <path id="DejaVuSans-20" transform="scale(0.015625)"/>
       <path id="DejaVuSans-50" d="M 1259 4147 
L 1259 2394 
L 2053 2394 
Q 2494 2394 2734 2622 
Q 2975 2850 2975 3272 
Q 2975 3691 2734 3919 
Q 2494 4147 2053 4147 
L 1259 4147 
z
M 628 4666 
L 2053 4666 
Q 2838 4666 3239 4311 
Q 3641 3956 3641 3272 
Q 3641 2581 3239 2228 
Q 2838 1875 2053 1875 
L 1259 1875 
L 1259 0 
L 628 0 
L 628 4666 
z
" transform="scale(0.015625)"/>
       <path id="DejaVuSans-6f" d="M 1959 3097 
Q 1497 3097 1228 2736 
Q 959 2375 959 1747 
Q 959 1119 1226 758 
Q 1494 397 1959 397 
Q 2419 397 2687 759 
Q 2956 1122 2956 1747 
Q 2956 2369 2687 2733 
Q 2419 3097 1959 3097 
z
M 1959 3584 
Q 2709 3584 3137 3096 
Q 3566 2609 3566 1747 
Q 3566 888 3137 398 
Q 2709 -91 1959 -91 
Q 1206 -91 779 398 
Q 353 888 353 1747 
Q 353 2609 779 3096 
Q 1206 3584 1959 3584 
z
" transform="scale(0.015625)"/>
       <path id="DejaVuSans-69" d="M 603 3500 
L 1178 3500 
L 1178 0 
L 603 0 
L 603 3500 
z
M 603 4863 
L 1178 4863 
L 1178 4134 
L 603 4134 
L 603 4863 
z
" transform="scale(0.015625)"/>
       <path id="DejaVuSans-74" d="M 1172 4494 
L 1172 3500 
L 2356 3500 
L 2356 3053 
L 1172 3053 
L 1172 1153 
Q 1172 725 1289 603 
Q 1406 481 1766 481 
L 2356 481 
L 2356 0 
L 1766 0 
Q 1100 0 847 248 
Q 594 497 594 1153 
L 594 3053 
L 172 3053 
L 172 3500 
L 594 3500 
L 594 4494 
L 1172 4494 
z
" transform="scale(0.015625)"/>
       <path id="DejaVuSans-76" d="M 191 3500 
L 800 3500 
L 1894 563 
L 2988 3500 
L 3597 3500 
L 2284 0 
L 1503 0 
L 191 3500 
z
" transform="scale(0.015625)"/>
       <path id="DejaVuSans-52" d="M 2841 2188 
Q 3044 2119 3236 1894 
Q 3428 1669 3622 1275 
L 4263 0 
L 3584 0 
L 2988 1197 
Q 2756 1666 2539 1819 
Q 2322 1972 1947 1972 
L 1259 1972 
L 1259 0 
L 628 0 
L 628 4666 
L 2053 4666 
Q 2853 4666 3247 4331 
Q 3641 3997 3641 3322 
Q 3641 2881 3436 2590 
Q 3231 2300 2841 2188 
z
M 1259 4147 
L 1259 2491 
L 2053 2491 
Q 2509 2491 2742 2702 
Q 2975 2913 2975 3322 
Q 2975 3731 2742 3939 
Q 2509 4147 2053 4147 
L 1259 4147 
z
" transform="scale(0.015625)"/>
      </defs>
      <use xlink:href="#DejaVuSans-46"/>
      <use xlink:href="#DejaVuSans-61" x="48.394531"/>
      <use xlink:href="#DejaVuSans-6c" x="109.673828"/>
      <use xlink:href="#DejaVuSans-73" x="137.457031"/>
      <use xlink:href="#DejaVuSans-65" x="189.556641"/>
      <use xlink:href="#DejaVuSans-20" x="251.080078"/>
      <use xlink:href="#DejaVuSans-50" x="282.867188"/>
      <use xlink:href="#DejaVuSans-6f" x="339.544922"/>
      <use xlink:href="#DejaVuSans-73" x="400.726562"/>
      <use xlink:href="#DejaVuSans-69" x="452.826172"/>
      <use xlink:href="#DejaVuSans-74" x="480.609375"/>
      <use xlink:href="#DejaVuSans-69" x="519.818359"/>
      <use xlink:href="#DejaVuSans-76" x="547.601562"/>
      <use xlink:href="#DejaVuSans-65" x="606.78125"/>
      <use xlink:href="#DejaVuSans-20" x="668.304688"/>
      <use xlink:href="#DejaVuSans-52" x="700.091797"/>
      <use xlink:href="#DejaVuSans-61" x="767.324219"/>
      <use xlink:href="#DejaVuSans-74" x="828.603516"/>
      <use xlink:href="#DejaVuSans-65" x="867.8125"/>
     </g>
    </g>
   </g>
   <g id="matplotlib.axis_2">
    <g id="ytick_1">
     <g id="line2d_7">
      <defs>
       <path id="m25aa30555f" d="M 0 0 
L -3.5 0 
" style="stroke: #000000; stroke-width: 0.8"/>
      </defs>
      <g>
       <use xlink:href="#m25aa30555f" x="57.6" y="307.584" style="stroke: #000000; stroke-width: 0.8"/>
      </g>
     </g>
     <g id="text_8">
      <!-- 0.0 -->
      <g transform="translate(34.696875 311.383219) scale(0.1 -0.1)">
       <use xlink:href="#DejaVuSans-30"/>
       <use xlink:href="#DejaVuSans-2e" x="63.623047"/>
       <use xlink:href="#DejaVuSans-30" x="95.410156"/>
      </g>
     </g>
    </g>
    <g id="ytick_2">
     <g id="line2d_8">
      <g>
       <use xlink:href="#m25aa30555f" x="57.6" y="256.896" style="stroke: #000000; stroke-width: 0.8"/>
      </g>
     </g>
     <g id="text_9">
      <!-- 0.2 -->
      <g transform="translate(34.696875 260.695219) scale(0.1 -0.1)">
       <use xlink:href="#DejaVuSans-30"/>
       <use xlink:href="#DejaVuSans-2e" x="63.623047"/>
       <use xlink:href="#DejaVuSans-32" x="95.410156"/>
      </g>
     </g>
    </g>
    <g id="ytick_3">
     <g id="line2d_9">
      <g>
       <use xlink:href="#m25aa30555f" x="57.6" y="206.208" style="stroke: #000000; stroke-width: 0.8"/>
      </g>
     </g>
     <g id="text_10">
      <!-- 0.4 -->
      <g transform="translate(34.696875 210.007219) scale(0.1 -0.1)">
       <use xlink:href="#DejaVuSans-30"/>
       <use xlink:href="#DejaVuSans-2e" x="63.623047"/>
       <use xlink:href="#DejaVuSans-34" x="95.410156"/>
      </g>
     </g>
    </g>
    <g id="ytick_4">
     <g id="line2d_10">
      <g>
       <use xlink:href="#m25aa30555f" x="57.6" y="155.52" style="stroke: #000000; stroke-width: 0.8"/>
      </g>
     </g>
     <g id="text_11">
      <!-- 0.6 -->
      <g transform="translate(34.696875 159.319219) scale(0.1 -0.1)">
       <use xlink:href="#DejaVuSans-30"/>
       <use xlink:href="#DejaVuSans-2e" x="63.623047"/>
       <use xlink:href="#DejaVuSans-36" x="95.410156"/>
      </g>
     </g>
    </g>
    <g id="ytick_5">
     <g id="line2d_11">
      <g>
       <use xlink:href="#m25aa30555f" x="57.6" y="104.832" style="stroke: #000000; stroke-width: 0.8"/>
      </g>
     </g>
     <g id="text_12">
      <!-- 0.8 -->
      <g transform="translate(34.696875 108.631219) scale(0.1 -0.1)">
       <use xlink:href="#DejaVuSans-30"/>
       <use xlink:href="#DejaVuSans-2e" x="63.623047"/>
       <use xlink:href="#DejaVuSans-38" x="95.410156"/>
      </g>
     </g>
    </g>
    <g id="ytick_6">
     <g id="line2d_12">
      <g>
       <use xlink:href="#m25aa30555f" x="57.6" y="54.144" style="stroke: #000000; stroke-width: 0.8"/>
      </g>
     </g>
     <g id="text_13">
      <!-- 1.0 -->
      <g transform="translate(34.696875 57.943219) scale(0.1 -0.1)">
       <use xlink:href="#DejaVuSans-31"/>
       <use xlink:href="#DejaVuSans-2e" x="63.623047"/>
       <use xlink:href="#DejaVuSans-30" x="95.410156"/>
      </g>
     </g>
    </g>
    <g id="text_14">
     <!-- True Positive Rate -->
     <g transform="translate(28.617187 219.057687) rotate(-90) scale(0.1 -0.1)">
      <defs>
       <path id="DejaVuSans-54" d="M -19 4666 
L 3928 4666 
L 3928 4134 
L 2272 4134 
L 2272 0 
L 1638 0 
L 1638 4134 
L -19 4134 
L -19 4666 
z
" transform="scale(0.015625)"/>
       <path id="DejaVuSans-72" d="M 2631 2963 
Q 2534 3019 2420 3045 
Q 2306 3072 2169 3072 
Q 1681 3072 1420 2755 
Q 1159 2438 1159 1844 
L 1159 0 
L 581 0 
L 581 3500 
L 1159 3500 
L 1159 2956 
Q 1341 3275 1631 3429 
Q 1922 3584 2338 3584 
Q 2397 3584 2469 3576 
Q 2541 3569 2628 3553 
L 2631 2963 
z
" transform="scale(0.015625)"/>
       <path id="DejaVuSans-75" d="M 544 1381 
L 544 3500 
L 1119 3500 
L 1119 1403 
Q 1119 906 1312 657 
Q 1506 409 1894 409 
Q 2359 409 2629 706 
Q 2900 1003 2900 1516 
L 2900 3500 
L 3475 3500 
L 3475 0 
L 2900 0 
L 2900 538 
Q 2691 219 2414 64 
Q 2138 -91 1772 -91 
Q 1169 -91 856 284 
Q 544 659 544 1381 
z
M 1991 3584 
L 1991 3584 
z
" transform="scale(0.015625)"/>
      </defs>
      <use xlink:href="#DejaVuSans-54"/>
      <use xlink:href="#DejaVuSans-72" x="46.333984"/>
      <use xlink:href="#DejaVuSans-75" x="87.447266"/>
      <use xlink:href="#DejaVuSans-65" x="150.826172"/>
      <use xlink:href="#DejaVuSans-20" x="212.349609"/>
      <use xlink:href="#DejaVuSans-50" x="244.136719"/>
      <use xlink:href="#DejaVuSans-6f" x="300.814453"/>
      <use xlink:href="#DejaVuSans-73" x="361.996094"/>
      <use xlink:href="#DejaVuSans-69" x="414.095703"/>
      <use xlink:href="#DejaVuSans-74" x="441.878906"/>
      <use xlink:href="#DejaVuSans-69" x="481.087891"/>
      <use xlink:href="#DejaVuSans-76" x="508.871094"/>
      <use xlink:href="#DejaVuSans-65" x="568.050781"/>
      <use xlink:href="#DejaVuSans-20" x="629.574219"/>
      <use xlink:href="#DejaVuSans-52" x="661.361328"/>
      <use xlink:href="#DejaVuSans-61" x="728.59375"/>
      <use xlink:href="#DejaVuSans-74" x="789.873047"/>
      <use xlink:href="#DejaVuSans-65" x="829.082031"/>
     </g>
    </g>
   </g>
   <g id="line2d_13">
    <path d="M 57.6 307.584 
L 58.703286 304.883726 
L 58.910153 304.883726 
L 59.875528 304.442865 
L 59.944483 304.222434 
L 60.565082 303.836681 
L 60.978814 303.285605 
L 60.978814 303.010067 
L 61.254636 302.734528 
L 61.254636 302.624313 
L 61.461502 302.45899 
L 61.530458 302.183452 
L 63.047476 301.356838 
L 63.116432 300.915977 
L 63.185387 300.915977 
L 63.185387 300.530223 
L 63.59912 300.309793 
L 63.73703 300.089362 
L 63.874941 300.089362 
L 64.564495 299.317855 
L 64.63345 298.821886 
L 64.771361 298.766779 
L 64.840317 298.215703 
L 65.529871 297.609519 
L 65.529871 297.444196 
L 65.598826 297.444196 
L 65.736737 297.278873 
L 66.28838 296.066505 
L 66.495246 295.846074 
L 66.564202 295.680751 
L 67.253756 294.909245 
L 67.322711 294.633706 
L 67.391666 294.633706 
L 67.391666 294.523491 
L 67.391666 294.358168 
L 68.08122 293.807092 
L 68.425997 293.256016 
L 68.701819 293.1458 
L 68.701819 293.090693 
L 69.046596 292.815155 
L 69.115551 292.594724 
L 69.184507 292.319186 
L 69.391373 292.208971 
L 69.460328 291.933432 
L 69.667194 291.933432 
L 69.667194 291.823217 
L 69.805105 291.657894 
L 69.874061 291.327249 
L 70.149882 290.996603 
L 70.494659 290.886387 
L 70.494659 290.721065 
L 70.563615 290.721065 
L 70.701525 290.665957 
L 70.701525 290.335311 
L 71.046302 290.114881 
L 71.460035 289.839342 
L 71.597946 289.839342 
L 71.597946 289.729127 
L 71.735856 289.618912 
L 71.942723 289.343374 
L 72.356455 289.343374 
L 72.356455 289.233159 
L 72.356455 289.122943 
L 72.494366 289.122943 
L 72.494366 289.067836 
L 72.908098 288.682082 
L 72.977053 288.571867 
L 73.252875 288.516759 
L 73.735563 287.80036 
L 73.942429 287.690145 
L 74.218251 287.359499 
L 74.218251 287.304391 
L 74.356161 287.304391 
L 74.356161 287.194176 
L 75.045715 286.587992 
L 75.045715 286.367562 
L 75.321537 286.312454 
L 75.390492 285.981808 
L 75.459448 285.981808 
L 75.459448 285.926701 
L 75.528403 285.816485 
L 75.666314 285.816485 
L 75.666314 285.70627 
L 76.355868 285.100086 
L 76.424823 284.824548 
L 76.63169 284.714333 
L 76.700645 284.54901 
L 76.907511 284.54901 
L 76.907511 284.438795 
L 76.976466 284.163256 
L 77.183333 284.053041 
L 77.390199 283.942826 
L 77.52811 283.942826 
L 77.52811 283.887718 
L 77.734976 283.722395 
L 78.010797 283.722395 
L 78.079753 283.446857 
L 78.148708 283.281534 
L 78.286619 283.281534 
L 78.42453 282.785566 
L 78.562441 282.730458 
L 78.769307 282.510027 
L 78.976173 282.344705 
L 79.045128 281.903843 
L 79.114084 281.903843 
L 79.114084 281.628305 
L 79.527816 281.297659 
L 79.734682 281.242552 
L 79.734682 281.077229 
L 79.803638 281.077229 
L 80.148415 280.856798 
L 80.21737 280.801691 
L 80.769013 280.58126 
L 80.837969 280.415937 
L 80.906924 280.085292 
L 81.803344 279.754646 
L 81.803344 279.534215 
L 82.01021 279.424 
L 82.01021 279.258677 
L 82.423943 279.148462 
L 82.492898 278.872924 
L 82.561854 278.872924 
L 82.561854 278.707601 
L 82.699764 278.707601 
L 82.699764 278.652493 
L 82.699764 278.542278 
L 82.975586 278.48717 
L 83.044541 278.321847 
L 83.182452 278.211632 
L 83.182452 278.046309 
L 83.458274 278.046309 
L 83.458274 277.991202 
L 83.803051 277.32991 
L 84.009917 277.219695 
L 84.216783 276.999264 
L 84.216783 276.778834 
L 84.492605 276.558403 
L 84.492605 276.227757 
L 84.630516 276.17265 
L 84.699471 275.786896 
L 84.906337 275.731789 
L 85.044248 275.676681 
L 85.044248 275.621573 
L 85.113203 275.125605 
L 85.251114 275.125605 
L 85.251114 275.070497 
L 85.32007 274.905174 
L 85.526936 274.739851 
L 85.595891 274.519421 
L 85.871713 274.409205 
L 85.940668 274.354098 
L 86.3544 274.188775 
L 86.423356 273.968344 
L 86.561267 273.803022 
L 86.630222 273.14173 
L 86.837088 272.976407 
L 86.837088 272.811084 
L 86.974999 272.590654 
L 87.043954 272.370223 
L 87.250821 272.315115 
L 87.319776 272.094685 
L 87.733508 272.039577 
L 87.733508 271.929362 
L 87.940375 271.819147 
L 88.00933 271.764039 
L 88.078285 271.708932 
L 88.974706 271.653824 
L 89.043661 271.323178 
L 89.319483 271.212963 
L 89.319483 271.157855 
L 89.388438 271.157855 
L 89.871126 270.716994 
L 90.077992 270.386348 
L 90.146947 270.386348 
L 90.146947 270.165918 
L 90.56068 270.11081 
L 90.69859 270.000595 
L 90.905457 270.000595 
L 90.905457 269.945487 
L 90.905457 269.835272 
L 91.181278 269.780164 
L 91.250234 269.394411 
L 91.870832 269.118873 
L 91.939788 269.008658 
L 92.629342 268.898442 
L 92.698297 268.733119 
L 92.836208 268.678012 
L 92.905163 268.292258 
L 93.318896 268.182043 
L 93.663673 268.01672 
L 93.732628 267.906505 
L 94.00845 267.79629 
L 94.491137 267.520751 
L 94.491137 267.07989 
L 94.560093 267.07989 
L 94.629048 266.914568 
L 94.629048 266.749245 
L 94.973825 266.639029 
L 95.04278 266.473706 
L 95.249647 266.473706 
L 95.318602 266.198168 
L 95.594424 266.087953 
L 96.352933 265.151123 
L 96.352933 265.040908 
L 96.559799 265.040908 
L 96.559799 264.930693 
L 97.111442 264.600047 
L 97.249353 264.489832 
L 97.732041 263.332571 
L 98.076818 263.222356 
L 98.766372 262.616172 
L 98.835327 262.340634 
L 99.38697 262.230419 
L 99.524881 262.065096 
L 100.283391 261.954881 
L 100.352346 261.844665 
L 100.559212 261.624235 
L 100.559212 261.238481 
L 100.766078 260.79762 
L 101.110855 260.742513 
L 101.179811 260.246544 
L 101.455632 260.136329 
L 101.524588 259.750575 
L 102.007276 259.41993 
L 102.489963 259.364822 
L 102.489963 259.144391 
L 102.765785 259.144391 
L 102.765785 258.979068 
L 102.972651 258.979068 
L 102.972651 258.813746 
L 103.110562 258.813746 
L 103.455339 258.372885 
L 103.455339 258.152454 
L 103.800116 258.097346 
L 103.800116 257.821808 
L 104.144893 257.711593 
L 104.144893 257.656485 
L 104.48967 257.601378 
L 104.48967 257.491162 
L 104.834447 257.436055 
L 104.972358 257.270732 
L 104.972358 256.995194 
L 105.041313 256.995194 
L 105.661912 256.940086 
L 105.730867 256.829871 
L 106.075644 256.774763 
L 106.144599 256.664548 
L 106.420421 256.554333 
L 106.627287 256.444117 
L 106.627287 256.38901 
L 106.972064 256.38901 
L 106.972064 256.223687 
L 107.454752 255.782826 
L 107.523707 255.562395 
L 108.213261 255.45218 
L 108.282217 255.286857 
L 108.902815 255.011319 
L 108.971771 254.735781 
L 109.523414 254.405135 
L 109.523414 254.129597 
L 109.592369 254.129597 
L 109.937146 254.074489 
L 109.937146 253.909166 
L 110.212968 253.854059 
L 110.281923 253.633628 
L 110.6267 253.633628 
L 110.6267 253.578521 
L 110.695656 253.35809 
L 111.247299 253.192767 
L 111.592076 252.751906 
L 111.798942 252.751906 
L 111.867897 252.311045 
L 112.005808 252.255937 
L 112.005808 252.20083 
L 112.28163 252.090614 
L 112.41954 252.035507 
L 112.41954 251.980399 
L 112.695362 251.649753 
L 112.833273 251.539538 
L 112.902228 251.484431 
L 113.315961 250.878247 
L 113.591782 250.768031 
L 114.212381 250.32717 
L 114.626113 250.216955 
L 114.626113 250.161847 
L 114.764024 250.161847 
L 114.764024 249.941417 
L 116.418953 249.390341 
L 116.694775 249.390341 
L 116.694775 249.335233 
L 116.970597 249.16991 
L 117.453284 249.114802 
L 117.52224 248.673941 
L 117.867017 248.618834 
L 117.867017 248.563726 
L 117.935972 248.508618 
L 118.142838 248.508618 
L 118.349705 248.01265 
L 118.41866 248.01265 
L 118.487615 247.571789 
L 118.763437 247.516681 
L 118.832392 247.406466 
L 118.970303 247.406466 
L 118.970303 247.29625 
L 119.039259 247.07582 
L 119.246125 246.965605 
L 119.31508 246.745174 
L 119.590902 246.690067 
L 120.142545 246.304313 
L 120.349411 246.304313 
L 120.349411 246.13899 
L 120.418366 246.13899 
L 120.487322 245.973667 
L 120.487322 245.808344 
L 121.383742 245.367483 
L 121.452697 245.257268 
L 121.590608 245.036838 
L 121.935385 244.98173 
L 121.935385 244.926622 
L 123.038672 244.430654 
L 123.107627 244.100008 
L 123.383449 243.989793 
L 123.797181 243.934685 
L 123.797181 243.82447 
L 123.866136 243.82447 
L 123.935092 243.659147 
L 124.141958 243.548932 
L 124.141958 243.328501 
L 124.348824 243.328501 
L 124.417779 243.10807 
L 124.55569 243.052963 
L 124.55569 242.942748 
L 124.762556 242.832532 
L 124.762556 242.722317 
L 125.865843 241.895703 
L 125.934798 241.509949 
L 126.21062 241.289519 
L 126.21062 241.234411 
L 126.486441 241.124196 
L 126.624352 241.124196 
L 126.624352 240.958873 
L 126.693308 240.958873 
L 126.969129 240.903765 
L 127.038085 240.628227 
L 127.382862 240.352689 
L 127.382862 239.911828 
L 127.451817 239.911828 
L 127.865549 239.85672 
L 127.934505 239.63629 
L 128.00346 239.63629 
L 128.00346 239.526074 
L 128.417193 239.085213 
L 128.624059 239.085213 
L 128.693014 238.864783 
L 129.037791 238.69946 
L 129.244657 238.644352 
L 129.244657 238.534137 
L 129.65839 238.423922 
L 130.003167 238.203491 
L 130.278988 238.148384 
L 130.278988 238.093276 
L 130.416899 237.872845 
L 130.485854 237.817738 
L 130.692721 237.707523 
L 130.761676 237.266661 
L 131.933918 236.384939 
L 132.071829 236.384939 
L 132.071829 236.274724 
L 132.278695 236.054294 
L 132.485561 235.944078 
L 132.485561 235.833863 
L 132.623472 235.778755 
L 132.623472 235.558325 
L 132.830338 235.393002 
L 132.899293 235.337894 
L 133.726758 234.73171 
L 134.14049 234.621495 
L 134.278401 234.51128 
L 134.692134 234.401065 
L 134.967955 234.235742 
L 135.174821 234.125526 
L 135.243777 233.905096 
L 135.450643 233.849988 
L 135.450643 233.794881 
L 135.588554 233.57445 
L 136.071242 232.527405 
L 136.622885 232.41719 
L 136.69184 232.251867 
L 136.898706 232.031436 
L 137.036617 231.921221 
L 137.036617 231.700791 
L 137.243483 231.48036 
L 137.312439 231.315037 
L 137.519305 231.149714 
L 137.519305 230.984391 
L 137.58826 230.984391 
L 137.726171 230.874176 
L 137.726171 230.708853 
L 137.933037 230.708853 
L 137.933037 230.653746 
L 138.001993 230.3231 
L 138.070948 230.3231 
L 138.070948 230.267992 
L 138.139903 229.937346 
L 138.760502 229.882239 
L 138.760502 229.827131 
L 139.24319 229.496485 
L 139.381101 229.496485 
L 139.381101 229.38627 
L 139.587967 229.331162 
L 139.794833 229.220947 
L 139.794833 228.945409 
L 140.277521 228.780086 
L 140.829164 228.284117 
L 140.829164 228.173902 
L 141.242896 228.173902 
L 141.242896 228.118795 
L 141.794539 227.788149 
L 142.277227 227.677933 
L 142.277227 227.622826 
L 142.82887 227.29218 
L 142.82887 227.181965 
L 142.897826 227.181965 
L 143.242603 226.741104 
L 143.311558 226.741104 
L 143.311558 226.630888 
L 143.380514 226.520673 
L 143.518424 226.520673 
L 143.518424 226.35535 
L 143.863201 226.300243 
L 143.863201 226.13492 
L 144.001112 226.13492 
L 144.001112 225.804274 
L 145.035443 224.867444 
L 145.449176 224.26126 
L 145.587086 224.26126 
L 145.587086 224.206153 
L 145.587086 224.04083 
L 146.000819 223.710184 
L 146.828283 223.599969 
L 146.828283 223.544861 
L 147.03515 223.489753 
L 147.104105 222.883569 
L 147.379927 222.828462 
L 147.448882 222.442708 
L 147.724704 222.332493 
L 147.724704 222.277386 
L 148.000525 222.222278 
L 148.000525 222.16717 
L 148.069481 222.001847 
L 148.345302 221.450771 
L 148.552168 221.285448 
L 148.621124 221.120125 
L 148.82799 221.065018 
L 148.896945 220.899695 
L 149.310678 220.458834 
L 149.448589 220.348618 
L 149.862321 220.238403 
L 149.931276 219.85265 
L 150.62083 219.246466 
L 150.62083 219.081143 
L 150.896652 218.970928 
L 150.896652 218.805605 
L 150.965607 218.805605 
L 151.172473 218.695389 
L 151.51725 218.585174 
L 151.51725 218.530067 
L 151.930983 218.474959 
L 152.137849 218.309636 
L 152.482626 218.199421 
L 152.482626 218.144313 
L 152.896358 218.089205 
L 152.965314 217.868775 
L 153.034269 217.868775 
L 153.103225 217.427914 
L 153.723823 217.317699 
L 153.792779 217.207483 
L 153.930689 217.207483 
L 153.930689 217.152376 
L 154.0686 216.987053 
L 154.0686 216.876838 
L 154.206511 216.711515 
L 154.206511 216.546192 
L 154.482332 216.546192 
L 154.482332 216.491084 
L 154.620243 216.325761 
L 154.827109 216.325761 
L 154.827109 216.215546 
L 155.240842 215.829793 
L 155.447708 215.609362 
L 155.72353 215.388932 
L 155.792485 215.278716 
L 156.275173 215.058286 
L 156.275173 214.94807 
L 156.688905 214.892963 
L 156.688905 214.837855 
L 157.240548 214.341886 
L 157.309504 214.121456 
L 157.447415 214.066348 
L 157.447415 214.011241 
L 157.654281 213.625487 
L 157.861147 213.515272 
L 157.930102 213.460164 
L 158.136969 213.405057 
L 158.343835 213.239734 
L 158.41279 212.964196 
L 158.826522 212.85398 
L 158.895478 212.743765 
L 159.240255 212.63355 
L 159.30921 212.468227 
L 159.378166 212.247796 
L 159.722943 212.137581 
L 159.791898 211.751828 
L 159.998764 211.641613 
L 160.06772 211.531397 
L 160.136675 210.925213 
L 160.619363 210.814998 
L 160.688318 210.53946 
L 160.688318 210.208814 
L 160.96414 210.098599 
L 160.96414 209.988384 
L 161.102051 209.878168 
L 161.446828 209.878168 
L 161.446828 209.767953 
L 161.515783 209.547523 
L 161.791605 209.327092 
L 161.86056 208.996446 
L 162.412203 208.6658 
L 162.550114 208.6658 
L 162.619069 208.059616 
L 162.688025 207.894294 
L 162.688025 207.784078 
L 162.75698 207.784078 
L 163.032802 207.673863 
L 163.101757 207.28811 
L 163.377579 207.177894 
L 163.584445 207.012571 
L 163.860266 207.012571 
L 163.929222 206.516603 
L 164.41191 206.241065 
L 164.480865 206.075742 
L 164.618776 206.075742 
L 164.618776 205.965526 
L 164.687731 205.689988 
L 165.101464 205.634881 
L 165.722062 204.808266 
L 165.997884 204.642943 
L 166.273705 204.532728 
L 166.342661 204.422513 
L 166.411616 203.981652 
L 166.618482 203.871436 
L 166.618482 203.761221 
L 167.10117 203.761221 
L 167.10117 203.706114 
L 167.445947 203.430575 
L 167.583858 203.430575 
L 167.583858 203.375468 
L 167.652813 202.38353 
L 167.721769 202.273315 
L 167.790724 202.052885 
L 167.928635 201.942669 
L 167.99759 201.391593 
L 168.825055 201.336485 
L 168.89401 201.060947 
L 169.238787 201.00584 
L 169.238787 200.895624 
L 169.65252 200.785409 
L 169.721475 200.675194 
L 169.859386 200.675194 
L 169.859386 200.509871 
L 169.928341 200.509871 
L 169.997297 200.454763 
L 169.997297 200.28944 
L 170.342074 200.124117 
L 170.342074 199.903687 
L 170.411029 199.903687 
L 170.479985 199.848579 
L 170.479985 199.683256 
L 171.031628 199.573041 
L 171.169539 199.407718 
L 171.514316 199.242395 
L 171.721182 199.13218 
L 172.065959 199.021965 
L 172.272825 198.801534 
L 172.272825 198.305566 
L 172.34178 198.305566 
L 172.548646 198.140243 
L 172.548646 197.919812 
L 172.617602 197.919812 
L 172.755513 197.699382 
L 172.824468 197.258521 
L 172.962379 197.203413 
L 172.962379 197.093198 
L 173.445067 197.03809 
L 173.445067 196.707444 
L 173.927754 196.597229 
L 173.927754 196.431906 
L 174.065665 196.431906 
L 174.065665 196.321691 
L 174.203576 196.156368 
L 174.203576 195.991045 
L 174.410442 195.991045 
L 174.410442 195.935937 
L 174.824175 195.605292 
L 175.031041 195.605292 
L 175.031041 195.495076 
L 175.375818 195.219538 
L 175.444773 194.944 
L 175.651639 194.888892 
L 175.720595 194.778677 
L 175.996416 194.668462 
L 176.065372 194.503139 
L 176.68597 194.392924 
L 176.68597 194.227601 
L 176.823881 194.062278 
L 177.927167 193.070341 
L 177.996123 192.905018 
L 178.478811 192.794802 
L 178.478811 192.739695 
L 178.823588 192.629479 
L 178.823588 192.464157 
L 178.892543 192.464157 
L 178.961498 192.353941 
L 179.168365 192.353941 
L 179.168365 192.298834 
L 179.168365 192.188618 
L 179.23732 192.188618 
L 179.375231 192.188618 
L 179.375231 192.078403 
L 179.375231 192.023295 
L 179.582097 191.968188 
L 179.582097 191.91308 
L 179.651052 191.857973 
L 179.926874 191.802865 
L 180.13374 191.527327 
L 180.547472 191.472219 
L 180.616428 190.97625 
L 180.823294 190.866035 
L 180.823294 190.810928 
L 181.099116 190.700712 
L 181.168071 190.645605 
L 181.374937 190.425174 
L 181.374937 190.094528 
L 181.512848 190.094528 
L 181.650759 189.81899 
L 181.995536 189.763883 
L 182.064491 189.378129 
L 182.409268 189.323022 
L 182.478224 189.157699 
L 182.616134 189.102591 
L 183.029867 188.827053 
L 183.167778 188.827053 
L 183.167778 188.716838 
L 183.236733 188.551515 
L 183.443599 188.441299 
L 183.512555 188.055546 
L 183.926287 188.055546 
L 183.995242 187.780008 
L 184.133153 187.614685 
L 184.133153 187.50447 
L 184.615841 187.394254 
L 184.960618 187.284039 
L 184.960618 187.173824 
L 185.236439 187.008501 
L 185.305395 186.677855 
L 185.37435 186.677855 
L 185.37435 186.56764 
L 185.443306 186.402317 
L 185.512261 186.402317 
L 185.512261 186.292102 
L 185.581216 186.126779 
L 185.719127 186.071671 
L 185.788083 185.741025 
L 186.063904 185.63081 
L 186.063904 185.575703 
L 186.27077 185.520595 
L 186.339726 185.245057 
L 186.408681 185.245057 
L 186.408681 185.134841 
L 186.753458 184.859303 
L 187.098235 184.804196 
L 187.098235 184.583765 
L 187.443012 184.363335 
L 187.443012 183.977581 
L 187.718834 183.867366 
L 187.718834 183.812258 
L 188.201522 183.591828 
L 188.270477 183.371397 
L 188.339432 183.371397 
L 188.408388 182.985644 
L 188.546299 182.985644 
L 188.615254 182.765213 
L 188.960031 182.654998 
L 189.166897 182.434568 
L 189.304808 182.37946 
L 189.304808 182.269245 
L 189.511674 182.214137 
L 189.580629 181.993706 
L 189.71854 181.883491 
L 189.787496 181.607953 
L 190.063317 181.497738 
L 190.063317 181.167092 
L 190.339139 181.111984 
L 190.339139 181.001769 
L 190.47705 181.001769 
L 190.546005 180.726231 
L 190.821827 180.616016 
L 190.890782 180.5058 
L 191.097648 180.5058 
L 191.097648 180.395585 
L 191.097648 180.28537 
L 191.166604 180.28537 
L 191.304514 179.954724 
L 191.649291 179.844509 
L 191.649291 179.568971 
L 191.994068 179.403648 
L 191.994068 179.12811 
L 192.26989 179.12811 
L 192.338845 178.852571 
L 192.752578 178.742356 
L 192.821533 178.521926 
L 193.373176 178.301495 
L 193.373176 178.081065 
L 193.717953 178.081065 
L 193.786909 177.860634 
L 194.06273 177.750419 
L 194.131686 177.529988 
L 194.407507 177.474881 
L 194.407507 177.364665 
L 195.028106 177.089127 
L 195.028106 177.03402 
L 195.510794 176.978912 
L 195.510794 176.868697 
L 195.786615 176.758481 
L 195.855571 176.538051 
L 196.200348 176.538051 
L 196.200348 176.482943 
L 196.269303 176.372728 
L 196.751991 176.262513 
L 196.751991 176.152297 
L 196.958857 176.042082 
L 197.027812 175.876759 
L 197.303634 175.821652 
L 197.372589 175.435898 
L 197.855277 175.325683 
L 199.648117 174.829714 
L 200.406627 174.333746 
L 200.613493 174.333746 
L 200.613493 174.22353 
L 200.613493 174.113315 
L 200.889315 174.0031 
L 200.95827 173.727562 
L 201.372002 173.672454 
L 201.372002 173.617346 
L 201.372002 173.507131 
L 201.509913 173.396916 
L 201.578869 173.286701 
L 201.85469 173.176485 
L 201.923645 172.790732 
L 202.889021 172.515194 
L 203.095887 172.404978 
L 203.095887 172.349871 
L 203.578575 172.239656 
L 204.130218 171.688579 
L 204.130218 171.633472 
L 204.474995 171.468149 
L 204.888728 171.357933 
L 204.888728 171.302826 
L 205.30246 171.192611 
L 205.30246 171.137503 
L 205.785148 171.137503 
L 205.785148 171.027288 
L 206.19888 170.75175 
L 206.543657 170.75175 
L 206.543657 170.531319 
L 206.888434 170.421104 
L 206.957389 170.145566 
L 207.0953 169.925135 
L 207.164256 169.870027 
L 207.371122 169.759812 
L 207.646943 169.594489 
L 207.922765 169.539382 
L 207.922765 169.374059 
L 208.888141 169.318951 
L 209.232918 169.208736 
L 209.577695 169.098521 
L 209.577695 169.043413 
L 210.405159 168.767875 
L 210.405159 168.657659 
L 210.818892 168.657659 
L 210.887847 168.437229 
L 211.991133 168.106583 
L 212.060089 167.996368 
L 212.266955 167.94126 
L 212.818598 167.831045 
L 212.818598 167.665722 
L 213.232331 167.610614 
L 213.439197 167.610614 
L 213.439197 167.555507 
L 213.508152 167.059538 
L 213.783974 166.949323 
L 213.852929 166.728892 
L 214.128751 166.398247 
L 214.404572 166.232924 
L 215.300992 166.122708 
L 215.576814 165.902278 
L 215.645769 165.736955 
L 215.921591 165.62674 
L 215.921591 165.406309 
L 216.128457 165.351202 
L 216.128457 165.185879 
L 216.54219 165.185879 
L 216.54219 164.855233 
L 217.162788 164.634802 
L 217.714431 164.579695 
L 217.714431 164.469479 
L 218.128164 164.359264 
L 218.128164 164.193941 
L 218.610852 164.083726 
L 219.162495 163.75308 
L 219.369361 163.642865 
L 219.507272 163.477542 
L 219.576227 163.257112 
L 220.955335 162.099851 
L 221.644889 161.989636 
L 221.644889 161.934528 
L 222.472354 161.824313 
L 222.472354 161.769205 
L 223.023997 161.43856 
L 223.161908 161.43856 
L 223.161908 160.997699 
L 223.782506 160.72216 
L 223.782506 160.611945 
L 224.265194 160.50173 
L 224.885793 160.115977 
L 225.161614 159.950654 
L 225.161614 159.840438 
L 225.23057 159.840438 
L 225.575347 159.620008 
L 226.264901 159.509793 
L 226.264901 159.454685 
L 227.161321 159.34447 
L 227.644008 159.124039 
L 227.712964 158.903609 
L 227.91983 158.793393 
L 227.988785 158.738286 
L 227.988785 158.572963 
L 228.057741 158.572963 
L 228.195652 158.40764 
L 228.264607 158.242317 
L 228.333562 158.132102 
L 229.092072 157.746348 
L 229.092072 157.581025 
L 229.161027 157.581025 
L 229.71267 157.25038 
L 230.264314 157.085057 
L 230.333269 156.864626 
L 230.678046 156.754411 
L 230.747001 156.478873 
L 230.884912 156.368658 
L 230.953868 156.038012 
L 231.091778 156.038012 
L 231.091778 155.927796 
L 231.298645 155.817581 
L 231.3676 155.707366 
L 231.643422 155.597151 
L 231.643422 155.431828 
L 231.781332 155.431828 
L 231.850288 155.211397 
L 232.195065 155.211397 
L 232.195065 155.15629 
L 232.195065 155.046074 
L 232.884619 154.935859 
L 232.953574 154.660321 
L 233.229396 154.550106 
L 233.781039 154.21946 
L 234.263727 153.888814 
L 234.263727 153.723491 
L 234.677459 153.613276 
L 234.746414 153.558168 
L 234.953281 153.503061 
L 234.953281 153.447953 
L 234.953281 153.337738 
L 235.229102 153.227523 
L 235.298058 152.896877 
L 235.642835 152.786661 
L 235.642835 152.731554 
L 235.849701 152.621339 
L 236.056567 152.511123 
L 236.60821 152.400908 
L 236.677165 152.180477 
L 236.884032 152.12537 
L 236.884032 152.070262 
L 236.952987 151.904939 
L 237.297764 151.904939 
L 237.435675 151.739616 
L 238.194184 151.629401 
L 238.194184 151.519186 
L 238.676872 151.353863 
L 238.676872 151.298755 
L 238.952694 151.18854 
L 238.952694 151.078325 
L 239.021649 151.078325 
L 239.366426 151.078325 
L 239.366426 150.96811 
L 239.573292 150.857894 
L 239.642248 150.582356 
L 240.331802 150.472141 
L 240.331802 150.361926 
L 240.676578 150.25171 
L 240.9524 150.086387 
L 241.572999 149.810849 
L 241.641954 149.700634 
L 242.055686 149.590419 
L 242.124642 149.149558 
L 242.262553 149.039342 
L 242.262553 148.984235 
L 242.676285 148.929127 
L 243.296884 148.378051 
L 243.296884 148.212728 
L 243.779571 148.15762 
L 243.779571 148.047405 
L 243.848527 148.047405 
L 244.331215 147.716759 
L 244.607036 147.661652 
L 244.607036 147.606544 
L 244.813902 147.551436 
L 245.641367 147.441221 
L 245.641367 147.386114 
L 245.779278 147.386114 
L 245.779278 147.275898 
L 245.848233 147.220791 
L 246.330921 146.77993 
L 246.330921 146.669714 
L 246.606743 146.669714 
L 246.606743 146.559499 
L 247.020475 146.283961 
L 247.158386 146.283961 
L 247.158386 146.228853 
L 247.227341 146.008423 
L 247.434207 145.953315 
L 247.434207 145.898207 
L 247.641074 145.787992 
L 248.192717 145.677777 
L 248.330628 145.402239 
L 248.74436 145.292023 
L 248.813315 145.071593 
L 249.296003 144.961378 
L 249.364958 144.851162 
L 249.364958 144.740947 
L 249.847646 144.465409 
L 249.985557 144.465409 
L 249.985557 144.300086 
L 250.192423 144.244978 
L 250.192423 144.079656 
L 250.261379 144.079656 
L 250.5372 143.914333 
L 250.813022 143.804117 
L 250.813022 143.74901 
L 251.019888 143.74901 
L 251.019888 143.583687 
L 251.364665 143.528579 
L 251.364665 143.473472 
L 251.916308 143.087718 
L 252.881684 142.867288 
L 252.881684 142.81218 
L 253.226461 142.701965 
L 253.226461 142.536642 
L 253.295416 142.536642 
L 253.916015 142.040673 
L 253.916015 141.87535 
L 253.98497 141.87535 
L 254.398702 141.544705 
L 254.812435 141.544705 
L 255.019301 141.269166 
L 255.364078 141.158951 
L 255.77781 140.607875 
L 256.122587 140.497659 
L 256.191543 140.277229 
L 256.53632 140.056798 
L 256.812141 139.946583 
L 256.881097 139.836368 
L 257.156918 139.726153 
L 257.156918 139.671045 
L 257.294829 139.505722 
L 257.294829 139.285292 
L 257.846472 139.230184 
L 257.846472 139.175076 
L 258.053338 138.899538 
L 258.742892 138.624 
L 258.742892 138.513785 
L 259.363491 138.403569 
L 259.432446 138.293354 
L 259.777223 138.293354 
L 259.777223 138.238247 
L 259.777223 138.128031 
L 260.259911 138.017816 
L 260.259911 137.962708 
L 261.087376 137.852493 
L 261.156331 137.742278 
L 261.501108 137.632063 
L 261.501108 137.301417 
L 261.845885 137.301417 
L 261.845885 137.191202 
L 261.845885 137.136094 
L 262.397528 137.136094 
L 262.466484 136.915663 
L 262.604395 136.860556 
L 262.811261 136.585018 
L 263.638726 136.474802 
L 263.707681 136.419695 
L 263.914547 136.419695 
L 263.983503 136.199264 
L 264.879923 135.537973 
L 264.948878 135.097112 
L 265.707388 134.986896 
L 265.845298 134.931789 
L 266.052165 134.821573 
L 266.12112 134.601143 
L 266.603808 134.270497 
L 267.086495 134.215389 
L 267.086495 134.160282 
L 267.362317 134.050067 
L 267.569183 133.939851 
L 267.569183 133.884744 
L 267.91396 133.774528 
L 267.982916 133.609205 
L 268.051871 133.609205 
L 268.051871 133.554098 
L 268.051871 133.388775 
L 268.120826 133.388775 
L 268.879336 132.782591 
L 269.086202 132.782591 
L 269.086202 132.617268 
L 269.224113 132.617268 
L 269.224113 132.507053 
L 269.430979 132.34173 
L 270.189488 132.286622 
L 270.189488 132.121299 
L 270.258444 132.121299 
L 270.810087 131.735546 
L 272.189195 131.625331 
L 272.602927 131.4049 
L 272.740838 131.349793 
L 272.809793 131.129362 
L 272.947704 131.129362 
L 272.947704 131.019147 
L 272.947704 130.964039 
L 273.430392 130.853824 
L 273.982035 130.46807 
L 274.326812 130.357855 
L 274.395768 130.192532 
L 274.533678 130.027209 
L 274.878455 129.806779 
L 274.878455 129.696564 
L 275.223232 129.586348 
L 275.223232 129.531241 
L 276.326519 129.531241 
L 276.326519 129.421025 
L 276.326519 129.365918 
L 276.878162 129.255703 
L 276.947117 129.035272 
L 277.567716 128.925057 
L 277.636671 128.759734 
L 277.981448 128.37398 
L 277.981448 128.263765 
L 278.050404 128.263765 
L 278.119359 128.208658 
L 278.533091 128.043335 
L 278.602047 127.878012 
L 278.739958 127.822904 
L 278.739958 127.767796 
L 278.808913 127.547366 
L 278.877868 127.382043 
L 279.222645 127.271828 
L 279.222645 127.21672 
L 279.360556 127.21672 
L 279.360556 127.106505 
L 280.325932 126.224783 
L 280.394887 125.839029 
L 280.463842 125.783922 
L 280.808619 125.673706 
L 280.877575 125.12263 
L 281.291307 125.012415 
L 281.360263 124.847092 
L 281.636084 124.791984 
L 281.636084 124.681769 
L 281.980861 124.571554 
L 282.049817 124.406231 
L 282.325638 124.351123 
L 282.325638 124.296016 
L 282.325638 124.1858 
L 282.877281 123.855155 
L 283.773701 123.800047 
L 283.773701 123.689832 
L 284.049523 123.634724 
L 284.049523 123.579616 
L 284.187434 123.469401 
L 284.3943 123.193863 
L 284.739077 123.138755 
L 285.152809 122.863217 
L 285.428631 122.753002 
L 285.497586 122.367249 
L 285.773408 122.312141 
L 285.773408 122.257033 
L 286.04923 122.146818 
L 286.531917 122.036603 
L 286.600873 121.981495 
L 286.876694 121.87128 
L 287.083561 121.595742 
L 287.359382 121.595742 
L 287.359382 121.485526 
L 287.635204 121.320204 
L 288.048936 121.209988 
L 288.324758 121.099773 
L 288.462668 121.044665 
L 288.462668 120.93445 
L 288.531624 120.93445 
L 288.600579 120.769127 
L 288.669535 120.548697 
L 288.73849 120.218051 
L 288.876401 120.162943 
L 288.876401 120.107836 
L 288.876401 119.99762 
L 289.290133 119.942513 
L 289.359089 119.722082 
L 289.428044 119.722082 
L 289.428044 119.666975 
L 289.428044 119.556759 
L 290.048643 119.501652 
L 290.048643 119.391436 
L 290.255509 119.391436 
L 290.807152 119.005683 
L 291.220884 118.895468 
L 291.28984 118.61993 
L 292.048349 118.509714 
L 292.117304 118.399499 
L 292.393126 118.289284 
L 292.531037 118.123961 
L 292.599992 117.738207 
L 293.427457 117.627992 
L 293.427457 117.517777 
L 293.910145 117.517777 
L 293.910145 117.352454 
L 294.185966 117.242239 
L 294.185966 117.187131 
L 294.461788 117.132023 
L 294.530743 116.966701 
L 295.358208 116.250301 
L 295.427164 116.029871 
L 295.840896 115.919656 
L 295.840896 115.699225 
L 296.392539 115.58901 
L 296.461494 115.533902 
L 296.737316 115.533902 
L 296.806271 115.313472 
L 297.013138 115.258364 
L 297.495825 115.037933 
L 297.564781 114.872611 
L 298.047469 114.707288 
L 298.530156 114.65218 
L 298.530156 114.43175 
L 298.943889 114.266427 
L 298.943889 114.045996 
L 299.357621 113.990888 
L 299.357621 113.935781 
L 299.97822 113.550027 
L 300.185086 113.49492 
L 300.254041 113.329597 
L 300.391952 113.274489 
L 300.460908 113.054059 
L 300.598818 112.998951 
L 300.667774 112.833628 
L 301.012551 112.833628 
L 301.564194 112.502982 
L 301.840015 112.392767 
L 301.840015 112.282552 
L 302.253748 112.172337 
L 302.322703 112.007014 
L 302.598525 111.951906 
L 302.66748 111.731476 
L 303.012257 111.731476 
L 303.012257 111.62126 
L 303.081213 111.290614 
L 303.219123 111.290614 
L 303.219123 111.180399 
L 303.494945 111.015076 
L 303.839722 110.959969 
L 303.839722 110.904861 
L 304.184499 110.739538 
L 304.391365 110.574215 
L 304.460321 110.464 
L 304.598231 110.408892 
L 304.667187 110.188462 
L 304.874053 110.078247 
L 304.874053 110.023139 
L 305.21883 109.912924 
L 305.770473 109.582278 
L 306.804804 109.141417 
L 306.804804 109.031202 
L 306.942715 109.031202 
L 307.149581 108.645448 
L 307.90809 108.535233 
L 307.977046 108.314802 
L 308.321823 108.259695 
L 308.735555 107.653511 
L 309.080332 107.43308 
L 309.356154 106.826896 
L 309.700931 106.826896 
L 309.700931 106.771789 
L 309.769886 106.606466 
L 310.252574 106.49625 
L 310.321529 106.441143 
L 310.804217 106.220712 
L 310.873172 106.055389 
L 311.35586 105.945174 
L 311.35586 105.890067 
L 311.631682 105.834959 
L 311.631682 105.779851 
L 311.631682 105.614528 
L 311.700637 105.614528 
L 311.976459 105.228775 
L 312.321236 105.173667 
L 312.803924 105.11856 
L 312.803924 105.008344 
L 312.941834 104.953237 
L 312.941834 104.732806 
L 313.01079 104.732806 
L 313.286611 104.677699 
L 313.286611 104.40216 
L 313.355567 104.40216 
L 313.90721 104.016407 
L 314.458853 103.906192 
L 314.527808 103.740869 
L 314.941541 103.465331 
L 315.355273 103.355115 
L 315.424229 103.134685 
L 316.251693 103.02447 
L 316.872292 102.859147 
L 317.286024 102.748932 
L 318.389311 102.197855 
L 318.527221 102.08764 
L 319.216775 101.756994 
L 319.216775 101.646779 
L 319.285731 101.646779 
L 319.354686 101.591671 
L 319.630508 101.536564 
L 319.630508 101.481456 
L 319.975285 101.371241 
L 320.389017 101.316133 
L 320.389017 101.205918 
L 320.457973 101.205918 
L 320.664839 101.095703 
L 321.216482 100.985487 
L 321.285437 100.93038 
L 321.630214 100.599734 
L 321.630214 100.489519 
L 321.69917 100.489519 
L 321.768125 100.324196 
L 321.768125 100.21398 
L 322.043947 100.103765 
L 323.698876 99.883335 
L 323.905742 99.662904 
L 324.319475 99.442474 
L 324.457386 99.332258 
L 324.733207 99.166935 
L 324.733207 99.001613 
L 325.077984 98.83629 
L 325.767538 98.285213 
L 326.388137 98.174998 
L 326.457092 98.064783 
L 326.663958 98.009675 
L 326.663958 97.954568 
L 326.732914 97.89946 
L 327.491423 97.789245 
L 327.491423 97.734137 
L 327.698289 97.679029 
L 327.698289 97.623922 
L 327.767245 97.458599 
L 328.318888 97.458599 
L 328.318888 97.403491 
L 328.456799 97.238168 
L 328.939486 97.127953 
L 329.215308 97.017738 
L 329.766951 96.907523 
L 329.835907 96.7422 
L 329.973817 96.631984 
L 330.456505 96.356446 
L 330.525461 96.136016 
L 330.801282 96.080908 
L 330.801282 96.0258 
L 331.146059 95.860477 
L 331.28397 95.860477 
L 331.28397 95.695155 
L 331.973524 95.640047 
L 332.18039 95.309401 
L 332.456212 95.309401 
L 332.456212 95.254294 
L 332.525167 95.088971 
L 332.663078 95.033863 
L 332.663078 94.978755 
L 332.732033 94.758325 
L 332.869944 94.703217 
L 333.07681 94.537894 
L 333.145766 94.097033 
L 333.421587 93.986818 
L 333.490543 93.821495 
L 334.111141 93.71128 
L 334.318007 93.490849 
L 334.386963 93.325526 
L 334.73174 93.215311 
L 334.869651 93.160204 
L 334.869651 92.719342 
L 335.076517 92.55402 
L 335.076517 92.333589 
L 335.283383 92.278481 
L 335.283383 92.113159 
L 336.041892 91.782513 
L 336.041892 91.672297 
L 336.179803 91.672297 
L 336.179803 91.451867 
L 336.248758 91.451867 
L 336.455625 91.341652 
L 336.52458 91.231436 
L 336.662491 91.176329 
L 336.869357 90.955898 
L 337.214134 90.845683 
L 337.214134 90.790575 
L 337.421 90.735468 
L 337.489956 90.515037 
L 338.17951 90.404822 
L 338.248465 90.129284 
L 338.593242 90.074176 
L 338.662197 89.908853 
L 338.938019 89.853746 
L 339.213841 89.688423 
L 339.420707 89.302669 
L 339.558617 89.192454 
L 339.97235 89.137346 
L 339.97235 88.972023 
L 340.592948 88.861808 
L 340.661904 88.751593 
L 341.489369 88.36584 
L 342.178923 88.310732 
L 342.178923 88.200517 
L 342.316833 88.200517 
L 342.316833 88.145409 
L 342.66161 87.980086 
L 342.868477 87.924978 
L 342.868477 87.869871 
L 342.937432 87.594333 
L 343.489075 87.539225 
L 343.489075 87.42901 
L 343.971763 87.153472 
L 344.730272 87.043256 
L 345.075049 86.822826 
L 345.075049 86.712611 
L 345.419826 86.547288 
L 345.419826 86.437072 
L 345.488782 86.437072 
L 345.971469 86.216642 
L 346.040425 85.830888 
L 346.454157 85.720673 
L 346.523113 85.445135 
L 346.798934 85.224705 
L 346.798934 85.059382 
L 347.0058 84.949166 
L 347.350577 84.453198 
L 347.419533 84.232767 
L 347.626399 84.232767 
L 348.315953 83.847014 
L 348.453864 83.681691 
L 348.798641 83.571476 
L 349.419239 83.020399 
L 349.488195 82.689753 
L 349.695061 82.689753 
L 349.695061 82.524431 
L 350.45357 82.414215 
L 350.522526 82.138677 
L 351.074169 82.083569 
L 351.281035 81.863139 
L 351.281035 81.752924 
L 351.34999 81.752924 
L 351.625812 81.201847 
L 352.039544 81.091632 
L 352.246411 80.926309 
L 352.315366 80.650771 
L 352.453277 80.595663 
L 352.660143 80.320125 
L 353.418652 80.265018 
L 353.556563 80.154802 
L 354.177162 80.154802 
L 354.177162 80.044587 
L 354.246117 79.824157 
L 355.142537 79.383295 
L 355.763136 79.107757 
L 355.763136 78.997542 
L 356.107913 78.887327 
L 356.245824 78.666896 
L 356.728511 78.556681 
L 356.728511 78.446466 
L 357.34911 78.11582 
L 357.555976 77.785174 
L 357.900753 77.564744 
L 358.24553 77.454528 
L 358.24553 77.344313 
L 358.659262 77.068775 
L 359.004039 76.95856 
L 359.072995 76.848344 
L 360.314192 76.738129 
L 360.314192 76.627914 
L 360.452103 76.517699 
L 361.003746 76.407483 
L 361.831211 76.187053 
L 361.831211 75.966622 
L 361.900166 75.966622 
L 361.969121 75.801299 
L 363.141363 75.415546 
L 363.210319 75.305331 
L 363.899873 75.250223 
L 364.796293 74.588932 
L 365.072114 74.533824 
L 365.416891 74.203178 
L 365.485847 73.982748 
L 366.313311 73.872532 
L 366.520178 73.707209 
L 366.795999 73.652102 
L 366.795999 73.596994 
L 366.864955 73.431671 
L 367.347642 73.266348 
L 367.416598 73.101025 
L 367.692419 73.101025 
L 367.692419 72.935703 
L 367.761375 72.935703 
L 367.968241 72.935703 
L 367.968241 72.77038 
L 368.58884 72.660164 
L 368.657795 72.549949 
L 369.140483 72.494841 
L 369.416304 72.219303 
L 370.036903 72.164196 
L 370.036903 72.109088 
L 370.38168 71.668227 
L 371.484966 71.558012 
L 373.139896 70.345644 
L 373.553628 70.290536 
L 373.553628 70.235429 
L 374.243182 70.014998 
L 374.243182 69.904783 
L 374.519004 69.794568 
L 375.484379 69.519029 
L 375.898112 69.188384 
L 376.104978 69.133276 
L 376.449755 68.912845 
L 376.725576 68.80263 
L 376.794532 68.747523 
L 377.139309 68.306661 
L 377.621997 68.086231 
L 377.690952 67.920908 
L 377.759907 67.920908 
L 377.759907 67.810693 
L 378.17364 67.590262 
L 378.587372 67.480047 
L 378.587372 67.149401 
L 379.001104 67.039186 
L 379.001104 66.984078 
L 379.414837 66.873863 
L 379.414837 66.818755 
L 380.724989 66.543217 
L 381.828276 66.212571 
L 382.173053 66.157464 
L 382.173053 66.102356 
L 382.379919 65.992141 
L 382.793651 65.606387 
L 383.827982 65.496172 
L 385.069179 65.275742 
L 385.345001 65.165526 
L 385.413956 64.834881 
L 385.827689 64.724665 
L 386.241421 64.559342 
L 386.310377 64.338912 
L 386.448287 64.228697 
L 388.103217 63.898051 
L 389.137548 63.67762 
L 389.137548 63.622513 
L 389.689191 63.45719 
L 390.102923 63.45719 
L 390.378745 63.181652 
L 390.930388 62.906114 
L 391.34412 62.575468 
L 391.34412 62.355037 
L 391.482031 62.355037 
L 391.482031 62.189714 
L 392.861139 61.914176 
L 393.343827 61.803961 
L 393.688604 61.748853 
L 394.378158 61.638638 
L 394.378158 61.58353 
L 394.860846 61.307992 
L 395.757266 60.977346 
L 396.033087 60.701808 
L 396.653686 60.591593 
L 396.998463 60.260947 
L 397.619062 60.150732 
L 397.619062 60.040517 
L 398.032794 59.820086 
L 398.170705 59.709871 
L 398.446526 59.709871 
L 400.377277 59.213902 
L 400.446233 58.993472 
L 400.79101 58.883256 
L 401.963252 58.607718 
L 402.997583 58.166857 
L 405.1352 57.670888 
L 405.204155 57.615781 
L 406.583263 57.505566 
L 409.341479 56.072767 
L 409.824167 55.631906 
L 410.031033 55.631906 
L 410.168944 55.30126 
L 410.582676 55.30126 
L 414.72 54.144 
L 414.72 54.144 
" clip-path="url(#pd0c0c991b5)" style="fill: none; stroke: #1f77b4; stroke-width: 1.5; stroke-linecap: square"/>
   </g>
   <g id="line2d_14">
    <path d="M 57.6 307.584 
L 414.72 54.144 
" clip-path="url(#pd0c0c991b5)" style="fill: none; stroke-dasharray: 5.55,2.4; stroke-dashoffset: 0; stroke: #000000; stroke-width: 1.5"/>
   </g>
   <g id="patch_3">
    <path d="M 57.6 307.584 
L 57.6 41.472 
" style="fill: none; stroke: #000000; stroke-width: 0.8; stroke-linejoin: miter; stroke-linecap: square"/>
   </g>
   <g id="patch_4">
    <path d="M 414.72 307.584 
L 414.72 41.472 
" style="fill: none; stroke: #000000; stroke-width: 0.8; stroke-linejoin: miter; stroke-linecap: square"/>
   </g>
   <g id="patch_5">
    <path d="M 57.6 307.584 
L 414.72 307.584 
" style="fill: none; stroke: #000000; stroke-width: 0.8; stroke-linejoin: miter; stroke-linecap: square"/>
   </g>
   <g id="patch_6">
    <path d="M 57.6 41.472 
L 414.72 41.472 
" style="fill: none; stroke: #000000; stroke-width: 0.8; stroke-linejoin: miter; stroke-linecap: square"/>
   </g>
   <g id="text_15">
    <!-- Receiver Operating Characteristic -->
    <g transform="translate(134.656875 35.472) scale(0.12 -0.12)">
     <defs>
      <path id="DejaVuSans-63" d="M 3122 3366 
L 3122 2828 
Q 2878 2963 2633 3030 
Q 2388 3097 2138 3097 
Q 1578 3097 1268 2742 
Q 959 2388 959 1747 
Q 959 1106 1268 751 
Q 1578 397 2138 397 
Q 2388 397 2633 464 
Q 2878 531 3122 666 
L 3122 134 
Q 2881 22 2623 -34 
Q 2366 -91 2075 -91 
Q 1284 -91 818 406 
Q 353 903 353 1747 
Q 353 2603 823 3093 
Q 1294 3584 2113 3584 
Q 2378 3584 2631 3529 
Q 2884 3475 3122 3366 
z
" transform="scale(0.015625)"/>
      <path id="DejaVuSans-4f" d="M 2522 4238 
Q 1834 4238 1429 3725 
Q 1025 3213 1025 2328 
Q 1025 1447 1429 934 
Q 1834 422 2522 422 
Q 3209 422 3611 934 
Q 4013 1447 4013 2328 
Q 4013 3213 3611 3725 
Q 3209 4238 2522 4238 
z
M 2522 4750 
Q 3503 4750 4090 4092 
Q 4678 3434 4678 2328 
Q 4678 1225 4090 567 
Q 3503 -91 2522 -91 
Q 1538 -91 948 565 
Q 359 1222 359 2328 
Q 359 3434 948 4092 
Q 1538 4750 2522 4750 
z
" transform="scale(0.015625)"/>
      <path id="DejaVuSans-70" d="M 1159 525 
L 1159 -1331 
L 581 -1331 
L 581 3500 
L 1159 3500 
L 1159 2969 
Q 1341 3281 1617 3432 
Q 1894 3584 2278 3584 
Q 2916 3584 3314 3078 
Q 3713 2572 3713 1747 
Q 3713 922 3314 415 
Q 2916 -91 2278 -91 
Q 1894 -91 1617 61 
Q 1341 213 1159 525 
z
M 3116 1747 
Q 3116 2381 2855 2742 
Q 2594 3103 2138 3103 
Q 1681 3103 1420 2742 
Q 1159 2381 1159 1747 
Q 1159 1113 1420 752 
Q 1681 391 2138 391 
Q 2594 391 2855 752 
Q 3116 1113 3116 1747 
z
" transform="scale(0.015625)"/>
      <path id="DejaVuSans-6e" d="M 3513 2113 
L 3513 0 
L 2938 0 
L 2938 2094 
Q 2938 2591 2744 2837 
Q 2550 3084 2163 3084 
Q 1697 3084 1428 2787 
Q 1159 2491 1159 1978 
L 1159 0 
L 581 0 
L 581 3500 
L 1159 3500 
L 1159 2956 
Q 1366 3272 1645 3428 
Q 1925 3584 2291 3584 
Q 2894 3584 3203 3211 
Q 3513 2838 3513 2113 
z
" transform="scale(0.015625)"/>
      <path id="DejaVuSans-67" d="M 2906 1791 
Q 2906 2416 2648 2759 
Q 2391 3103 1925 3103 
Q 1463 3103 1205 2759 
Q 947 2416 947 1791 
Q 947 1169 1205 825 
Q 1463 481 1925 481 
Q 2391 481 2648 825 
Q 2906 1169 2906 1791 
z
M 3481 434 
Q 3481 -459 3084 -895 
Q 2688 -1331 1869 -1331 
Q 1566 -1331 1297 -1286 
Q 1028 -1241 775 -1147 
L 775 -588 
Q 1028 -725 1275 -790 
Q 1522 -856 1778 -856 
Q 2344 -856 2625 -561 
Q 2906 -266 2906 331 
L 2906 616 
Q 2728 306 2450 153 
Q 2172 0 1784 0 
Q 1141 0 747 490 
Q 353 981 353 1791 
Q 353 2603 747 3093 
Q 1141 3584 1784 3584 
Q 2172 3584 2450 3431 
Q 2728 3278 2906 2969 
L 2906 3500 
L 3481 3500 
L 3481 434 
z
" transform="scale(0.015625)"/>
      <path id="DejaVuSans-43" d="M 4122 4306 
L 4122 3641 
Q 3803 3938 3442 4084 
Q 3081 4231 2675 4231 
Q 1875 4231 1450 3742 
Q 1025 3253 1025 2328 
Q 1025 1406 1450 917 
Q 1875 428 2675 428 
Q 3081 428 3442 575 
Q 3803 722 4122 1019 
L 4122 359 
Q 3791 134 3420 21 
Q 3050 -91 2638 -91 
Q 1578 -91 968 557 
Q 359 1206 359 2328 
Q 359 3453 968 4101 
Q 1578 4750 2638 4750 
Q 3056 4750 3426 4639 
Q 3797 4528 4122 4306 
z
" transform="scale(0.015625)"/>
      <path id="DejaVuSans-68" d="M 3513 2113 
L 3513 0 
L 2938 0 
L 2938 2094 
Q 2938 2591 2744 2837 
Q 2550 3084 2163 3084 
Q 1697 3084 1428 2787 
Q 1159 2491 1159 1978 
L 1159 0 
L 581 0 
L 581 4863 
L 1159 4863 
L 1159 2956 
Q 1366 3272 1645 3428 
Q 1925 3584 2291 3584 
Q 2894 3584 3203 3211 
Q 3513 2838 3513 2113 
z
" transform="scale(0.015625)"/>
     </defs>
     <use xlink:href="#DejaVuSans-52"/>
     <use xlink:href="#DejaVuSans-65" x="64.982422"/>
     <use xlink:href="#DejaVuSans-63" x="126.505859"/>
     <use xlink:href="#DejaVuSans-65" x="181.486328"/>
     <use xlink:href="#DejaVuSans-69" x="243.009766"/>
     <use xlink:href="#DejaVuSans-76" x="270.792969"/>
     <use xlink:href="#DejaVuSans-65" x="329.972656"/>
     <use xlink:href="#DejaVuSans-72" x="391.496094"/>
     <use xlink:href="#DejaVuSans-20" x="432.609375"/>
     <use xlink:href="#DejaVuSans-4f" x="464.396484"/>
     <use xlink:href="#DejaVuSans-70" x="543.107422"/>
     <use xlink:href="#DejaVuSans-65" x="606.583984"/>
     <use xlink:href="#DejaVuSans-72" x="668.107422"/>
     <use xlink:href="#DejaVuSans-61" x="709.220703"/>
     <use xlink:href="#DejaVuSans-74" x="770.5"/>
     <use xlink:href="#DejaVuSans-69" x="809.708984"/>
     <use xlink:href="#DejaVuSans-6e" x="837.492188"/>
     <use xlink:href="#DejaVuSans-67" x="900.871094"/>
     <use xlink:href="#DejaVuSans-20" x="964.347656"/>
     <use xlink:href="#DejaVuSans-43" x="996.134766"/>
     <use xlink:href="#DejaVuSans-68" x="1065.958984"/>
     <use xlink:href="#DejaVuSans-61" x="1129.337891"/>
     <use xlink:href="#DejaVuSans-72" x="1190.617188"/>
     <use xlink:href="#DejaVuSans-61" x="1231.730469"/>
     <use xlink:href="#DejaVuSans-63" x="1293.009766"/>
     <use xlink:href="#DejaVuSans-74" x="1347.990234"/>
     <use xlink:href="#DejaVuSans-65" x="1387.199219"/>
     <use xlink:href="#DejaVuSans-72" x="1448.722656"/>
     <use xlink:href="#DejaVuSans-69" x="1489.835938"/>
     <use xlink:href="#DejaVuSans-73" x="1517.619141"/>
     <use xlink:href="#DejaVuSans-74" x="1569.71875"/>
     <use xlink:href="#DejaVuSans-69" x="1608.927734"/>
     <use xlink:href="#DejaVuSans-63" x="1636.710938"/>
    </g>
   </g>
   <g id="legend_1">
    <g id="patch_7">
     <path d="M 252.441875 302.584 
L 407.72 302.584 
Q 409.72 302.584 409.72 300.584 
L 409.72 286.905875 
Q 409.72 284.905875 407.72 284.905875 
L 252.441875 284.905875 
Q 250.441875 284.905875 250.441875 286.905875 
L 250.441875 300.584 
Q 250.441875 302.584 252.441875 302.584 
z
" style="fill: #ffffff; opacity: 0.8; stroke: #cccccc; stroke-linejoin: miter"/>
    </g>
    <g id="line2d_15">
     <path d="M 254.441875 293.004312 
L 264.441875 293.004312 
L 274.441875 293.004312 
" style="fill: none; stroke: #1f77b4; stroke-width: 1.5; stroke-linecap: square"/>
    </g>
    <g id="text_16">
     <!-- ROC curve (area = 0.58) -->
     <g transform="translate(282.441875 296.504312) scale(0.1 -0.1)">
      <defs>
       <path id="DejaVuSans-28" d="M 1984 4856 
Q 1566 4138 1362 3434 
Q 1159 2731 1159 2009 
Q 1159 1288 1364 580 
Q 1569 -128 1984 -844 
L 1484 -844 
Q 1016 -109 783 600 
Q 550 1309 550 2009 
Q 550 2706 781 3412 
Q 1013 4119 1484 4856 
L 1984 4856 
z
" transform="scale(0.015625)"/>
       <path id="DejaVuSans-3d" d="M 678 2906 
L 4684 2906 
L 4684 2381 
L 678 2381 
L 678 2906 
z
M 678 1631 
L 4684 1631 
L 4684 1100 
L 678 1100 
L 678 1631 
z
" transform="scale(0.015625)"/>
       <path id="DejaVuSans-35" d="M 691 4666 
L 3169 4666 
L 3169 4134 
L 1269 4134 
L 1269 2991 
Q 1406 3038 1543 3061 
Q 1681 3084 1819 3084 
Q 2600 3084 3056 2656 
Q 3513 2228 3513 1497 
Q 3513 744 3044 326 
Q 2575 -91 1722 -91 
Q 1428 -91 1123 -41 
Q 819 9 494 109 
L 494 744 
Q 775 591 1075 516 
Q 1375 441 1709 441 
Q 2250 441 2565 725 
Q 2881 1009 2881 1497 
Q 2881 1984 2565 2268 
Q 2250 2553 1709 2553 
Q 1456 2553 1204 2497 
Q 953 2441 691 2322 
L 691 4666 
z
" transform="scale(0.015625)"/>
       <path id="DejaVuSans-29" d="M 513 4856 
L 1013 4856 
Q 1481 4119 1714 3412 
Q 1947 2706 1947 2009 
Q 1947 1309 1714 600 
Q 1481 -109 1013 -844 
L 513 -844 
Q 928 -128 1133 580 
Q 1338 1288 1338 2009 
Q 1338 2731 1133 3434 
Q 928 4138 513 4856 
z
" transform="scale(0.015625)"/>
      </defs>
      <use xlink:href="#DejaVuSans-52"/>
      <use xlink:href="#DejaVuSans-4f" x="69.482422"/>
      <use xlink:href="#DejaVuSans-43" x="148.193359"/>
      <use xlink:href="#DejaVuSans-20" x="218.017578"/>
      <use xlink:href="#DejaVuSans-63" x="249.804688"/>
      <use xlink:href="#DejaVuSans-75" x="304.785156"/>
      <use xlink:href="#DejaVuSans-72" x="368.164062"/>
      <use xlink:href="#DejaVuSans-76" x="409.277344"/>
      <use xlink:href="#DejaVuSans-65" x="468.457031"/>
      <use xlink:href="#DejaVuSans-20" x="529.980469"/>
      <use xlink:href="#DejaVuSans-28" x="561.767578"/>
      <use xlink:href="#DejaVuSans-61" x="600.78125"/>
      <use xlink:href="#DejaVuSans-72" x="662.060547"/>
      <use xlink:href="#DejaVuSans-65" x="700.923828"/>
      <use xlink:href="#DejaVuSans-61" x="762.447266"/>
      <use xlink:href="#DejaVuSans-20" x="823.726562"/>
      <use xlink:href="#DejaVuSans-3d" x="855.513672"/>
      <use xlink:href="#DejaVuSans-20" x="939.302734"/>
      <use xlink:href="#DejaVuSans-30" x="971.089844"/>
      <use xlink:href="#DejaVuSans-2e" x="1034.712891"/>
      <use xlink:href="#DejaVuSans-35" x="1066.5"/>
      <use xlink:href="#DejaVuSans-38" x="1130.123047"/>
      <use xlink:href="#DejaVuSans-29" x="1193.746094"/>
     </g>
    </g>
   </g>
  </g>
 </g>
 <defs>
  <clipPath id="pd0c0c991b5">
   <rect x="57.6" y="41.472" width="357.12" height="266.112"/>
  </clipPath>
 </defs>
</svg>
