<?xml version="1.0" encoding="utf-8" standalone="no"?>
<!DOCTYPE svg PUBLIC "-//W3C//DTD SVG 1.1//EN"
  "http://www.w3.org/Graphics/SVG/1.1/DTD/svg11.dtd">
<svg xmlns:xlink="http://www.w3.org/1999/xlink" width="460.8pt" height="345.6pt" viewBox="0 0 460.8 345.6" xmlns="http://www.w3.org/2000/svg" version="1.1">
 <metadata>
  <rdf:RDF xmlns:dc="http://purl.org/dc/elements/1.1/" xmlns:cc="http://creativecommons.org/ns#" xmlns:rdf="http://www.w3.org/1999/02/22-rdf-syntax-ns#">
   <cc:Work>
    <dc:type rdf:resource="http://purl.org/dc/dcmitype/StillImage"/>
    <dc:date>2024-05-01T17:10:55.406435</dc:date>
    <dc:format>image/svg+xml</dc:format>
    <dc:creator>
     <cc:Agent>
      <dc:title>Matplotlib v3.8.3, https://matplotlib.org/</dc:title>
     </cc:Agent>
    </dc:creator>
   </cc:Work>
  </rdf:RDF>
 </metadata>
 <defs>
  <style type="text/css">*{stroke-linejoin: round; stroke-linecap: butt}</style>
 </defs>
 <g id="figure_1">
  <g id="patch_1">
   <path d="M 0 345.6 
L 460.8 345.6 
L 460.8 0 
L 0 0 
z
" style="fill: #ffffff"/>
  </g>
  <g id="axes_1">
   <g id="patch_2">
    <path d="M 57.6 307.584 
L 414.72 307.584 
L 414.72 41.472 
L 57.6 41.472 
z
" style="fill: #ffffff"/>
   </g>
   <g id="matplotlib.axis_1">
    <g id="xtick_1">
     <g id="line2d_1">
      <defs>
       <path id="m6dc2ecfe32" d="M 0 0 
L 0 3.5 
" style="stroke: #000000; stroke-width: 0.8"/>
      </defs>
      <g>
       <use xlink:href="#m6dc2ecfe32" x="57.6" y="307.584" style="stroke: #000000; stroke-width: 0.8"/>
      </g>
     </g>
     <g id="text_1">
      <!-- 0.0 -->
      <g transform="translate(49.648438 322.182437) scale(0.1 -0.1)">
       <defs>
        <path id="DejaVuSans-30" d="M 2034 4250 
Q 1547 4250 1301 3770 
Q 1056 3291 1056 2328 
Q 1056 1369 1301 889 
Q 1547 409 2034 409 
Q 2525 409 2770 889 
Q 3016 1369 3016 2328 
Q 3016 3291 2770 3770 
Q 2525 4250 2034 4250 
z
M 2034 4750 
Q 2819 4750 3233 4129 
Q 3647 3509 3647 2328 
Q 3647 1150 3233 529 
Q 2819 -91 2034 -91 
Q 1250 -91 836 529 
Q 422 1150 422 2328 
Q 422 3509 836 4129 
Q 1250 4750 2034 4750 
z
" transform="scale(0.015625)"/>
        <path id="DejaVuSans-2e" d="M 684 794 
L 1344 794 
L 1344 0 
L 684 0 
L 684 794 
z
" transform="scale(0.015625)"/>
       </defs>
       <use xlink:href="#DejaVuSans-30"/>
       <use xlink:href="#DejaVuSans-2e" x="63.623047"/>
       <use xlink:href="#DejaVuSans-30" x="95.410156"/>
      </g>
     </g>
    </g>
    <g id="xtick_2">
     <g id="line2d_2">
      <g>
       <use xlink:href="#m6dc2ecfe32" x="129.024" y="307.584" style="stroke: #000000; stroke-width: 0.8"/>
      </g>
     </g>
     <g id="text_2">
      <!-- 0.2 -->
      <g transform="translate(121.072438 322.182437) scale(0.1 -0.1)">
       <defs>
        <path id="DejaVuSans-32" d="M 1228 531 
L 3431 531 
L 3431 0 
L 469 0 
L 469 531 
Q 828 903 1448 1529 
Q 2069 2156 2228 2338 
Q 2531 2678 2651 2914 
Q 2772 3150 2772 3378 
Q 2772 3750 2511 3984 
Q 2250 4219 1831 4219 
Q 1534 4219 1204 4116 
Q 875 4013 500 3803 
L 500 4441 
Q 881 4594 1212 4672 
Q 1544 4750 1819 4750 
Q 2544 4750 2975 4387 
Q 3406 4025 3406 3419 
Q 3406 3131 3298 2873 
Q 3191 2616 2906 2266 
Q 2828 2175 2409 1742 
Q 1991 1309 1228 531 
z
" transform="scale(0.015625)"/>
       </defs>
       <use xlink:href="#DejaVuSans-30"/>
       <use xlink:href="#DejaVuSans-2e" x="63.623047"/>
       <use xlink:href="#DejaVuSans-32" x="95.410156"/>
      </g>
     </g>
    </g>
    <g id="xtick_3">
     <g id="line2d_3">
      <g>
       <use xlink:href="#m6dc2ecfe32" x="200.448" y="307.584" style="stroke: #000000; stroke-width: 0.8"/>
      </g>
     </g>
     <g id="text_3">
      <!-- 0.4 -->
      <g transform="translate(192.496438 322.182437) scale(0.1 -0.1)">
       <defs>
        <path id="DejaVuSans-34" d="M 2419 4116 
L 825 1625 
L 2419 1625 
L 2419 4116 
z
M 2253 4666 
L 3047 4666 
L 3047 1625 
L 3713 1625 
L 3713 1100 
L 3047 1100 
L 3047 0 
L 2419 0 
L 2419 1100 
L 313 1100 
L 313 1709 
L 2253 4666 
z
" transform="scale(0.015625)"/>
       </defs>
       <use xlink:href="#DejaVuSans-30"/>
       <use xlink:href="#DejaVuSans-2e" x="63.623047"/>
       <use xlink:href="#DejaVuSans-34" x="95.410156"/>
      </g>
     </g>
    </g>
    <g id="xtick_4">
     <g id="line2d_4">
      <g>
       <use xlink:href="#m6dc2ecfe32" x="271.872" y="307.584" style="stroke: #000000; stroke-width: 0.8"/>
      </g>
     </g>
     <g id="text_4">
      <!-- 0.6 -->
      <g transform="translate(263.920438 322.182437) scale(0.1 -0.1)">
       <defs>
        <path id="DejaVuSans-36" d="M 2113 2584 
Q 1688 2584 1439 2293 
Q 1191 2003 1191 1497 
Q 1191 994 1439 701 
Q 1688 409 2113 409 
Q 2538 409 2786 701 
Q 3034 994 3034 1497 
Q 3034 2003 2786 2293 
Q 2538 2584 2113 2584 
z
M 3366 4563 
L 3366 3988 
Q 3128 4100 2886 4159 
Q 2644 4219 2406 4219 
Q 1781 4219 1451 3797 
Q 1122 3375 1075 2522 
Q 1259 2794 1537 2939 
Q 1816 3084 2150 3084 
Q 2853 3084 3261 2657 
Q 3669 2231 3669 1497 
Q 3669 778 3244 343 
Q 2819 -91 2113 -91 
Q 1303 -91 875 529 
Q 447 1150 447 2328 
Q 447 3434 972 4092 
Q 1497 4750 2381 4750 
Q 2619 4750 2861 4703 
Q 3103 4656 3366 4563 
z
" transform="scale(0.015625)"/>
       </defs>
       <use xlink:href="#DejaVuSans-30"/>
       <use xlink:href="#DejaVuSans-2e" x="63.623047"/>
       <use xlink:href="#DejaVuSans-36" x="95.410156"/>
      </g>
     </g>
    </g>
    <g id="xtick_5">
     <g id="line2d_5">
      <g>
       <use xlink:href="#m6dc2ecfe32" x="343.296" y="307.584" style="stroke: #000000; stroke-width: 0.8"/>
      </g>
     </g>
     <g id="text_5">
      <!-- 0.8 -->
      <g transform="translate(335.344438 322.182437) scale(0.1 -0.1)">
       <defs>
        <path id="DejaVuSans-38" d="M 2034 2216 
Q 1584 2216 1326 1975 
Q 1069 1734 1069 1313 
Q 1069 891 1326 650 
Q 1584 409 2034 409 
Q 2484 409 2743 651 
Q 3003 894 3003 1313 
Q 3003 1734 2745 1975 
Q 2488 2216 2034 2216 
z
M 1403 2484 
Q 997 2584 770 2862 
Q 544 3141 544 3541 
Q 544 4100 942 4425 
Q 1341 4750 2034 4750 
Q 2731 4750 3128 4425 
Q 3525 4100 3525 3541 
Q 3525 3141 3298 2862 
Q 3072 2584 2669 2484 
Q 3125 2378 3379 2068 
Q 3634 1759 3634 1313 
Q 3634 634 3220 271 
Q 2806 -91 2034 -91 
Q 1263 -91 848 271 
Q 434 634 434 1313 
Q 434 1759 690 2068 
Q 947 2378 1403 2484 
z
M 1172 3481 
Q 1172 3119 1398 2916 
Q 1625 2713 2034 2713 
Q 2441 2713 2670 2916 
Q 2900 3119 2900 3481 
Q 2900 3844 2670 4047 
Q 2441 4250 2034 4250 
Q 1625 4250 1398 4047 
Q 1172 3844 1172 3481 
z
" transform="scale(0.015625)"/>
       </defs>
       <use xlink:href="#DejaVuSans-30"/>
       <use xlink:href="#DejaVuSans-2e" x="63.623047"/>
       <use xlink:href="#DejaVuSans-38" x="95.410156"/>
      </g>
     </g>
    </g>
    <g id="xtick_6">
     <g id="line2d_6">
      <g>
       <use xlink:href="#m6dc2ecfe32" x="414.72" y="307.584" style="stroke: #000000; stroke-width: 0.8"/>
      </g>
     </g>
     <g id="text_6">
      <!-- 1.0 -->
      <g transform="translate(406.768438 322.182437) scale(0.1 -0.1)">
       <defs>
        <path id="DejaVuSans-31" d="M 794 531 
L 1825 531 
L 1825 4091 
L 703 3866 
L 703 4441 
L 1819 4666 
L 2450 4666 
L 2450 531 
L 3481 531 
L 3481 0 
L 794 0 
L 794 531 
z
" transform="scale(0.015625)"/>
       </defs>
       <use xlink:href="#DejaVuSans-31"/>
       <use xlink:href="#DejaVuSans-2e" x="63.623047"/>
       <use xlink:href="#DejaVuSans-30" x="95.410156"/>
      </g>
     </g>
    </g>
    <g id="text_7">
     <!-- False Positive Rate -->
     <g transform="translate(189.693594 335.860562) scale(0.1 -0.1)">
      <defs>
       <path id="DejaVuSans-46" d="M 628 4666 
L 3309 4666 
L 3309 4134 
L 1259 4134 
L 1259 2759 
L 3109 2759 
L 3109 2228 
L 1259 2228 
L 1259 0 
L 628 0 
L 628 4666 
z
" transform="scale(0.015625)"/>
       <path id="DejaVuSans-61" d="M 2194 1759 
Q 1497 1759 1228 1600 
Q 959 1441 959 1056 
Q 959 750 1161 570 
Q 1363 391 1709 391 
Q 2188 391 2477 730 
Q 2766 1069 2766 1631 
L 2766 1759 
L 2194 1759 
z
M 3341 1997 
L 3341 0 
L 2766 0 
L 2766 531 
Q 2569 213 2275 61 
Q 1981 -91 1556 -91 
Q 1019 -91 701 211 
Q 384 513 384 1019 
Q 384 1609 779 1909 
Q 1175 2209 1959 2209 
L 2766 2209 
L 2766 2266 
Q 2766 2663 2505 2880 
Q 2244 3097 1772 3097 
Q 1472 3097 1187 3025 
Q 903 2953 641 2809 
L 641 3341 
Q 956 3463 1253 3523 
Q 1550 3584 1831 3584 
Q 2591 3584 2966 3190 
Q 3341 2797 3341 1997 
z
" transform="scale(0.015625)"/>
       <path id="DejaVuSans-6c" d="M 603 4863 
L 1178 4863 
L 1178 0 
L 603 0 
L 603 4863 
z
" transform="scale(0.015625)"/>
       <path id="DejaVuSans-73" d="M 2834 3397 
L 2834 2853 
Q 2591 2978 2328 3040 
Q 2066 3103 1784 3103 
Q 1356 3103 1142 2972 
Q 928 2841 928 2578 
Q 928 2378 1081 2264 
Q 1234 2150 1697 2047 
L 1894 2003 
Q 2506 1872 2764 1633 
Q 3022 1394 3022 966 
Q 3022 478 2636 193 
Q 2250 -91 1575 -91 
Q 1294 -91 989 -36 
Q 684 19 347 128 
L 347 722 
Q 666 556 975 473 
Q 1284 391 1588 391 
Q 1994 391 2212 530 
Q 2431 669 2431 922 
Q 2431 1156 2273 1281 
Q 2116 1406 1581 1522 
L 1381 1569 
Q 847 1681 609 1914 
Q 372 2147 372 2553 
Q 372 3047 722 3315 
Q 1072 3584 1716 3584 
Q 2034 3584 2315 3537 
Q 2597 3491 2834 3397 
z
" transform="scale(0.015625)"/>
       <path id="DejaVuSans-65" d="M 3597 1894 
L 3597 1613 
L 953 1613 
Q 991 1019 1311 708 
Q 1631 397 2203 397 
Q 2534 397 2845 478 
Q 3156 559 3463 722 
L 3463 178 
Q 3153 47 2828 -22 
Q 2503 -91 2169 -91 
Q 1331 -91 842 396 
Q 353 884 353 1716 
Q 353 2575 817 3079 
Q 1281 3584 2069 3584 
Q 2775 3584 3186 3129 
Q 3597 2675 3597 1894 
z
M 3022 2063 
Q 3016 2534 2758 2815 
Q 2500 3097 2075 3097 
Q 1594 3097 1305 2825 
Q 1016 2553 972 2059 
L 3022 2063 
z
" transform="scale(0.015625)"/>
       <path id="DejaVuSans-20" transform="scale(0.015625)"/>
       <path id="DejaVuSans-50" d="M 1259 4147 
L 1259 2394 
L 2053 2394 
Q 2494 2394 2734 2622 
Q 2975 2850 2975 3272 
Q 2975 3691 2734 3919 
Q 2494 4147 2053 4147 
L 1259 4147 
z
M 628 4666 
L 2053 4666 
Q 2838 4666 3239 4311 
Q 3641 3956 3641 3272 
Q 3641 2581 3239 2228 
Q 2838 1875 2053 1875 
L 1259 1875 
L 1259 0 
L 628 0 
L 628 4666 
z
" transform="scale(0.015625)"/>
       <path id="DejaVuSans-6f" d="M 1959 3097 
Q 1497 3097 1228 2736 
Q 959 2375 959 1747 
Q 959 1119 1226 758 
Q 1494 397 1959 397 
Q 2419 397 2687 759 
Q 2956 1122 2956 1747 
Q 2956 2369 2687 2733 
Q 2419 3097 1959 3097 
z
M 1959 3584 
Q 2709 3584 3137 3096 
Q 3566 2609 3566 1747 
Q 3566 888 3137 398 
Q 2709 -91 1959 -91 
Q 1206 -91 779 398 
Q 353 888 353 1747 
Q 353 2609 779 3096 
Q 1206 3584 1959 3584 
z
" transform="scale(0.015625)"/>
       <path id="DejaVuSans-69" d="M 603 3500 
L 1178 3500 
L 1178 0 
L 603 0 
L 603 3500 
z
M 603 4863 
L 1178 4863 
L 1178 4134 
L 603 4134 
L 603 4863 
z
" transform="scale(0.015625)"/>
       <path id="DejaVuSans-74" d="M 1172 4494 
L 1172 3500 
L 2356 3500 
L 2356 3053 
L 1172 3053 
L 1172 1153 
Q 1172 725 1289 603 
Q 1406 481 1766 481 
L 2356 481 
L 2356 0 
L 1766 0 
Q 1100 0 847 248 
Q 594 497 594 1153 
L 594 3053 
L 172 3053 
L 172 3500 
L 594 3500 
L 594 4494 
L 1172 4494 
z
" transform="scale(0.015625)"/>
       <path id="DejaVuSans-76" d="M 191 3500 
L 800 3500 
L 1894 563 
L 2988 3500 
L 3597 3500 
L 2284 0 
L 1503 0 
L 191 3500 
z
" transform="scale(0.015625)"/>
       <path id="DejaVuSans-52" d="M 2841 2188 
Q 3044 2119 3236 1894 
Q 3428 1669 3622 1275 
L 4263 0 
L 3584 0 
L 2988 1197 
Q 2756 1666 2539 1819 
Q 2322 1972 1947 1972 
L 1259 1972 
L 1259 0 
L 628 0 
L 628 4666 
L 2053 4666 
Q 2853 4666 3247 4331 
Q 3641 3997 3641 3322 
Q 3641 2881 3436 2590 
Q 3231 2300 2841 2188 
z
M 1259 4147 
L 1259 2491 
L 2053 2491 
Q 2509 2491 2742 2702 
Q 2975 2913 2975 3322 
Q 2975 3731 2742 3939 
Q 2509 4147 2053 4147 
L 1259 4147 
z
" transform="scale(0.015625)"/>
      </defs>
      <use xlink:href="#DejaVuSans-46"/>
      <use xlink:href="#DejaVuSans-61" x="48.394531"/>
      <use xlink:href="#DejaVuSans-6c" x="109.673828"/>
      <use xlink:href="#DejaVuSans-73" x="137.457031"/>
      <use xlink:href="#DejaVuSans-65" x="189.556641"/>
      <use xlink:href="#DejaVuSans-20" x="251.080078"/>
      <use xlink:href="#DejaVuSans-50" x="282.867188"/>
      <use xlink:href="#DejaVuSans-6f" x="339.544922"/>
      <use xlink:href="#DejaVuSans-73" x="400.726562"/>
      <use xlink:href="#DejaVuSans-69" x="452.826172"/>
      <use xlink:href="#DejaVuSans-74" x="480.609375"/>
      <use xlink:href="#DejaVuSans-69" x="519.818359"/>
      <use xlink:href="#DejaVuSans-76" x="547.601562"/>
      <use xlink:href="#DejaVuSans-65" x="606.78125"/>
      <use xlink:href="#DejaVuSans-20" x="668.304688"/>
      <use xlink:href="#DejaVuSans-52" x="700.091797"/>
      <use xlink:href="#DejaVuSans-61" x="767.324219"/>
      <use xlink:href="#DejaVuSans-74" x="828.603516"/>
      <use xlink:href="#DejaVuSans-65" x="867.8125"/>
     </g>
    </g>
   </g>
   <g id="matplotlib.axis_2">
    <g id="ytick_1">
     <g id="line2d_7">
      <defs>
       <path id="m160b001156" d="M 0 0 
L -3.5 0 
" style="stroke: #000000; stroke-width: 0.8"/>
      </defs>
      <g>
       <use xlink:href="#m160b001156" x="57.6" y="307.584" style="stroke: #000000; stroke-width: 0.8"/>
      </g>
     </g>
     <g id="text_8">
      <!-- 0.0 -->
      <g transform="translate(34.696875 311.383219) scale(0.1 -0.1)">
       <use xlink:href="#DejaVuSans-30"/>
       <use xlink:href="#DejaVuSans-2e" x="63.623047"/>
       <use xlink:href="#DejaVuSans-30" x="95.410156"/>
      </g>
     </g>
    </g>
    <g id="ytick_2">
     <g id="line2d_8">
      <g>
       <use xlink:href="#m160b001156" x="57.6" y="256.896" style="stroke: #000000; stroke-width: 0.8"/>
      </g>
     </g>
     <g id="text_9">
      <!-- 0.2 -->
      <g transform="translate(34.696875 260.695219) scale(0.1 -0.1)">
       <use xlink:href="#DejaVuSans-30"/>
       <use xlink:href="#DejaVuSans-2e" x="63.623047"/>
       <use xlink:href="#DejaVuSans-32" x="95.410156"/>
      </g>
     </g>
    </g>
    <g id="ytick_3">
     <g id="line2d_9">
      <g>
       <use xlink:href="#m160b001156" x="57.6" y="206.208" style="stroke: #000000; stroke-width: 0.8"/>
      </g>
     </g>
     <g id="text_10">
      <!-- 0.4 -->
      <g transform="translate(34.696875 210.007219) scale(0.1 -0.1)">
       <use xlink:href="#DejaVuSans-30"/>
       <use xlink:href="#DejaVuSans-2e" x="63.623047"/>
       <use xlink:href="#DejaVuSans-34" x="95.410156"/>
      </g>
     </g>
    </g>
    <g id="ytick_4">
     <g id="line2d_10">
      <g>
       <use xlink:href="#m160b001156" x="57.6" y="155.52" style="stroke: #000000; stroke-width: 0.8"/>
      </g>
     </g>
     <g id="text_11">
      <!-- 0.6 -->
      <g transform="translate(34.696875 159.319219) scale(0.1 -0.1)">
       <use xlink:href="#DejaVuSans-30"/>
       <use xlink:href="#DejaVuSans-2e" x="63.623047"/>
       <use xlink:href="#DejaVuSans-36" x="95.410156"/>
      </g>
     </g>
    </g>
    <g id="ytick_5">
     <g id="line2d_11">
      <g>
       <use xlink:href="#m160b001156" x="57.6" y="104.832" style="stroke: #000000; stroke-width: 0.8"/>
      </g>
     </g>
     <g id="text_12">
      <!-- 0.8 -->
      <g transform="translate(34.696875 108.631219) scale(0.1 -0.1)">
       <use xlink:href="#DejaVuSans-30"/>
       <use xlink:href="#DejaVuSans-2e" x="63.623047"/>
       <use xlink:href="#DejaVuSans-38" x="95.410156"/>
      </g>
     </g>
    </g>
    <g id="ytick_6">
     <g id="line2d_12">
      <g>
       <use xlink:href="#m160b001156" x="57.6" y="54.144" style="stroke: #000000; stroke-width: 0.8"/>
      </g>
     </g>
     <g id="text_13">
      <!-- 1.0 -->
      <g transform="translate(34.696875 57.943219) scale(0.1 -0.1)">
       <use xlink:href="#DejaVuSans-31"/>
       <use xlink:href="#DejaVuSans-2e" x="63.623047"/>
       <use xlink:href="#DejaVuSans-30" x="95.410156"/>
      </g>
     </g>
    </g>
    <g id="text_14">
     <!-- True Positive Rate -->
     <g transform="translate(28.617187 219.057687) rotate(-90) scale(0.1 -0.1)">
      <defs>
       <path id="DejaVuSans-54" d="M -19 4666 
L 3928 4666 
L 3928 4134 
L 2272 4134 
L 2272 0 
L 1638 0 
L 1638 4134 
L -19 4134 
L -19 4666 
z
" transform="scale(0.015625)"/>
       <path id="DejaVuSans-72" d="M 2631 2963 
Q 2534 3019 2420 3045 
Q 2306 3072 2169 3072 
Q 1681 3072 1420 2755 
Q 1159 2438 1159 1844 
L 1159 0 
L 581 0 
L 581 3500 
L 1159 3500 
L 1159 2956 
Q 1341 3275 1631 3429 
Q 1922 3584 2338 3584 
Q 2397 3584 2469 3576 
Q 2541 3569 2628 3553 
L 2631 2963 
z
" transform="scale(0.015625)"/>
       <path id="DejaVuSans-75" d="M 544 1381 
L 544 3500 
L 1119 3500 
L 1119 1403 
Q 1119 906 1312 657 
Q 1506 409 1894 409 
Q 2359 409 2629 706 
Q 2900 1003 2900 1516 
L 2900 3500 
L 3475 3500 
L 3475 0 
L 2900 0 
L 2900 538 
Q 2691 219 2414 64 
Q 2138 -91 1772 -91 
Q 1169 -91 856 284 
Q 544 659 544 1381 
z
M 1991 3584 
L 1991 3584 
z
" transform="scale(0.015625)"/>
      </defs>
      <use xlink:href="#DejaVuSans-54"/>
      <use xlink:href="#DejaVuSans-72" x="46.333984"/>
      <use xlink:href="#DejaVuSans-75" x="87.447266"/>
      <use xlink:href="#DejaVuSans-65" x="150.826172"/>
      <use xlink:href="#DejaVuSans-20" x="212.349609"/>
      <use xlink:href="#DejaVuSans-50" x="244.136719"/>
      <use xlink:href="#DejaVuSans-6f" x="300.814453"/>
      <use xlink:href="#DejaVuSans-73" x="361.996094"/>
      <use xlink:href="#DejaVuSans-69" x="414.095703"/>
      <use xlink:href="#DejaVuSans-74" x="441.878906"/>
      <use xlink:href="#DejaVuSans-69" x="481.087891"/>
      <use xlink:href="#DejaVuSans-76" x="508.871094"/>
      <use xlink:href="#DejaVuSans-65" x="568.050781"/>
      <use xlink:href="#DejaVuSans-20" x="629.574219"/>
      <use xlink:href="#DejaVuSans-52" x="661.361328"/>
      <use xlink:href="#DejaVuSans-61" x="728.59375"/>
      <use xlink:href="#DejaVuSans-74" x="789.873047"/>
      <use xlink:href="#DejaVuSans-65" x="829.082031"/>
     </g>
    </g>
   </g>
   <g id="line2d_13">
    <path d="M 57.6 307.584 
L 58.627683 305.336011 
L 58.730452 304.919716 
L 58.83322 304.836457 
L 59.038757 304.503422 
L 59.244294 304.336904 
L 59.244294 304.087127 
L 60.991355 301.922397 
L 61.094124 301.67262 
L 61.29966 301.67262 
L 61.29966 301.589361 
L 61.402429 301.506102 
L 61.505197 301.089808 
L 61.710734 301.006549 
L 62.019039 300.257219 
L 62.327344 300.257219 
L 62.430112 299.924184 
L 62.532881 299.924184 
L 62.635649 299.674407 
L 63.663332 298.925078 
L 63.766101 298.342265 
L 64.177174 298.259007 
L 64.177174 297.509677 
L 64.485479 297.426418 
L 64.999321 296.843606 
L 65.410394 296.760347 
L 65.410394 296.260794 
L 65.821468 295.594723 
L 66.232541 295.344946 
L 66.232541 295.011911 
L 66.438078 295.011911 
L 66.438078 294.928652 
L 66.438078 294.678875 
L 66.746383 294.678875 
L 66.746383 294.34584 
L 66.849151 294.34584 
L 66.951919 294.262581 
L 67.362993 294.262581 
L 67.671298 293.513251 
L 67.979603 293.180216 
L 67.979603 293.096957 
L 68.596213 292.930439 
L 69.007286 292.84718 
L 69.007286 292.763921 
L 69.315591 292.763921 
L 69.41836 292.014591 
L 69.521128 292.014591 
L 69.521128 291.681556 
L 69.623896 291.681556 
L 69.932201 291.34852 
L 70.03497 291.015485 
L 70.240506 291.015485 
L 70.857117 290.432673 
L 70.857117 290.266155 
L 71.165422 289.93312 
L 71.576495 289.93312 
L 71.576495 289.849861 
L 71.679263 289.766602 
L 71.679263 289.600084 
L 71.782032 289.600084 
L 72.295873 289.516825 
L 72.295873 289.433566 
L 72.604178 289.350307 
L 72.706947 289.100531 
L 72.809715 289.017272 
L 72.912483 288.934013 
L 73.015252 288.517719 
L 73.426325 288.267942 
L 73.529094 287.934907 
L 73.631862 287.934907 
L 73.631862 287.851648 
L 73.631862 287.68513 
L 73.940167 287.601871 
L 74.042935 287.435353 
L 74.145704 287.435353 
L 74.145704 287.352095 
L 74.35124 286.9358 
L 74.762314 286.686024 
L 74.865082 286.686024 
L 74.96785 286.519506 
L 74.96785 286.103212 
L 75.58446 285.770176 
L 76.098302 285.686917 
L 76.201071 285.603658 
L 76.509376 285.603658 
L 76.714912 285.270623 
L 77.228754 285.270623 
L 77.331522 284.937587 
L 77.537059 284.687811 
L 77.639827 283.688704 
L 77.948132 283.605445 
L 77.948132 283.522187 
L 78.050901 283.522187 
L 78.256437 282.856116 
L 78.359206 282.356562 
L 78.564742 282.273304 
L 78.667511 282.023527 
L 78.975816 282.023527 
L 78.975816 281.940268 
L 79.181353 281.690491 
L 79.386889 281.690491 
L 79.386889 281.523974 
L 79.695194 281.523974 
L 79.695194 281.440715 
L 80.106268 280.857903 
L 80.414573 280.857903 
L 80.414573 280.691385 
L 80.722878 280.608126 
L 80.825646 280.441608 
L 80.928414 280.441608 
L 81.031183 280.025314 
L 81.339488 279.942055 
L 81.339488 279.858796 
L 81.545024 279.858796 
L 81.545024 279.775537 
L 81.853329 279.60902 
L 82.161635 279.525761 
L 82.264403 278.776431 
L 82.46994 278.776431 
L 82.778245 278.443396 
L 83.497623 278.360137 
L 83.600391 277.36103 
L 83.805928 277.277771 
L 83.805928 277.027995 
L 84.31977 276.861477 
L 84.422538 276.528442 
L 84.730843 276.445183 
L 85.347453 276.195406 
L 85.450222 275.779112 
L 85.655758 275.779112 
L 85.655758 275.612594 
L 85.964063 275.612594 
L 85.964063 275.446076 
L 86.580673 275.362817 
L 86.683442 275.029782 
L 86.78621 275.029782 
L 86.78621 274.946523 
L 86.991747 274.696746 
L 87.505588 274.696746 
L 87.505588 274.613488 
L 87.608357 274.363711 
L 87.916662 274.280452 
L 87.916662 274.197193 
L 88.122199 274.197193 
L 88.327735 273.780899 
L 88.533272 273.780899 
L 88.533272 273.614381 
L 88.841577 273.614381 
L 88.944345 272.532016 
L 89.149882 272.448757 
L 89.149882 272.032463 
L 89.25265 272.032463 
L 90.177565 271.782686 
L 90.177565 271.616168 
L 90.485871 271.616168 
L 90.485871 271.366392 
L 90.999712 271.283133 
L 91.102481 270.700321 
L 91.205249 270.617062 
L 91.513554 270.617062 
L 91.616322 270.200767 
L 91.924627 270.200767 
L 91.924627 270.117509 
L 91.924627 269.950991 
L 92.027396 269.950991 
L 92.335701 269.534696 
L 92.644006 269.368179 
L 92.644006 269.28492 
L 92.849542 269.28492 
L 92.849542 269.035143 
L 93.055079 269.035143 
L 93.157847 268.785367 
L 93.260616 268.702108 
L 93.466153 268.452331 
L 93.568921 267.203448 
L 93.877226 267.03693 
L 93.979994 267.03693 
L 94.288299 266.620636 
L 94.699373 266.537377 
L 94.802141 266.037824 
L 95.007678 265.954565 
L 95.007678 265.371753 
L 95.315983 265.371753 
L 95.418751 265.121976 
L 95.829824 265.038717 
L 95.932593 264.788941 
L 96.75474 264.788941 
L 96.857508 264.455905 
L 97.063045 264.372647 
L 97.063045 263.956352 
L 97.165813 263.956352 
L 97.98796 263.540058 
L 98.090728 263.456799 
L 98.090728 263.290281 
L 98.501801 262.873987 
L 98.707338 262.873987 
L 98.707338 262.790728 
L 98.810106 262.540951 
L 98.912875 262.457693 
L 99.118412 262.457693 
L 99.22118 262.041398 
L 99.426717 261.958139 
L 99.529485 261.87488 
L 99.940558 261.791622 
L 100.043327 261.625104 
L 100.4544 261.625104 
L 100.4544 261.125551 
L 100.865473 261.042292 
L 100.968242 260.625997 
L 101.482083 260.542739 
L 101.482083 260.292962 
L 101.790388 260.292962 
L 101.790388 260.209703 
L 101.893157 259.71015 
L 102.098694 259.626891 
L 102.201462 259.293855 
L 102.406999 259.293855 
L 102.509767 258.96082 
L 102.612535 258.96082 
L 102.715304 258.544526 
L 102.92084 258.461267 
L 102.92084 258.294749 
L 103.023609 258.294749 
L 103.126377 258.21149 
L 103.229145 257.795196 
L 103.331914 257.711937 
L 103.434682 257.045866 
L 103.948524 256.962607 
L 103.948524 256.879348 
L 104.051292 256.879348 
L 104.462365 256.879348 
L 104.462365 256.796089 
L 104.667902 256.546313 
L 104.667902 256.213277 
L 104.770671 256.213277 
L 105.387281 256.213277 
L 105.387281 255.963501 
L 105.695586 255.880242 
L 105.695586 255.796983 
L 106.003891 255.796983 
L 106.106659 255.130912 
L 106.312196 254.714618 
L 106.414964 254.298323 
L 106.826037 254.298323 
L 106.928806 253.882029 
L 107.134342 253.79877 
L 107.237111 253.465735 
L 107.545416 253.382476 
L 107.545416 253.215958 
L 107.750953 253.215958 
L 107.750953 253.132699 
L 107.956489 252.633146 
L 107.956489 252.466628 
L 108.162026 252.466628 
L 108.162026 252.30011 
L 108.573099 252.216852 
L 108.778636 252.050334 
L 108.881404 251.883816 
L 109.292478 251.800557 
L 109.395246 251.467522 
L 109.498014 251.384263 
L 109.498014 251.051227 
L 109.600783 251.051227 
L 109.909088 250.88471 
L 110.114624 250.88471 
L 110.217393 250.551674 
L 110.525698 250.468415 
L 110.628466 250.052121 
L 110.834003 249.968862 
L 110.834003 249.802344 
L 111.03954 249.802344 
L 111.03954 249.635827 
L 111.553381 249.552568 
L 111.65615 249.136273 
L 111.758918 249.136273 
L 111.758918 248.63672 
L 112.27276 248.553461 
L 112.375528 247.88739 
L 112.992138 247.804131 
L 113.197675 247.637614 
L 113.608748 247.637614 
L 113.917053 247.387837 
L 114.019822 247.054802 
L 114.12259 246.888284 
L 114.12259 246.638507 
L 114.225358 246.638507 
L 114.430895 246.388731 
L 115.047505 246.305472 
L 115.047505 246.222213 
L 115.150273 246.222213 
L 115.253042 246.055695 
L 115.458578 245.805919 
L 115.664115 245.805919 
L 115.664115 245.639401 
L 115.869652 245.639401 
L 115.869652 245.472883 
L 116.383494 245.389624 
L 116.486262 245.139848 
L 116.58903 245.139848 
L 116.691799 244.640294 
L 117.000104 244.640294 
L 117.000104 244.390518 
L 117.411177 244.390518 
L 117.411177 244.224 
L 117.719482 243.974223 
L 117.719482 243.724447 
L 118.027787 243.641188 
L 118.130555 243.391411 
L 118.336092 243.308152 
L 118.336092 243.224894 
L 119.261007 243.224894 
L 119.261007 243.058376 
L 119.569312 242.975117 
L 119.672081 242.808599 
L 120.083154 242.72534 
L 120.083154 242.642081 
L 120.185922 242.642081 
L 120.391459 242.642081 
L 120.391459 242.475564 
L 121.008069 242.392305 
L 121.110837 242.059269 
L 121.419142 241.726234 
L 121.521911 241.559716 
L 121.932984 241.476457 
L 122.035753 241.060163 
L 122.241289 241.060163 
L 122.241289 240.643869 
L 122.446826 240.643869 
L 122.446826 240.477351 
L 122.652363 240.310833 
L 123.166204 240.310833 
L 123.268973 239.894539 
L 123.474509 239.894539 
L 123.577278 239.394986 
L 123.988351 239.311727 
L 124.091119 239.145209 
L 124.296656 239.145209 
L 124.296656 238.978691 
L 124.810498 238.978691 
L 124.810498 238.812173 
L 124.913266 238.812173 
L 125.529876 238.728915 
L 125.632645 238.479138 
L 125.735413 238.479138 
L 125.838181 238.062844 
L 127.071401 237.979585 
L 127.071401 237.646549 
L 127.17417 237.646549 
L 127.688012 237.56329 
L 127.688012 237.396773 
L 127.79078 237.396773 
L 128.099085 237.146996 
L 128.201853 236.897219 
L 128.612927 236.897219 
L 128.612927 236.813961 
L 128.715695 236.564184 
L 128.715695 236.314407 
L 129.435073 236.231148 
L 129.435073 236.14789 
L 129.743378 236.064631 
L 129.846147 235.648336 
L 130.25722 235.565078 
L 130.25722 235.481819 
L 130.668294 235.39856 
L 130.87383 235.315301 
L 130.976599 234.899007 
L 131.387672 234.815748 
L 131.49044 234.399453 
L 131.593209 234.399453 
L 131.593209 234.232936 
L 131.798745 234.149677 
L 131.901514 233.650124 
L 132.10705 233.566865 
L 132.10705 233.483606 
L 132.209819 233.483606 
L 132.312587 233.400347 
L 132.518124 233.400347 
L 132.929197 232.734276 
L 133.134734 232.651017 
L 133.237502 231.901687 
L 133.340271 231.901687 
L 133.340271 231.73517 
L 133.545807 231.73517 
L 133.545807 231.651911 
L 133.751344 231.235616 
L 133.854112 231.235616 
L 133.854112 231.152357 
L 133.854112 230.98584 
L 134.162417 230.98584 
L 134.265186 230.736063 
L 134.470722 230.736063 
L 134.573491 229.986733 
L 134.676259 229.986733 
L 134.779027 229.653698 
L 135.498406 229.070886 
L 135.806711 228.987627 
L 135.806711 228.821109 
L 136.526089 228.73785 
L 136.628858 228.155038 
L 136.731626 228.071779 
L 136.731626 227.822003 
L 137.245468 227.738744 
L 137.245468 227.655485 
L 137.759309 227.572226 
L 137.862078 226.989414 
L 138.170383 226.906155 
L 138.273151 226.489861 
L 138.684224 226.489861 
L 138.684224 226.323343 
L 138.786993 226.323343 
L 139.198066 226.240084 
L 139.300835 226.156825 
L 139.300835 225.740531 
L 139.814676 225.657272 
L 139.917445 225.574013 
L 140.22575 225.574013 
L 140.328518 225.324237 
L 140.636823 225.324237 
L 140.84236 224.824683 
L 141.253433 224.408389 
L 141.356201 224.158612 
L 141.561738 224.158612 
L 141.561738 224.075353 
L 141.664506 223.242765 
L 141.870043 223.242765 
L 141.870043 223.159506 
L 142.281117 223.076247 
L 142.486653 222.992988 
L 142.589422 222.576694 
L 142.897727 222.326917 
L 142.897727 222.160399 
L 143.3088 222.077141 
L 143.411568 221.744105 
L 143.822642 221.744105 
L 143.822642 221.660846 
L 144.028178 221.494329 
L 144.54202 221.494329 
L 144.644788 221.327811 
L 145.055862 221.244552 
L 145.055862 221.161293 
L 145.466935 221.161293 
L 145.466935 220.994775 
L 145.878009 220.994775 
L 145.878009 219.829151 
L 146.186314 219.745892 
L 146.289082 219.412857 
L 146.494619 219.412857 
L 146.494619 219.246339 
L 147.111229 218.913304 
L 147.522302 218.580268 
L 147.727839 218.580268 
L 147.830607 218.247233 
L 148.036144 218.247233 
L 148.138912 217.66442 
L 148.344449 217.581162 
L 148.447217 217.331385 
L 148.549986 217.081608 
L 148.961059 217.081608 
L 148.961059 216.831832 
L 149.166596 216.831832 
L 149.166596 216.748573 
L 149.166596 216.582055 
L 149.577669 216.498796 
L 149.577669 216.415537 
L 149.885974 216.332279 
L 149.885974 216.165761 
L 150.399816 215.915984 
L 150.502584 215.49969 
L 150.810889 215.416431 
L 150.810889 215.249913 
L 150.913658 215.249913 
L 151.324731 215.249913 
L 151.324731 215.083396 
L 151.838573 215.000137 
L 151.941341 214.417325 
L 152.557951 214.334066 
L 152.557951 214.250807 
L 152.763488 214.167548 
L 153.071793 214.167548 
L 153.174561 213.917771 
L 153.791171 213.751254 
L 153.996708 213.751254 
L 154.099476 213.2517 
L 154.202245 213.2517 
L 154.202245 213.001924 
L 154.407781 213.001924 
L 154.407781 212.918665 
L 154.818855 212.835406 
L 155.024391 212.835406 
L 155.024391 212.668888 
L 155.229928 212.502371 
L 155.538233 212.502371 
L 155.641001 212.252594 
L 155.949306 212.252594 
L 155.949306 212.086076 
L 156.257612 212.002817 
L 156.257612 211.919558 
L 156.771453 211.8363 
L 156.874222 211.586523 
L 157.079758 211.503264 
L 157.182527 211.253488 
L 157.285295 211.253488 
L 157.388063 211.003711 
L 157.490832 210.753934 
L 157.901905 210.670675 
L 158.518515 210.254381 
L 158.621283 210.254381 
L 158.724052 210.004604 
L 158.82682 209.921346 
L 158.82682 209.671569 
L 159.032357 209.671569 
L 159.032357 209.421792 
L 159.340662 209.338534 
L 159.340662 209.255275 
L 159.546199 209.172016 
L 159.957272 208.922239 
L 160.162809 208.83898 
L 160.265577 208.422686 
L 160.984955 208.422686 
L 160.984955 208.339427 
L 161.190492 208.08965 
L 161.190492 208.006392 
L 161.498797 208.006392 
L 161.498797 207.590097 
L 161.704334 207.590097 
L 161.807102 206.757509 
L 162.526481 206.67425 
L 162.629249 206.507732 
L 162.732017 206.507732 
L 162.834786 205.758402 
L 162.937554 205.758402 
L 163.040322 205.009072 
L 163.348627 204.925813 
L 163.554164 204.676037 
L 163.554164 204.592778 
L 163.965237 204.509519 
L 164.068006 204.259742 
L 164.170774 204.259742 
L 164.273542 204.009966 
L 164.376311 203.926707 
L 164.479079 203.427154 
L 164.787384 203.343895 
L 164.787384 203.177377 
L 164.890153 203.177377 
L 165.095689 202.927601 
L 165.198458 202.677824 
L 165.301226 202.677824 
L 165.301226 202.511306 
L 165.609531 202.428047 
L 165.712299 202.178271 
L 165.917836 202.095012 
L 166.020604 201.678717 
L 166.123373 201.678717 
L 166.123373 201.428941 
L 166.739983 201.345682 
L 166.739983 201.262423 
L 167.459361 201.262423 
L 167.562129 201.012647 
L 167.664898 201.012647 
L 167.664898 200.929388 
L 167.973203 200.513093 
L 168.075971 200.513093 
L 168.075971 200.180058 
L 168.17874 200.180058 
L 168.692581 199.680505 
L 169.206423 199.597246 
L 169.309191 199.180951 
L 169.720265 199.097693 
L 169.720265 198.348363 
L 170.02857 198.348363 
L 170.131338 197.848809 
L 170.336875 197.848809 
L 170.439643 197.515774 
L 170.953485 197.515774 
L 170.953485 197.265997 
L 171.26179 197.182739 
L 171.26179 197.09948 
L 171.467327 197.09948 
L 171.467327 196.849703 
L 171.981168 196.766444 
L 171.981168 196.35015 
L 172.392242 196.266891 
L 172.392242 196.100373 
L 172.906083 196.017114 
L 172.906083 195.767338 
L 173.214388 195.684079 
L 173.214388 195.517561 
L 173.419925 195.517561 
L 173.522694 194.934749 
L 173.625462 194.934749 
L 173.625462 194.768231 
L 173.933767 194.518455 
L 173.933767 194.351937 
L 174.036535 194.351937 
L 174.139304 194.268678 
L 175.064219 194.185419 
L 175.064219 194.10216 
L 175.475292 194.10216 
L 175.783597 193.602607 
L 176.400207 193.519348 
L 176.400207 192.936536 
L 176.914049 192.853277 
L 177.016817 192.520242 
L 177.119586 192.520242 
L 177.222354 192.270465 
L 177.530659 191.93743 
L 177.633427 191.521135 
L 177.941732 191.437876 
L 177.941732 191.354618 
L 178.147269 191.354618 
L 178.147269 191.1881 
L 178.352806 191.1881 
L 178.352806 190.938323 
L 178.558342 190.938323 
L 178.661111 190.605288 
L 178.866647 190.605288 
L 178.866647 190.188993 
L 179.072184 190.188993 
L 179.072184 189.939217 
L 179.380489 189.855958 
L 179.380489 189.68944 
L 179.586026 189.606181 
L 179.688794 189.106628 
L 180.202636 189.023369 
L 180.202636 188.94011 
L 180.819246 188.94011 
L 180.819246 188.690334 
L 180.922014 188.690334 
L 181.127551 188.523816 
L 182.155235 188.440557 
L 182.258003 188.357298 
L 182.46354 188.274039 
L 182.566308 188.190781 
L 182.566308 188.024263 
L 182.874613 188.024263 
L 182.874613 187.941004 
L 182.977381 187.691227 
L 183.285686 187.691227 
L 183.388455 187.191674 
L 183.799528 187.108415 
L 183.799528 186.858639 
L 184.005065 186.77538 
L 184.107833 186.692121 
L 184.107833 186.442344 
L 184.31337 186.442344 
L 184.416138 186.192568 
L 184.621675 186.192568 
L 184.621675 186.109309 
L 185.238285 185.526497 
L 185.341053 185.193461 
L 185.54659 185.110202 
L 185.54659 185.026943 
L 185.957663 184.943685 
L 185.957663 184.777167 
L 186.368737 184.777167 
L 186.368737 184.610649 
L 186.471505 184.610649 
L 186.574273 184.52739 
L 186.882578 184.52739 
L 186.882578 184.360873 
L 187.39642 184.360873 
L 187.39642 184.277614 
L 187.704725 183.278507 
L 188.526872 183.278507 
L 188.526872 183.028731 
L 188.62964 183.028731 
L 188.937945 182.862213 
L 188.937945 182.695695 
L 189.143482 182.695695 
L 189.143482 182.529177 
L 189.349019 182.36266 
L 189.349019 182.196142 
L 189.657324 182.112883 
L 189.657324 181.946365 
L 190.171165 181.863106 
L 190.787776 181.61333 
L 190.890544 181.030518 
L 191.096081 180.364447 
L 191.404386 180.364447 
L 191.507154 179.781635 
L 191.815459 179.698376 
L 191.918227 179.36534 
L 192.226532 179.282081 
L 192.226532 179.032305 
L 192.329301 179.032305 
L 192.534837 179.032305 
L 192.843142 178.616011 
L 192.945911 178.616011 
L 193.048679 178.199716 
L 193.356984 178.116457 
L 193.459753 177.783422 
L 193.768058 177.700163 
L 193.870826 177.616904 
L 194.281899 177.533645 
L 194.384668 177.117351 
L 194.487436 177.034092 
L 194.590204 176.784315 
L 194.795741 176.701057 
L 194.898509 176.45128 
L 195.001278 176.45128 
L 195.104046 176.034986 
L 195.515119 175.951727 
L 195.617888 175.452173 
L 195.617888 174.95262 
L 196.028961 174.95262 
L 196.131729 174.536326 
L 196.337266 174.286549 
L 196.74834 174.20329 
L 196.74834 173.953514 
L 196.953876 173.870255 
L 197.262181 173.703737 
L 197.36495 173.537219 
L 197.570486 173.537219 
L 197.570486 173.037666 
L 198.187096 172.954407 
L 198.392633 172.704631 
L 198.495401 172.371595 
L 198.906475 172.288336 
L 199.009243 171.955301 
L 199.112012 171.955301 
L 199.112012 171.788783 
L 199.317548 171.705524 
L 199.523085 171.455748 
L 200.036927 171.372489 
L 200.036927 171.205971 
L 200.242463 171.122712 
L 200.345232 171.039453 
L 200.345232 170.373382 
L 200.653537 170.290124 
L 201.270147 169.707311 
L 201.68122 169.707311 
L 201.886757 169.540794 
L 201.989525 169.291017 
L 202.195062 169.207758 
L 202.195062 169.124499 
L 202.503367 169.124499 
L 202.503367 169.04124 
L 202.606135 168.708205 
L 202.811672 168.624946 
L 202.91444 168.458428 
L 203.119977 168.208652 
L 203.53105 168.208652 
L 203.53105 168.042134 
L 203.736587 168.042134 
L 203.736587 167.875616 
L 204.14766 167.792357 
L 204.14766 167.542581 
L 204.558734 167.542581 
L 204.661502 167.209545 
L 204.867039 167.043028 
L 204.969807 166.626733 
L 205.380881 166.543474 
L 205.483649 166.460216 
L 206.100259 166.376957 
L 206.203027 166.043921 
L 206.716869 165.960662 
L 206.716869 165.877403 
L 206.819637 165.877403 
L 206.922406 165.794145 
L 207.230711 165.710886 
L 207.230711 165.627627 
L 207.744553 165.544368 
L 207.744553 165.461109 
L 208.566699 165.37785 
L 208.669468 165.211332 
L 208.772236 165.211332 
L 208.977773 165.044815 
L 209.697151 164.961556 
L 209.697151 164.878297 
L 210.622066 164.878297 
L 210.622066 164.62852 
L 210.724835 164.62852 
L 210.930371 164.62852 
L 210.930371 164.545261 
L 211.341445 164.212226 
L 211.546981 164.212226 
L 211.64975 163.462896 
L 212.060823 163.462896 
L 212.060823 163.129861 
L 212.471896 163.046602 
L 212.677433 162.796825 
L 213.088506 162.713566 
L 213.191275 162.46379 
L 213.396812 162.46379 
L 213.49958 162.214013 
L 213.807885 162.214013 
L 213.807885 162.047495 
L 214.321727 162.047495 
L 214.424495 161.464683 
L 214.630032 161.464683 
L 214.630032 161.381424 
L 214.7328 161.131648 
L 215.041105 161.048389 
L 215.143873 160.798612 
L 215.554947 160.548836 
L 215.554947 160.049283 
L 215.96602 159.966024 
L 215.96602 159.882765 
L 216.274325 159.799506 
L 216.377094 159.46647 
L 216.685399 159.383212 
L 216.685399 159.299953 
L 217.404777 159.216694 
L 217.404777 159.133435 
L 217.713082 159.133435 
L 217.713082 158.883658 
L 218.021387 158.883658 
L 218.226924 158.717141 
L 218.226924 158.550623 
L 218.535229 158.467364 
L 218.535229 158.217587 
L 218.843534 158.134329 
L 219.254607 157.967811 
L 219.254607 157.884552 
L 219.357376 157.884552 
L 219.768449 157.551516 
L 220.487827 157.468258 
L 220.487827 157.30174 
L 220.693364 157.30174 
L 220.693364 157.135222 
L 220.898901 157.135222 
L 220.898901 156.968704 
L 221.309974 156.885445 
L 221.309974 156.802187 
L 221.823816 156.802187 
L 222.132121 156.635669 
L 222.234889 156.219375 
L 222.440426 156.052857 
L 223.057036 155.969598 
L 223.262573 155.636562 
L 223.673646 155.553304 
L 223.673646 155.470045 
L 224.187488 155.386786 
L 224.187488 155.303527 
L 225.009635 155.303527 
L 225.009635 155.137009 
L 225.523476 155.05375 
L 225.626245 154.720715 
L 226.140086 154.637456 
L 226.242855 154.554197 
L 226.55116 154.470938 
L 226.55116 154.30442 
L 226.962233 154.30442 
L 227.065001 154.054644 
L 227.887148 153.971385 
L 227.887148 153.804867 
L 227.989917 153.804867 
L 228.40099 153.555091 
L 228.503758 153.222055 
L 228.914832 153.138796 
L 229.223137 152.972279 
L 229.223137 152.88902 
L 229.428673 152.88902 
L 229.428673 152.722502 
L 229.736978 152.639243 
L 230.353588 152.13969 
L 230.456357 151.889913 
L 230.661894 151.889913 
L 230.764662 151.556878 
L 231.072967 151.307101 
L 231.48404 151.223842 
L 231.586809 151.057325 
L 231.895114 151.057325 
L 231.895114 150.890807 
L 231.997882 150.890807 
L 232.511724 150.890807 
L 232.511724 150.724289 
L 232.71726 150.64103 
L 232.71726 150.391254 
L 232.820029 150.391254 
L 233.333871 150.391254 
L 233.333871 150.224736 
L 233.847712 150.224736 
L 233.847712 150.058218 
L 234.258786 149.974959 
L 234.258786 149.808442 
L 235.286469 149.808442 
L 235.389237 149.225629 
L 235.492006 148.975853 
L 235.697542 148.975853 
L 235.697542 148.892594 
L 236.005847 148.559558 
L 236.725226 148.4763 
L 236.725226 148.393041 
L 237.444604 148.309782 
L 237.547373 148.060005 
L 238.061214 147.976746 
L 238.061214 147.810229 
L 238.677824 147.72697 
L 238.986129 147.393934 
L 239.088898 147.227417 
L 239.397203 147.144158 
L 239.397203 147.060899 
L 239.60274 147.060899 
L 239.60274 146.894381 
L 239.705508 146.894381 
L 239.911045 146.894381 
L 239.911045 146.727863 
L 240.322118 146.644604 
L 240.424886 146.478087 
L 241.45257 146.394828 
L 241.658106 146.22831 
L 242.171948 146.22831 
L 242.171948 145.978534 
L 242.377485 145.978534 
L 242.377485 145.895275 
L 242.583022 145.562239 
L 242.68579 145.562239 
L 242.68579 145.229204 
L 243.199632 145.145945 
L 243.3024 144.979427 
L 243.507937 144.896168 
L 243.507937 144.812909 
L 244.124547 144.812909 
L 244.124547 144.646392 
L 244.432852 144.563133 
L 244.53562 144.479874 
L 244.638388 144.230097 
L 245.254999 144.230097 
L 245.254999 144.146838 
L 245.357767 144.06358 
L 245.357767 143.730544 
L 245.563304 143.730544 
L 245.666072 143.397509 
L 245.974377 143.397509 
L 245.974377 143.31425 
L 246.077145 143.230991 
L 246.693755 143.147732 
L 246.693755 143.064473 
L 247.00206 142.981214 
L 247.00206 142.814696 
L 248.235281 142.814696 
L 248.338049 142.481661 
L 248.954659 142.481661 
L 249.057427 141.982108 
L 249.982342 141.898849 
L 250.085111 141.649072 
L 250.187879 141.649072 
L 250.187879 141.565813 
L 250.496184 141.316037 
L 251.010026 141.232778 
L 251.010026 141.06626 
L 251.523868 140.983001 
L 251.523868 140.899742 
L 251.729404 140.899742 
L 251.729404 140.649966 
L 252.243246 140.566707 
L 252.346014 140.400189 
L 252.551551 140.31693 
L 252.757088 140.150413 
L 252.757088 139.983895 
L 253.065393 139.983895 
L 253.270929 139.734118 
L 253.784771 139.650859 
L 254.195845 139.401083 
L 254.401381 139.317824 
L 254.50415 138.984788 
L 255.017991 138.90153 
L 255.017991 138.735012 
L 255.12076 138.735012 
L 255.326296 138.735012 
L 255.326296 138.568494 
L 255.429065 138.568494 
L 255.73737 138.401976 
L 256.456748 138.318717 
L 256.456748 138.235459 
L 256.867822 138.235459 
L 256.867822 138.1522 
L 256.867822 137.985682 
L 256.97059 137.985682 
L 257.176127 137.985682 
L 257.176127 137.902423 
L 257.278895 137.819164 
L 258.101042 137.819164 
L 258.101042 137.652647 
L 258.306578 137.652647 
L 258.409347 137.236352 
L 258.512115 136.903317 
L 258.717652 136.903317 
L 258.82042 136.487022 
L 259.231494 136.403763 
L 259.334262 136.070728 
L 259.642567 135.987469 
L 259.642567 135.90421 
L 260.361945 135.820951 
L 260.464714 135.737693 
L 260.773019 135.737693 
L 260.978555 135.571175 
L 261.389629 135.571175 
L 261.389629 135.487916 
L 261.389629 135.321398 
L 261.800702 135.238139 
L 261.800702 135.15488 
L 262.725617 135.071622 
L 262.725617 134.988363 
L 263.136691 134.905104 
L 263.547764 134.488809 
L 264.061606 134.405551 
L 264.061606 134.322292 
L 264.986521 134.239033 
L 265.089289 134.155774 
L 265.192058 133.822739 
L 265.294826 133.822739 
L 265.294826 133.73948 
L 265.294826 133.572962 
L 265.500363 133.572962 
L 265.500363 132.99015 
L 265.705899 132.99015 
L 265.705899 132.823632 
L 266.014204 132.823632 
L 266.014204 132.573855 
L 266.528046 132.490597 
L 266.528046 132.407338 
L 267.041888 132.324079 
L 267.041888 132.24082 
L 267.555729 132.157561 
L 267.555729 132.074302 
L 268.069571 131.991043 
L 268.069571 131.907784 
L 268.275108 131.907784 
L 268.377876 131.408231 
L 268.686181 131.408231 
L 268.686181 131.241714 
L 268.78895 131.241714 
L 269.097255 131.158455 
L 270.02217 131.075196 
L 270.124938 130.825419 
L 270.536012 130.74216 
L 270.63878 130.575643 
L 271.049853 130.492384 
L 271.152622 130.325866 
L 272.48861 130.242607 
L 272.694147 129.826313 
L 272.899683 129.826313 
L 272.899683 129.743054 
L 273.207988 129.493277 
L 273.516294 129.410018 
L 273.516294 128.910465 
L 273.927367 128.827206 
L 274.235672 128.494171 
L 274.33844 128.410912 
L 274.441209 127.994618 
L 274.95505 127.911359 
L 274.95505 127.8281 
L 275.982734 127.744841 
L 275.982734 127.661582 
L 276.188271 127.661582 
L 276.599344 126.912252 
L 276.599344 126.745735 
L 276.907649 126.745735 
L 277.010417 126.495958 
L 277.524259 126.412699 
L 277.729796 126.246181 
L 278.140869 126.162922 
L 278.449174 125.996405 
L 278.757479 125.913146 
L 278.757479 125.746628 
L 279.476858 125.663369 
L 279.476858 125.58011 
L 279.682394 125.58011 
L 279.682394 125.413593 
L 280.196236 125.330334 
L 280.401773 125.163816 
L 280.401773 124.997298 
L 281.018383 124.914039 
L 282.046066 124.581004 
L 282.046066 124.331227 
L 282.45714 124.247968 
L 282.45714 123.831674 
L 282.559908 123.831674 
L 282.970981 123.581898 
L 283.382055 123.498639 
L 283.587591 123.332121 
L 283.895896 123.332121 
L 283.895896 123.248862 
L 283.998665 123.165603 
L 284.615275 123.082344 
L 284.615275 122.999085 
L 284.820812 122.915827 
L 284.820812 122.749309 
L 285.129117 122.66605 
L 285.231885 122.499532 
L 285.437422 122.499532 
L 285.437422 122.416273 
L 285.745727 122.249756 
L 286.362337 122.166497 
L 286.77341 121.833461 
L 286.77341 121.666943 
L 286.876178 121.666943 
L 287.184483 121.500426 
L 287.184483 121.417167 
L 287.287252 121.417167 
L 287.39002 121.333908 
L 288.212167 121.250649 
L 288.417704 121.000873 
L 288.520472 120.751096 
L 289.445387 120.667837 
L 289.445387 120.584578 
L 289.548155 120.584578 
L 289.753692 120.584578 
L 289.753692 120.41806 
L 290.061997 120.41806 
L 290.061997 120.334802 
L 290.781376 119.835248 
L 290.884144 119.502213 
L 291.397986 119.418954 
L 291.500754 119.252436 
L 291.809059 119.085919 
L 291.911827 118.836142 
L 292.117364 118.752883 
L 292.733974 118.336589 
L 292.939511 118.336589 
L 292.939511 118.170071 
L 293.247816 118.086812 
L 293.864426 117.670518 
L 294.378268 117.670518 
L 294.378268 117.504 
L 294.994878 117.504 
L 295.303183 117.170965 
L 295.817024 117.004447 
L 296.022561 117.004447 
L 296.022561 116.921188 
L 296.330866 116.75467 
L 297.153013 116.671411 
L 297.35855 116.421635 
L 297.35855 116.338376 
L 297.769623 116.338376 
L 297.872391 116.088599 
L 298.180696 115.838823 
L 298.180696 115.672305 
L 298.283465 115.672305 
L 298.489001 115.672305 
L 298.900075 115.422528 
L 299.20838 115.422528 
L 299.20838 115.339269 
L 299.311148 115.256011 
L 299.311148 115.089493 
L 299.722222 115.006234 
L 299.82499 114.506681 
L 299.927758 114.423422 
L 300.544368 114.340163 
L 300.544368 114.173645 
L 302.085894 114.090386 
L 302.085894 113.757351 
L 302.702504 113.674092 
L 302.805272 113.257798 
L 302.90804 113.257798 
L 302.90804 113.008021 
L 303.113577 113.008021 
L 303.113577 112.924762 
L 303.216345 112.758244 
L 304.655102 112.674986 
L 304.655102 112.508468 
L 305.066176 112.508468 
L 305.066176 112.425209 
L 305.168944 112.258691 
L 305.271712 111.925656 
L 305.785554 111.842397 
L 305.785554 111.759138 
L 305.888322 111.759138 
L 306.607701 111.675879 
L 306.710469 111.342844 
L 307.018774 111.342844 
L 307.018774 111.093067 
L 307.224311 111.093067 
L 307.224311 111.009808 
L 307.429847 110.926549 
L 308.149226 110.84329 
L 308.354763 110.760032 
L 308.663068 110.760032 
L 308.663068 110.510255 
L 308.971373 110.510255 
L 308.971373 110.426996 
L 309.176909 110.343737 
L 309.382446 110.177219 
L 310.410129 110.177219 
L 310.410129 110.010702 
L 310.615666 110.010702 
L 310.615666 109.760925 
L 310.923971 109.760925 
L 310.923971 109.594407 
L 311.437813 109.511148 
L 312.054423 109.42789 
L 312.157191 109.094854 
L 312.568265 109.094854 
L 313.184875 108.928336 
L 313.287643 108.428783 
L 313.49318 108.345524 
L 313.904253 108.095748 
L 314.007022 108.012489 
L 314.315327 107.92923 
L 314.315327 107.679453 
L 314.520863 107.679453 
L 314.520863 107.512936 
L 314.931937 107.512936 
L 314.931937 107.429677 
L 315.034705 107.346418 
L 315.240242 107.346418 
L 315.240242 107.263159 
L 315.445778 107.013382 
L 315.548547 107.013382 
L 315.856852 106.680347 
L 315.95962 106.597088 
L 316.678999 106.513829 
L 316.678999 106.43057 
L 316.781767 106.43057 
L 317.19284 106.097535 
L 317.398377 106.097535 
L 317.603914 105.931017 
L 317.706682 105.514723 
L 317.80945 105.514723 
L 317.80945 105.348205 
L 318.528829 105.264946 
L 318.528829 104.765393 
L 319.145439 104.682134 
L 319.248207 104.349099 
L 319.453744 104.26584 
L 319.659281 104.099322 
L 319.864817 104.099322 
L 319.967586 103.849545 
L 320.070354 103.849545 
L 320.070354 103.683028 
L 320.584196 103.183474 
L 320.686964 102.933698 
L 320.789732 102.933698 
L 320.995269 102.600662 
L 321.303574 102.600662 
L 321.406342 102.184368 
L 321.509111 102.184368 
L 321.611879 101.684815 
L 322.022953 101.601556 
L 322.022953 101.518297 
L 322.639563 101.435038 
L 322.742331 101.018744 
L 323.050636 100.935485 
L 323.564478 100.768967 
L 323.564478 100.602449 
L 324.078319 100.519191 
L 324.078319 100.435932 
L 324.181088 100.435932 
L 324.694929 100.352673 
L 324.694929 100.186155 
L 325.31154 100.102896 
L 325.414308 99.769861 
L 325.619845 99.769861 
L 325.825381 99.436825 
L 326.236455 99.436825 
L 326.236455 99.270307 
L 326.647528 99.270307 
L 326.647528 99.020531 
L 326.750296 99.020531 
L 326.955833 98.854013 
L 327.16137 98.854013 
L 327.16137 98.687495 
L 327.366906 98.687495 
L 327.366906 98.604237 
L 328.086285 98.271201 
L 328.291822 98.271201 
L 328.291822 98.021424 
L 328.805663 97.938166 
L 328.908432 97.771648 
L 329.0112 97.771648 
L 329.0112 97.60513 
L 329.113968 97.60513 
L 329.216737 97.521871 
L 329.525042 97.521871 
L 330.347188 97.105577 
L 330.963799 96.606024 
L 331.785945 96.522765 
L 331.785945 96.272988 
L 331.888714 96.272988 
L 332.299787 96.189729 
L 332.299787 96.10647 
L 332.402555 96.10647 
L 332.505324 96.023212 
L 332.608092 95.773435 
L 332.813629 95.690176 
L 332.813629 95.606917 
L 332.916397 95.606917 
L 333.121934 95.357141 
L 333.635776 95.357141 
L 333.841312 95.190623 
L 334.766227 95.107364 
L 334.766227 95.024105 
L 335.177301 94.940846 
L 335.280069 94.607811 
L 336.616058 94.524552 
L 336.718826 94.358034 
L 336.924363 94.358034 
L 336.924363 94.108258 
L 337.540973 94.108258 
L 337.643741 93.525445 
L 337.952046 93.442187 
L 338.054814 93.19241 
L 338.260351 93.19241 
L 338.260351 93.109151 
L 338.671424 93.025892 
L 338.774193 93.025892 
L 338.979729 92.776116 
L 339.185266 92.692857 
L 339.185266 92.609598 
L 339.390803 92.609598 
L 339.390803 92.526339 
L 339.493571 92.359821 
L 340.110181 92.276562 
L 340.21295 92.193304 
L 340.624023 92.193304 
L 341.343401 91.69375 
L 341.343401 91.360715 
L 341.754475 91.027679 
L 342.06278 90.94442 
L 342.165548 90.777903 
L 342.67939 90.694644 
L 342.782158 90.361608 
L 342.884927 90.361608 
L 342.884927 90.195091 
L 342.987695 90.195091 
L 343.193232 90.195091 
L 343.193232 90.111832 
L 343.501537 89.778796 
L 343.501537 89.695537 
L 344.015378 89.612279 
L 344.323683 89.195984 
L 344.52922 89.112725 
L 344.734757 88.946208 
L 345.248599 88.613172 
L 346.37905 88.529913 
L 346.481819 88.363396 
L 346.584587 88.363396 
L 346.584587 88.280137 
L 346.892892 88.196878 
L 346.892892 88.03036 
L 346.99566 88.03036 
L 347.406734 87.947101 
L 347.509502 87.697325 
L 347.612271 87.697325 
L 347.612271 87.530807 
L 347.817807 87.530807 
L 347.920576 87.197771 
L 348.228881 87.114512 
L 348.331649 86.947995 
L 348.434417 86.781477 
L 348.639954 86.781477 
L 348.639954 86.698218 
L 349.770406 86.448442 
L 349.770406 86.281924 
L 349.873174 86.281924 
L 349.975942 86.198665 
L 349.975942 85.948888 
L 350.284247 85.948888 
L 350.592553 85.782371 
L 350.798089 85.782371 
L 350.798089 85.449335 
L 351.620236 85.366076 
L 351.620236 85.033041 
L 351.928541 85.033041 
L 351.928541 84.700005 
L 352.956224 84.616746 
L 352.956224 84.450229 
L 354.086676 84.36697 
L 354.086676 84.033934 
L 355.217128 83.950675 
L 355.217128 83.784158 
L 356.039275 83.367863 
L 356.142043 83.118087 
L 356.244812 83.034828 
L 356.34758 82.618534 
L 357.169727 82.535275 
L 357.272495 82.452016 
L 357.272495 82.285498 
L 357.375263 82.285498 
L 358.094642 82.202239 
L 358.094642 81.869204 
L 358.300178 81.869204 
L 358.300178 81.702686 
L 358.711252 81.702686 
L 358.711252 81.452909 
L 359.43063 81.36965 
L 359.533399 81.203133 
L 359.944472 81.119874 
L 360.04724 80.870097 
L 360.355545 80.870097 
L 360.355545 80.786838 
L 360.869387 80.287285 
L 361.999839 80.204026 
L 361.999839 80.120767 
L 362.102607 80.120767 
L 362.205376 79.870991 
L 362.513681 79.870991 
L 362.513681 79.537955 
L 362.719217 79.537955 
L 362.821986 79.038402 
L 362.924754 79.038402 
L 363.130291 78.871884 
L 363.233059 78.372331 
L 363.335827 78.372331 
L 363.335827 78.289072 
L 363.746901 78.122555 
L 363.746901 77.956037 
L 364.055206 77.956037 
L 364.055206 77.872778 
L 364.260742 77.539742 
L 364.877353 77.456484 
L 364.980121 77.206707 
L 365.082889 77.206707 
L 365.082889 77.040189 
L 365.185658 77.040189 
L 365.391194 76.95693 
L 365.493963 76.790413 
L 366.213341 76.707154 
L 366.316109 76.540636 
L 366.521646 76.540636 
L 366.521646 76.457377 
L 366.727183 76.290859 
L 367.446561 76.207601 
L 367.857635 75.957824 
L 367.960403 75.624788 
L 368.371476 75.54153 
L 368.474245 75.375012 
L 368.577013 75.375012 
L 368.78255 75.125235 
L 369.090855 75.041976 
L 369.193623 74.958717 
L 369.604696 74.875459 
L 370.118538 74.708941 
L 370.324075 74.542423 
L 370.735148 74.459164 
L 370.735148 74.375905 
L 370.837917 74.375905 
L 370.940685 74.292647 
L 371.557295 74.209388 
L 371.8656 74.04287 
L 372.379442 74.04287 
L 372.379442 73.709834 
L 373.612662 73.626576 
L 373.71543 73.543317 
L 374.33204 73.460058 
L 374.434809 73.210281 
L 375.359724 73.127022 
L 375.359724 72.960505 
L 375.668029 72.877246 
L 375.668029 72.793987 
L 375.976334 72.793987 
L 376.079102 72.460951 
L 376.181871 72.460951 
L 376.284639 72.294434 
L 376.490176 72.294434 
L 376.490176 71.961398 
L 377.209554 71.878139 
L 377.209554 71.79488 
L 377.723396 71.79488 
L 377.723396 71.628363 
L 378.648311 71.545104 
L 378.648311 71.461845 
L 378.956616 71.461845 
L 379.162153 70.962292 
L 379.470458 70.545997 
L 379.573226 70.545997 
L 379.675994 70.37948 
L 380.087068 70.129703 
L 380.189836 69.63015 
L 380.292604 69.546891 
L 380.909214 69.546891 
L 380.909214 69.463632 
L 381.320288 69.130597 
L 381.834129 69.047338 
L 382.039666 68.88082 
L 382.553508 68.381267 
L 383.06735 67.881714 
L 383.375655 67.881714 
L 383.375655 67.798455 
L 383.375655 67.631937 
L 384.608875 67.548678 
L 384.608875 67.38216 
L 385.122717 67.298901 
L 385.328253 67.132384 
L 385.739327 67.132384 
L 385.842095 66.882607 
L 387.075315 66.63283 
L 387.691925 66.63283 
L 387.794694 66.299795 
L 388.514072 66.216536 
L 388.719609 66.133277 
L 389.130682 65.96676 
L 389.85006 65.883501 
L 389.952829 65.550465 
L 390.363902 65.467206 
L 390.672207 65.300689 
L 391.083281 65.300689 
L 391.597122 64.551359 
L 392.419269 64.4681 
L 392.727574 64.301582 
L 392.830342 64.301582 
L 393.035879 64.051806 
L 393.035879 63.71877 
L 393.138647 63.71877 
L 394.063563 63.635511 
L 394.166331 63.302476 
L 394.371868 63.302476 
L 394.782941 62.96944 
L 394.782941 62.802922 
L 394.885709 62.802922 
L 395.091246 62.636405 
L 395.296783 62.553146 
L 396.221698 62.469887 
L 396.221698 62.386628 
L 396.838308 62.136852 
L 396.838308 62.053593 
L 397.454918 61.970334 
L 399.099212 61.387522 
L 399.510285 61.387522 
L 400.024127 60.887968 
L 400.4352 60.887968 
L 400.4352 60.80471 
L 400.743505 60.638192 
L 400.743505 60.388415 
L 400.846273 60.388415 
L 401.462883 60.05538 
L 401.462883 59.639085 
L 401.66842 59.639085 
L 401.66842 59.472568 
L 401.976725 59.389309 
L 402.90164 59.056273 
L 402.90164 58.889756 
L 403.107177 58.889756 
L 403.107177 58.806497 
L 403.312714 58.55672 
L 403.929324 58.55672 
L 405.162544 58.223685 
L 405.368081 58.223685 
L 405.368081 58.057167 
L 405.470849 58.057167 
L 405.676386 57.640873 
L 405.881922 57.640873 
L 407.115142 57.05806 
L 407.115142 56.891543 
L 407.628984 56.391989 
L 407.731753 56.391989 
L 407.731753 56.225472 
L 408.142826 56.225472 
L 408.656668 55.64266 
L 409.273278 55.64266 
L 414.72 54.144 
L 414.72 54.144 
" clip-path="url(#pc915e89eb8)" style="fill: none; stroke: #1f77b4; stroke-width: 1.5; stroke-linecap: square"/>
   </g>
   <g id="line2d_14">
    <path d="M 57.6 307.584 
L 414.72 54.144 
" clip-path="url(#pc915e89eb8)" style="fill: none; stroke-dasharray: 5.55,2.4; stroke-dashoffset: 0; stroke: #000000; stroke-width: 1.5"/>
   </g>
   <g id="patch_3">
    <path d="M 57.6 307.584 
L 57.6 41.472 
" style="fill: none; stroke: #000000; stroke-width: 0.8; stroke-linejoin: miter; stroke-linecap: square"/>
   </g>
   <g id="patch_4">
    <path d="M 414.72 307.584 
L 414.72 41.472 
" style="fill: none; stroke: #000000; stroke-width: 0.8; stroke-linejoin: miter; stroke-linecap: square"/>
   </g>
   <g id="patch_5">
    <path d="M 57.6 307.584 
L 414.72 307.584 
" style="fill: none; stroke: #000000; stroke-width: 0.8; stroke-linejoin: miter; stroke-linecap: square"/>
   </g>
   <g id="patch_6">
    <path d="M 57.6 41.472 
L 414.72 41.472 
" style="fill: none; stroke: #000000; stroke-width: 0.8; stroke-linejoin: miter; stroke-linecap: square"/>
   </g>
   <g id="text_15">
    <!-- Receiver Operating Characteristic -->
    <g transform="translate(134.656875 35.472) scale(0.12 -0.12)">
     <defs>
      <path id="DejaVuSans-63" d="M 3122 3366 
L 3122 2828 
Q 2878 2963 2633 3030 
Q 2388 3097 2138 3097 
Q 1578 3097 1268 2742 
Q 959 2388 959 1747 
Q 959 1106 1268 751 
Q 1578 397 2138 397 
Q 2388 397 2633 464 
Q 2878 531 3122 666 
L 3122 134 
Q 2881 22 2623 -34 
Q 2366 -91 2075 -91 
Q 1284 -91 818 406 
Q 353 903 353 1747 
Q 353 2603 823 3093 
Q 1294 3584 2113 3584 
Q 2378 3584 2631 3529 
Q 2884 3475 3122 3366 
z
" transform="scale(0.015625)"/>
      <path id="DejaVuSans-4f" d="M 2522 4238 
Q 1834 4238 1429 3725 
Q 1025 3213 1025 2328 
Q 1025 1447 1429 934 
Q 1834 422 2522 422 
Q 3209 422 3611 934 
Q 4013 1447 4013 2328 
Q 4013 3213 3611 3725 
Q 3209 4238 2522 4238 
z
M 2522 4750 
Q 3503 4750 4090 4092 
Q 4678 3434 4678 2328 
Q 4678 1225 4090 567 
Q 3503 -91 2522 -91 
Q 1538 -91 948 565 
Q 359 1222 359 2328 
Q 359 3434 948 4092 
Q 1538 4750 2522 4750 
z
" transform="scale(0.015625)"/>
      <path id="DejaVuSans-70" d="M 1159 525 
L 1159 -1331 
L 581 -1331 
L 581 3500 
L 1159 3500 
L 1159 2969 
Q 1341 3281 1617 3432 
Q 1894 3584 2278 3584 
Q 2916 3584 3314 3078 
Q 3713 2572 3713 1747 
Q 3713 922 3314 415 
Q 2916 -91 2278 -91 
Q 1894 -91 1617 61 
Q 1341 213 1159 525 
z
M 3116 1747 
Q 3116 2381 2855 2742 
Q 2594 3103 2138 3103 
Q 1681 3103 1420 2742 
Q 1159 2381 1159 1747 
Q 1159 1113 1420 752 
Q 1681 391 2138 391 
Q 2594 391 2855 752 
Q 3116 1113 3116 1747 
z
" transform="scale(0.015625)"/>
      <path id="DejaVuSans-6e" d="M 3513 2113 
L 3513 0 
L 2938 0 
L 2938 2094 
Q 2938 2591 2744 2837 
Q 2550 3084 2163 3084 
Q 1697 3084 1428 2787 
Q 1159 2491 1159 1978 
L 1159 0 
L 581 0 
L 581 3500 
L 1159 3500 
L 1159 2956 
Q 1366 3272 1645 3428 
Q 1925 3584 2291 3584 
Q 2894 3584 3203 3211 
Q 3513 2838 3513 2113 
z
" transform="scale(0.015625)"/>
      <path id="DejaVuSans-67" d="M 2906 1791 
Q 2906 2416 2648 2759 
Q 2391 3103 1925 3103 
Q 1463 3103 1205 2759 
Q 947 2416 947 1791 
Q 947 1169 1205 825 
Q 1463 481 1925 481 
Q 2391 481 2648 825 
Q 2906 1169 2906 1791 
z
M 3481 434 
Q 3481 -459 3084 -895 
Q 2688 -1331 1869 -1331 
Q 1566 -1331 1297 -1286 
Q 1028 -1241 775 -1147 
L 775 -588 
Q 1028 -725 1275 -790 
Q 1522 -856 1778 -856 
Q 2344 -856 2625 -561 
Q 2906 -266 2906 331 
L 2906 616 
Q 2728 306 2450 153 
Q 2172 0 1784 0 
Q 1141 0 747 490 
Q 353 981 353 1791 
Q 353 2603 747 3093 
Q 1141 3584 1784 3584 
Q 2172 3584 2450 3431 
Q 2728 3278 2906 2969 
L 2906 3500 
L 3481 3500 
L 3481 434 
z
" transform="scale(0.015625)"/>
      <path id="DejaVuSans-43" d="M 4122 4306 
L 4122 3641 
Q 3803 3938 3442 4084 
Q 3081 4231 2675 4231 
Q 1875 4231 1450 3742 
Q 1025 3253 1025 2328 
Q 1025 1406 1450 917 
Q 1875 428 2675 428 
Q 3081 428 3442 575 
Q 3803 722 4122 1019 
L 4122 359 
Q 3791 134 3420 21 
Q 3050 -91 2638 -91 
Q 1578 -91 968 557 
Q 359 1206 359 2328 
Q 359 3453 968 4101 
Q 1578 4750 2638 4750 
Q 3056 4750 3426 4639 
Q 3797 4528 4122 4306 
z
" transform="scale(0.015625)"/>
      <path id="DejaVuSans-68" d="M 3513 2113 
L 3513 0 
L 2938 0 
L 2938 2094 
Q 2938 2591 2744 2837 
Q 2550 3084 2163 3084 
Q 1697 3084 1428 2787 
Q 1159 2491 1159 1978 
L 1159 0 
L 581 0 
L 581 4863 
L 1159 4863 
L 1159 2956 
Q 1366 3272 1645 3428 
Q 1925 3584 2291 3584 
Q 2894 3584 3203 3211 
Q 3513 2838 3513 2113 
z
" transform="scale(0.015625)"/>
     </defs>
     <use xlink:href="#DejaVuSans-52"/>
     <use xlink:href="#DejaVuSans-65" x="64.982422"/>
     <use xlink:href="#DejaVuSans-63" x="126.505859"/>
     <use xlink:href="#DejaVuSans-65" x="181.486328"/>
     <use xlink:href="#DejaVuSans-69" x="243.009766"/>
     <use xlink:href="#DejaVuSans-76" x="270.792969"/>
     <use xlink:href="#DejaVuSans-65" x="329.972656"/>
     <use xlink:href="#DejaVuSans-72" x="391.496094"/>
     <use xlink:href="#DejaVuSans-20" x="432.609375"/>
     <use xlink:href="#DejaVuSans-4f" x="464.396484"/>
     <use xlink:href="#DejaVuSans-70" x="543.107422"/>
     <use xlink:href="#DejaVuSans-65" x="606.583984"/>
     <use xlink:href="#DejaVuSans-72" x="668.107422"/>
     <use xlink:href="#DejaVuSans-61" x="709.220703"/>
     <use xlink:href="#DejaVuSans-74" x="770.5"/>
     <use xlink:href="#DejaVuSans-69" x="809.708984"/>
     <use xlink:href="#DejaVuSans-6e" x="837.492188"/>
     <use xlink:href="#DejaVuSans-67" x="900.871094"/>
     <use xlink:href="#DejaVuSans-20" x="964.347656"/>
     <use xlink:href="#DejaVuSans-43" x="996.134766"/>
     <use xlink:href="#DejaVuSans-68" x="1065.958984"/>
     <use xlink:href="#DejaVuSans-61" x="1129.337891"/>
     <use xlink:href="#DejaVuSans-72" x="1190.617188"/>
     <use xlink:href="#DejaVuSans-61" x="1231.730469"/>
     <use xlink:href="#DejaVuSans-63" x="1293.009766"/>
     <use xlink:href="#DejaVuSans-74" x="1347.990234"/>
     <use xlink:href="#DejaVuSans-65" x="1387.199219"/>
     <use xlink:href="#DejaVuSans-72" x="1448.722656"/>
     <use xlink:href="#DejaVuSans-69" x="1489.835938"/>
     <use xlink:href="#DejaVuSans-73" x="1517.619141"/>
     <use xlink:href="#DejaVuSans-74" x="1569.71875"/>
     <use xlink:href="#DejaVuSans-69" x="1608.927734"/>
     <use xlink:href="#DejaVuSans-63" x="1636.710938"/>
    </g>
   </g>
   <g id="legend_1">
    <g id="patch_7">
     <path d="M 252.441875 302.584 
L 407.72 302.584 
Q 409.72 302.584 409.72 300.584 
L 409.72 286.905875 
Q 409.72 284.905875 407.72 284.905875 
L 252.441875 284.905875 
Q 250.441875 284.905875 250.441875 286.905875 
L 250.441875 300.584 
Q 250.441875 302.584 252.441875 302.584 
z
" style="fill: #ffffff; opacity: 0.8; stroke: #cccccc; stroke-linejoin: miter"/>
    </g>
    <g id="line2d_15">
     <path d="M 254.441875 293.004312 
L 264.441875 293.004312 
L 274.441875 293.004312 
" style="fill: none; stroke: #1f77b4; stroke-width: 1.5; stroke-linecap: square"/>
    </g>
    <g id="text_16">
     <!-- ROC curve (area = 0.58) -->
     <g transform="translate(282.441875 296.504312) scale(0.1 -0.1)">
      <defs>
       <path id="DejaVuSans-28" d="M 1984 4856 
Q 1566 4138 1362 3434 
Q 1159 2731 1159 2009 
Q 1159 1288 1364 580 
Q 1569 -128 1984 -844 
L 1484 -844 
Q 1016 -109 783 600 
Q 550 1309 550 2009 
Q 550 2706 781 3412 
Q 1013 4119 1484 4856 
L 1984 4856 
z
" transform="scale(0.015625)"/>
       <path id="DejaVuSans-3d" d="M 678 2906 
L 4684 2906 
L 4684 2381 
L 678 2381 
L 678 2906 
z
M 678 1631 
L 4684 1631 
L 4684 1100 
L 678 1100 
L 678 1631 
z
" transform="scale(0.015625)"/>
       <path id="DejaVuSans-35" d="M 691 4666 
L 3169 4666 
L 3169 4134 
L 1269 4134 
L 1269 2991 
Q 1406 3038 1543 3061 
Q 1681 3084 1819 3084 
Q 2600 3084 3056 2656 
Q 3513 2228 3513 1497 
Q 3513 744 3044 326 
Q 2575 -91 1722 -91 
Q 1428 -91 1123 -41 
Q 819 9 494 109 
L 494 744 
Q 775 591 1075 516 
Q 1375 441 1709 441 
Q 2250 441 2565 725 
Q 2881 1009 2881 1497 
Q 2881 1984 2565 2268 
Q 2250 2553 1709 2553 
Q 1456 2553 1204 2497 
Q 953 2441 691 2322 
L 691 4666 
z
" transform="scale(0.015625)"/>
       <path id="DejaVuSans-29" d="M 513 4856 
L 1013 4856 
Q 1481 4119 1714 3412 
Q 1947 2706 1947 2009 
Q 1947 1309 1714 600 
Q 1481 -109 1013 -844 
L 513 -844 
Q 928 -128 1133 580 
Q 1338 1288 1338 2009 
Q 1338 2731 1133 3434 
Q 928 4138 513 4856 
z
" transform="scale(0.015625)"/>
      </defs>
      <use xlink:href="#DejaVuSans-52"/>
      <use xlink:href="#DejaVuSans-4f" x="69.482422"/>
      <use xlink:href="#DejaVuSans-43" x="148.193359"/>
      <use xlink:href="#DejaVuSans-20" x="218.017578"/>
      <use xlink:href="#DejaVuSans-63" x="249.804688"/>
      <use xlink:href="#DejaVuSans-75" x="304.785156"/>
      <use xlink:href="#DejaVuSans-72" x="368.164062"/>
      <use xlink:href="#DejaVuSans-76" x="409.277344"/>
      <use xlink:href="#DejaVuSans-65" x="468.457031"/>
      <use xlink:href="#DejaVuSans-20" x="529.980469"/>
      <use xlink:href="#DejaVuSans-28" x="561.767578"/>
      <use xlink:href="#DejaVuSans-61" x="600.78125"/>
      <use xlink:href="#DejaVuSans-72" x="662.060547"/>
      <use xlink:href="#DejaVuSans-65" x="700.923828"/>
      <use xlink:href="#DejaVuSans-61" x="762.447266"/>
      <use xlink:href="#DejaVuSans-20" x="823.726562"/>
      <use xlink:href="#DejaVuSans-3d" x="855.513672"/>
      <use xlink:href="#DejaVuSans-20" x="939.302734"/>
      <use xlink:href="#DejaVuSans-30" x="971.089844"/>
      <use xlink:href="#DejaVuSans-2e" x="1034.712891"/>
      <use xlink:href="#DejaVuSans-35" x="1066.5"/>
      <use xlink:href="#DejaVuSans-38" x="1130.123047"/>
      <use xlink:href="#DejaVuSans-29" x="1193.746094"/>
     </g>
    </g>
   </g>
  </g>
 </g>
 <defs>
  <clipPath id="pc915e89eb8">
   <rect x="57.6" y="41.472" width="357.12" height="266.112"/>
  </clipPath>
 </defs>
</svg>
